<svg width="104" height="156" viewBox="0 0 104 156" fill="none" xmlns="http://www.w3.org/2000/svg">
<g clip-path="url(#clip0)">
<path d="M40.9 1.4C68 -2.9 77.5 6 82.5 9.1C89.2 13.3 96.8 21.8 99.8 28.7C107.6 47 94.2 74.1 78.2 85C57.8 99 28.3 95.6 11 78.2L10.9 78.1C4.79998 72 1.49998 64 1.49998 55.8V38.2C1.49998 30.2 3.99998 22.3 8.89998 15.5L8.99998 15.4C16.3 5.4 28.2 3.4 40.9 1.4Z" fill="#F2CD4C"/>
<path d="M40.9 1.60001L45.7 1.00001C47.3 0.900012 48.9 0.700012 50.5 0.600012C53.7 0.500012 57 0.500012 60.1 1.00001C66.5 1.70001 72.7 3.80001 77.9 7.40001C79.2 8.30001 80.5 9.20001 81.9 10.2C83.2 11.1 84.4 12 85.6 13C88 15.1 90.2 17.3 92.2 19.7C93.2 20.9 94.2 22.2 95.1 23.4C96 24.7 96.8 26 97.6 27.4C99 30.1 100 33.1 100.5 36.1C101 39.2 101 42.3 100.7 45.5C100.4 48.6 99.7 51.8 98.8 54.8C97 60.9 94.1 66.7 90.5 72C88.7 74.6 86.6 77.1 84.3 79.4C82 81.7 79.6 83.7 76.8 85.4C71.4 88.8 65.3 91 59 92.1C46.4 94.1 33.3 91.7 22.4 85.3C21.1 84.4 19.7 83.6 18.5 82.7L16.6 81.3C16 80.8 15.3 80.4 14.8 79.8L13.1 78.2C12.5 77.7 11.9 77.1 11.4 76.6C10.4 75.5 9.39997 74.3 8.49997 73C4.99997 67.9 2.99997 61.9 3.09997 55.7L2.99997 46V41.2C2.99997 39.6 2.89997 38 2.99997 36.4C3.29997 30.2 4.99997 24 8.19997 18.6C9.79996 15.9 11.7 13.3 14.1 11.3C16.5 9.00001 19.3 7.40001 22.2 6.10001C28.1 3.60001 34.6 2.60001 40.9 1.60001ZM40.9 1.30001C37.7 1.80001 34.5 2.30001 31.3 2.90001C28.1 3.50001 25 4.30001 21.9 5.40001C18.8 6.50001 15.9 8.00001 13.2 10C10.6 12 8.39997 14.6 6.49997 17.4C2.79997 22.9 0.499969 29.4 0.099968 36.1C-3.05176e-05 37.8 -3.05176e-05 39.4 -3.05176e-05 41V45.8L-0.100037 55.5C-0.200035 62.3 1.99997 69.1 5.99997 74.6C6.99997 76 8.09997 77.3 9.19997 78.5C9.79996 79.1 10.4 79.7 11 80.2L12.9 81.9C13.5 82.5 14.2 82.9 14.8 83.5L16.8 85C18.2 85.9 19.6 86.8 21 87.7C32.6 94.3 46.4 96.3 59.3 93.7C65.7 92.4 71.9 89.9 77.3 86.3C80.1 84.6 82.6 82.4 84.9 80.1C87.2 77.8 89.3 75.3 91.2 72.7C93.1 70.1 94.8 67.3 96.4 64.4C98 61.5 99.3 58.5 100.4 55.4C102.6 49.2 103.7 42.6 103 35.9C102.5 32.6 101.6 29.3 100 26.3C98.4 23.3 96.5 20.6 94.3 18.1C93.2 16.8 92.1 15.7 90.9 14.5C89.7 13.4 88.5 12.3 87.2 11.2C85.9 10.2 84.5 9.20001 83.1 8.40001C81.8 7.60001 80.4 6.70001 79 5.90001C73.3 2.50001 66.8 0.700012 60.3 0.300012C53.8 -0.299988 47.3 0.200012 40.9 1.30001Z" fill="#63350F"/>
<path d="M78.6999 15C78.3999 18.3 78.0999 21.7 77.3999 25C76.8999 27.2 76.1999 29.4 75.4999 31.5C75.1999 32.3 74.8999 33.1 74.5999 33.9C74.2999 34.6 73.9999 35.4 73.6999 36.1C73.0999 37.5 72.5999 39 71.9999 40.4C71.3999 42 70.8999 43.8 70.3999 45.4C70.2999 45.6 70.2999 45.8 70.1999 46.1C69.8999 46.9 69.6999 47.8 69.3999 48.6C68.7999 50.5 67.9999 52.5 67.0999 54.4C65.1999 58.3 62.6999 62 60.4999 65C60.3999 65.1 60.1999 65.3 59.9999 65.6C59.3999 66.4 58.4999 67.6 57.7999 68.8C56.6999 70.6 56.8999 71 56.8999 71.1L56.3999 71.4C56.3999 73.4 56.3999 75.4 56.3999 77.4C56.3999 88.4 55.5999 99.3 54.6999 110.1C54.5999 110.9 54.5999 111.7 54.4999 112.6C53.3999 124.7 52.0999 136.8 51.4999 149C51.4999 149.8 51.3999 150.6 51.3999 151.4C49.7999 151.2 48.1999 150.9 46.5999 150.7C47.8999 139.1 48.9999 127.5 49.6999 115.9C49.6999 115.1 49.7999 114.3 49.7999 113.5C49.7999 113.1 49.7999 112.8 49.8999 112.4C50.3999 100.3 50.3999 88.2 50.1999 76C40.7999 72.1 30.9999 56 26.2999 47.3C25.6999 46.2 25.1999 45.3 24.7999 44.5C23.8999 42.7 22.9999 40.9 22.1999 39.2C19.8999 34.2 18.2999 29.2 17.3999 23.8C18.6999 27.2 20.1999 30.8 21.9999 34.4C23.2999 37 24.6999 39.6 26.0999 42.2C30.4999 50.1 35.5999 57.6 39.9999 63C43.0999 66.8 47.4999 71.4 50.2999 71.9C50.1999 66.6 50.0999 61.2 49.9999 55.9C38.1999 46.4 30.1999 30 28.7999 10.6H29.4999C31.5999 20.2 35.1999 36.3 41.2999 42.6C43.9999 45.4 46.5999 48.3 49.6999 51.9C49.5999 48.1 49.5999 44.3 49.5999 40.5C49.5999 38.6 48.7999 32.4 48.2999 25.7C47.7999 25.2 47.2999 24.7 46.6999 24.1C46.4999 23.9 46.2999 23.7 46.1999 23.5C43.3999 20.6 40.1999 17 37.7999 13C37.3999 12.2 36.9999 11.4 36.6999 10.7H37.8999C38.1999 11.3 38.4999 11.9 38.7999 12.6C41.0999 16.5 44.1999 20 46.9999 22.9C47.1999 23.1 47.2999 23.3 47.5999 23.5C47.7999 23.7 47.9999 23.9 48.1999 24.1C47.8999 19.4 47.7999 14.5 48.2999 10.7H53.6999C54.0999 18.1 54.5999 25.5 54.9999 32.8C55.5999 32.2 56.0999 31.7 56.1999 31.5C57.3999 30 58.2999 28.4 59.0999 26.7C59.3999 26.1 59.5999 25.6 59.8999 25C60.5999 23.2 61.2999 21.4 61.8999 19.5C62.2999 18.2 62.6999 16.9 63.0999 15.6C63.2999 14.8 63.5999 14 63.7999 13.1C63.9999 12.2 64.1999 11.4 64.3999 10.5H65.4999C65.1999 11.8 64.8999 13.1 64.4999 14.5C64.2999 15.4 63.9999 16.3 63.6999 17.1C63.3999 17.9 63.1999 18.8 62.8999 19.7C62.1999 22 61.3999 24.2 60.3999 26.4C60.0999 27 59.8999 27.6 59.5999 28.1C58.8999 29.5 58.0999 30.8 57.0999 32C56.8999 32.3 55.8999 33.2 54.9999 34.1C55.1999 37.9 55.3999 41.7 55.5999 45.6C56.0999 45 56.6999 44.4 57.1999 43.8C58.2999 42.6 59.3999 41.4 60.3999 40.1C61.2999 38.9 62.0999 37.8 62.7999 36.5C63.1999 35.9 63.5999 35.2 63.8999 34.6C65.5999 31.6 66.8999 28.4 67.9999 24.9C68.2999 23.9 68.5999 22.8 68.8999 21.7C68.9999 21.3 69.0999 20.9 69.1999 20.5C69.5999 19 69.8999 17.4 70.2999 15.9C70.6999 14.1 71.1999 12.3 71.5999 10.5H72.6999C72.2999 12.4 71.7999 14.3 71.3999 16.2C70.9999 17.7 70.6999 19.3 70.2999 20.8C70.0999 21.6 69.8999 22.3 69.6999 23C69.3999 24.1 69.0999 25.1 68.7999 26.1C67.6999 29.6 66.1999 32.8 64.4999 35.8C64.0999 36.4 63.7999 37.1 63.3999 37.7C62.7999 38.7 62.0999 39.7 61.2999 40.7C60.2999 42 59.1999 43.2 58.0999 44.5C57.2999 45.4 56.4999 46.3 55.6999 47.2C55.9999 54.5 56.2999 61.8 56.3999 69.2C56.9999 68.1 57.8999 66.8 59.0999 65.2C59.2999 64.9 59.3999 64.7 59.4999 64.6C61.5999 61.6 64.0999 57.9 65.9999 54.1C67.0999 51.9 67.8999 49.6 68.5999 47.4C68.7999 46.7 68.9999 46 69.1999 45.3C69.1999 45.2 69.2999 45 69.2999 44.9C69.7999 43.4 70.2999 41.8 70.7999 40.2C71.2999 38.8 71.8999 37.3 72.4999 35.9C72.8999 34.9 73.2999 34 73.5999 33C73.8999 32.2 74.1999 31.3 74.4999 30.5C75.0999 28.6 75.6999 26.8 76.0999 24.9C76.9999 20.9 77.2999 16.6 77.5999 12.6C77.5999 12 77.6999 11.4 77.6999 10.7H78.7999C78.6999 11.3 78.6999 12 78.6999 12.6C78.7999 13.4 78.6999 14.2 78.6999 15Z" fill="#63350F"/>
<path d="M16.9999 55C16.2999 55.6 15.5999 55.9 15.0999 55.6L15.6999 56.3C15.8999 56.5 15.8999 56.9 15.7999 57.1C15.2999 58.2 13.6999 58.1 13.1999 57C12.9999 56.5 12.8999 56 12.9999 55.4C12.4999 56 11.8999 56.7 11.1999 57C10.3999 57.5 9.6999 56.4 10.3999 55.8C10.7999 55.5 11.1999 55.3 11.6999 55.3C11.0999 55.3 10.5999 55.1 10.0999 54.9C9.09991 54.4 9.6999 52.8 10.7999 53.1C11.0999 53.2 11.3999 53.3 11.5999 53.4C11.1999 53.2 10.7999 52.8 10.4999 52.5C9.79991 51.5 11.1999 50.3 11.9999 51.3C12.1999 51.6 12.3999 51.9 12.5999 52.2C10.9999 48 16.8999 50.3 15.0999 52.5C16.7999 51.6 18.3999 53.8 16.9999 55Z" fill="#FDDF6C"/>
<path d="M22.5999 10C25.2999 12.1 20.2999 14.2 20.3999 10.8C20.3999 10.8 19.9999 11.2 19.4999 11.7C18.5999 12.6 17.0999 11.4 17.7999 10.3C18.0999 9.90004 18.4999 9.50004 18.8999 9.20004C18.2999 9.50004 17.6999 9.50004 17.1999 9.30004C16.1999 9.00004 16.0999 7.50004 17.1999 7.00004C17.6999 6.80004 18.1999 6.80004 18.6999 7.20004C16.8999 5.00004 21.3999 3.80004 21.4999 7.50004C23.7999 5.30004 25.8999 9.40004 22.5999 10Z" fill="#FDDF6C"/>
<path d="M94.2 42.1C93.8 42.3 93.3 42.5 93 42.5C93.9 42.8 95.1 43.6 94.7 44.3C94.3 45 93.3 44.3 92.6 43.7C92.8 43.9 92.8 44.3 92.6 44.7C92.3 45.4 91.3 45.5 91.2 44.8C91.1 44.2 91.1 43.5 91 42.9C90.7 43.2 90.3 43.6 89.9 43.8C89.5 44.1 89.1 43.6 89.5 43.2C89.9 42.8 90.5 42.4 91 42.1C90.1 42.5 88.8 42.6 88.3 41.9C89.1 40.9 90.5 41 91.4 41.2C90.7 40.9 90.2 40.3 89.8 39.7C90.6 39 91.3 40.3 91.7 40.7C91.7 40.5 91.9 40.1 92.1 39.8C92.5 39.2 93.4 39.6 93 40.2C92.8 40.6 92.5 41 92.4 41.5C92.8 41 93.6 40.9 94.2 41C94.8 41 94.8 41.8 94.2 42.1Z" fill="#FDDF6C"/>
<path d="M18.2 21.8C17.5 22.5 16.8 23.3 15.8 23.3C17 23.5 20.1 24.9 19.7 26.2C19 28 15.9 25.2 15.3 24.6L15.2 24.1C15 24.4 13.2 27.7 12 27.2C10.4 26.5 13.8 23.9 14.4 23.3C12.7 23.5 9.89999 24.9 8.49999 23.3C9.69999 21.7 11.8 22.2 13.4 22.5C12.1 21.5 9.89999 20.5 9.49999 18.8C11.2 18.5 13 20.9 14 22.2C13.4 21.1 12.2 18.9 13.3 18.1C14.6 19.4 14.8 20.3 15 22C16 21 17.4 20.4 18.2 21.8Z" fill="#FDDF6C"/>
<path d="M92.3999 63.9C92.8999 64.6 92.2999 65.4 91.5999 65.9C93.0999 65.8 95.0999 66.4 94.9999 67.5C94.7999 69.2 91.1999 67.9 89.8999 67.2L90.3999 67.5C90.6999 68.2 92.3999 72.8 89.9999 70.6C88.9999 69.6 88.9999 68 89.1999 66.8C88.6999 67.4 87.7999 68.4 86.8999 68.9C86.2999 69.2 85.5999 68.5 85.9999 67.9C86.4999 67.2 87.0999 66.5 87.5999 66.2C85.8999 66.6 83.3999 66.5 83.5999 65.1C83.8999 63.2 88.3999 64.3 89.1999 65.4C88.7999 64.6 87.9999 63.6 87.6999 62.7C87.4999 62 88.3999 61.5 88.7999 62.1C89.4999 62.9 89.7999 64.1 89.8999 65.1C90.1999 64.2 91.5999 62.7 92.3999 63.9Z" fill="#FDDF6C"/>
<path d="M67.2 5.90003C66.8 6.10003 66.3 6.30003 66 6.30003C66.9 6.60003 68.1 7.40003 67.7 8.10003C67.3 8.80003 66.3 8.10003 65.6 7.50003C65.8 7.70003 65.8 8.10003 65.6 8.50003C65.3 9.20003 64.3 9.30003 64.2 8.60003C64.2 8.00003 64.2 7.30003 64 6.70003C63.7 7.00003 63.3 7.40003 62.9 7.60003C62.5 7.90003 62.1 7.40003 62.5 7.00003C62.9 6.60003 63.5 6.20003 64 5.90003C63.1 6.30003 61.8 6.40003 61.3 5.70003C62.1 4.70003 63.5 4.80003 64.4 5.00003C63.7 4.70003 63.2 4.10003 62.8 3.50003C63.6 2.80003 64.3 4.10003 64.7 4.50003C64.7 4.30003 64.9 3.90003 65.1 3.60003C65.5 3.00003 66.4 3.40003 66 4.00003C65.8 4.40003 65.5 4.80003 65.4 5.30003C65.8 4.80003 66.6 4.70003 67.2 4.80003C67.8 4.80003 67.8 5.60003 67.2 5.90003Z" fill="#FDDF6C"/>
<path d="M31.0999 72.7C30.6999 72.9 30.1999 73.1 29.8999 73.1C30.7999 73.4 31.9999 74.2 31.5999 74.9C31.1999 75.6 30.1999 74.9 29.4999 74.3C29.6999 74.5 29.6999 74.9 29.4999 75.3C29.1999 76 28.1999 76.1 28.0999 75.4C27.9999 74.8 27.9999 74.1 27.8999 73.5C27.5999 73.8 27.1999 74.2 26.7999 74.4C26.3999 74.7 25.9999 74.2 26.3999 73.8C26.7999 73.4 27.3999 73 27.8999 72.7C26.9999 73.1 25.6999 73.2 25.1999 72.5C25.9999 71.5 27.3999 71.6 28.2999 71.8C27.5999 71.5 27.0999 70.9 26.6999 70.3C27.4999 69.6 28.1999 70.9 28.5999 71.3C28.5999 71.1 28.7999 70.7 28.9999 70.4C29.3999 69.8 30.2999 70.2 29.8999 70.8C29.6999 71.2 29.3999 71.6 29.2999 72.1C29.6999 71.6 30.4999 71.5 31.0999 71.6C31.6999 71.6 31.6999 72.5 31.0999 72.7Z" fill="#FDDF6C"/>
<path d="M72.9999 68.1C73.9999 69.4 71.7999 71.2 70.2999 72C71.7999 71.6 74.4999 71.7 74.5999 73.3C74.7999 75.5 70.7999 74.7 69.6999 74.4L68.9999 74C69.7999 74.9 70.8999 79.1 68.7999 79.5C66.5999 79.9 66.4999 75.4 66.9999 74.1C65.5999 75.3 62.3999 78.2 60.4999 76.8C61.1999 75.1 63.6999 74.1 65.4999 73.9C64.0999 73.6 59.0999 70.7 60.4999 68.7C61.5999 67.1 64.8999 69.9 65.8999 71.1C64.9999 70 63.1999 65.9 65.1999 65.4C67.2999 64.9 67.9999 69.6 67.7999 70.7C68.3999 69.5 71.5999 66.3 72.9999 68.1Z" fill="#FDDF6C"/>
<path d="M80.5 33.3C79.1 33.7 77.7 33.8 76.2 33.7C77.7 34.1 83.5 34.9 81.9 37.3C80.7 39.2 76.9 38.1 74.8 36.7C76.5 38.1 79.1 40.5 77.9 41.6C76.9 42.5 74.4 39.1 72.9 36.9C71.9 37.5 69.5 39.8 68.6 39.5C67 38.8 70.6 36.5 71.9 35.6C71.9 35.6 71.9 35.6 71.9 35.5C70.6 36 68.8 35.8 67.4 35.1C66.3 34.6 66.7 32.9 67.9 32.9C69.9 32.9 71.3 33.3 72.8 33.8C71 33 69.9 31.7 69.4 29.6C69.1 28.3 70.9 27.7 71.5 28.9C72.2 30.3 72.9 32 73.5 32.8C73.1 31.3 73.5 26.8 75 26.8C77.6 26.7 76.3 31.8 75.5 32.7C76.6 32.2 78.2 31.5 79.8 31.3C81.4 31 81.8 32.9 80.5 33.3Z" fill="#FDDF6C"/>
<path d="M26.7999 40.9C26.6999 41 26.7999 41.1 26.8999 41.1C28.5999 40.5 30.5999 42 29.6999 44C28.9999 45.4 27.7999 45.2 26.5999 45.2C26.3999 45.2 25.4999 44.8 24.8999 44.5C24.7999 44.5 24.7999 44.5 24.6999 44.6C24.6999 44.6 24.6999 44.6 24.6999 44.7C24.9999 45.2 25.4999 47.2 24.1999 48.3H24.0999C22.7999 47.4 22.0999 46.1 22.7999 44.8C22.7999 44.7 22.6999 44.6 22.6999 44.7C21.5999 45.3 20.2999 45.8 19.1999 45.7C18.4999 45.6 18.1999 44.8 18.6999 44.3C19.0999 44 19.3999 43.7 19.7999 43.5C19.8999 43.4 19.8999 43.3 19.6999 43.3C18.5999 43.3 17.6999 42.7 16.9999 41.8C16.6999 41.3 16.7999 40.7 17.1999 40.4C18.0999 39.8 19.1999 40.2 20.0999 41C20.1999 41.1 20.2999 41 20.2999 40.9C19.5999 39.5 18.2999 36.8 19.3999 36.2C20.9999 35.3 22.6999 38.3 23.1999 39.8C23.1999 39.9 23.3999 39.9 23.3999 39.8C24.6999 34.7 28.9999 38.4 26.7999 40.9Z" fill="#FDDF6C"/>
<path d="M23.8999 43.5001C23.3999 43.3001 22.9999 43.0001 22.6999 42.7001C22.2999 42.2001 22.4999 41.5001 23.0999 41.4001C23.7999 41.2001 24.2999 41.1001 24.7999 42.0001C24.7999 42.0001 25.1999 42.4001 24.9999 42.7001C24.5999 43.1001 24.5999 43.2001 23.8999 43.5001Z" fill="#FDDF6C"/>
</g>
<g clip-path="url(#clip1)">
<path d="M49.6808 145.454C50.0795 144.4 50.5871 143.393 51.1906 142.442C51.5049 141.948 51.8359 141.453 52.2227 141.013C52.3849 140.828 52.5555 140.643 52.7633 140.513C52.8495 140.458 52.8686 140.443 52.9638 140.413C53.0021 140.402 53.1739 140.395 53.1536 140.387C53.487 140.449 53.7726 140.823 53.9833 141.173C54.288 141.677 54.5395 142.221 54.7406 142.776C55.1866 144.002 55.4105 145.278 55.4099 146.584C55.4099 146.954 55.6404 147.301 55.9745 147.438C56.3432 147.589 56.6761 147.491 56.9772 147.245C57.8417 146.54 58.7924 145.836 59.9059 145.632C60.6003 145.504 61.548 145.704 62.0263 146.347V146.347C62.0263 146.355 62.1245 146.521 62.1413 146.555C62.1802 146.637 62.2065 146.723 62.2305 146.81C62.3107 147.097 62.3352 147.382 62.3496 147.679C62.3837 148.368 62.3837 149.061 62.3586 149.752C62.3083 151.108 62.1556 152.467 61.8647 153.793C61.8491 153.863 61.8204 153.986 61.803 154.051C61.8306 154.048 61.8527 154.042 61.8659 154.035C61.8419 154.048 61.8024 154.06 61.7934 154.087C61.7958 154.081 61.7994 154.068 61.8036 154.051C61.6504 154.072 61.3073 154.046 61.1259 154.046C60.5812 154.046 60.0358 154.045 59.4904 154.045C59.4012 154.402 59.306 154.757 59.2066 155.111C59.0851 155.543 58.42 155.358 58.5427 154.924C58.6253 154.632 58.7044 154.339 58.7792 154.045C57.4304 154.045 56.0834 154.045 54.7352 154.045C53.7319 154.045 52.7279 154.044 51.7246 154.044C51.7246 154.424 51.7246 154.804 51.7246 155.184C51.7246 155.636 51.0361 155.635 51.0361 155.184C51.0361 154.804 51.0361 154.424 51.0361 154.044C50.5111 154.044 49.9867 154.044 49.4616 154.044C49.4018 154.407 48.845 154.407 48.7852 154.044C48.1224 154.044 47.4609 154.044 46.7988 154.044C46.7473 154.399 46.1966 154.516 46.1331 154.114C46.1295 154.09 46.1253 154.067 46.1223 154.044C45.6931 154.044 45.2632 154.044 44.834 154.044C44.8699 154.334 44.9064 154.623 44.9448 154.913C45.0034 155.359 44.3144 155.353 44.2563 154.913C44.218 154.623 44.1815 154.333 44.1455 154.044C43.1338 154.044 42.1209 154.044 41.1085 154.043C41.1301 154.161 41.1552 154.277 41.1834 154.394C41.2899 154.832 40.626 155.017 40.5195 154.58C40.4758 154.401 40.4392 154.223 40.4099 154.042C40.0603 154.042 39.7113 154.042 39.3623 154.042C39.4119 154.273 39.4814 154.499 39.5778 154.718C39.7586 155.127 39.1647 155.482 38.9833 155.071C38.8342 154.734 38.7379 154.39 38.6768 154.042C38.0769 154.042 37.4783 154.042 36.8784 154.042C36.903 154.386 36.9359 154.728 36.9766 155.065C37.0197 155.42 36.7683 155.739 36.4594 155.896C36.512 155.905 36.5671 155.91 36.6264 155.91C42.9165 155.912 49.2054 155.912 55.4955 155.913C57.0425 155.913 58.5894 155.913 60.1364 155.914C60.8541 155.914 61.6647 156.016 62.3664 155.829C63.1285 155.626 63.4978 154.946 63.6505 154.215C63.9732 152.677 64.1575 151.099 64.2019 149.527C64.2402 148.168 64.3587 146.466 63.5373 145.304C62.7166 144.142 61.2451 143.602 59.8682 143.763C58.857 143.882 57.9626 144.298 57.1311 144.839C57.2083 145.417 57.246 146.002 57.246 146.583C56.7246 146.364 56.202 146.143 55.6793 145.923C56.1475 145.541 56.6276 145.166 57.1311 144.839C57.0431 144.17 56.9018 143.508 56.7066 142.866C56.3558 141.708 55.8619 140.506 55.098 139.565C54.2946 138.578 53.0141 138.215 51.8874 138.868C50.8661 139.46 50.1471 140.63 49.5329 141.613C49.3263 141.945 49.1312 142.283 48.948 142.629C49.1791 143.546 49.3689 144.474 49.5173 145.409L49.6808 145.454Z" fill="#63350F"/>
<path d="M38.5656 151.332C38.5566 150.88 39.2451 150.882 39.2541 151.332C39.2726 152.221 39.1733 153.165 39.3624 154.044C39.712 154.044 40.0611 154.044 40.4101 154.044C40.3215 153.509 40.2939 152.968 40.3311 152.423C40.3616 151.975 41.0501 151.973 41.0195 152.423C40.9818 152.972 41.0093 153.509 41.1081 154.044C42.1199 154.044 43.1328 154.044 44.1451 154.044C43.7344 150.716 43.468 147.371 43.3495 144.018C43.3333 143.566 44.0218 143.569 44.038 144.018C44.1565 147.371 44.4229 150.716 44.8336 154.044C45.2628 154.044 45.6927 154.044 46.1219 154.044C46.0554 153.594 46.0333 153.149 46.0698 152.696C46.1057 152.249 46.7942 152.245 46.7583 152.696C46.7253 153.107 46.7325 153.519 46.7966 153.928C46.8032 153.969 46.8032 154.009 46.7984 154.045C47.4611 154.045 48.1226 154.045 48.7847 154.045C48.7799 154.024 48.7788 154.003 48.7788 153.979C48.7788 153.615 48.7788 153.252 48.7788 152.889C48.7788 152.438 49.4672 152.439 49.4672 152.889C49.4672 153.252 49.4672 153.615 49.4672 153.979C49.4672 154.002 49.4654 154.024 49.4612 154.045C49.9862 154.045 50.5107 154.045 51.0357 154.045C51.0357 151.247 51.0357 148.45 51.0357 145.652C51.0357 145.201 51.7242 145.201 51.7242 145.652C51.7242 148.45 51.7242 151.247 51.7242 154.045C52.7275 154.045 53.7315 154.046 54.7348 154.046C56.0836 154.046 57.4306 154.046 58.7788 154.046C59.1894 152.452 59.5025 150.832 59.7067 149.196C59.7618 148.755 60.4502 148.75 60.3951 149.196C60.191 150.832 59.8911 152.45 59.49 154.046C60.0354 154.046 60.5807 154.047 61.1255 154.047C61.3069 154.047 61.6505 154.072 61.8032 154.052C61.8206 153.987 61.8499 153.863 61.8649 153.793C62.1564 152.467 62.3085 151.109 62.3588 149.752C62.3839 149.062 62.3839 148.369 62.3498 147.68C62.3354 147.382 62.3109 147.098 62.2306 146.811C62.2061 146.723 62.1804 146.638 62.1414 146.556C62.1247 146.522 62.0265 146.355 62.0265 146.348V146.347C61.5482 145.704 60.6005 145.504 59.906 145.632C58.7925 145.837 57.8413 146.541 56.9774 147.246C56.6763 147.492 56.3434 147.59 55.9746 147.439C55.6406 147.302 55.4101 146.955 55.4101 146.585C55.4107 145.278 55.1868 144.003 54.7408 142.776C54.5397 142.221 54.2882 141.678 53.9835 141.174C53.7722 140.823 53.4872 140.449 53.1538 140.388C53.1747 140.396 53.0023 140.403 52.964 140.414C52.8694 140.443 52.8502 140.459 52.7634 140.514C52.5551 140.644 52.3851 140.828 52.2228 141.013C51.8367 141.453 51.505 141.949 51.1908 142.443C50.5873 143.393 50.079 144.4 49.6809 145.455C49.6241 145.605 49.5702 145.757 49.5175 145.909C49.3828 146.299 49.0541 146.595 48.6327 146.595C48.2615 146.595 47.8101 146.308 47.7467 145.909C47.7215 145.748 47.6946 145.587 47.6664 145.427C47.3946 143.87 47.0091 142.334 46.505 140.837C46.3123 140.265 46.1446 139.534 45.798 139.051C45.7322 138.959 45.7046 138.95 45.5933 138.892C45.6256 138.914 45.5472 138.886 45.5167 138.876C45.4909 138.873 45.458 138.869 45.4502 138.868C45.2526 138.861 45.0557 138.899 44.8767 138.972C43.9098 139.362 43.2022 140.435 42.8065 141.402C42.3611 142.492 42.1941 143.663 42.1851 144.841C42.1749 146.345 42.306 147.814 41.6427 149.212C41.3584 149.811 40.6256 149.738 40.2006 149.4C39.754 149.047 39.4456 148.551 39.1577 148.063C38.9595 147.726 38.7482 147.329 38.4417 147.122C38.3872 147.086 38.2956 147.041 38.2705 147.029C38.3202 147.021 38.2866 147.018 38.1705 147.023C38.1873 147.018 38.2004 147.015 38.2088 147.013C38.201 147.014 38.1903 147.016 38.1765 147.02C38.1483 147.025 38.1196 147.032 38.0921 147.042C38.0867 147.046 38.0747 147.053 38.0538 147.064C38.0142 147.09 38.0041 147.094 38.0226 147.076C37.9837 147.109 37.946 147.145 37.9101 147.183C37.7359 147.363 37.5611 147.74 37.4671 148.037C36.8636 149.938 36.7313 152.036 36.878 154.043C37.4778 154.043 38.0765 154.043 38.6764 154.043C38.5207 153.159 38.5842 152.244 38.5656 151.332ZM61.3746 152.046C61.5146 151.91 61.7218 151.915 61.8619 152.046C61.9966 152.171 61.9924 152.414 61.8619 152.541C61.8457 152.556 61.8313 152.571 61.8176 152.587C61.8206 152.582 61.823 152.578 61.8247 152.575C61.8218 152.58 61.8188 152.584 61.814 152.591C61.808 152.601 61.7828 152.652 61.7745 152.666C61.7745 152.667 61.7739 152.667 61.7745 152.668C61.7709 152.68 61.7643 152.704 61.7601 152.722C61.7649 152.716 61.7547 152.796 61.7553 152.811C61.7613 153.007 61.5925 153.153 61.4111 153.162C61.2207 153.17 61.0728 152.994 61.0668 152.811C61.0573 152.525 61.1722 152.242 61.3746 152.046ZM57.3462 149.037C57.3462 148.942 57.3851 148.858 57.4473 148.789C57.5096 148.72 57.6018 148.691 57.6904 148.686C57.776 148.683 57.8742 148.728 57.9335 148.789C57.9963 148.853 58.0346 148.947 58.0346 149.037C58.0346 149.101 58.0346 149.166 58.0346 149.231C58.0346 149.326 57.9957 149.41 57.9335 149.478C57.8712 149.547 57.779 149.577 57.6904 149.581C57.6048 149.585 57.5066 149.539 57.4473 149.478C57.3845 149.414 57.3462 149.321 57.3462 149.231C57.3462 149.166 57.3462 149.101 57.3462 149.037ZM55.7879 153.263C55.8034 153.159 55.8184 153.056 55.834 152.952C55.8477 152.864 55.922 152.789 55.992 152.743C56.0698 152.691 56.1692 152.687 56.2572 152.708C56.3392 152.727 56.4206 152.796 56.4632 152.869C56.5134 152.956 56.5122 153.042 56.4973 153.138C56.4817 153.241 56.4667 153.345 56.4512 153.448C56.4374 153.536 56.3632 153.612 56.2931 153.658C56.2153 153.709 56.1159 153.713 56.0279 153.693C55.9459 153.674 55.8645 153.605 55.822 153.532C55.7717 153.445 55.7735 153.36 55.7879 153.263ZM53.9805 145.379C53.9805 144.928 54.669 144.928 54.669 145.379C54.669 147.947 54.669 150.516 54.669 153.084C54.669 153.535 53.9805 153.534 53.9805 153.084C53.9805 150.516 53.9805 147.948 53.9805 145.379ZM48.3962 148.298C48.3962 148.203 48.4351 148.119 48.4974 148.051C48.559 147.981 48.6518 147.952 48.7404 147.948C48.826 147.944 48.9242 147.99 48.9835 148.051C49.0464 148.113 49.0847 148.208 49.0847 148.298C49.0847 148.349 49.0847 148.401 49.0847 148.454C49.0847 148.549 49.0458 148.633 48.9835 148.701C48.9218 148.769 48.829 148.8 48.7404 148.804C48.6548 148.808 48.5566 148.762 48.4974 148.701C48.4345 148.637 48.3962 148.543 48.3962 148.454C48.3962 148.401 48.3962 148.349 48.3962 148.298ZM44.9162 140.982C44.927 140.786 45.0653 140.64 45.2604 140.632C45.4394 140.623 45.6148 140.798 45.6047 140.982C45.5957 141.15 45.6017 141.316 45.6304 141.472C45.6657 141.659 45.5813 141.85 45.3903 141.903C45.2215 141.95 45.0018 141.844 44.9665 141.659C44.9246 141.435 44.9036 141.21 44.9162 140.982ZM42.5066 150.827C42.5066 150.732 42.5455 150.648 42.6078 150.58C42.6694 150.51 42.7622 150.481 42.8508 150.477C42.9364 150.473 43.0346 150.519 43.0939 150.58C43.1567 150.642 43.195 150.737 43.195 150.827C43.195 150.839 43.195 150.852 43.195 150.866C43.195 150.961 43.1561 151.045 43.0939 151.113C43.0316 151.181 42.9394 151.212 42.8508 151.216C42.7652 151.22 42.667 151.174 42.6078 151.113C42.5449 151.049 42.5066 150.955 42.5066 150.866C42.5066 150.852 42.5066 150.84 42.5066 150.827Z" fill="#60B95D"/>
<path d="M61.411 153.161C61.5924 153.152 61.7612 153.007 61.7552 152.811C61.7546 152.795 61.7642 152.715 61.76 152.721C61.7648 152.703 61.7708 152.68 61.7744 152.668C61.7714 152.671 61.7714 152.671 61.7738 152.664C61.7744 152.662 61.7744 152.661 61.7756 152.661C61.7756 152.663 61.7756 152.664 61.775 152.666C61.7834 152.652 61.8085 152.601 61.8145 152.591C61.8193 152.584 61.8223 152.58 61.8253 152.575C61.8235 152.578 61.8217 152.582 61.8181 152.587C61.8319 152.57 61.8462 152.555 61.8624 152.541C61.9929 152.414 61.9971 152.171 61.8624 152.046C61.7223 151.915 61.5152 151.91 61.3751 152.046C61.1721 152.242 61.0578 152.525 61.0668 152.811C61.0728 152.993 61.22 153.169 61.411 153.161ZM61.7756 152.657C61.7756 152.657 61.7756 152.658 61.775 152.658C61.775 152.658 61.7756 152.658 61.7756 152.657Z" fill="#63350F"/>
<path d="M61.8659 154.036C61.8527 154.043 61.8306 154.048 61.803 154.052C61.7994 154.069 61.7952 154.081 61.7928 154.088C61.8024 154.061 61.8419 154.049 61.8659 154.036Z" fill="#63350F"/>
<path d="M61.7734 152.664C61.7708 152.671 61.7708 152.671 61.774 152.668C61.7734 152.667 61.774 152.667 61.774 152.666C61.7747 152.663 61.7747 152.662 61.7747 152.66C61.774 152.662 61.774 152.662 61.7734 152.664Z" fill="#63350F"/>
<path d="M59.7066 149.196C59.5025 150.832 59.1894 152.452 58.7787 154.046C58.8505 154.046 58.923 154.046 58.9954 154.046C59.1606 154.046 59.3253 154.046 59.4905 154.046C59.8916 152.449 60.1909 150.832 60.3957 149.196C60.4501 148.75 59.7617 148.755 59.7066 149.196Z" fill="#63350F"/>
<path d="M58.7786 154.046C58.7038 154.34 58.6248 154.633 58.5421 154.925C58.42 155.359 59.0845 155.544 59.2061 155.112C59.3054 154.758 59.4006 154.403 59.4898 154.047C59.3246 154.047 59.16 154.047 58.9947 154.047C58.9229 154.046 58.8504 154.046 58.7786 154.046Z" fill="#63350F"/>
<path d="M57.6904 149.582C57.779 149.578 57.8718 149.548 57.9335 149.479C57.9951 149.411 58.0346 149.327 58.0346 149.232C58.0346 149.166 58.0346 149.102 58.0346 149.037C58.0346 148.947 57.9963 148.853 57.9335 148.79C57.8736 148.729 57.776 148.683 57.6904 148.687C57.6018 148.691 57.509 148.721 57.4474 148.79C57.3851 148.858 57.3462 148.942 57.3462 149.037C57.3462 149.102 57.3462 149.166 57.3462 149.232C57.3462 149.321 57.3845 149.416 57.4474 149.479C57.5066 149.54 57.6048 149.585 57.6904 149.582Z" fill="#63350F"/>
<path d="M57.2456 146.584C57.2456 146.003 57.2079 145.419 57.1307 144.841C56.6272 145.168 56.1471 145.542 55.679 145.925C56.2016 146.145 56.7242 146.365 57.2456 146.584Z" fill="#63350F"/>
<path d="M56.0279 153.693C56.1159 153.713 56.2153 153.71 56.2931 153.659C56.3637 153.613 56.438 153.537 56.4511 153.449C56.4667 153.346 56.4817 153.242 56.4972 153.139C56.5116 153.043 56.5134 152.956 56.4631 152.869C56.4212 152.796 56.3392 152.727 56.2572 152.708C56.1692 152.688 56.0698 152.692 55.992 152.743C55.9213 152.79 55.8477 152.864 55.8339 152.953C55.8183 153.056 55.8034 153.16 55.7878 153.263C55.7734 153.36 55.7716 153.445 55.8225 153.533C55.8644 153.606 55.9459 153.674 56.0279 153.693Z" fill="#63350F"/>
<path d="M54.6687 153.084C54.6687 150.516 54.6687 147.948 54.6687 145.38C54.6687 144.929 53.9802 144.928 53.9802 145.38C53.9802 147.948 53.9802 150.516 53.9802 153.084C53.9802 153.534 54.6687 153.536 54.6687 153.084Z" fill="#63350F"/>
<path d="M51.0355 155.185C51.0355 155.636 51.724 155.636 51.724 155.185C51.724 154.805 51.724 154.425 51.724 154.045C51.4947 154.045 51.2648 154.045 51.0355 154.045C51.0355 154.425 51.0355 154.806 51.0355 155.185Z" fill="#63350F"/>
<path d="M51.0355 145.651C51.0355 148.449 51.0355 151.247 51.0355 154.045C51.2648 154.045 51.4947 154.045 51.724 154.045C51.724 151.246 51.724 148.449 51.724 145.651C51.7234 145.2 51.0355 145.2 51.0355 145.651Z" fill="#63350F"/>
<path d="M48.6319 146.594C49.0533 146.594 49.382 146.299 49.5167 145.908C49.5694 145.756 49.6239 145.604 49.6801 145.454L49.5167 145.412C48.9264 145.412 48.3361 145.412 47.7459 145.412L47.6656 145.426C47.6938 145.587 47.7207 145.747 47.7459 145.908C47.8093 146.307 48.2607 146.594 48.6319 146.594Z" fill="#63350F"/>
<path d="M49.5168 145.412C49.3683 144.476 49.1786 143.549 48.9475 142.631C48.4733 143.522 48.0746 144.456 47.746 145.412C48.3368 145.412 48.9265 145.412 49.5168 145.412Z" fill="#63350F"/>
<path d="M49.4671 152.889C49.4671 152.439 48.7787 152.438 48.7787 152.889C48.7787 153.252 48.7787 153.615 48.7787 153.979C48.7787 154.002 48.7805 154.024 48.7847 154.045C49.0104 154.045 49.2355 154.045 49.4612 154.045C49.4659 154.024 49.4671 154.003 49.4671 153.979C49.4671 153.615 49.4671 153.252 49.4671 152.889Z" fill="#63350F"/>
<path d="M49.4612 154.045C49.2355 154.045 49.0104 154.045 48.7847 154.045C48.8445 154.408 49.4013 154.408 49.4612 154.045Z" fill="#63350F"/>
<path d="M48.7403 148.803C48.8289 148.8 48.9217 148.769 48.9834 148.7C49.0457 148.632 49.0846 148.548 49.0846 148.453C49.0846 148.401 49.0846 148.349 49.0846 148.297C49.0846 148.207 49.0463 148.113 48.9834 148.05C48.9235 147.989 48.826 147.943 48.7403 147.947C48.6517 147.951 48.559 147.98 48.4973 148.05C48.435 148.118 48.3961 148.202 48.3961 148.297C48.3961 148.348 48.3961 148.401 48.3961 148.453C48.3961 148.543 48.4344 148.637 48.4973 148.7C48.5572 148.761 48.6547 148.807 48.7403 148.803Z" fill="#63350F"/>
<path d="M36.0598 155.999C36.1921 155.999 36.3316 155.962 36.4609 155.896C35.4474 155.729 35.5043 154.042 36.6274 154.042C36.7118 154.042 36.7956 154.042 36.88 154.042C36.7333 152.035 36.8656 149.937 37.4691 148.036C37.5631 147.739 37.7373 147.362 37.9121 147.182C37.948 147.144 37.9857 147.109 38.0246 147.075C38.0276 147.073 38.0318 147.069 38.036 147.065C38.0384 147.062 38.0414 147.06 38.0444 147.057L38.045 147.056C38.0857 147.04 38.1019 147.034 38.0941 147.04C38.1216 147.031 38.1498 147.024 38.1785 147.018C38.1923 147.015 38.203 147.013 38.2108 147.011C38.2024 147.014 38.1893 147.017 38.1725 147.022C38.2886 147.017 38.3222 147.019 38.2725 147.028C38.2976 147.04 38.3892 147.084 38.4437 147.121C38.7502 147.328 38.9615 147.725 39.1597 148.062C39.4471 148.55 39.7554 149.046 40.2026 149.399C40.627 149.736 41.3598 149.809 41.6447 149.21C42.308 147.812 42.1769 146.344 42.1871 144.839C42.1955 143.662 42.3631 142.491 42.8085 141.401C43.2042 140.433 43.9113 139.36 44.8787 138.97C45.0577 138.898 45.2553 138.86 45.4522 138.867C45.46 138.867 45.4929 138.872 45.5187 138.875C45.5157 138.874 45.5133 138.873 45.5115 138.872C45.5223 138.874 45.53 138.875 45.536 138.876C45.5312 138.876 45.5252 138.875 45.5187 138.874C45.5492 138.884 45.627 138.911 45.5953 138.89C45.7072 138.948 45.7348 138.957 45.8 139.049C46.1467 139.532 46.3143 140.264 46.507 140.835C47.0111 142.332 47.3967 143.868 47.6685 145.425L47.7487 145.41C48.0773 144.454 48.476 143.521 48.9502 142.63C48.761 141.882 48.5449 141.139 48.3 140.407C48.0468 139.65 47.8133 138.781 47.3823 138.106C46.9357 137.409 46.2185 137.005 45.3995 136.999C43.8759 136.99 42.6253 138.148 41.8171 139.353C41.0102 140.557 40.618 141.996 40.442 143.427C40.3409 144.25 40.3516 145.067 40.3666 145.894C40.3696 146.099 40.3744 146.309 40.372 146.52C40.4127 146.577 40.4516 146.635 40.4899 146.694C40.8072 147.187 41.0335 147.709 41.5005 148.078C41.0203 148.142 40.539 148.204 40.0583 148.267C40.3145 147.728 40.3672 147.119 40.372 146.519C40.0074 145.995 39.5542 145.544 38.9544 145.305C37.7259 144.814 36.5591 145.613 36.0221 146.725C35.439 147.932 35.2564 149.356 35.1122 150.677C34.9523 152.136 34.9667 153.608 35.1421 155.065C35.2014 155.566 35.5204 155.999 36.0598 155.999Z" fill="#63350F"/>
<path d="M46.797 153.928C46.733 153.519 46.7258 153.107 46.7587 152.696C46.7946 152.245 46.1062 152.249 46.0702 152.696C46.0337 153.149 46.0559 153.595 46.1223 154.044C46.1529 154.044 46.1828 154.044 46.2133 154.044C46.4085 154.044 46.6037 154.044 46.7982 154.044C46.8036 154.008 46.8036 153.969 46.797 153.928Z" fill="#63350F"/>
<path d="M46.1224 154.044C46.1254 154.067 46.129 154.091 46.1332 154.114C46.1967 154.517 46.7474 154.399 46.7989 154.044C46.6038 154.044 46.4086 154.044 46.214 154.044C46.1829 154.044 46.153 154.044 46.1224 154.044Z" fill="#63350F"/>
<path d="M45.3903 141.903C45.5812 141.85 45.6656 141.659 45.6303 141.472C45.601 141.316 45.595 141.15 45.6046 140.982C45.6147 140.798 45.4393 140.623 45.2603 140.632C45.0652 140.64 44.9269 140.786 44.9161 140.982C44.9041 141.21 44.9245 141.435 44.9664 141.658C45.0017 141.844 45.2214 141.95 45.3903 141.903Z" fill="#63350F"/>
<path d="M44.2564 154.913C44.3145 155.354 45.0035 155.36 44.9448 154.913C44.9065 154.624 44.87 154.334 44.8341 154.044C44.6048 154.044 44.3749 154.044 44.1456 154.044C44.1815 154.335 44.2181 154.624 44.2564 154.913Z" fill="#63350F"/>
<path d="M43.35 144.018C43.4685 147.371 43.735 150.716 44.1456 154.044C44.3749 154.044 44.6048 154.044 44.8341 154.044C44.4234 150.716 44.157 147.371 44.0385 144.018C44.0223 143.569 43.3338 143.566 43.35 144.018Z" fill="#63350F"/>
<path d="M42.8508 151.216C42.9394 151.212 43.0322 151.182 43.0939 151.113C43.1555 151.045 43.195 150.961 43.195 150.866C43.195 150.852 43.195 150.84 43.195 150.827C43.195 150.737 43.1567 150.642 43.0939 150.58C43.034 150.519 42.9364 150.473 42.8508 150.477C42.7622 150.48 42.6694 150.51 42.6078 150.58C42.5455 150.648 42.5066 150.732 42.5066 150.827C42.5066 150.839 42.5066 150.852 42.5066 150.866C42.5066 150.955 42.5449 151.05 42.6078 151.113C42.667 151.174 42.7652 151.22 42.8508 151.216Z" fill="#63350F"/>
<path d="M41.4989 148.08C41.0326 147.71 40.8057 147.189 40.4884 146.696C40.4501 146.637 40.4112 146.578 40.3705 146.521C40.3657 147.121 40.313 147.729 40.0568 148.269C40.5375 148.206 41.0188 148.142 41.4989 148.08Z" fill="#63350F"/>
<path d="M40.5201 154.581C40.6266 155.018 41.2906 154.833 41.184 154.395C41.1559 154.278 41.1307 154.162 41.1092 154.044C40.8769 154.044 40.6434 154.044 40.4105 154.044C40.4393 154.223 40.4764 154.402 40.5201 154.581Z" fill="#63350F"/>
<path d="M41.0201 152.422C41.0506 151.972 40.3622 151.974 40.3316 152.422C40.2939 152.968 40.3214 153.509 40.4106 154.043C40.6429 154.043 40.8764 154.043 41.1093 154.043C41.0105 153.509 40.983 152.972 41.0201 152.422Z" fill="#63350F"/>
<path d="M38.984 155.072C39.1654 155.483 39.7587 155.128 39.5785 154.719C39.4821 154.5 39.4126 154.274 39.363 154.044C39.1343 154.044 38.9062 154.044 38.6775 154.043C38.7386 154.391 38.8349 154.735 38.984 155.072Z" fill="#63350F"/>
<path d="M39.254 151.332C39.245 150.882 38.5565 150.88 38.5655 151.332C38.5841 152.244 38.5206 153.158 38.6775 154.042C38.9062 154.043 39.1342 154.043 39.3629 154.043C39.1732 153.165 39.2725 152.222 39.254 151.332Z" fill="#63350F"/>
<path d="M38.0441 147.057C38.0602 147.052 38.077 147.046 38.0932 147.041C38.1003 147.035 38.0842 147.041 38.0441 147.057Z" fill="#63350F"/>
<path d="M38.0549 147.063C38.0753 147.052 38.0878 147.045 38.0932 147.041C38.077 147.046 38.0603 147.052 38.0441 147.057L38.0435 147.058C38.0405 147.061 38.0375 147.063 38.0351 147.066C38.0304 147.069 38.0268 147.073 38.0238 147.076C38.0046 147.094 38.0148 147.09 38.0549 147.063Z" fill="#63350F"/>
<path d="M36.9768 155.066C36.9361 154.728 36.9031 154.387 36.8786 154.043C36.7942 154.043 36.7104 154.043 36.626 154.043C35.5029 154.043 35.4454 155.73 36.4589 155.898C36.769 155.74 37.0199 155.421 36.9768 155.066Z" fill="#63350F"/>
</g>
<defs>
<clipPath id="clip0">
<rect width="103.2" height="151.4" fill="white" transform="matrix(-1 0 0 1 103.2 0)"/>
</clipPath>
<clipPath id="clip1">
<rect width="29.2308" height="19" fill="white" transform="translate(35 137)"/>
</clipPath>
</defs>
</svg>
