<svg width="104" height="157" viewBox="0 0 104 157" fill="none" xmlns="http://www.w3.org/2000/svg">
<g clip-path="url(#clip0)">
<path d="M62.3 1.4C35.2 -2.9 25.7 6 20.7 9.1C14 13.3 6.39997 21.8 3.39997 28.7C-4.40003 47 8.99997 74.1 25 85C45.4 99 74.9 95.6 92.2 78.2L92.3 78.1C98.4 72 101.7 64 101.7 55.8V38.2C101.7 30.2 99.2 22.3 94.3 15.5L94.2 15.4C86.9 5.4 75 3.4 62.3 1.4Z" fill="#F2CD4C"/>
<path d="M62.3 1.60001L57.5 1.00001C55.9 0.900012 54.3 0.700012 52.7 0.600012C49.5 0.500012 46.2 0.500012 43.1 1.00001C36.7 1.70001 30.5 3.80001 25.3 7.40001C24 8.30001 22.7 9.20001 21.3 10.2C20 11.1 18.8 12 17.6 13C15.2 15.1 13 17.3 11 19.7C9.99999 20.9 8.99999 22.2 8.09999 23.4C7.19999 24.7 6.39999 26 5.59999 27.4C4.19999 30.1 3.19999 33.1 2.69999 36.1C2.19999 39.2 2.19999 42.3 2.49999 45.5C2.79999 48.6 3.49999 51.8 4.39999 54.8C6.19999 60.9 9.09999 66.7 12.7 72C14.5 74.6 16.6 77.1 18.9 79.4C21.2 81.7 23.6 83.7 26.4 85.4C31.8 88.8 37.9 91 44.2 92.1C56.8 94.1 69.9 91.7 80.8 85.3C82.1 84.4 83.5 83.6 84.7 82.7L86.6 81.3C87.2 80.8 87.9 80.4 88.4 79.8L90.1 78.2C90.7 77.7 91.3 77.1 91.8 76.6C92.8 75.5 93.8 74.3 94.7 73C98.2 67.9 100.2 61.9 100.1 55.7L100.2 46V41.2C100.2 39.6 100.3 38 100.2 36.4C99.9 30.2 98.2 24 95 18.6C93.4 15.9 91.5 13.3 89.1 11.3C86.7 9.00001 83.9 7.40001 81 6.10001C75.1 3.60001 68.6 2.60001 62.3 1.60001ZM62.3 1.30001C65.5 1.80001 68.7 2.30001 71.9 2.90001C75.1 3.50001 78.2 4.30001 81.3 5.40001C84.4 6.50001 87.3 8.00001 90 10C92.6 12 94.8 14.6 96.7 17.4C100.4 22.9 102.7 29.4 103.1 36.1C103.2 37.8 103.2 39.4 103.2 41V45.8L103.3 55.5C103.4 62.3 101.2 69.1 97.2 74.6C96.2 76 95.1 77.3 94 78.5C93.4 79.1 92.8 79.7 92.2 80.2L90.3 81.9C89.7 82.5 89 82.9 88.4 83.5L86.4 85C85 85.9 83.6 86.8 82.2 87.7C70.6 94.3 56.8 96.3 43.9 93.7C37.5 92.4 31.3 89.9 25.9 86.3C23.1 84.6 20.6 82.4 18.3 80.1C16 77.8 13.9 75.3 12 72.7C10.1 70.1 8.39999 67.3 6.79999 64.4C5.19999 61.5 3.89999 58.5 2.79999 55.4C0.599985 49.2 -0.500015 42.6 0.199985 35.9C0.699985 32.6 1.59999 29.3 3.19999 26.3C4.79999 23.3 6.69999 20.6 8.89999 18.1C9.99999 16.8 11.1 15.7 12.3 14.5C13.5 13.4 14.7 12.3 16 11.2C17.3 10.2 18.7 9.20001 20.1 8.40001C21.4 7.60001 22.8 6.70001 24.2 5.90001C29.9 2.50001 36.4 0.700012 42.9 0.300012C49.4 -0.299988 55.9 0.200012 62.3 1.30001Z" fill="#63350F"/>
<path d="M24.5 15C24.8 18.3 25.1 21.7 25.8 25C26.3 27.2 27 29.4 27.7 31.5C28 32.3 28.3 33.1 28.6 33.9C28.9 34.6 29.2 35.4 29.5 36.1C30.1 37.5 30.6 39 31.2 40.4C31.8 42 32.3 43.8 32.8 45.4C32.9 45.6 32.9 45.8 33 46.1C33.3 46.9 33.5 47.8 33.8 48.6C34.4 50.5 35.2 52.5 36.1 54.4C38 58.3 40.5 62 42.7 65C42.8 65.1 43 65.3 43.2 65.6C43.8 66.4 44.7 67.6 45.4 68.8C46.5 70.6 46.3 71 46.3 71.1L46.8 71.4C46.8 73.4 46.8 75.4 46.8 77.4C46.8 88.4 47.6 99.3 48.5 110.1C48.6 110.9 48.6 111.7 48.7 112.6C49.8 124.7 51.1 136.8 51.7 149C51.7 149.8 51.8 150.6 51.8 151.4C53.4 151.2 55 150.9 56.6 150.7C55.3 139.1 54.2 127.5 53.5 115.9C53.5 115.1 53.4 114.3 53.4 113.5C53.4 113.1 53.4 112.8 53.3 112.4C52.8 100.3 52.8 88.2 53 76C62.4 72.1 72.2 56 76.9 47.3C77.5 46.2 78 45.3 78.4 44.5C79.3 42.7 80.2 40.9 81 39.2C83.3 34.2 84.9 29.2 85.8 23.8C84.5 27.2 83 30.8 81.2 34.4C79.9 37 78.5 39.6 77.1 42.2C72.7 50.1 67.6 57.6 63.2 63C60.1 66.8 55.7 71.4 52.9 71.9C53 66.6 53.1 61.2 53.2 55.9C65 46.4 73 30 74.4 10.6H73.7C71.6 20.2 68 36.3 61.9 42.6C59.2 45.4 56.6 48.3 53.5 51.9C53.6 48.1 53.6 44.3 53.6 40.5C53.6 38.6 54.4 32.4 54.9 25.7C55.4 25.2 55.9 24.7 56.5 24.1C56.7 23.9 56.9 23.7 57 23.5C59.8 20.6 63 17 65.4 13C65.8 12.2 66.2 11.4 66.5 10.7H65.3C65 11.3 64.7 11.9 64.4 12.6C62.1 16.5 59 20 56.2 22.9C56 23.1 55.9 23.3 55.6 23.5C55.4 23.7 55.2 23.9 55 24.1C55.3 19.4 55.4 14.5 54.9 10.7H49.5C49.1 18.1 48.6 25.5 48.2 32.8C47.6 32.2 47.1 31.7 47 31.5C45.8 30 44.9 28.4 44.1 26.7C43.8 26.1 43.6 25.6 43.3 25C42.6 23.2 41.9 21.4 41.3 19.5C40.9 18.2 40.5 16.9 40.1 15.6C39.9 14.8 39.6 14 39.4 13.1C39.2 12.2 39 11.4 38.8 10.5H37.7C38 11.8 38.3 13.1 38.7 14.5C38.9 15.4 39.2 16.3 39.5 17.1C39.8 17.9 40 18.8 40.3 19.7C41 22 41.8 24.2 42.8 26.4C43.1 27 43.3 27.6 43.6 28.1C44.3 29.5 45.1 30.8 46.1 32C46.3 32.3 47.3 33.2 48.2 34.1C48 37.9 47.8 41.7 47.6 45.6C47.1 45 46.5 44.4 46 43.8C44.9 42.6 43.8 41.4 42.8 40.1C41.9 38.9 41.1 37.8 40.4 36.5C40 35.9 39.6 35.2 39.3 34.6C37.6 31.6 36.3 28.4 35.2 24.9C34.9 23.9 34.6 22.8 34.3 21.7C34.2 21.3 34.1 20.9 34 20.5C33.6 19 33.3 17.4 32.9 15.9C32.5 14.1 32 12.3 31.6 10.5H30.5C30.9 12.4 31.4 14.3 31.8 16.2C32.2 17.7 32.5 19.3 32.9 20.8C33.1 21.6 33.3 22.3 33.5 23C33.8 24.1 34.1 25.1 34.4 26.1C35.5 29.6 37 32.8 38.7 35.8C39.1 36.4 39.4 37.1 39.8 37.7C40.4 38.7 41.1 39.7 41.9 40.7C42.9 42 44 43.2 45.1 44.5C45.9 45.4 46.7 46.3 47.5 47.2C47.2 54.5 46.9 61.8 46.8 69.2C46.2 68.1 45.3 66.8 44.1 65.2C43.9 64.9 43.8 64.7 43.7 64.6C41.6 61.6 39.1 57.9 37.2 54.1C36.1 51.9 35.3 49.6 34.6 47.4C34.4 46.7 34.2 46 34 45.3C34 45.2 33.9 45 33.9 44.9C33.4 43.4 32.9 41.8 32.4 40.2C31.9 38.8 31.3 37.3 30.7 35.9C30.3 34.9 29.9 34 29.6 33C29.3 32.2 29 31.3 28.7 30.5C28.1 28.6 27.5 26.8 27.1 24.9C26.2 20.9 25.9 16.6 25.6 12.6C25.6 12 25.5 11.4 25.5 10.7H24.4C24.5 11.3 24.5 12 24.5 12.6C24.4 13.4 24.5 14.2 24.5 15Z" fill="#63350F"/>
<path d="M86.2 55C86.9 55.6 87.6 55.9 88.1 55.6L87.5 56.3C87.3 56.5 87.3 56.9 87.4 57.1C87.9 58.2 89.5 58.1 90 57C90.2 56.5 90.3 56 90.2 55.4C90.7 56 91.3 56.7 92 57C92.8 57.5 93.5001 56.4 92.8001 55.8C92.4001 55.5 92 55.3 91.5 55.3C92.1 55.3 92.6 55.1 93.1 54.9C94.1 54.4 93.5 52.8 92.4 53.1C92.1 53.2 91.8 53.3 91.6 53.4C92 53.2 92.4 52.8 92.7 52.5C93.4 51.5 92 50.3 91.2 51.3C91 51.6 90.8 51.9 90.6 52.2C92.2 48 86.3 50.3 88.1 52.5C86.4 51.6 84.8 53.8 86.2 55Z" fill="#FDDF6C"/>
<path d="M80.6 10C77.9 12.1 82.9 14.2 82.8 10.8C82.8 10.8 83.2 11.2 83.7 11.7C84.6 12.6 86.1 11.4 85.4 10.3C85.1 9.90004 84.7 9.50004 84.3 9.20004C84.9 9.50004 85.5 9.50004 86 9.30004C87 9.00004 87.1 7.50004 86 7.00004C85.5 6.80004 85 6.80004 84.5 7.20004C86.3 5.00004 81.8 3.80004 81.7 7.50004C79.4 5.30004 77.3 9.40004 80.6 10Z" fill="#FDDF6C"/>
<path d="M8.99997 42.1C9.39997 42.3 9.89997 42.5 10.2 42.5C9.29997 42.8 8.09997 43.6 8.49997 44.3C8.89997 45 9.89998 44.3 10.6 43.7C10.4 43.9 10.4 44.3 10.6 44.7C10.9 45.4 11.9 45.5 12 44.8C12.1 44.2 12.1 43.5 12.2 42.9C12.5 43.2 12.9 43.6 13.3 43.8C13.7 44.1 14.1 43.6 13.7 43.2C13.3 42.8 12.7 42.4 12.2 42.1C13.1 42.5 14.4 42.6 14.9 41.9C14.1 40.9 12.7 41 11.8 41.2C12.5 40.9 13 40.3 13.4 39.7C12.6 39 11.9 40.3 11.5 40.7C11.5 40.5 11.3 40.1 11.1 39.8C10.7 39.2 9.79997 39.6 10.2 40.2C10.4 40.6 10.7 41 10.8 41.5C10.4 41 9.59997 40.9 8.99997 41C8.39997 41 8.39997 41.8 8.99997 42.1Z" fill="#FDDF6C"/>
<path d="M85 21.8C85.7 22.5 86.4 23.3 87.4 23.3C86.2 23.5 83.1 24.9 83.5 26.2C84.2 28 87.3 25.2 87.9 24.6L88 24.1C88.2 24.4 90 27.7 91.2 27.2C92.8 26.5 89.4 23.9 88.8 23.3C90.5 23.5 93.3 24.9 94.7 23.3C93.5 21.7 91.4 22.2 89.8 22.5C91.1 21.5 93.3 20.5 93.7 18.8C92 18.5 90.2 20.9 89.2 22.2C89.8 21.1 91 18.9 89.9 18.1C88.6 19.4 88.4 20.3 88.2 22C87.2 21 85.8 20.4 85 21.8Z" fill="#FDDF6C"/>
<path d="M10.8 63.9C10.3 64.6 10.9 65.4 11.6 65.9C10.1 65.8 8.10002 66.4 8.20002 67.5C8.40002 69.2 12 67.9 13.3 67.2L12.8 67.5C12.5 68.2 10.8 72.8 13.2 70.6C14.2 69.6 14.2 68 14 66.8C14.5 67.4 15.4 68.4 16.3 68.9C16.9 69.2 17.6 68.5 17.2 67.9C16.7 67.2 16.1 66.5 15.6 66.2C17.3 66.6 19.8 66.5 19.6 65.1C19.3 63.2 14.8 64.3 14 65.4C14.4 64.6 15.2 63.6 15.5 62.7C15.7 62 14.8 61.5 14.4 62.1C13.7 62.9 13.4 64.1 13.3 65.1C13 64.2 11.6 62.7 10.8 63.9Z" fill="#FDDF6C"/>
<path d="M36 5.90003C36.4 6.10003 36.9 6.30003 37.2 6.30003C36.3 6.60003 35.1 7.40003 35.5 8.10003C35.9 8.80003 36.9 8.10003 37.6 7.50003C37.4 7.70003 37.4 8.10003 37.6 8.50003C37.9 9.20003 38.9 9.30003 39 8.60003C39 8.00003 39 7.30003 39.2 6.70003C39.5 7.00003 39.9 7.40003 40.3 7.60003C40.7 7.90003 41.1 7.40003 40.7 7.00003C40.3 6.60003 39.7 6.20003 39.2 5.90003C40.1 6.30003 41.4 6.40003 41.9 5.70003C41.1 4.70003 39.7 4.80003 38.8 5.00003C39.5 4.70003 40 4.10003 40.4 3.50003C39.6 2.80003 38.9 4.10003 38.5 4.50003C38.5 4.30003 38.3 3.90003 38.1 3.60003C37.7 3.00003 36.8 3.40003 37.2 4.00003C37.4 4.40003 37.7 4.80003 37.8 5.30003C37.4 4.80003 36.6 4.70003 36 4.80003C35.4 4.80003 35.4 5.60003 36 5.90003Z" fill="#FDDF6C"/>
<path d="M72.1001 72.7C72.5001 72.9 73.0001 73.1 73.3001 73.1C72.4001 73.4 71.2001 74.2 71.6001 74.9C72.0001 75.6 73.0001 74.9 73.7001 74.3C73.5001 74.5 73.5001 74.9 73.7001 75.3C74.0001 76 75.0001 76.1 75.1001 75.4C75.2001 74.8 75.2001 74.1 75.3001 73.5C75.6001 73.8 76.0001 74.2 76.4001 74.4C76.8001 74.7 77.2001 74.2 76.8001 73.8C76.4001 73.4 75.8001 73 75.3001 72.7C76.2001 73.1 77.5001 73.2 78.0001 72.5C77.2001 71.5 75.8001 71.6 74.9001 71.8C75.6001 71.5 76.1001 70.9 76.5001 70.3C75.7001 69.6 75.0001 70.9 74.6001 71.3C74.6001 71.1 74.4001 70.7 74.2001 70.4C73.8001 69.8 72.9001 70.2 73.3001 70.8C73.5001 71.2 73.8001 71.6 73.9001 72.1C73.5001 71.6 72.7001 71.5 72.1001 71.6C71.5001 71.6 71.5001 72.5 72.1001 72.7Z" fill="#FDDF6C"/>
<path d="M30.2 68.1C29.2 69.4 31.4 71.2 32.9 72C31.4 71.6 28.7 71.7 28.6 73.3C28.4 75.5 32.4 74.7 33.5 74.4L34.2 74C33.4 74.9 32.3 79.1 34.4 79.5C36.6 79.9 36.7 75.4 36.2 74.1C37.6 75.3 40.8 78.2 42.7 76.8C42 75.1 39.5 74.1 37.7 73.9C39.1 73.6 44.1 70.7 42.7 68.7C41.6 67.1 38.3 69.9 37.3 71.1C38.2 70 40 65.9 38 65.4C35.9 64.9 35.2 69.6 35.4 70.7C34.8 69.5 31.6 66.3 30.2 68.1Z" fill="#FDDF6C"/>
<path d="M22.7 33.3C24.1 33.7 25.5 33.8 27 33.7C25.5 34.1 19.7 34.9 21.3 37.3C22.5 39.2 26.3 38.1 28.4 36.7C26.7 38.1 24.1 40.5 25.3 41.6C26.3 42.5 28.8 39.1 30.3 36.9C31.3 37.5 33.7 39.8 34.6 39.5C36.2 38.8 32.6 36.5 31.3 35.6C31.3 35.6 31.3 35.6 31.3 35.5C32.6 36 34.4 35.8 35.8 35.1C36.9 34.6 36.5 32.9 35.3 32.9C33.3 32.9 31.9 33.3 30.4 33.8C32.2 33 33.3 31.7 33.8 29.6C34.1 28.3 32.3 27.7 31.7 28.9C31 30.3 30.3 32 29.7 32.8C30.1 31.3 29.7 26.8 28.2 26.8C25.6 26.7 26.9 31.8 27.7 32.7C26.6 32.2 25 31.5 23.4 31.3C21.8 31 21.4 32.9 22.7 33.3Z" fill="#FDDF6C"/>
<path d="M76.4 40.9C76.5 41 76.4 41.1 76.3 41.1C74.6 40.5 72.6 42 73.5 44C74.2 45.4 75.4 45.2 76.6 45.2C76.8 45.2 77.7 44.8 78.3 44.5C78.4 44.5 78.4 44.5 78.5 44.6C78.5 44.6 78.5 44.6 78.5 44.7C78.2 45.2 77.7 47.2 79 48.3H79.1C80.4 47.4 81.1 46.1 80.4 44.8C80.4 44.7 80.5 44.6 80.5 44.7C81.6 45.3 82.9 45.8 84 45.7C84.7 45.6 85 44.8 84.5 44.3C84.1 44 83.8 43.7 83.4 43.5C83.3 43.4 83.3 43.3 83.5 43.3C84.6 43.3 85.5 42.7 86.2 41.8C86.5 41.3 86.4 40.7 86 40.4C85.1 39.8 84 40.2 83.1 41C83 41.1 82.9 41 82.9 40.9C83.6 39.5 84.9 36.8 83.8 36.2C82.2 35.3 80.5 38.3 80 39.8C80 39.9 79.8 39.9 79.8 39.8C78.5 34.7 74.2 38.4 76.4 40.9Z" fill="#FDDF6C"/>
<path d="M79.3 43.5001C79.8 43.3001 80.2 43.0001 80.5 42.7001C80.9 42.2001 80.7 41.5001 80.1 41.4001C79.4 41.2001 78.9 41.1001 78.4 42.0001C78.4 42.0001 78 42.4001 78.2 42.7001C78.6 43.1001 78.6 43.2001 79.3 43.5001Z" fill="#FDDF6C"/>
</g>
<path d="M54.9327 146.455C54.5235 145.4 54.0025 144.394 53.3832 143.443C53.0606 142.949 52.7208 142.453 52.3239 142.014C52.1574 141.829 51.9823 141.644 51.7691 141.514C51.6806 141.459 51.661 141.444 51.5633 141.414C51.524 141.403 51.3476 141.395 51.3685 141.388C51.0263 141.45 50.7332 141.824 50.5169 142.174C50.2042 142.678 49.9462 143.222 49.7397 143.776C49.282 145.003 49.0522 146.279 49.0528 147.585C49.0528 147.955 48.8162 148.302 48.4734 148.439C48.0949 148.59 47.7533 148.492 47.4443 148.246C46.557 147.541 45.5814 146.837 44.4385 146.633C43.7258 146.505 42.7532 146.704 42.2623 147.348V147.348C42.2623 147.356 42.1615 147.522 42.1443 147.556C42.1044 147.638 42.0774 147.724 42.0528 147.811C41.9704 148.098 41.9453 148.383 41.9305 148.68C41.8955 149.369 41.8955 150.062 41.9213 150.753C41.9729 152.109 42.1296 153.467 42.4282 154.793C42.4442 154.864 42.4736 154.987 42.4915 155.052C42.4632 155.049 42.4405 155.043 42.427 155.036C42.4515 155.049 42.4921 155.061 42.5013 155.088C42.4988 155.082 42.4952 155.069 42.4909 155.052C42.6481 155.072 43.0002 155.047 43.1864 155.047C43.7455 155.047 44.3052 155.046 44.865 155.046C44.9565 155.403 45.0542 155.758 45.1562 156.112C45.2809 156.544 45.9635 156.359 45.8376 155.925C45.7528 155.633 45.6717 155.34 45.5949 155.046C46.9792 155.046 48.3616 155.046 49.7452 155.046C50.775 155.046 51.8054 155.045 52.8351 155.045C52.8351 155.425 52.8351 155.805 52.8351 156.185C52.8351 156.637 53.5417 156.636 53.5417 156.185C53.5417 155.805 53.5417 155.425 53.5417 155.045C54.0805 155.045 54.6188 155.045 55.1576 155.045C55.2191 155.407 55.7905 155.407 55.8519 155.045C56.5321 155.045 57.211 155.044 57.8905 155.044C57.9434 155.4 58.5086 155.517 58.5738 155.114C58.5774 155.091 58.5817 155.068 58.5848 155.044C59.0254 155.044 59.4665 155.044 59.907 155.044C59.8702 155.335 59.8327 155.624 59.7934 155.914C59.7332 156.36 60.4403 156.354 60.4999 155.914C60.5393 155.624 60.5767 155.334 60.6136 155.044C61.652 155.044 62.6916 155.044 63.7305 155.044C63.7084 155.161 63.6826 155.278 63.6537 155.395C63.5444 155.833 64.2258 156.018 64.3351 155.58C64.38 155.402 64.4174 155.223 64.4476 155.043C64.8064 155.043 65.1646 155.043 65.5228 155.043C65.4718 155.273 65.4005 155.499 65.3016 155.719C65.116 156.127 65.7255 156.483 65.9117 156.072C66.0647 155.735 66.1636 155.391 66.2263 155.043C66.8419 155.043 67.4563 155.043 68.072 155.043C68.0468 155.387 68.013 155.728 67.9712 156.066C67.927 156.421 68.185 156.74 68.5021 156.897C68.448 156.906 68.3915 156.911 68.3307 156.911C61.875 156.913 55.4206 156.913 48.9649 156.914C47.3773 156.914 45.7896 156.914 44.202 156.914C43.4653 156.914 42.6334 157.017 41.9133 156.83C41.1312 156.627 40.7521 155.947 40.5954 155.216C40.2642 153.678 40.075 152.1 40.0295 150.528C39.9902 149.169 39.8685 147.467 40.7115 146.305C41.5539 145.143 43.0641 144.603 44.4773 144.764C45.515 144.883 46.4329 145.299 47.2864 145.84C47.2071 146.418 47.1684 147.003 47.1684 147.584C47.7035 147.365 48.2399 147.144 48.7763 146.924C48.2958 146.542 47.8031 146.167 47.2864 145.84C47.3767 145.171 47.5217 144.509 47.722 143.867C48.082 142.709 48.5889 141.507 49.3729 140.566C50.1975 139.578 51.5117 139.216 52.668 139.869C53.7162 140.46 54.4541 141.631 55.0845 142.614C55.2965 142.946 55.4968 143.284 55.6848 143.63C55.4476 144.547 55.2528 145.475 55.1005 146.41L54.9327 146.455Z" fill="#63350F"/>
<path d="M66.3404 152.333C66.3497 151.881 65.6431 151.882 65.6339 152.333C65.6148 153.222 65.7168 154.165 65.5227 155.044C65.1638 155.044 64.8056 155.044 64.4474 155.044C64.5384 154.51 64.5666 153.969 64.5285 153.424C64.4972 152.976 63.7906 152.973 63.822 153.424C63.8607 153.973 63.8324 154.51 63.731 155.044C62.6927 155.045 61.6531 155.045 60.6141 155.045C61.0356 151.717 61.309 148.372 61.4307 145.018C61.4472 144.567 60.7407 144.569 60.7241 145.018C60.6024 148.372 60.329 151.717 59.9075 155.045C59.467 155.045 59.0258 155.045 58.5853 155.045C58.6535 154.595 58.6762 154.15 58.6388 153.696C58.6019 153.25 57.8953 153.246 57.9322 153.696C57.966 154.108 57.9586 154.52 57.8929 154.929C57.8861 154.97 57.8861 155.01 57.891 155.046C57.2109 155.046 56.5319 155.046 55.8524 155.046C55.8573 155.025 55.8585 155.004 55.8585 154.98C55.8585 154.616 55.8585 154.253 55.8585 153.89C55.8585 153.439 55.152 153.439 55.152 153.89C55.152 154.253 55.152 154.616 55.152 154.98C55.152 155.003 55.1538 155.025 55.1581 155.046C54.6193 155.046 54.081 155.046 53.5422 155.046C53.5422 152.247 53.5422 149.45 53.5422 146.653C53.5422 146.201 52.8356 146.202 52.8356 146.653C52.8356 149.45 52.8356 152.248 52.8356 155.046C51.8059 155.046 50.7755 155.047 49.7457 155.047C48.3615 155.047 46.979 155.047 45.5954 155.047C45.1739 153.453 44.8525 151.833 44.643 150.196C44.5865 149.755 43.8799 149.751 43.9364 150.196C44.146 151.833 44.4538 153.45 44.8654 155.047C44.3057 155.047 43.746 155.047 43.1869 155.047C43.0007 155.047 42.648 155.073 42.4913 155.053C42.4735 154.988 42.4434 154.864 42.4281 154.794C42.1288 153.468 41.9728 152.11 41.9212 150.753C41.8954 150.063 41.8954 149.37 41.9304 148.68C41.9451 148.383 41.9703 148.099 42.0526 147.812C42.0778 147.724 42.1043 147.639 42.1442 147.557C42.1614 147.522 42.2622 147.356 42.2622 147.349V147.348C42.7531 146.704 43.7257 146.505 44.4384 146.633C45.5812 146.838 46.5575 147.541 47.4441 148.247C47.7532 148.493 48.0948 148.591 48.4733 148.44C48.8161 148.303 49.0527 147.956 49.0527 147.586C49.0521 146.279 49.2818 145.004 49.7396 143.777C49.946 143.222 50.2041 142.679 50.5168 142.174C50.7337 141.824 51.0262 141.45 51.3684 141.389C51.3469 141.397 51.5238 141.403 51.5632 141.415C51.6602 141.444 51.6799 141.459 51.769 141.515C51.9828 141.645 52.1573 141.829 52.3238 142.014C52.7201 142.454 53.0605 142.95 53.3831 143.444C54.0024 144.394 54.524 145.4 54.9326 146.455C54.991 146.606 55.0463 146.757 55.1003 146.91C55.2386 147.3 55.5759 147.596 56.0085 147.596C56.3894 147.596 56.8527 147.309 56.9178 146.91C56.9436 146.749 56.9712 146.588 57.0001 146.428C57.2791 144.87 57.6747 143.335 58.1921 141.838C58.3899 141.266 58.562 140.535 58.9177 140.052C58.9853 139.96 59.0136 139.951 59.1278 139.893C59.0947 139.915 59.1751 139.887 59.2065 139.877C59.2329 139.874 59.2667 139.87 59.2747 139.869C59.4774 139.862 59.6796 139.9 59.8633 139.973C60.8556 140.362 61.5818 141.436 61.9879 142.403C62.4451 143.493 62.6165 144.664 62.6257 145.841C62.6361 147.346 62.5016 148.814 63.1824 150.212C63.4742 150.812 64.2262 150.739 64.6625 150.401C65.1208 150.048 65.4373 149.552 65.7328 149.064C65.9362 148.727 66.153 148.33 66.4676 148.123C66.5235 148.086 66.6175 148.042 66.6433 148.03C66.5924 148.021 66.6268 148.019 66.746 148.024C66.7288 148.019 66.7152 148.016 66.7066 148.013C66.7146 148.015 66.7257 148.017 66.7398 148.021C66.7687 148.026 66.7982 148.033 66.8264 148.043C66.832 148.046 66.8443 148.054 66.8658 148.065C66.9063 148.091 66.9168 148.095 66.8977 148.077C66.9377 148.11 66.9764 148.146 67.0132 148.184C67.192 148.364 67.3714 148.741 67.4679 149.038C68.0872 150.938 68.223 153.037 68.0725 155.044C67.4568 155.044 66.8424 155.044 66.2268 155.044C66.3865 154.159 66.3214 153.245 66.3404 152.333ZM42.9313 153.046C42.7875 152.911 42.5749 152.916 42.4311 153.046C42.2929 153.172 42.2972 153.414 42.4311 153.542C42.4477 153.556 42.4625 153.572 42.4766 153.587C42.4735 153.583 42.4711 153.579 42.4692 153.576C42.4723 153.581 42.4754 153.585 42.4803 153.592C42.4864 153.601 42.5122 153.653 42.5208 153.667C42.5208 153.668 42.5214 153.668 42.5208 153.669C42.5245 153.681 42.5313 153.705 42.5356 153.723C42.5307 153.717 42.5411 153.796 42.5405 153.812C42.5343 154.008 42.7076 154.154 42.8938 154.162C43.0892 154.171 43.2409 153.995 43.2471 153.812C43.2569 153.526 43.1389 153.243 42.9313 153.046ZM47.0657 150.037C47.0657 149.942 47.0257 149.858 46.9618 149.79C46.8979 149.721 46.8033 149.692 46.7124 149.687C46.6245 149.684 46.5237 149.729 46.4629 149.79C46.3984 149.854 46.3591 149.947 46.3591 150.037C46.3591 150.102 46.3591 150.167 46.3591 150.232C46.3591 150.327 46.399 150.411 46.4629 150.479C46.5268 150.547 46.6214 150.578 46.7124 150.582C46.8002 150.586 46.901 150.54 46.9618 150.479C47.0263 150.415 47.0657 150.321 47.0657 150.232C47.0657 150.167 47.0657 150.102 47.0657 150.037ZM48.665 154.263C48.649 154.16 48.6336 154.056 48.6177 153.953C48.6035 153.865 48.5273 153.79 48.4555 153.743C48.3756 153.692 48.2736 153.688 48.1833 153.709C48.0991 153.727 48.0155 153.796 47.9719 153.869C47.9203 153.956 47.9215 154.043 47.9369 154.139C47.9529 154.242 47.9682 154.346 47.9842 154.449C47.9983 154.537 48.0745 154.613 48.1464 154.659C48.2263 154.71 48.3283 154.714 48.4186 154.694C48.5028 154.675 48.5863 154.606 48.63 154.533C48.6816 154.446 48.6797 154.36 48.665 154.263ZM50.5199 146.38C50.5199 145.928 49.8133 145.929 49.8133 146.38C49.8133 148.948 49.8133 151.516 49.8133 154.084C49.8133 154.536 50.5199 154.535 50.5199 154.084C50.5199 151.516 50.5199 148.948 50.5199 146.38ZM56.2511 149.299C56.2511 149.204 56.2112 149.12 56.1473 149.051C56.084 148.982 55.9888 148.953 55.8979 148.948C55.81 148.945 55.7092 148.99 55.6484 149.051C55.5839 149.114 55.5446 149.208 55.5446 149.299C55.5446 149.35 55.5446 149.402 55.5446 149.455C55.5446 149.55 55.5845 149.634 55.6484 149.702C55.7117 149.77 55.8069 149.801 55.8979 149.805C55.9857 149.808 56.0865 149.763 56.1473 149.702C56.2118 149.638 56.2511 149.544 56.2511 149.455C56.2511 149.402 56.2511 149.35 56.2511 149.299ZM59.8227 141.983C59.8117 141.786 59.6697 141.641 59.4694 141.632C59.2857 141.624 59.1057 141.799 59.1162 141.983C59.1254 142.151 59.1192 142.317 59.0897 142.473C59.0535 142.66 59.1401 142.851 59.3361 142.904C59.5094 142.951 59.7349 142.845 59.7711 142.659C59.8141 142.436 59.8356 142.21 59.8227 141.983ZM62.2958 151.828C62.2958 151.733 62.2558 151.649 62.1919 151.58C62.1286 151.511 62.0334 151.482 61.9425 151.477C61.8546 151.474 61.7538 151.519 61.693 151.58C61.6285 151.643 61.5892 151.738 61.5892 151.828C61.5892 151.84 61.5892 151.853 61.5892 151.867C61.5892 151.962 61.6291 152.046 61.693 152.114C61.7569 152.182 61.8515 152.213 61.9425 152.217C62.0303 152.221 62.1311 152.175 62.1919 152.114C62.2564 152.05 62.2958 151.956 62.2958 151.867C62.2958 151.853 62.2958 151.84 62.2958 151.828Z" fill="#60B95D"/>
<path d="M42.8939 154.162C42.7077 154.153 42.5344 154.008 42.5406 153.812C42.5412 153.796 42.5314 153.716 42.5357 153.722C42.5308 153.704 42.5246 153.681 42.5209 153.668C42.524 153.671 42.524 153.671 42.5215 153.665C42.5209 153.663 42.5209 153.662 42.5197 153.662C42.5197 153.664 42.5197 153.665 42.5203 153.667C42.5117 153.653 42.4859 153.602 42.4798 153.592C42.4749 153.585 42.4718 153.581 42.4687 153.576C42.4706 153.579 42.4724 153.583 42.4761 153.587C42.4619 153.571 42.4472 153.556 42.4306 153.542C42.2967 153.415 42.2924 153.172 42.4306 153.046C42.5744 152.916 42.787 152.911 42.9308 153.046C43.139 153.243 43.2564 153.526 43.2472 153.812C43.241 153.994 43.0899 154.17 42.8939 154.162ZM42.5197 153.658C42.5197 153.658 42.5197 153.659 42.5203 153.659C42.5203 153.659 42.5197 153.659 42.5197 153.658Z" fill="#63350F"/>
<path d="M42.427 155.036C42.4405 155.044 42.4632 155.049 42.4915 155.053C42.4952 155.069 42.4995 155.082 42.502 155.089C42.4921 155.061 42.4516 155.05 42.427 155.036Z" fill="#63350F"/>
<path d="M42.522 153.665C42.5247 153.672 42.5247 153.672 42.5214 153.669C42.522 153.668 42.5214 153.668 42.5214 153.667C42.5207 153.664 42.5207 153.663 42.5207 153.661C42.5214 153.662 42.5214 153.663 42.522 153.665Z" fill="#63350F"/>
<path d="M44.6432 150.196C44.8528 151.833 45.1741 153.453 45.5956 155.047C45.5219 155.047 45.4475 155.047 45.3732 155.047C45.2036 155.047 45.0346 155.047 44.865 155.047C44.4534 153.45 44.1462 151.833 43.9361 150.196C43.8801 149.751 44.5867 149.755 44.6432 150.196Z" fill="#63350F"/>
<path d="M45.5955 155.047C45.6723 155.341 45.7534 155.633 45.8382 155.926C45.9636 156.36 45.2815 156.545 45.1568 156.113C45.0548 155.759 44.9571 155.404 44.8656 155.047C45.0352 155.047 45.2041 155.047 45.3737 155.047C45.4474 155.047 45.5218 155.047 45.5955 155.047Z" fill="#63350F"/>
<path d="M46.7124 150.583C46.6215 150.579 46.5262 150.549 46.4629 150.48C46.3997 150.412 46.3591 150.327 46.3591 150.232C46.3591 150.167 46.3591 150.103 46.3591 150.038C46.3591 149.948 46.3984 149.854 46.4629 149.791C46.5244 149.73 46.6245 149.684 46.7124 149.688C46.8033 149.692 46.8986 149.721 46.9618 149.791C47.0257 149.859 47.0657 149.943 47.0657 150.038C47.0657 150.103 47.0657 150.167 47.0657 150.232C47.0657 150.322 47.0264 150.416 46.9618 150.48C46.901 150.541 46.8002 150.586 46.7124 150.583Z" fill="#63350F"/>
<path d="M47.1688 147.585C47.1688 147.004 47.2075 146.419 47.2868 145.841C47.8035 146.169 48.2963 146.543 48.7767 146.926C48.2403 147.145 47.704 147.366 47.1688 147.585Z" fill="#63350F"/>
<path d="M48.4187 154.694C48.3284 154.714 48.2264 154.711 48.1465 154.659C48.074 154.614 47.9978 154.538 47.9843 154.45C47.9683 154.346 47.953 154.243 47.937 154.14C47.9223 154.044 47.9204 153.957 47.972 153.87C48.015 153.797 48.0992 153.728 48.1834 153.709C48.2737 153.689 48.3757 153.693 48.4556 153.744C48.5281 153.791 48.6036 153.865 48.6178 153.953C48.6337 154.057 48.6491 154.161 48.6651 154.264C48.6798 154.36 48.6817 154.446 48.6294 154.533C48.5864 154.606 48.5029 154.675 48.4187 154.694Z" fill="#63350F"/>
<path d="M49.8136 154.085C49.8136 151.517 49.8136 148.948 49.8136 146.38C49.8136 145.93 50.5201 145.929 50.5201 146.38C50.5201 148.948 50.5201 151.517 50.5201 154.085C50.5201 154.535 49.8136 154.536 49.8136 154.085Z" fill="#63350F"/>
<path d="M53.5424 156.186C53.5424 156.637 52.8358 156.637 52.8358 156.186C52.8358 155.806 52.8358 155.426 52.8358 155.046C53.0711 155.046 53.307 155.046 53.5424 155.046C53.5424 155.426 53.5424 155.806 53.5424 156.186Z" fill="#63350F"/>
<path d="M53.5424 146.652C53.5424 149.45 53.5424 152.247 53.5424 155.046C53.307 155.046 53.0711 155.046 52.8358 155.046C52.8358 152.247 52.8358 149.45 52.8358 146.652C52.8364 146.201 53.5424 146.201 53.5424 146.652Z" fill="#63350F"/>
<path d="M56.0093 147.595C55.5768 147.595 55.2395 147.3 55.1012 146.909C55.0471 146.757 54.9912 146.605 54.9335 146.455L55.1012 146.413C55.707 146.413 56.3128 146.413 56.9186 146.413L57.001 146.427C56.9721 146.587 56.9445 146.748 56.9186 146.909C56.8535 147.307 56.3902 147.595 56.0093 147.595Z" fill="#63350F"/>
<path d="M55.101 146.413C55.2534 145.477 55.4482 144.549 55.6853 143.632C56.1719 144.523 56.5811 145.456 56.9185 146.413C56.312 146.413 55.7068 146.413 55.101 146.413Z" fill="#63350F"/>
<path d="M55.1519 153.89C55.1519 153.439 55.8585 153.439 55.8585 153.89C55.8585 154.253 55.8585 154.616 55.8585 154.98C55.8585 155.003 55.8567 155.025 55.8524 155.046C55.6207 155.046 55.3897 155.046 55.1581 155.046C55.1532 155.025 55.1519 155.004 55.1519 154.98C55.1519 154.616 55.1519 154.253 55.1519 153.89Z" fill="#63350F"/>
<path d="M55.1583 155.046C55.3899 155.046 55.6209 155.046 55.8525 155.046C55.7911 155.409 55.2197 155.409 55.1583 155.046Z" fill="#63350F"/>
<path d="M55.8979 149.804C55.807 149.801 55.7118 149.77 55.6485 149.701C55.5846 149.633 55.5446 149.549 55.5446 149.454C55.5446 149.402 55.5446 149.35 55.5446 149.298C55.5446 149.208 55.584 149.114 55.6485 149.051C55.7099 148.99 55.8101 148.944 55.8979 148.948C55.9889 148.951 56.0841 148.981 56.1474 149.051C56.2113 149.119 56.2512 149.203 56.2512 149.298C56.2512 149.349 56.2512 149.402 56.2512 149.454C56.2512 149.544 56.2119 149.638 56.1474 149.701C56.0859 149.762 55.9858 149.808 55.8979 149.804Z" fill="#63350F"/>
<path d="M68.9122 157C68.7764 157 68.6332 156.963 68.5005 156.897C69.5407 156.73 69.4824 155.043 68.3297 155.043C68.2431 155.043 68.1571 155.043 68.0704 155.043C68.221 153.036 68.0852 150.938 67.4658 149.037C67.3694 148.74 67.1906 148.363 67.0112 148.183C66.9743 148.145 66.9356 148.109 66.8957 148.076C66.8926 148.074 66.8883 148.07 66.884 148.066C66.8815 148.063 66.8785 148.061 66.8754 148.058L66.8748 148.057C66.833 148.041 66.8164 148.035 66.8244 148.041C66.7961 148.032 66.7673 148.025 66.7378 148.019C66.7236 148.016 66.7126 148.014 66.7046 148.012C66.7132 148.014 66.7267 148.017 66.7439 148.022C66.6247 148.017 66.5903 148.02 66.6413 148.028C66.6155 148.041 66.5215 148.085 66.4656 148.122C66.151 148.329 65.9341 148.726 65.7307 149.063C65.4358 149.551 65.1194 150.046 64.6604 150.4C64.2248 150.737 63.4728 150.81 63.1803 150.211C62.4995 148.813 62.6341 147.344 62.6236 145.84C62.615 144.663 62.443 143.492 61.9859 142.401C61.5798 141.434 60.8541 140.361 59.8612 139.971C59.6775 139.899 59.4748 139.861 59.2726 139.868C59.2646 139.868 59.2309 139.872 59.2044 139.876C59.2075 139.875 59.21 139.874 59.2118 139.873C59.2007 139.875 59.1928 139.876 59.1866 139.877C59.1915 139.877 59.1977 139.876 59.2044 139.875C59.1731 139.885 59.0932 139.912 59.1258 139.891C59.0109 139.949 58.9826 139.958 58.9157 140.05C58.5599 140.533 58.3879 141.265 58.19 141.836C57.6727 143.333 57.277 144.868 56.9981 146.426L56.9157 146.411C56.5784 145.455 56.1692 144.522 55.6826 143.631C55.8768 142.883 56.0986 142.14 56.3499 141.408C56.6098 140.651 56.8494 139.782 57.2918 139.107C57.7501 138.409 58.4862 138.006 59.3267 138C60.8904 137.991 62.1739 139.149 63.0034 140.354C63.8316 141.558 64.234 142.997 64.4147 144.428C64.5185 145.251 64.5074 146.068 64.4921 146.895C64.489 147.1 64.4841 147.31 64.4866 147.52C64.4448 147.578 64.4048 147.636 64.3655 147.695C64.0399 148.188 63.8076 148.709 63.3284 149.079C63.8211 149.143 64.3151 149.205 64.8085 149.268C64.5455 148.729 64.4915 148.12 64.4866 147.52C64.8607 146.995 65.3258 146.545 65.9415 146.306C67.2023 145.815 68.3998 146.614 68.9509 147.726C69.5493 148.932 69.7367 150.357 69.8848 151.678C70.0488 153.137 70.0341 154.609 69.8541 156.066C69.7932 156.566 69.4658 157 68.9122 157Z" fill="#63350F"/>
<path d="M57.8925 154.929C57.9582 154.52 57.9656 154.108 57.9318 153.696C57.895 153.246 58.6015 153.25 58.6384 153.696C58.6759 154.15 58.6531 154.595 58.5849 155.045C58.5536 155.045 58.5229 155.045 58.4916 155.045C58.2913 155.045 58.091 155.045 57.8913 155.045C57.8857 155.009 57.8857 154.969 57.8925 154.929Z" fill="#63350F"/>
<path d="M58.5847 155.045C58.5816 155.068 58.578 155.092 58.5737 155.115C58.5085 155.518 57.9433 155.4 57.8904 155.045C58.0907 155.045 58.291 155.045 58.4907 155.045C58.5227 155.045 58.5534 155.045 58.5847 155.045Z" fill="#63350F"/>
<path d="M59.3363 142.904C59.1403 142.851 59.0537 142.66 59.0899 142.473C59.12 142.317 59.1262 142.151 59.1164 141.983C59.1059 141.799 59.2859 141.624 59.4696 141.632C59.6699 141.641 59.8119 141.786 59.8229 141.983C59.8352 142.21 59.8143 142.436 59.7713 142.659C59.7351 142.845 59.5096 142.95 59.3363 142.904Z" fill="#63350F"/>
<path d="M60.4999 155.914C60.4403 156.355 59.7331 156.361 59.7933 155.914C59.8326 155.625 59.8701 155.335 59.9069 155.045C60.1423 155.045 60.3782 155.045 60.6135 155.045C60.5767 155.336 60.5392 155.625 60.4999 155.914Z" fill="#63350F"/>
<path d="M61.4301 145.018C61.3085 148.372 61.0351 151.717 60.6136 155.045C60.3783 155.045 60.1423 155.045 59.907 155.045C60.3285 151.717 60.6019 148.372 60.7236 145.018C60.7401 144.57 61.4467 144.567 61.4301 145.018Z" fill="#63350F"/>
<path d="M61.9426 152.217C61.8517 152.213 61.7564 152.183 61.6932 152.114C61.6299 152.046 61.5893 151.962 61.5893 151.867C61.5893 151.853 61.5893 151.84 61.5893 151.828C61.5893 151.738 61.6286 151.643 61.6932 151.58C61.7546 151.519 61.8548 151.474 61.9426 151.477C62.0335 151.481 62.1288 151.511 62.1921 151.58C62.256 151.649 62.2959 151.733 62.2959 151.828C62.2959 151.84 62.2959 151.853 62.2959 151.867C62.2959 151.956 62.2566 152.051 62.1921 152.114C62.1312 152.175 62.0305 152.221 61.9426 152.217Z" fill="#63350F"/>
<path d="M63.3299 149.081C63.8086 148.711 64.0414 148.189 64.3671 147.697C64.4064 147.638 64.4463 147.579 64.4881 147.522C64.493 148.122 64.5471 148.73 64.8101 149.27C64.3167 149.207 63.8227 149.143 63.3299 149.081Z" fill="#63350F"/>
<path d="M64.3346 155.582C64.2252 156.019 63.5438 155.834 63.6532 155.396C63.6821 155.279 63.7079 155.163 63.73 155.045C63.9684 155.045 64.208 155.045 64.447 155.045C64.4175 155.224 64.3794 155.403 64.3346 155.582Z" fill="#63350F"/>
<path d="M63.8214 153.423C63.79 152.973 64.4966 152.975 64.5279 153.423C64.5666 153.969 64.5384 154.51 64.4468 155.044C64.2084 155.044 63.9688 155.044 63.7298 155.044C63.8312 154.51 63.8594 153.973 63.8214 153.423Z" fill="#63350F"/>
<path d="M65.9111 156.073C65.725 156.484 65.1161 156.129 65.301 155.72C65.3999 155.501 65.4712 155.275 65.5222 155.044C65.7569 155.044 65.991 155.044 66.2257 155.044C66.163 155.392 66.0641 155.736 65.9111 156.073Z" fill="#63350F"/>
<path d="M65.634 152.333C65.6432 151.882 66.3498 151.881 66.3406 152.333C66.3216 153.244 66.3867 154.159 66.2257 155.043C65.991 155.044 65.7569 155.044 65.5222 155.044C65.717 154.165 65.615 153.223 65.634 152.333Z" fill="#63350F"/>
<path d="M66.8757 148.058C66.8591 148.052 66.8419 148.047 66.8254 148.042C66.818 148.036 66.8346 148.041 66.8757 148.058Z" fill="#63350F"/>
<path d="M66.8646 148.064C66.8437 148.053 66.8308 148.046 66.8252 148.042C66.8418 148.047 66.859 148.052 66.8756 148.058L66.8762 148.058C66.8793 148.061 66.8824 148.064 66.8848 148.066C66.8898 148.07 66.8934 148.074 66.8965 148.077C66.9162 148.094 66.9057 148.091 66.8646 148.064Z" fill="#63350F"/>
<path d="M67.9711 156.067C68.0129 155.729 68.0467 155.388 68.0719 155.044C68.1585 155.044 68.2445 155.044 68.3312 155.044C69.4838 155.044 69.5428 156.731 68.5026 156.899C68.1843 156.741 67.9269 156.422 67.9711 156.067Z" fill="#63350F"/>
<defs>
<clipPath id="clip0">
<rect width="103.2" height="151.4" fill="white"/>
</clipPath>
</defs>
</svg>
