<?xml version="1.0" encoding="utf-8"?>
<!-- Generator: Adobe Illustrator 25.2.3, SVG Export Plug-In . SVG Version: 6.00 Build 0)  -->
<svg version="1.1" xmlns="http://www.w3.org/2000/svg" xmlns:xlink="http://www.w3.org/1999/xlink" x="0px" y="0px"
	 viewBox="0 0 1439.7 274.8" style="enable-background:new 0 0 1439.7 274.8;" xml:space="preserve">
<style type="text/css">
	.st0{clip-path:url(#SVGID_2_);}
	.st1{fill:#FDDF6C;}
	.st2{clip-path:url(#SVGID_4_);}
	.st3{clip-path:url(#SVGID_6_);}
	.st4{clip-path:url(#SVGID_8_);}
	.st5{clip-path:url(#SVGID_10_);}
	.st6{clip-path:url(#SVGID_12_);}
	.st7{clip-path:url(#SVGID_14_);}
	.st8{clip-path:url(#SVGID_16_);}
	.st9{fill:none;}
</style>
<g id="arvores">
	<g id="arvore4">
		<defs>
			<rect id="SVGID_1_" x="257.9" y="35.8" width="171" height="224"/>
		</defs>
		<clipPath id="SVGID_2_">
			<use xlink:href="#SVGID_1_"  style="overflow:visible;"/>
		</clipPath>
		<g class="st0">
			<path class="st1" d="M414.2,212.9c0.2,0.4,0.4,0.9,0.8,1.2c0.4,0.3,0.7,0.6,1.2,0.7c0.6,0.2,1.3-0.2,1.5-0.8
				c0.2-0.7-0.2-1.3-0.8-1.5c0,0-0.2-0.1,0,0c0.2,0.1,0,0,0,0c0,0-0.1-0.1-0.1-0.1c-0.1-0.1,0.2,0.2,0.1,0c0,0-0.3-0.3-0.1-0.1
				c0.1,0.2,0,0,0,0c0-0.1-0.1-0.3,0,0.1c-0.1-0.3-0.3-0.6-0.6-0.7c-0.3-0.2-0.6-0.2-0.9-0.1c-0.3,0.1-0.6,0.3-0.7,0.6
				C414.2,212.2,414.1,212.6,414.2,212.9z"/>
			<path class="st1" d="M281.9,159.5c-0.2,1-0.4,2-0.6,3c-0.1,0.6,0.2,1.3,0.8,1.5c0.6,0.2,1.4-0.2,1.5-0.8c0.2-1,0.4-2,0.6-3
				c0.1-0.6-0.2-1.3-0.8-1.5C282.8,158.5,282.1,158.9,281.9,159.5z"/>
			<path class="st1" d="M284.7,187c-1.8,6.6-5.2,12.5-10,17.3c-1.1,1.1,0.6,2.8,1.7,1.7c5.1-5.1,8.7-11.4,10.6-18.4
				C287.4,186.1,285.1,185.5,284.7,187z"/>
			<path class="st1" d="M269,209.7c-0.1,0.2-0.1,0.5-0.2,0.7c-0.1,0.3,0,0.7,0.1,0.9c0.1,0.3,0.4,0.5,0.7,0.6
				c0.3,0.1,0.7,0.1,0.9-0.1c0.3-0.2,0.5-0.4,0.6-0.7c0.1-0.2,0.1-0.5,0.2-0.7c0.1-0.3,0-0.7-0.1-0.9c-0.1-0.3-0.4-0.5-0.7-0.6
				c-0.3-0.1-0.7-0.1-0.9,0.1C269.3,209.1,269.1,209.4,269,209.7z"/>
			<path class="st1" d="M331.2,38.7c-4.7,8.2-10.1,15.8-15.5,23.5c-6.3,8.9-12.8,17.7-19.2,26.6c-5.6,7.8-11.1,15.6-16,23.8
				c-3.2,5.4-6.3,11.1-7,17.5c-0.6,5.3,1.1,11.5,5.4,14.9c4.7,3.8,10.7,2.8,15.3-0.6c2.2-1.7,4.3-3.6,6.4-5.5
				c1.7-1.5,3.9-3.1,5.6-3.8c-1.3-0.8-2.6-1.5-4-2.3c2.1,7.7,5.4,18.4,14.3,20.4c3.5,0.8,7.5,0.2,10.5-2c1.7-1.3,3-2.9,3.7-4.9
				c0.3-0.9,0.5-1.8,0.6-2.8c0.1-0.6,0-1.1,0.1-1.7c0-0.1,0-0.2,0-0.3c0-0.2,0.3-0.2-0.1,0c-0.1,0-0.3,0.2-0.4,0.2
				c-0.3,0.2,0.3,0,0,0c-0.4,0,0.2,0,0.3,0c0.5,0.1-0.5-0.1,0,0c0.8,0.2,1,0.3,1.9,0.9c0.5,0.3-0.4-0.3,0.1,0.1
				c0.2,0.2,0.4,0.4,0.6,0.5c0.4,0.3,0.7,0.7,1.1,1c0.9,0.8,1.7,1.7,2.5,2.5c3.1,3.2,6.3,6.5,10.4,8.4c3.8,1.8,8,1.8,11.9,0.1
				c3.4-1.5,6.2-4.5,6.8-8.3c0.4-2.4-0.1-4.7-0.6-7c-0.2-0.9-0.3-1.6-0.1-2.3c0,0.1-0.2,0.9,0.2-0.3c0,0.1-0.3,0.3,0,0
				c0.3-0.3-0.4,0.2,0,0c0.2-0.1,0.2-0.1-0.1,0c0.1,0,0.2,0,0.3-0.1c0,0-0.5,0,0,0c0.2,0,0.4,0,0.6,0c-0.6-0.1,0.5,0.1,0.6,0.2
				c1,0.3,1.4,0.5,2.3,1c2,1.1,3.9,2.4,6,3.5c4.5,2.2,9.3,3.8,14.3,4.5c4.9,0.7,11.7,1.7,13.8-4.2c1.8-4.8,0.3-10.7-1.6-15.1
				c-1.9-4.5-4.7-8.5-7.6-12.4c-6-8-12.3-15.7-18.6-23.4c-12.4-15.2-25-30.5-34.8-47.6c-1.3-2.2-2.5-4.4-3.6-6.6
				c-0.8-1.6-2.9-2-4.4-1.2c-1.6,0.9-2,2.9-1.2,4.4c8.9,17.1,20.6,32.3,32.6,47.2c6,7.4,12.1,14.7,18,22.2c2.9,3.6,5.7,7.3,8.4,11
				c2.6,3.6,5.1,7.5,6.3,11.8c0.6,2,0.9,4.4,0.6,6.4c0,0.2-0.1,0.8-0.3,1.1c0.1-0.2-0.3,0.3-0.1,0.2c-0.4,0.2-1.5,0.1-2.2,0.1
				c-4.6-0.1-9.1-1.1-13.4-2.8c-4.1-1.6-7.6-4.4-11.7-6.1c-4.1-1.7-9-0.9-10.7,3.7c-0.8,2.3-0.3,4.7,0.2,7c0.2,0.8,0.4,1.6,0.4,2.5
				c0,0.2,0,0.4,0,0.7c0-0.5,0,0,0,0.1c-0.1,0.2-0.4,1.2-0.1,0.7c-0.1,0.4-0.4,0.7-0.6,1c0,0-0.3,0.4-0.1,0.2
				c0.2-0.3-0.2,0.2-0.2,0.2c-0.8,0.8-0.5,0.6-1.5,1.2c-0.9,0.5-0.7,0.4-1.5,0.7c-0.4,0.1-0.8,0.2-1.2,0.3c-0.4,0.1,0,0,0.1,0
				c-0.3,0-0.5,0.1-0.8,0.1c-1.6,0.1-2.5-0.1-3.9-0.8c-1.7-0.9-3.2-2-4.6-3.3c-3.2-2.9-5.9-6.5-9.4-8.9c-3.3-2.3-8.8-2.8-10.8,1.5
				c-0.6,1.3-0.6,2.6-0.7,4.1c0,0.3,0,0.5,0,0.8c0-0.1,0.1-0.5,0-0.1c0,0.2-0.4,1.3-0.2,0.8c-0.1,0.3-0.3,0.6-0.5,0.9
				c-0.2,0.4,0.3-0.3,0,0c-0.1,0.1-0.2,0.2-0.3,0.3c-0.1,0.1-0.9,0.8-0.4,0.4c-0.3,0.2-0.6,0.4-1,0.6c-0.2,0.1-0.3,0.2-0.5,0.3
				c0.1-0.1,0.5-0.2,0,0c-0.3,0.1-0.7,0.2-1,0.3c-0.2,0-1.1,0.2-0.5,0.1c-0.4,0-0.9,0.1-1.3,0c-0.2,0-1.1-0.1-0.5,0
				c-0.3-0.1-0.7-0.1-1-0.2c-0.2,0-1-0.4-0.5-0.1c-0.4-0.2-0.8-0.4-1.2-0.7c-2.8-1.9-4.5-5.6-5.7-9c-0.7-2-1.3-4-1.8-6
				c-0.4-1.6-2.3-2.9-4-2.3c-4.5,1.7-8,5.1-11.5,8.2c-1.5,1.4-2.6,2.3-4.6,3.3c-0.1,0-1,0.4-0.3,0.2c-0.2,0.1-0.4,0.1-0.6,0.2
				c-0.2,0.1-0.4,0.1-0.6,0.2c0,0-0.9,0.2-0.4,0.1c0.5-0.1-0.5,0-0.4,0c-0.2,0-0.4,0-0.6,0c-0.9,0,0.3,0.1-0.2,0
				c-0.4-0.1-0.7-0.2-1.1-0.3c0.4,0.1-0.6-0.3-0.7-0.4c-0.3-0.2-0.5-0.3-0.9-0.8c-0.6-0.6-1.2-1.5-1.6-2.6c-0.8-1.8-1.1-3.9-0.9-6.1
				c0.4-5.5,3.7-10.6,6.4-15.2c4.6-7.9,9.9-15.4,15.2-22.8c6.1-8.5,12.3-16.9,18.4-25.4c5.9-8.3,11.9-16.6,16.9-25.4
				C338.8,38.4,333.3,35.1,331.2,38.7z"/>
			<path class="st1" d="M277.6,140.7c-4.6,8.8-7.9,18.2-9.9,28c-0.5,2.5-0.9,5.1-1.2,7.6c-0.3,2.7,0.3,5.3,2.4,7
				c4,3.2,9.9,2.6,14.3,0.7c4.9-2.2,8.7-6.4,12.2-10.4c-1.8-1.1-3.6-2.1-5.4-3.2c-1.5,7.4,1.4,15.9,8.2,19.6
				c3.4,1.8,7.4,2.3,11.2,1.4c3.6-0.9,6.6-3.3,8.9-6.2c2.5-3.1,4.4-6.6,7-9.6c-1.7-0.2-3.4-0.4-5.1-0.7c4.3,7,9.2,14.6,17,18.1
				c3.7,1.7,8,2.5,12,1.5c4-1.1,6.8-4.1,7.9-8.1c0.5-1.8,0.7-3.6,1-5.4c0.2-0.9,0.3-1.7,0.6-2.6c0.2-0.5,0.6-1.4,0.8-1.7
				c-1.7-0.2-3.4-0.4-5.1-0.7c4.1,7.1,9.9,13.2,16.9,17.3c3.4,2,7.5,3.9,11.4,4.4c2.4,0.3,4.8-0.5,6.1-2.6c1.3-2,1.4-4.7,1.7-7
				c0.3-2.4,0.4-4.8,0.4-7.3c0-1.1,0.1-2.4-0.2-3.5c0-0.1,0-0.1,0-0.2c0-0.2,0-0.2,0,0c0.4,0.3-2.9,0.7-2,1.3
				c0.4,0.3,1.2,0.4,1.7,0.5c3.9,1.4,7.3,3.9,11.4,4.6c4.3,0.7,8.8-0.1,11.6-3.7c2.7-3.4,3.1-7.9,2.2-12c-1.1-4.9-4.4-8.9-7.8-12.4
				c-3.1-3.2-6.4-6.4-7.6-10.8c-1.1-4-7.3-2.3-6.2,1.7c1.1,4,3.4,7.4,6.2,10.5c2.5,2.8,5.5,5.4,7.5,8.7c0.9,1.5,1.5,2.9,1.8,4.6
				c0.2,1.2,0.1,2.8-0.3,4c-0.3,1.1-0.9,2-2.2,2.6c-1,0.5-2.5,0.6-3.8,0.4c-3.5-0.5-7-2.9-10.3-4.3c-2-0.8-4.5-1.8-6.5-0.5
				c-2.2,1.4-2.2,3.8-2.1,6.1c0.1,2.3,0.1,4.5,0,6.8c-0.1,1-0.2,2.1-0.3,3.1c-0.1,0.9-0.6,2-0.5,2.9c0-0.4,0.8-0.1,0-0.3
				c-0.5-0.1-1.4-0.3-2.2-0.6c-1.6-0.5-3-1.1-4.5-1.8c-7.2-3.5-13-9.3-16.9-16.2c-0.9-1.6-3.7-2.3-5.1-0.7
				c-2.7,3.4-2.9,7.3-3.8,11.3c-0.4,1.7-0.7,3.1-2,4.1c-1.2,0.9-2.9,1.1-4.5,1c-4.1-0.2-7.8-2.7-10.6-5.5c-3.3-3.3-5.9-7.3-8.3-11.3
				c-1-1.7-3.7-2.3-5.1-0.7c-2.5,2.9-4.4,6.3-6.7,9.3c-2,2.6-4.6,4.9-7.8,5.1c-6.9,0.4-11.2-6.9-10-13.2c0.3-1.4-0.2-2.9-1.5-3.7
				c-1.2-0.7-3-0.6-3.9,0.5c-2.6,2.9-5.2,6-8.5,8.1c-2.5,1.5-6.8,3.1-9.3,1.3c-0.3-0.2-0.3-0.1-0.3-0.6c0-0.9,0.1-1.8,0.3-2.6
				c0.3-2.1,0.7-4.2,1.2-6.3c0.9-4.1,2-8.2,3.4-12.2c1.5-4.4,3.4-8.6,5.5-12.8c0.8-1.6,0.4-3.5-1.2-4.4
				C280.6,138.6,278.4,139.1,277.6,140.7z"/>
			<path class="st1" d="M272.2,182.4c-3,5-6,10-9,15c-2.6,4.4-5.9,9.3-5.2,14.7c0.7,5.8,5.6,8.6,10.5,10.5c5,1.9,10.5,2.2,15.5-0.2
				c4.3-2.1,7.5-6.5,11.9-8c-1.2-1.6-2.4-3.2-3.6-4.8c-1.7,4-1.7,8.3,0.1,12.3c1.6,3.6,4.7,6.6,8.6,7.4c10.1,2.1,16.9-6.8,21.9-14.1
				c-1.9,0-3.7,0-5.6,0c3.5,7.2,8.7,15.2,17.3,16.1c4,0.5,8-1,11.2-3.4c1.8-1.3,3.2-2.9,4.6-4.6c0.6-0.8,1.1-1.6,1.6-2.4
				c0.3-0.5,0.5-1,0.8-1.5c0.5-1,0.5-0.5-0.3-0.3c-0.6,0-1.1,0-1.7,0c0.5,0.1,1.3,1.1,1.7,1.6c0.6,0.7,1.1,1.4,1.6,2.2
				c1.3,1.9,2.5,3.8,4.2,5.4c3.5,3.3,8.2,4.8,12.9,4.1c4.4-0.6,8-3.4,10.5-7c1.2-1.8,2.1-3.9,2.6-6c0-0.2,0.2-0.5,0.2-0.7
				c0-0.2,0-0.3,0.1-0.2c0.4,0.8-3.3-0.3-2.5,0.8c0.2,0.2,0.5,0.3,0.7,0.5c1,0.7,2,1.3,3,1.9c7.8,4.6,17.2,6.8,26.2,5.8
				c4.2-0.5,8.9-1.3,12.4-3.8c4.2-3,5.7-8,4.4-13c-1.5-5.4-5.2-9.9-8-14.6c-3-5-5.9-10.2-8.5-15.5c-0.8-1.6-3-2-4.4-1.2
				c-1.6,0.9-1.9,2.9-1.2,4.4c3,6,6.2,11.8,9.7,17.4c1.7,2.7,3.6,5.4,5.1,8.3c1,2,2.1,4.7,1,6.9c-0.8,1.7-2.8,2.6-4.6,3.2
				c-2.5,0.8-5.1,1.3-7.8,1.4c-5.6,0.3-11.2-0.6-16.4-2.7c-2.5-1-4.8-2.4-7-3.9c-1.4-0.9-2.6-1.9-4.3-1.6c-2,0.3-3.2,1.9-3.8,3.7
				c-0.8,2.2-1.2,4.3-2.7,6.1c-1.6,1.8-3.4,3.1-5.8,3.4c-1.9,0.2-4.1-0.3-5.9-1.5c-2.1-1.3-3.4-3.6-4.8-5.6c-1.6-2.3-3.9-5.8-7-6.1
				c-3.8-0.3-4.8,3.6-6.5,6.2c-1.5,2.2-3.5,4.1-6,5.1c-2.1,0.9-4.3,1.1-6.6,0.1c-2.1-0.8-4.1-2.8-5.7-4.9c-1.7-2.3-3.1-4.9-4.4-7.5
				c-1.1-2.3-4.3-1.9-5.6,0c-3.3,4.8-7.8,11.8-14.3,11.2c-2.4-0.2-3.8-1.8-4.8-3.8c-0.9-1.8-1.1-4.7-0.4-6.4
				c0.5-1.2,0.6-2.5-0.3-3.6c-0.8-1-2.2-1.6-3.4-1.2c-3.9,1.4-6.8,4.1-10,6.6c-3.2,2.4-6.4,3.6-10.5,2.7c-2-0.5-4-1.2-5.9-2.2
				c-1.4-0.7-2.8-1.6-3.2-3.1c-0.5-1.6,0.1-3.6,0.8-5.2c0.9-2.1,2.2-4,3.3-6c3.1-5.1,6.1-10.2,9.2-15.3
				C279.9,182.1,274.4,178.8,272.2,182.4z"/>
			<path class="st1" d="M324.2,225.1c0.4,8.3,0.3,16.9-0.4,25.2c-0.1,1.8,1.6,3.2,3.2,3.2c1.9,0,3.1-1.5,3.2-3.2
				c0.6-8.3,0.8-16.8,0.4-25.2c-0.1-1.8-1.4-3.2-3.2-3.2C325.7,221.9,324.1,223.4,324.2,225.1z"/>
			<path class="st1" d="M297.3,256.8c12.8-0.8,25.6-1.7,38.4-1.6c12.6,0.1,25.2,1,37.8,2.3c7.1,0.7,14.2,1.5,21.3,2.4
				c1.7,0.2,3.2-1.6,3.2-3.2c0-1.9-1.5-3-3.2-3.2c-12.6-1.5-25.2-2.9-37.9-3.8c-12.7-0.9-25.3-1-38-0.5c-7.2,0.3-14.4,0.8-21.6,1.3
				c-1.7,0.1-3.2,1.4-3.2,3.2C294.1,255.2,295.5,256.9,297.3,256.8z"/>
			<path class="st1" d="M352.5,221.8c-0.7,5-0.5,10-0.5,15.1c0,2.4,0,4.9-0.3,7.3c-0.3,2.6-0.8,4.8-0.4,7.4c0.3,1.7,2.4,2.7,4,2.3
				c1.8-0.5,2.5-2.3,2.2-4c-0.3-1.9,0.4-4.1,0.6-6c0.3-2.3,0.3-4.7,0.3-7c0-4.4-0.4-9,0.3-13.4c0.3-1.7-0.4-3.5-2.2-4
				C354.9,219.1,352.7,220,352.5,221.8z"/>
			<path class="st1" d="M323.9,71.5c-4.3,11-9.6,21.5-15.8,31.4c-0.8,1.3,1.3,2.6,2.1,1.2c6.3-10.1,11.7-20.9,16-32
				C326.8,70.6,324.5,70,323.9,71.5z"/>
			<path class="st1" d="M302.4,114.2c-0.2,0.7-0.5,1.3-0.7,2c-0.2,0.6,0.2,1.4,0.8,1.5c0.7,0.2,1.3-0.2,1.5-0.8
				c0.2-0.7,0.5-1.3,0.7-2c0.2-0.6-0.2-1.4-0.8-1.5C303.2,113.2,302.6,113.6,302.4,114.2z"/>
			<path class="st1" d="M362.9,103.5c0.9,0.5,1.4,1.4,2,2.1c0.7,0.9,1.4,1.8,2,2.7c1.2,1.8,2.4,3.6,3.4,5.4c0.8,1.4,2.9,0.1,2.1-1.2
				c-1.2-2.2-2.6-4.2-4-6.3c-1.2-1.7-2.5-3.9-4.3-4.9C362.7,100.6,361.5,102.7,362.9,103.5z"/>
			<path class="st1" d="M381.2,153.1c3.1,3.7,6.2,7.3,9.5,10.8c1.1,1.1,2.8-0.6,1.7-1.7c-3.3-3.5-6.5-7.1-9.5-10.8
				C381.9,150.2,380.2,151.9,381.2,153.1z"/>
			<path class="st1" d="M397.1,167.7c1.1,1.5,2.3,3,3.7,4.3c1.1,1.1,2.8-0.6,1.7-1.7c-1.2-1.2-2.3-2.4-3.3-3.8
				c-0.4-0.5-1-0.8-1.7-0.4C397,166.4,396.7,167.2,397.1,167.7z"/>
			<path class="st1" d="M337.8,159.1c0,2.8,0,5.7,0,8.5c0,1.6,2.4,1.6,2.4,0c0-2.8,0-5.7,0-8.5C340.3,157.6,337.8,157.6,337.8,159.1
				z"/>
			<path class="st1" d="M301,146.5c-3.1,4.2-5.9,8.6-8.3,13.1c-0.8,1.4,1.3,2.6,2.1,1.2c2.5-4.6,5.3-8.9,8.3-13.1
				C304.1,146.5,302,145.3,301,146.5z"/>
			<path class="st1" d="M399,191.5c3.8,6.9,8.8,13.1,14.7,18.3c1.2,1,2.9-0.7,1.7-1.7c-5.7-5.1-10.5-11.1-14.3-17.8
				C400.3,188.9,398.2,190.2,399,191.5z"/>
			<path class="st1" d="M337.9,201.2c0,1.2,0,2.4,0,3.6c0,1.6,2.4,1.6,2.4,0c0-1.2,0-2.4,0-3.6C340.3,199.6,337.9,199.6,337.9,201.2
				z"/>
			<path class="st1" d="M340.8,229.8c0.3,6.5,0.1,13.1-0.8,19.6c-0.2,1.5,2.1,2.2,2.3,0.6c0.9-6.7,1.2-13.5,0.9-20.2
				C343.2,228.2,340.8,228.2,340.8,229.8z"/>
		</g>
	</g>
	<g id="arvore3">
		<defs>
			<rect id="SVGID_3_" x="-38.1" y="99.8" width="138" height="180"/>
		</defs>
		<clipPath id="SVGID_4_">
			<use xlink:href="#SVGID_3_"  style="overflow:visible;"/>
		</clipPath>
		<g class="st2">
			<path class="st1" d="M88,242.1c0.1,0.4,0.3,0.7,0.6,1c0.3,0.3,0.6,0.4,1,0.6c0.5,0.2,1.1-0.2,1.2-0.7c0.1-0.5-0.2-1-0.7-1.2
				c0,0-0.2-0.1,0,0c0.2,0.1,0,0,0,0c0,0-0.1,0-0.1-0.1c-0.1-0.1,0.2,0.2,0.1,0c0,0-0.2-0.2-0.1-0.1c0.1,0.1,0,0,0,0
				c0-0.1-0.1-0.2,0,0c-0.1-0.2-0.2-0.4-0.4-0.6c-0.2-0.1-0.5-0.2-0.8-0.1c-0.2,0.1-0.5,0.2-0.6,0.4C88,241.6,88,241.9,88,242.1z"/>
			<path class="st1" d="M21,102.1c-3.8,6.5-8.2,12.7-12.5,18.9C3.4,128.2-1.9,135.2-7,142.4c-4.5,6.2-9,12.5-12.9,19.2
				c-2.6,4.4-5.1,8.9-5.7,14.1c-0.5,4.3,0.9,9.2,4.3,12c3.8,3.1,8.6,2.3,12.3-0.5c1.8-1.4,3.4-2.9,5.1-4.4c1.3-1.2,3.1-2.5,4.5-3
				c-1.1-0.6-2.1-1.2-3.2-1.8c1.7,6.2,4.4,14.8,11.5,16.4c2.9,0.6,6.1,0.2,8.4-1.6c1.4-1,2.4-2.3,3-3.9c0.3-0.7,0.4-1.5,0.5-2.2
				c0-0.5,0-0.9,0-1.4c0-0.1,0-0.2,0-0.3c0-0.2,0.2-0.1,0,0c-0.1,0-0.2,0.1-0.3,0.2c-0.2,0.2,0.3,0,0,0c-0.3,0,0.1,0,0.2,0
				c0.4,0-0.4-0.1,0,0c0.6,0.2,0.8,0.2,1.5,0.7c0.4,0.2-0.3-0.3,0.1,0.1c0.2,0.1,0.3,0.3,0.5,0.4c0.3,0.3,0.6,0.5,0.9,0.8
				c0.7,0.7,1.4,1.4,2.1,2c2.5,2.5,5.1,5.2,8.4,6.7c3.1,1.4,6.5,1.4,9.6,0c2.7-1.2,5-3.6,5.5-6.6c0.3-2-0.1-3.8-0.5-5.7
				c-0.1-0.7-0.2-1.3-0.1-1.9c0,0.1-0.2,0.7,0.1-0.2c0,0-0.2,0.2,0,0c0.3-0.3-0.3,0.2,0,0c0.2-0.1,0.1-0.1-0.1,0
				c0.1,0,0.2,0,0.2-0.1c0,0-0.4,0,0,0c0.2,0,0.3,0,0.5,0c-0.4,0,0.4,0.1,0.5,0.1c0.8,0.2,1.1,0.4,1.9,0.8c1.6,0.9,3.2,2,4.9,2.8
				c3.6,1.8,7.5,3.1,11.6,3.6c4,0.6,9.4,1.3,11.2-3.4c1.4-3.8,0.2-8.6-1.3-12.2c-1.5-3.6-3.8-6.8-6.2-9.9c-4.8-6.4-9.9-12.6-15-18.8
				c-10-12.2-20.1-24.5-28.1-38.3c-1-1.8-2-3.5-2.9-5.3c-0.7-1.2-2.4-1.6-3.6-0.9c-1.3,0.7-1.6,2.3-0.9,3.6
				c7.2,13.7,16.6,26,26.3,37.9c4.8,6,9.8,11.9,14.5,17.9c2.3,2.9,4.6,5.8,6.8,8.9c2.1,2.9,4.1,6,5.1,9.5c0.5,1.6,0.7,3.5,0.5,5.1
				c0,0.2-0.1,0.6-0.2,0.9c0.1-0.2-0.3,0.3-0.1,0.1c-0.3,0.2-1.2,0.1-1.8,0.1c-3.7-0.1-7.4-0.9-10.8-2.2c-3.3-1.3-6.1-3.6-9.4-4.9
				c-3.3-1.3-7.3-0.8-8.7,3c-0.7,1.8-0.3,3.8,0.2,5.6c0.2,0.7,0.3,1.3,0.3,2c0,0.2,0,0.4,0,0.5c0-0.4,0,0,0,0.1
				c0,0.2-0.3,0.9-0.1,0.5c-0.1,0.3-0.3,0.6-0.5,0.8c0,0-0.2,0.3-0.1,0.1c0.2-0.2-0.1,0.1-0.2,0.2c-0.6,0.6-0.4,0.5-1.2,0.9
				c-0.7,0.4-0.6,0.3-1.2,0.5c-0.3,0.1-0.7,0.2-1,0.2c-0.3,0.1,0,0,0.1,0c-0.2,0-0.4,0-0.6,0.1c-1.3,0.1-2-0.1-3.2-0.7
				c-1.4-0.7-2.6-1.6-3.7-2.7c-2.6-2.3-4.7-5.2-7.6-7.2c-2.7-1.8-7.1-2.2-8.7,1.2c-0.5,1-0.5,2.1-0.6,3.3c0,0.2,0,0.4,0,0.7
				c0-0.1,0.1-0.4,0-0.1c0,0.1-0.3,1.1-0.1,0.6c-0.1,0.2-0.3,0.5-0.4,0.7c-0.2,0.3,0.3-0.3,0,0c-0.1,0.1-0.1,0.2-0.2,0.3
				c-0.1,0.1-0.7,0.6-0.3,0.3c-0.3,0.2-0.5,0.3-0.8,0.5c-0.1,0.1-0.3,0.1-0.4,0.2c0.1-0.1,0.4-0.1,0,0c-0.3,0.1-0.5,0.2-0.8,0.2
				c-0.2,0-0.9,0.1-0.4,0.1c-0.4,0-0.7,0-1.1,0c-0.2,0-0.9-0.1-0.4,0c-0.3-0.1-0.6-0.1-0.8-0.2c-0.1,0-0.8-0.3-0.4-0.1
				c-0.3-0.2-0.6-0.3-0.9-0.5c-2.2-1.5-3.7-4.5-4.6-7.2c-0.6-1.6-1-3.2-1.5-4.8c-0.4-1.3-1.9-2.3-3.2-1.8c-3.7,1.4-6.4,4.1-9.3,6.6
				c-1.2,1.1-2.1,1.9-3.7,2.7c-0.1,0-0.8,0.3-0.3,0.1c-0.1,0.1-0.3,0.1-0.4,0.2c-0.1,0-0.3,0.1-0.5,0.1c0,0-0.7,0.1-0.3,0.1
				c0.4,0-0.4,0-0.4,0c-0.2,0-0.3,0-0.5,0c-0.7,0,0.3,0.1-0.2,0c-0.3-0.1-0.6-0.1-0.9-0.2c0.3,0.1-0.4-0.3-0.6-0.3
				c-0.2-0.1-0.4-0.3-0.7-0.6c-0.5-0.5-0.9-1.2-1.3-2.1c-0.6-1.4-0.9-3.1-0.7-4.9c0.3-4.4,3-8.5,5.1-12.2c3.7-6.3,8-12.3,12.3-18.3
				c4.9-6.8,9.9-13.6,14.9-20.4c4.8-6.6,9.6-13.3,13.7-20.4C27.2,101.9,22.7,99.2,21,102.1z"/>
			<path class="st1" d="M-22.2,184.1c-3.7,7.1-6.4,14.7-8,22.5c-0.4,2-0.8,4.1-1,6.1c-0.3,2.1,0.2,4.2,2,5.6c3.3,2.6,8,2.1,11.6,0.5
				c4-1.8,7-5.1,9.8-8.3c-1.4-0.8-2.9-1.7-4.3-2.5c-1.2,5.9,1.1,12.8,6.6,15.7c2.8,1.5,6,1.9,9,1.1c2.9-0.8,5.3-2.7,7.1-5
				c2-2.5,3.6-5.3,5.6-7.7c-1.4-0.2-2.7-0.4-4.1-0.5c3.5,5.6,7.5,11.7,13.7,14.5c3,1.4,6.4,2,9.7,1.2c3.2-0.9,5.5-3.3,6.4-6.5
				c0.4-1.4,0.6-2.9,0.8-4.4c0.1-0.7,0.3-1.4,0.5-2.1c0.1-0.4,0.4-1.2,0.6-1.4c-1.4-0.2-2.7-0.4-4.1-0.5c3.3,5.7,8,10.6,13.7,13.9
				c2.8,1.6,6,3.2,9.2,3.5c1.9,0.2,3.8-0.4,4.9-2c1-1.6,1.1-3.8,1.3-5.6c0.2-1.9,0.3-3.9,0.3-5.8c0-0.9,0.1-1.9-0.1-2.8
				c0,0,0-0.1,0-0.1c0-0.2,0-0.2,0,0c0.4,0.2-2.3,0.6-1.6,1.1c0.3,0.2,1,0.3,1.4,0.4c3.1,1.1,5.9,3.2,9.2,3.7c3.4,0.6,7.1-0.1,9.4-3
				c2.1-2.7,2.5-6.3,1.8-9.6c-0.8-3.9-3.6-7.1-6.3-10c-2.5-2.6-5.1-5.1-6.1-8.7c-0.9-3.2-5.9-1.9-5,1.4c0.9,3.2,2.8,5.9,5,8.4
				c2.1,2.3,4.4,4.3,6.1,7c0.7,1.2,1.2,2.4,1.4,3.7c0.2,1,0.1,2.2-0.2,3.2c-0.3,0.9-0.8,1.6-1.8,2.1c-0.8,0.4-2,0.5-3.1,0.3
				c-2.9-0.4-5.6-2.3-8.3-3.4c-1.6-0.7-3.6-1.4-5.2-0.4c-1.8,1.1-1.8,3.1-1.7,4.9c0.1,1.8,0.1,3.6,0,5.4c-0.1,0.8-0.1,1.7-0.2,2.5
				c-0.1,0.7-0.5,1.6-0.4,2.3c0-0.4,0.6-0.1,0-0.2c-0.4-0.1-1.1-0.2-1.7-0.4c-1.3-0.4-2.4-0.9-3.6-1.4c-5.8-2.8-10.5-7.4-13.7-13
				c-0.8-1.3-3-1.9-4.1-0.5c-2.2,2.7-2.3,5.8-3,9.1c-0.3,1.4-0.6,2.5-1.6,3.3c-1,0.7-2.3,0.9-3.6,0.8c-3.3-0.2-6.3-2.2-8.6-4.4
				c-2.7-2.7-4.7-5.9-6.7-9.1c-0.8-1.3-2.9-1.8-4.1-0.5c-2,2.3-3.6,5.1-5.4,7.5c-1.6,2.1-3.7,3.9-6.3,4.1c-5.6,0.3-9.1-5.5-8-10.6
				c0.2-1.1-0.2-2.3-1.2-2.9c-1-0.6-2.4-0.4-3.1,0.4c-2.1,2.3-4.2,4.8-6.8,6.5c-2,1.2-5.5,2.5-7.5,1.1c-0.3-0.2-0.2-0.1-0.3-0.4
				c0-0.7,0.1-1.4,0.2-2.1c0.3-1.7,0.6-3.4,0.9-5c0.7-3.3,1.6-6.6,2.8-9.8c1.2-3.5,2.7-6.9,4.5-10.3c0.7-1.2,0.3-2.8-0.9-3.6
				C-19.8,182.4-21.5,182.8-22.2,184.1z"/>
			<path class="st1" d="M-26.5,217.6c-2.4,4-4.9,8.1-7.3,12.1c-2.1,3.5-4.7,7.5-4.2,11.8c0.5,4.7,4.5,6.9,8.5,8.4
				c4.1,1.5,8.5,1.8,12.5-0.2c3.4-1.7,6.1-5.2,9.6-6.5c-1-1.3-2-2.6-2.9-3.8c-1.4,3.2-1.4,6.7,0.1,9.9c1.3,2.9,3.8,5.3,6.9,5.9
				c8.1,1.7,13.7-5.4,17.7-11.4c-1.5,0-3,0-4.5,0c2.8,5.8,7,12.2,13.9,13c3.2,0.4,6.5-0.8,9-2.7c1.4-1.1,2.6-2.3,3.7-3.7
				c0.5-0.6,0.9-1.3,1.3-1.9c0.2-0.4,0.4-0.8,0.6-1.2c0.4-0.8,0.4-0.4-0.2-0.2c-0.5,0-0.9,0-1.4,0c0.4,0.1,1,0.9,1.3,1.2
				c0.5,0.5,0.9,1.1,1.3,1.7c1,1.5,2.1,3.1,3.4,4.3c2.8,2.6,6.6,3.8,10.4,3.3c3.5-0.5,6.5-2.7,8.5-5.6c1-1.4,1.7-3.1,2.1-4.8
				c0-0.2,0.1-0.4,0.1-0.6c0-0.2,0-0.3,0.1-0.2c0.4,0.6-2.6-0.3-2,0.6c0.1,0.2,0.4,0.3,0.6,0.4c0.8,0.6,1.6,1.1,2.4,1.6
				c6.3,3.7,13.9,5.4,21.1,4.6c3.4-0.4,7.1-1,10-3c3.4-2.4,4.6-6.4,3.5-10.4c-1.2-4.3-4.2-8-6.5-11.7c-2.5-4.1-4.7-8.2-6.9-12.4
				c-0.6-1.3-2.4-1.6-3.6-0.9c-1.3,0.7-1.6,2.3-0.9,3.6c2.4,4.8,5,9.5,7.8,14c1.4,2.2,2.9,4.3,4.1,6.6c0.8,1.6,1.7,3.8,0.8,5.5
				c-0.7,1.4-2.3,2.1-3.7,2.6c-2,0.6-4.1,1-6.3,1.2c-4.5,0.3-9-0.5-13.2-2.2c-2-0.8-3.9-1.9-5.7-3.1c-1.1-0.8-2.1-1.5-3.5-1.3
				c-1.6,0.3-2.6,1.5-3.1,3c-0.6,1.8-0.9,3.4-2.2,4.9c-1.3,1.5-2.8,2.5-4.7,2.7c-1.5,0.2-3.3-0.3-4.8-1.2c-1.7-1.1-2.7-2.9-3.9-4.5
				c-1.3-1.9-3.2-4.7-5.7-4.9c-3.1-0.2-3.8,2.9-5.2,5c-1.2,1.8-2.9,3.3-4.8,4.1c-1.7,0.7-3.5,0.9-5.3,0.1c-1.7-0.7-3.3-2.3-4.6-3.9
				c-1.4-1.8-2.5-4-3.5-6c-0.9-1.9-3.5-1.5-4.5,0c-2.6,3.8-6.3,9.5-11.6,9c-1.9-0.2-3.1-1.4-3.9-3c-0.7-1.5-0.9-3.8-0.3-5.2
				c0.4-1,0.5-2-0.2-2.9c-0.6-0.8-1.7-1.3-2.7-0.9c-3.1,1.1-5.5,3.3-8.1,5.3c-2.6,1.9-5.2,2.9-8.5,2.2c-1.6-0.4-3.3-1-4.8-1.7
				c-1.1-0.6-2.2-1.2-2.6-2.5c-0.4-1.3,0.1-2.9,0.6-4.1c0.7-1.7,1.8-3.2,2.7-4.8c2.5-4.1,4.9-8.2,7.4-12.3
				C-20.3,217.3-24.8,214.7-26.5,217.6z"/>
			<path class="st1" d="M15.4,251.9c0.3,6.7,0.2,13.5-0.3,20.2c-0.1,1.4,1.3,2.6,2.6,2.6c1.5,0,2.5-1.2,2.6-2.6
				c0.5-6.7,0.6-13.5,0.3-20.2c-0.1-1.4-1.1-2.6-2.6-2.6C16.6,249.3,15.3,250.5,15.4,251.9z"/>
			<path class="st1" d="M-6.3,277.4c10.3-0.7,20.6-1.4,31-1.3c10.2,0,20.4,0.8,30.5,1.8c5.7,0.6,11.5,1.2,17.2,1.9
				c1.4,0.2,2.6-1.3,2.6-2.6c0-1.5-1.2-2.4-2.6-2.6c-10.2-1.2-20.4-2.4-30.6-3.1c-10.2-0.7-20.4-0.8-30.7-0.4
				c-5.8,0.3-11.6,0.6-17.4,1c-1.4,0.1-2.6,1.1-2.6,2.6C-8.9,276.1-7.7,277.4-6.3,277.4z"/>
			<path class="st1" d="M38.2,249.3c-0.6,4-0.4,8.1-0.4,12.1c0,1.9,0,3.9-0.3,5.8c-0.3,2.1-0.7,3.9-0.3,6c0.2,1.4,1.9,2.2,3.2,1.8
				c1.5-0.4,2-1.8,1.8-3.2c-0.2-1.5,0.4-3.3,0.5-4.8c0.2-1.9,0.2-3.7,0.2-5.6c0-3.6-0.3-7.2,0.2-10.8c0.2-1.4-0.3-2.8-1.8-3.2
				C40.2,247.1,38.4,247.8,38.2,249.3z"/>
			<path class="st1" d="M15.2,128.4c-3.4,8.8-7.7,17.3-12.7,25.3c-0.7,1.1,1,2.1,1.7,1c5.1-8.2,9.4-16.8,12.9-25.7
				C17.5,127.8,15.6,127.3,15.2,128.4z"/>
			<path class="st1" d="M46.6,154.2c0.7,0.4,1.2,1.1,1.6,1.7c0.6,0.7,1.1,1.5,1.6,2.2c1,1.4,1.9,2.9,2.8,4.4c0.6,1.1,2.3,0.1,1.7-1
				c-1-1.7-2.1-3.4-3.2-5c-1-1.4-2-3.1-3.5-4C46.5,151.9,45.5,153.6,46.6,154.2z"/>
			<path class="st1" d="M61.4,194.1c2.5,3,5,5.8,7.7,8.6c0.9,0.9,2.2-0.5,1.4-1.4c-2.6-2.8-5.2-5.7-7.7-8.6
				C62,191.7,60.6,193.1,61.4,194.1z"/>
			<path class="st1" d="M74.2,205.8c0.9,1.2,1.9,2.4,3,3.5c0.9,0.9,2.3-0.5,1.4-1.4c-1-0.9-1.9-2-2.7-3.1c-0.3-0.4-0.8-0.6-1.3-0.3
				C74.2,204.7,73.9,205.4,74.2,205.8z"/>
			<path class="st1" d="M26.4,198.9c0,2.3,0,4.6,0,6.8c0,1.3,1.9,1.3,1.9,0c0-2.3,0-4.6,0-6.8C28.4,197.7,26.4,197.6,26.4,198.9z"/>
			<path class="st1" d="M75.7,224.9c3.1,5.5,7.1,10.5,11.8,14.7c0.9,0.8,2.3-0.5,1.4-1.4c-4.6-4.1-8.5-8.9-11.5-14.3
				C76.8,222.9,75.1,223.8,75.7,224.9z"/>
			<path class="st1" d="M26.5,232.7c0,1,0,1.9,0,2.9c0,1.3,1.9,1.3,1.9,0c0-1,0-1.9,0-2.9C28.4,231.4,26.5,231.4,26.5,232.7z"/>
			<path class="st1" d="M28.8,255.7c0.3,5.3,0,10.5-0.7,15.7c-0.2,1.2,1.7,1.8,1.9,0.5c0.7-5.4,1-10.8,0.7-16.3
				C30.7,254.4,28.8,254.4,28.8,255.7z"/>
		</g>
	</g>
	<g id="arvore2">
		<defs>
			<rect id="SVGID_5_" x="1327.9" y="111.8" width="138" height="180"/>
		</defs>
		<clipPath id="SVGID_6_">
			<use xlink:href="#SVGID_5_"  style="overflow:visible;"/>
		</clipPath>
		<g class="st3">
			<path class="st1" d="M1347.3,211.2c-0.2,0.8-0.3,1.6-0.5,2.4c-0.1,0.5,0.1,1.1,0.7,1.2c0.5,0.1,1.1-0.2,1.2-0.7
				c0.2-0.8,0.3-1.6,0.5-2.4c0.1-0.5-0.1-1.1-0.7-1.2C1348,210.4,1347.4,210.7,1347.3,211.2z"/>
			<path class="st1" d="M1349.5,233.3c-1.4,5.3-4.2,10-8.1,13.9c-0.9,0.9,0.5,2.3,1.4,1.4c4.1-4.1,7.1-9.2,8.6-14.8
				C1351.7,232.6,1349.8,232.1,1349.5,233.3z"/>
			<path class="st1" d="M1336.9,251.5c-0.1,0.2-0.1,0.4-0.2,0.6c-0.1,0.2,0,0.5,0.1,0.8c0.1,0.2,0.3,0.4,0.6,0.4
				c0.2,0.1,0.5,0,0.8-0.1c0.2-0.1,0.4-0.3,0.4-0.6c0.1-0.2,0.1-0.4,0.2-0.6c0.1-0.2,0-0.5-0.1-0.8c-0.1-0.2-0.4-0.4-0.6-0.5
				c-0.2-0.1-0.5,0-0.8,0.1C1337.1,251.1,1336.9,251.3,1336.9,251.5z"/>
			<path class="st1" d="M1387,114.1c-3.8,6.5-8.2,12.7-12.5,18.9c-5.1,7.2-10.4,14.2-15.5,21.4c-4.5,6.2-9,12.5-12.9,19.2
				c-2.6,4.4-5.1,8.9-5.7,14.1c-0.5,4.3,0.9,9.2,4.3,12c3.8,3.1,8.6,2.3,12.3-0.5c1.8-1.4,3.5-2.9,5.2-4.4c1.3-1.2,3.1-2.5,4.5-3
				c-1.1-0.6-2.1-1.2-3.2-1.8c1.7,6.2,4.4,14.8,11.5,16.4c2.9,0.6,6.1,0.2,8.4-1.6c1.4-1,2.4-2.3,3-3.9c0.3-0.7,0.4-1.5,0.5-2.2
				c0-0.5,0-0.9,0-1.4c0-0.1,0-0.2,0-0.3c0-0.2,0.2-0.1-0.1,0c-0.1,0-0.2,0.1-0.3,0.2c-0.2,0.2,0.3,0,0,0c-0.3,0,0.2,0,0.2,0
				c0.4,0-0.4-0.1,0,0c0.6,0.2,0.8,0.2,1.5,0.7c0.4,0.2-0.3-0.3,0.1,0.1c0.2,0.1,0.3,0.3,0.5,0.4c0.3,0.3,0.6,0.5,0.9,0.8
				c0.7,0.7,1.4,1.4,2.1,2c2.5,2.5,5.1,5.2,8.4,6.7c3.1,1.4,6.5,1.4,9.6,0c2.7-1.2,5-3.6,5.5-6.6c0.3-2-0.1-3.8-0.5-5.7
				c-0.2-0.7-0.2-1.3-0.1-1.9c0,0.1-0.2,0.7,0.1-0.2c0,0-0.2,0.2,0,0c0.3-0.3-0.3,0.2,0,0c0.2-0.1,0.1-0.1-0.1,0
				c0.1,0,0.1,0,0.2-0.1c0,0-0.4,0,0,0c0.2,0,0.3,0,0.5,0c-0.5,0,0.4,0.1,0.5,0.1c0.8,0.2,1.1,0.4,1.9,0.8c1.7,0.9,3.2,2,4.9,2.8
				c3.6,1.8,7.5,3.1,11.6,3.6c4,0.6,9.4,1.3,11.2-3.4c1.4-3.8,0.2-8.6-1.3-12.2c-1.5-3.6-3.8-6.8-6.2-9.9c-4.8-6.4-9.9-12.6-15-18.8
				c-10-12.2-20.1-24.5-28.1-38.3c-1-1.8-2-3.5-2.9-5.3c-0.6-1.2-2.4-1.6-3.5-0.9c-1.3,0.7-1.6,2.3-0.9,3.6
				c7.2,13.7,16.6,26,26.3,37.9c4.8,6,9.8,11.8,14.5,17.9c2.3,2.9,4.6,5.8,6.8,8.9c2.1,2.9,4.1,6,5.1,9.5c0.5,1.6,0.7,3.5,0.5,5.1
				c0,0.2-0.1,0.6-0.2,0.9c0.1-0.2-0.3,0.3-0.1,0.1c-0.3,0.2-1.2,0.1-1.8,0.1c-3.7-0.1-7.4-0.9-10.8-2.2c-3.3-1.3-6.1-3.6-9.4-4.9
				c-3.3-1.3-7.3-0.8-8.7,3c-0.7,1.8-0.3,3.8,0.2,5.6c0.2,0.7,0.3,1.3,0.3,2c0,0.2,0,0.4,0,0.5c0-0.4,0,0,0,0.1
				c0,0.2-0.3,0.9-0.1,0.5c-0.1,0.3-0.3,0.6-0.5,0.8c0,0-0.2,0.3-0.1,0.1c0.2-0.2-0.1,0.1-0.2,0.2c-0.6,0.6-0.4,0.5-1.2,0.9
				c-0.7,0.4-0.6,0.3-1.2,0.5c-0.3,0.1-0.7,0.2-1,0.2c-0.3,0.1,0,0,0.1,0c-0.2,0-0.4,0-0.6,0.1c-1.3,0.1-2-0.1-3.2-0.7
				c-1.4-0.7-2.6-1.6-3.7-2.7c-2.6-2.3-4.7-5.2-7.6-7.2c-2.7-1.8-7.1-2.2-8.7,1.2c-0.5,1-0.5,2.1-0.6,3.3c0,0.2,0,0.4,0,0.7
				c0-0.1,0.1-0.4,0-0.1c0,0.1-0.3,1.1-0.1,0.6c-0.1,0.2-0.3,0.5-0.4,0.7c-0.2,0.3,0.2-0.3,0,0c-0.1,0.1-0.1,0.2-0.2,0.3
				c-0.1,0.1-0.8,0.6-0.4,0.3c-0.2,0.2-0.5,0.3-0.8,0.5c-0.1,0.1-0.3,0.1-0.4,0.2c0.1-0.1,0.4-0.1,0,0c-0.3,0.1-0.5,0.2-0.8,0.2
				c-0.2,0-0.9,0.1-0.4,0.1c-0.4,0-0.7,0-1.1,0c-0.2,0-0.9-0.1-0.4,0c-0.3-0.1-0.6-0.1-0.8-0.2c-0.1,0-0.8-0.3-0.4-0.1
				c-0.3-0.2-0.6-0.3-0.9-0.5c-2.2-1.5-3.7-4.5-4.6-7.2c-0.6-1.6-1-3.2-1.5-4.8c-0.4-1.3-1.9-2.3-3.2-1.8c-3.7,1.4-6.4,4.1-9.3,6.6
				c-1.2,1.1-2.1,1.9-3.7,2.7c0,0-0.8,0.3-0.3,0.1c-0.1,0.1-0.3,0.1-0.4,0.2c-0.2,0-0.3,0.1-0.4,0.1c0,0-0.7,0.1-0.4,0.1
				c0.4,0-0.4,0-0.3,0c-0.2,0-0.3,0-0.5,0c-0.7,0,0.3,0.1-0.2,0c-0.3-0.1-0.6-0.1-0.9-0.2c0.3,0.1-0.4-0.3-0.6-0.3
				c-0.2-0.1-0.4-0.3-0.7-0.6c-0.5-0.5-0.9-1.2-1.3-2.1c-0.6-1.4-0.9-3.1-0.7-4.9c0.3-4.4,3-8.5,5.2-12.2c3.7-6.3,8-12.3,12.3-18.3
				c4.9-6.8,9.9-13.6,14.8-20.4c4.8-6.6,9.6-13.3,13.7-20.4C1393.2,113.9,1388.7,111.2,1387,114.1z"/>
			<path class="st1" d="M1343.8,196.1c-3.7,7.1-6.4,14.7-8,22.5c-0.4,2-0.8,4.1-1,6.1c-0.3,2.1,0.2,4.2,2,5.6
				c3.3,2.6,8,2.1,11.6,0.5c4-1.8,7-5.1,9.8-8.3c-1.4-0.8-2.9-1.7-4.3-2.5c-1.2,5.9,1.1,12.8,6.6,15.7c2.8,1.5,6,1.9,9,1.1
				c2.9-0.8,5.3-2.7,7.1-5c2-2.5,3.5-5.3,5.6-7.7c-1.4-0.2-2.7-0.4-4.1-0.5c3.4,5.6,7.4,11.7,13.7,14.5c3,1.4,6.4,2,9.7,1.2
				c3.2-0.9,5.4-3.3,6.4-6.5c0.4-1.4,0.6-2.9,0.8-4.4c0.1-0.7,0.3-1.4,0.5-2.1c0.1-0.4,0.5-1.2,0.6-1.4c-1.4-0.2-2.7-0.4-4.1-0.5
				c3.3,5.7,8,10.6,13.7,13.9c2.8,1.6,6,3.2,9.2,3.5c1.9,0.2,3.8-0.4,4.9-2c1.1-1.6,1.1-3.8,1.3-5.6c0.2-1.9,0.3-3.9,0.3-5.8
				c0-0.9,0.1-1.9-0.1-2.8c0,0,0-0.1,0-0.1c0-0.2,0-0.2,0,0c0.4,0.2-2.3,0.6-1.6,1.1c0.3,0.2,1,0.3,1.4,0.4c3.1,1.1,5.9,3.2,9.2,3.7
				c3.4,0.6,7.1-0.1,9.4-3c2.1-2.7,2.5-6.3,1.8-9.6c-0.8-3.9-3.6-7.1-6.3-10c-2.5-2.6-5.1-5.1-6.1-8.7c-0.9-3.2-5.9-1.9-5,1.4
				c0.9,3.2,2.8,5.9,5,8.4c2.1,2.3,4.4,4.3,6.1,7c0.7,1.2,1.2,2.4,1.4,3.7c0.2,1,0.1,2.2-0.2,3.2c-0.3,0.9-0.8,1.6-1.8,2.1
				c-0.8,0.4-2,0.5-3.1,0.3c-2.9-0.4-5.6-2.3-8.3-3.4c-1.6-0.7-3.6-1.4-5.2-0.4c-1.8,1.1-1.8,3.1-1.7,4.9c0.1,1.8,0.1,3.6,0,5.4
				c-0.1,0.8-0.1,1.7-0.2,2.5c-0.1,0.7-0.5,1.6-0.4,2.3c0-0.4,0.6-0.1,0-0.2c-0.4-0.1-1.1-0.2-1.7-0.4c-1.3-0.4-2.4-0.9-3.6-1.4
				c-5.8-2.8-10.5-7.4-13.7-13c-0.8-1.3-3-1.9-4.1-0.5c-2.2,2.7-2.3,5.8-3,9.1c-0.3,1.4-0.6,2.5-1.6,3.3c-1,0.7-2.3,0.9-3.6,0.8
				c-3.3-0.2-6.3-2.2-8.6-4.4c-2.7-2.7-4.7-5.9-6.7-9.1c-0.8-1.3-3-1.8-4.1-0.5c-2,2.3-3.6,5.1-5.4,7.5c-1.6,2.1-3.7,3.9-6.3,4.1
				c-5.6,0.3-9.1-5.5-8-10.6c0.2-1.1-0.2-2.3-1.2-2.9c-1-0.6-2.4-0.4-3.1,0.4c-2.1,2.3-4.2,4.8-6.8,6.5c-2,1.2-5.5,2.5-7.5,1.1
				c-0.3-0.2-0.2-0.1-0.2-0.4c0-0.7,0.1-1.4,0.2-2.1c0.3-1.7,0.6-3.4,0.9-5c0.7-3.3,1.6-6.6,2.8-9.8c1.2-3.5,2.7-6.9,4.5-10.3
				c0.7-1.2,0.3-2.8-0.9-3.6C1346.2,194.4,1344.4,194.8,1343.8,196.1z"/>
			<path class="st1" d="M1339.4,229.6c-2.4,4-4.9,8.1-7.3,12.1c-2.1,3.5-4.7,7.5-4.2,11.8c0.5,4.7,4.5,6.9,8.5,8.4
				c4.1,1.5,8.5,1.8,12.5-0.2c3.4-1.7,6.1-5.2,9.6-6.5c-1-1.3-1.9-2.6-2.9-3.8c-1.4,3.2-1.3,6.7,0.1,9.9c1.3,2.9,3.8,5.3,6.9,5.9
				c8.1,1.7,13.7-5.4,17.7-11.4c-1.5,0-3,0-4.5,0c2.8,5.8,7,12.2,13.9,13c3.2,0.4,6.5-0.8,9-2.7c1.4-1.1,2.6-2.3,3.7-3.7
				c0.5-0.6,0.9-1.3,1.3-1.9c0.2-0.4,0.4-0.8,0.6-1.2c0.4-0.8,0.4-0.4-0.2-0.2c-0.5,0-0.9,0-1.4,0c0.4,0.1,1,0.9,1.3,1.2
				c0.5,0.5,0.9,1.1,1.3,1.7c1,1.5,2.1,3.1,3.4,4.3c2.8,2.6,6.6,3.8,10.4,3.3c3.5-0.5,6.5-2.7,8.5-5.6c1-1.4,1.7-3.1,2.1-4.8
				c0-0.2,0.1-0.4,0.1-0.6c0-0.2,0-0.3,0.1-0.2c0.4,0.6-2.7-0.3-2,0.6c0.1,0.2,0.4,0.3,0.6,0.4c0.8,0.6,1.6,1.1,2.4,1.6
				c6.3,3.7,13.9,5.4,21.1,4.6c3.4-0.4,7.2-1,10-3c3.4-2.4,4.6-6.4,3.5-10.4c-1.2-4.3-4.2-8-6.5-11.7c-2.5-4.1-4.7-8.2-6.9-12.4
				c-0.6-1.3-2.4-1.6-3.6-0.9c-1.3,0.7-1.6,2.3-0.9,3.6c2.4,4.8,5,9.5,7.8,14c1.4,2.2,2.9,4.3,4.1,6.6c0.8,1.6,1.7,3.8,0.8,5.5
				c-0.7,1.4-2.3,2.1-3.7,2.6c-2,0.6-4.2,1-6.3,1.2c-4.5,0.3-9.1-0.5-13.2-2.2c-2-0.8-3.9-1.9-5.7-3.1c-1.1-0.8-2.1-1.5-3.5-1.3
				c-1.6,0.3-2.6,1.5-3.1,3c-0.6,1.8-0.9,3.4-2.2,4.9c-1.3,1.5-2.8,2.5-4.7,2.7c-1.6,0.2-3.3-0.3-4.8-1.2c-1.7-1.1-2.7-2.9-3.9-4.5
				c-1.3-1.9-3.2-4.7-5.7-4.9c-3.1-0.2-3.8,2.9-5.2,5c-1.2,1.8-2.9,3.3-4.8,4.1c-1.7,0.7-3.5,0.9-5.3,0.1c-1.7-0.7-3.3-2.3-4.6-3.9
				c-1.4-1.8-2.5-4-3.5-6c-0.9-1.9-3.5-1.5-4.5,0c-2.6,3.8-6.3,9.5-11.6,9c-1.9-0.2-3.1-1.4-3.9-3c-0.7-1.5-0.9-3.8-0.3-5.2
				c0.4-1,0.5-2-0.2-2.9c-0.6-0.8-1.8-1.3-2.7-0.9c-3.1,1.1-5.5,3.3-8.1,5.3c-2.6,1.9-5.2,2.9-8.4,2.2c-1.7-0.4-3.3-1-4.8-1.7
				c-1.1-0.6-2.2-1.2-2.6-2.5c-0.4-1.3,0.1-2.9,0.6-4.1c0.7-1.7,1.8-3.2,2.7-4.8c2.5-4.1,4.9-8.2,7.4-12.3
				C1345.7,229.3,1341.2,226.7,1339.4,229.6z"/>
			<path class="st1" d="M1381.4,263.9c0.3,6.7,0.2,13.5-0.3,20.2c-0.1,1.4,1.3,2.6,2.6,2.6c1.5,0,2.5-1.2,2.6-2.6
				c0.5-6.7,0.6-13.5,0.3-20.2c-0.1-1.4-1.1-2.6-2.6-2.6C1382.6,261.3,1381.3,262.5,1381.4,263.9z"/>
			<path class="st1" d="M1404.2,261.3c-0.6,4-0.4,8.1-0.4,12.1c0,1.9,0,3.9-0.2,5.8c-0.3,2.1-0.6,3.9-0.3,6c0.2,1.4,1.9,2.2,3.2,1.8
				c1.5-0.4,2-1.8,1.8-3.2c-0.2-1.5,0.4-3.3,0.5-4.8c0.2-1.9,0.2-3.7,0.2-5.6c0-3.6-0.3-7.2,0.2-10.8c0.2-1.4-0.3-2.8-1.8-3.2
				C1406.2,259.1,1404.4,259.8,1404.2,261.3z"/>
			<path class="st1" d="M1381.2,140.4c-3.4,8.8-7.7,17.3-12.7,25.3c-0.7,1.1,1,2.1,1.7,1c5.1-8.2,9.4-16.8,12.9-25.7
				C1383.5,139.8,1381.6,139.3,1381.2,140.4z"/>
			<path class="st1" d="M1363.8,174.8c-0.2,0.5-0.4,1.1-0.6,1.6c-0.2,0.5,0.2,1.1,0.7,1.2c0.5,0.1,1-0.2,1.2-0.7
				c0.2-0.5,0.4-1.1,0.6-1.6c0.2-0.5-0.2-1.1-0.7-1.2C1364.5,174,1364,174.3,1363.8,174.8z"/>
			<path class="st1" d="M1412.6,166.2c0.7,0.4,1.2,1.1,1.6,1.7c0.6,0.7,1.1,1.5,1.6,2.2c1,1.4,1.9,2.9,2.8,4.4
				c0.6,1.1,2.3,0.1,1.7-1c-1-1.7-2.1-3.4-3.2-5c-1-1.4-2-3.1-3.5-4C1412.5,163.9,1411.5,165.6,1412.6,166.2z"/>
			<path class="st1" d="M1427.4,206.1c2.5,3,5,5.8,7.7,8.6c0.9,0.9,2.2-0.5,1.4-1.4c-2.7-2.8-5.2-5.7-7.7-8.6
				C1428,203.7,1426.6,205.1,1427.4,206.1z"/>
			<path class="st1" d="M1440.2,217.8c0.9,1.2,1.9,2.4,3,3.5c0.9,0.9,2.3-0.5,1.4-1.4c-1-0.9-1.9-2-2.7-3.1
				c-0.3-0.4-0.8-0.6-1.3-0.3C1440.2,216.7,1439.9,217.4,1440.2,217.8z"/>
			<path class="st1" d="M1392.4,210.9c0,2.3,0,4.6,0,6.8c0,1.3,1.9,1.3,1.9,0c0-2.3,0-4.6,0-6.8
				C1394.4,209.7,1392.4,209.6,1392.4,210.9z"/>
			<path class="st1" d="M1362.7,200.8c-2.5,3.4-4.7,6.9-6.7,10.5c-0.6,1.1,1.1,2.1,1.7,1c2-3.7,4.2-7.2,6.7-10.5
				C1365.1,200.7,1363.5,199.8,1362.7,200.8z"/>
			<path class="st1" d="M1392.5,244.7c0,1,0,1.9,0,2.9c0,1.3,2,1.3,2,0c0-1,0-1.9,0-2.9C1394.4,243.4,1392.5,243.4,1392.5,244.7z"/>
			<path class="st1" d="M1394.8,267.7c0.3,5.3,0.1,10.5-0.7,15.7c-0.2,1.2,1.7,1.8,1.9,0.5c0.7-5.4,1-10.8,0.7-16.3
				C1396.7,266.4,1394.8,266.4,1394.8,267.7z"/>
		</g>
	</g>
	<g id="arvore1">
		<defs>
			<rect id="SVGID_7_" x="132.9" y="132.8" width="61" height="79"/>
		</defs>
		<clipPath id="SVGID_8_">
			<use xlink:href="#SVGID_7_"  style="overflow:visible;"/>
		</clipPath>
		<g class="st4">
			<path class="st1" d="M188.6,195.2c0.1,0.2,0.1,0.3,0.3,0.4c0.1,0.1,0.3,0.2,0.4,0.2c0.2,0.1,0.5-0.1,0.5-0.3
				c0.1-0.2-0.1-0.5-0.3-0.5c0,0-0.1,0,0,0c0.1,0,0,0,0,0c0,0,0,0,0,0c0,0,0.1,0.1,0,0c0,0-0.1-0.1,0,0c0,0.1,0,0,0,0c0,0,0-0.1,0,0
				c0-0.1-0.1-0.2-0.2-0.3c-0.1-0.1-0.2-0.1-0.3,0c-0.1,0-0.2,0.1-0.3,0.2C188.6,195,188.6,195.1,188.6,195.2z"/>
			<path class="st1" d="M141.5,176.4c-0.1,0.3-0.1,0.7-0.2,1c0,0.2,0.1,0.5,0.3,0.5c0.2,0.1,0.5-0.1,0.5-0.3c0.1-0.3,0.1-0.7,0.2-1
				c0-0.2-0.1-0.5-0.3-0.5C141.8,176.1,141.5,176.2,141.5,176.4z"/>
			<path class="st1" d="M142.4,186.1c-0.6,2.3-1.9,4.4-3.6,6.1c-0.4,0.4,0.2,1,0.6,0.6c1.8-1.8,3.1-4,3.8-6.5
				C143.4,185.8,142.6,185.6,142.4,186.1z"/>
			<path class="st1" d="M136.9,194.1c0,0.1,0,0.2-0.1,0.3c0,0.1,0,0.2,0,0.3c0.1,0.1,0.2,0.2,0.3,0.2c0.1,0,0.2,0,0.3,0
				c0.1-0.1,0.2-0.1,0.2-0.3c0-0.1,0-0.2,0.1-0.3c0-0.1,0-0.2,0-0.3c-0.1-0.1-0.2-0.2-0.3-0.2c-0.1,0-0.2,0-0.3,0
				C137,193.9,136.9,194,136.9,194.1z"/>
			<path class="st1" d="M159,133.8c-1.7,2.9-3.6,5.6-5.5,8.3c-2.3,3.1-4.6,6.2-6.9,9.4c-2,2.7-4,5.5-5.7,8.4
				c-1.1,1.9-2.3,3.9-2.5,6.2c-0.2,1.9,0.4,4.1,1.9,5.3c1.7,1.4,3.8,1,5.4-0.2c0.8-0.6,1.5-1.3,2.3-1.9c0.6-0.5,1.4-1.1,2-1.3
				c-0.5-0.3-0.9-0.5-1.4-0.8c0.8,2.7,1.9,6.5,5.1,7.2c1.3,0.3,2.7,0.1,3.7-0.7c0.6-0.4,1.1-1,1.3-1.7c0.1-0.3,0.2-0.6,0.2-1
				c0-0.2,0-0.4,0-0.6c0,0,0-0.1,0-0.1c0-0.1,0.1-0.1,0,0c0,0-0.1,0.1-0.1,0.1c-0.1,0.1,0.1,0,0,0c-0.2,0,0.1,0,0.1,0
				c0.2,0-0.2,0,0,0c0.3,0.1,0.4,0.1,0.7,0.3c0.2,0.1-0.1-0.1,0.1,0c0.1,0.1,0.1,0.1,0.2,0.2c0.1,0.1,0.3,0.2,0.4,0.4
				c0.3,0.3,0.6,0.6,0.9,0.9c1.1,1.1,2.3,2.3,3.7,3c1.4,0.6,2.9,0.6,4.2,0c1.2-0.5,2.2-1.6,2.4-2.9c0.1-0.9,0-1.6-0.2-2.5
				c-0.1-0.3-0.1-0.6,0-0.8c0,0-0.1,0.3,0.1-0.1c0,0-0.1,0.1,0,0c0.1-0.1-0.1,0.1,0,0c0.1,0,0.1,0,0,0c0,0,0.1,0,0.1,0
				c0,0-0.2,0,0,0c0.1,0,0.1,0,0.2,0c-0.2,0,0.2,0,0.2,0.1c0.4,0.1,0.5,0.2,0.8,0.4c0.7,0.4,1.4,0.9,2.2,1.2
				c1.6,0.8,3.3,1.4,5.1,1.6c1.8,0.2,4.2,0.6,4.9-1.5c0.6-1.7,0.1-3.8-0.6-5.3c-0.7-1.6-1.7-3-2.7-4.4c-2.1-2.8-4.4-5.5-6.6-8.3
				c-4.4-5.4-8.9-10.8-12.4-16.8c-0.4-0.8-0.9-1.6-1.3-2.3c-0.3-0.5-1.1-0.7-1.6-0.4c-0.6,0.3-0.7,1-0.4,1.6
				c3.2,6,7.3,11.4,11.6,16.7c2.1,2.6,4.3,5.2,6.4,7.8c1,1.3,2,2.6,3,3.9c0.9,1.3,1.8,2.6,2.2,4.2c0.2,0.7,0.3,1.5,0.2,2.2
				c0,0.1,0,0.3-0.1,0.4c0-0.1-0.1,0.1,0,0.1c-0.1,0.1-0.5,0-0.8,0c-1.6,0-3.3-0.4-4.8-1c-1.5-0.6-2.7-1.6-4.2-2.1
				c-1.5-0.6-3.2-0.3-3.8,1.3c-0.3,0.8-0.1,1.7,0.1,2.5c0.1,0.3,0.1,0.6,0.1,0.9c0,0.1,0,0.2,0,0.2c0-0.2,0,0,0,0
				c0,0.1-0.1,0.4-0.1,0.2c-0.1,0.1-0.1,0.3-0.2,0.4c0,0-0.1,0.1,0,0.1c0.1-0.1-0.1,0.1-0.1,0.1c-0.3,0.3-0.2,0.2-0.5,0.4
				c-0.3,0.2-0.3,0.1-0.5,0.2c-0.1,0-0.3,0.1-0.4,0.1c-0.1,0,0,0,0,0c-0.1,0-0.2,0-0.3,0c-0.6,0-0.9,0-1.4-0.3
				c-0.6-0.3-1.1-0.7-1.6-1.2c-1.1-1-2.1-2.3-3.4-3.1c-1.2-0.8-3.1-1-3.8,0.5c-0.2,0.5-0.2,0.9-0.2,1.4c0,0.1,0,0.2,0,0.3
				c0,0,0-0.2,0,0c0,0.1-0.2,0.5-0.1,0.3c-0.1,0.1-0.1,0.2-0.2,0.3c-0.1,0.2,0.1-0.1,0,0c0,0-0.1,0.1-0.1,0.1c0,0-0.3,0.3-0.2,0.2
				c-0.1,0.1-0.2,0.2-0.3,0.2c-0.1,0-0.1,0.1-0.2,0.1c0.1,0,0.2-0.1,0,0c-0.1,0-0.2,0.1-0.4,0.1c-0.1,0-0.4,0.1-0.2,0
				c-0.2,0-0.3,0-0.5,0c-0.1,0-0.4,0-0.2,0c-0.1,0-0.2,0-0.4-0.1c-0.1,0-0.4-0.1-0.2-0.1c-0.1-0.1-0.3-0.1-0.4-0.2
				c-1-0.7-1.6-2-2-3.2c-0.2-0.7-0.5-1.4-0.7-2.1c-0.2-0.6-0.8-1-1.4-0.8c-1.6,0.6-2.8,1.8-4.1,2.9c-0.6,0.5-0.9,0.8-1.6,1.2
				c0,0-0.3,0.1-0.1,0.1c-0.1,0-0.1,0-0.2,0.1c-0.1,0-0.1,0-0.2,0.1c0,0-0.3,0.1-0.2,0c0.2,0-0.2,0-0.2,0c-0.1,0-0.1,0-0.2,0
				c-0.3,0,0.1,0-0.1,0c-0.1,0-0.3-0.1-0.4-0.1c0.1,0.1-0.2-0.1-0.3-0.1c-0.1-0.1-0.2-0.1-0.3-0.3c-0.2-0.2-0.4-0.5-0.6-0.9
				c-0.3-0.6-0.4-1.4-0.3-2.2c0.1-1.9,1.3-3.7,2.3-5.4c1.7-2.8,3.5-5.4,5.4-8c2.2-3,4.4-6,6.6-9c2.1-2.9,4.2-5.8,6-9
				C161.7,133.7,159.8,132.5,159,133.8z"/>
			<path class="st1" d="M139.9,169.8c-1.6,3.1-2.8,6.4-3.5,9.9c-0.2,0.9-0.3,1.8-0.4,2.7c-0.1,0.9,0.1,1.9,0.9,2.5
				c1.4,1.1,3.5,0.9,5.1,0.2c1.8-0.8,3.1-2.3,4.4-3.7c-0.6-0.4-1.3-0.7-1.9-1.1c-0.5,2.6,0.5,5.6,2.9,6.9c1.2,0.6,2.6,0.8,4,0.5
				c1.3-0.3,2.3-1.2,3.2-2.2c0.9-1.1,1.6-2.3,2.5-3.4c-0.6-0.1-1.2-0.2-1.8-0.2c1.5,2.5,3.3,5.1,6,6.4c1.3,0.6,2.8,0.9,4.3,0.5
				c1.4-0.4,2.4-1.5,2.8-2.9c0.2-0.6,0.3-1.3,0.4-1.9c0.1-0.3,0.1-0.6,0.2-0.9c0.1-0.2,0.2-0.5,0.3-0.6c-0.6-0.1-1.2-0.2-1.8-0.2
				c1.4,2.5,3.5,4.7,6,6.1c1.2,0.7,2.7,1.4,4.1,1.6c0.8,0.1,1.7-0.2,2.2-0.9c0.5-0.7,0.5-1.7,0.6-2.5c0.1-0.9,0.1-1.7,0.1-2.6
				c0-0.4,0-0.8-0.1-1.2c0,0,0,0,0-0.1c0-0.1,0-0.1,0,0c0.2,0.1-1,0.3-0.7,0.5c0.2,0.1,0.4,0.1,0.6,0.2c1.4,0.5,2.6,1.4,4.1,1.6
				c1.5,0.3,3.1,0,4.1-1.3c0.9-1.2,1.1-2.8,0.8-4.2c-0.4-1.7-1.6-3.1-2.8-4.4c-1.1-1.1-2.3-2.2-2.7-3.8c-0.4-1.4-2.6-0.8-2.2,0.6
				c0.4,1.4,1.2,2.6,2.2,3.7c0.9,1,2,1.9,2.7,3.1c0.3,0.5,0.5,1,0.6,1.6c0.1,0.4,0,1-0.1,1.4c-0.1,0.4-0.3,0.7-0.8,0.9
				c-0.4,0.2-0.9,0.2-1.4,0.1c-1.3-0.2-2.5-1-3.7-1.5c-0.7-0.3-1.6-0.6-2.3-0.2c-0.8,0.5-0.8,1.4-0.8,2.2c0,0.8,0,1.6,0,2.4
				c0,0.4-0.1,0.7-0.1,1.1c0,0.3-0.2,0.7-0.2,1c0-0.2,0.3,0,0-0.1c-0.2,0-0.5-0.1-0.8-0.2c-0.6-0.2-1.1-0.4-1.6-0.6
				c-2.6-1.3-4.6-3.3-6-5.7c-0.3-0.6-1.3-0.8-1.8-0.2c-1,1.2-1,2.6-1.3,4c-0.1,0.6-0.2,1.1-0.7,1.4c-0.4,0.3-1,0.4-1.6,0.3
				c-1.5-0.1-2.8-0.9-3.8-1.9c-1.2-1.2-2.1-2.6-3-4c-0.4-0.6-1.3-0.8-1.8-0.2c-0.9,1-1.6,2.2-2.4,3.3c-0.7,0.9-1.6,1.7-2.8,1.8
				c-2.5,0.1-4-2.4-3.6-4.6c0.1-0.5-0.1-1-0.5-1.3c-0.4-0.2-1.1-0.2-1.4,0.2c-0.9,1-1.8,2.1-3,2.9c-0.9,0.5-2.4,1.1-3.3,0.5
				c-0.1-0.1-0.1,0-0.1-0.2c0-0.3,0.1-0.6,0.1-0.9c0.1-0.7,0.3-1.5,0.4-2.2c0.3-1.5,0.7-2.9,1.2-4.3c0.5-1.5,1.2-3,2-4.5
				c0.3-0.5,0.1-1.2-0.4-1.6C141,169.1,140.2,169.2,139.9,169.8z"/>
			<path class="st1" d="M138,184.5c-1.1,1.8-2.1,3.5-3.2,5.3c-0.9,1.5-2.1,3.3-1.9,5.2c0.2,2.1,2,3,3.8,3.7c1.8,0.7,3.8,0.8,5.5-0.1
				c1.5-0.8,2.7-2.3,4.2-2.8c-0.4-0.6-0.9-1.1-1.3-1.7c-0.6,1.4-0.6,2.9,0,4.3c0.6,1.3,1.7,2.3,3.1,2.6c3.6,0.7,6-2.4,7.8-5
				c-0.7,0-1.3,0-2,0c1.3,2.5,3.1,5.3,6.2,5.7c1.4,0.2,2.9-0.3,4-1.2c0.6-0.5,1.2-1,1.6-1.6c0.2-0.3,0.4-0.6,0.6-0.9
				c0.1-0.2,0.2-0.3,0.3-0.5c0.2-0.3,0.2-0.2-0.1-0.1c-0.2,0-0.4,0-0.6,0c0.2,0,0.5,0.4,0.6,0.5c0.2,0.2,0.4,0.5,0.6,0.8
				c0.5,0.7,0.9,1.3,1.5,1.9c1.2,1.2,2.9,1.7,4.6,1.4c1.6-0.2,2.9-1.2,3.7-2.5c0.4-0.6,0.7-1.4,0.9-2.1c0-0.1,0.1-0.2,0.1-0.2
				c0-0.1,0-0.1,0-0.1c0.2,0.3-1.2-0.1-0.9,0.3c0.1,0.1,0.2,0.1,0.2,0.2c0.3,0.2,0.7,0.5,1.1,0.7c2.8,1.6,6.1,2.4,9.3,2
				c1.5-0.2,3.2-0.4,4.4-1.3c1.5-1.1,2-2.8,1.6-4.6c-0.5-1.9-1.9-3.5-2.9-5.2c-1.1-1.8-2.1-3.6-3-5.5c-0.3-0.6-1.1-0.7-1.6-0.4
				c-0.6,0.3-0.7,1-0.4,1.6c1.1,2.1,2.2,4.2,3.5,6.2c0.6,1,1.3,1.9,1.8,2.9c0.4,0.7,0.7,1.7,0.4,2.4c-0.3,0.6-1,0.9-1.6,1.1
				c-0.9,0.3-1.8,0.4-2.8,0.5c-2,0.1-4-0.2-5.9-1c-0.9-0.4-1.7-0.8-2.5-1.4c-0.5-0.3-0.9-0.7-1.5-0.6c-0.7,0.1-1.1,0.7-1.4,1.3
				c-0.3,0.8-0.4,1.5-1,2.1c-0.6,0.6-1.2,1.1-2.1,1.2c-0.7,0.1-1.5-0.1-2.1-0.5c-0.7-0.5-1.2-1.3-1.7-2c-0.6-0.8-1.4-2.1-2.5-2.1
				c-1.4-0.1-1.7,1.3-2.3,2.2c-0.5,0.8-1.3,1.4-2.1,1.8c-0.7,0.3-1.5,0.4-2.4,0c-0.7-0.3-1.5-1-2-1.7c-0.6-0.8-1.1-1.7-1.6-2.6
				c-0.4-0.8-1.5-0.7-2,0c-1.2,1.7-2.8,4.2-5.1,4c-0.8-0.1-1.4-0.6-1.7-1.3c-0.3-0.6-0.4-1.7-0.1-2.3c0.2-0.4,0.2-0.9-0.1-1.3
				c-0.3-0.3-0.8-0.6-1.2-0.4c-1.4,0.5-2.4,1.5-3.6,2.3c-1.2,0.9-2.3,1.3-3.7,1c-0.7-0.2-1.4-0.4-2.1-0.8c-0.5-0.3-1-0.5-1.2-1.1
				c-0.2-0.6,0.1-1.3,0.3-1.8c0.3-0.7,0.8-1.4,1.2-2.1c1.1-1.8,2.2-3.6,3.3-5.4C140.7,184.4,138.8,183.2,138,184.5z"/>
			<path class="st1" d="M156.5,199.6c0.1,2.9,0.1,5.9-0.1,8.9c0,0.6,0.6,1.1,1.1,1.1c0.7,0,1.1-0.5,1.1-1.1c0.2-2.9,0.3-5.9,0.1-8.9
				c0-0.6-0.5-1.1-1.1-1.1C157.1,198.4,156.5,198.9,156.5,199.6z"/>
			<path class="st1" d="M146.9,210.7c4.6-0.3,9.1-0.6,13.7-0.6c4.5,0,9,0.4,13.5,0.8c2.5,0.3,5.1,0.5,7.6,0.8
				c0.6,0.1,1.1-0.6,1.1-1.1c0-0.7-0.5-1.1-1.1-1.1c-4.5-0.5-9-1-13.5-1.3c-4.5-0.3-9-0.4-13.6-0.2c-2.6,0.1-5.1,0.3-7.7,0.4
				c-0.6,0-1.1,0.5-1.1,1.1C145.8,210.2,146.3,210.8,146.9,210.7z"/>
			<path class="st1" d="M166.6,198.4c-0.3,1.8-0.2,3.5-0.2,5.3c0,0.9,0,1.7-0.1,2.6c-0.1,0.9-0.3,1.7-0.1,2.6c0.1,0.6,0.9,1,1.4,0.8
				c0.6-0.2,0.9-0.8,0.8-1.4c-0.1-0.7,0.2-1.4,0.2-2.1c0.1-0.8,0.1-1.6,0.1-2.5c0-1.6-0.1-3.2,0.1-4.7c0.1-0.6-0.2-1.2-0.8-1.4
				C167.5,197.4,166.7,197.8,166.6,198.4z"/>
			<path class="st1" d="M156.4,145.4c-1.5,3.9-3.4,7.6-5.6,11.1c-0.3,0.5,0.4,0.9,0.7,0.4c2.3-3.6,4.2-7.4,5.7-11.3
				C157.5,145.1,156.6,144.9,156.4,145.4z"/>
			<path class="st1" d="M148.8,160.5c-0.1,0.2-0.2,0.5-0.3,0.7c-0.1,0.2,0.1,0.5,0.3,0.5c0.2,0.1,0.4-0.1,0.5-0.3
				c0.1-0.2,0.2-0.5,0.2-0.7c0.1-0.2-0.1-0.5-0.3-0.5C149,160.1,148.8,160.2,148.8,160.5z"/>
			<path class="st1" d="M170.3,156.7c0.3,0.2,0.5,0.5,0.7,0.8c0.2,0.3,0.5,0.6,0.7,1c0.4,0.6,0.8,1.3,1.2,1.9c0.3,0.5,1,0,0.7-0.4
				c-0.4-0.8-0.9-1.5-1.4-2.2c-0.4-0.6-0.9-1.4-1.6-1.7C170.3,155.6,169.8,156.4,170.3,156.7z"/>
			<path class="st1" d="M176.9,174.2c1.1,1.3,2.2,2.6,3.4,3.8c0.4,0.4,1-0.2,0.6-0.6c-1.2-1.2-2.3-2.5-3.4-3.8
				C177.1,173.1,176.5,173.7,176.9,174.2z"/>
			<path class="st1" d="M182.5,179.3c0.4,0.5,0.8,1.1,1.3,1.5c0.4,0.4,1-0.2,0.6-0.6c-0.4-0.4-0.8-0.9-1.2-1.3
				c-0.1-0.2-0.4-0.3-0.6-0.2C182.5,178.8,182.4,179.1,182.5,179.3z"/>
			<path class="st1" d="M161.4,176.3c0,1,0,2,0,3c0,0.6,0.9,0.6,0.9,0c0-1,0-2,0-3C162.3,175.7,161.4,175.7,161.4,176.3z"/>
			<path class="st1" d="M148.3,171.8c-1.1,1.5-2.1,3-3,4.6c-0.3,0.5,0.5,0.9,0.7,0.4c0.9-1.6,1.9-3.1,3-4.6
				C149.3,171.8,148.6,171.4,148.3,171.8z"/>
			<path class="st1" d="M183.2,187.7c1.4,2.4,3.1,4.6,5.2,6.5c0.4,0.4,1-0.2,0.6-0.6c-2-1.8-3.8-3.9-5.1-6.3
				C183.7,186.8,182.9,187.2,183.2,187.7z"/>
			<path class="st1" d="M161.4,191.1c0,0.4,0,0.8,0,1.3c0,0.6,0.9,0.6,0.9,0c0-0.4,0-0.8,0-1.3C162.3,190.6,161.4,190.6,161.4,191.1
				z"/>
			<path class="st1" d="M162.5,201.2c0.1,2.3,0,4.6-0.3,6.9c-0.1,0.5,0.8,0.8,0.8,0.2c0.3-2.4,0.4-4.7,0.3-7.1
				C163.3,200.6,162.4,200.6,162.5,201.2z"/>
		</g>
	</g>
</g>
<g id="barracas">
	<g id="barraca2">
		<defs>
			<rect id="SVGID_9_" x="740.6" y="136" width="130" height="81"/>
		</defs>
		<clipPath id="SVGID_10_">
			<use xlink:href="#SVGID_9_"  style="overflow:visible;"/>
		</clipPath>
		<g class="st5">
			<path class="st1" d="M768.4,145.3c-1.6,9.4-4.7,18.6-8.2,27.4c-3.6,9-7.7,17.8-11.9,26.5c-2.4,5.1-4.9,10.1-7.5,15.1
				c-0.3,0.7-0.2,1.5,0.5,1.9c0.6,0.4,1.5,0.2,1.9-0.5c4.6-8.9,9-18,13.1-27.1c4-8.8,7.9-17.7,10.8-26.9c1.7-5.1,3-10.4,4-15.7
				c0.1-0.7-0.2-1.5-1-1.7C769.4,144.1,768.5,144.5,768.4,145.3z"/>
			<path class="st1" d="M768.3,146.1c2.2,9.3,5,18.4,8.2,27.3c3.3,9.1,6.8,18.1,10.2,27.1c1.9,5.1,3.9,10.2,5.8,15.3
				c0.3,0.7,0.9,1.2,1.7,1c0.7-0.2,1.2-1,1-1.7c-3.5-9.1-6.9-18.2-10.4-27.2c-3.4-8.9-6.8-17.9-9.6-27.1c-1.6-5.1-3-10.2-4.2-15.4
				C770.5,143.6,767.9,144.4,768.3,146.1z"/>
			<path class="st1" d="M770.4,147.5c10.2,0.1,20.3,0.1,30.5,0.1c10.1,0,20.2,0,30.3-0.1c5.7-0.1,11.5-0.1,17.2-0.2
				c1.8,0,1.8-2.8,0-2.8c-10.2,0.1-20.3,0.2-30.5,0.3c-10.1,0-20.2,0.1-30.3,0c-5.7,0-11.5-0.1-17.2-0.1
				C768.7,144.7,768.7,147.5,770.4,147.5z"/>
			<path class="st1" d="M848.4,148.1c1.8,0,1.8-2.8,0-2.8C846.7,145.3,846.7,148.1,848.4,148.1z"/>
			<path class="st1" d="M846.8,147.1c1.3,9.3,3.2,18.5,5.7,27.5c2.4,9.1,5.4,18.1,8.8,26.8c1.9,4.8,3.9,9.6,6.1,14.3
				c0.3,0.7,1.3,0.9,1.9,0.5c0.7-0.4,0.8-1.2,0.5-1.9c-3.8-8.3-7.2-16.8-10.1-25.5c-3-8.9-5.5-17.9-7.5-27.1
				c-1.1-5.1-2-10.3-2.7-15.4c-0.1-0.7-1-1.2-1.7-1C847,145.6,846.7,146.3,846.8,147.1z"/>
			<path class="st1" d="M741.9,217c8.2,0,16.5,0,24.7,0c8.3,0,16.6,0,24.8,0c8.4,0,16.7,0,25.1,0c8.3,0,16.6,0,24.9,0
				c8.3,0,16.5,0,24.8,0c1,0,2,0,3.1,0c1.8,0,1.8-2.8,0-2.8c-8.2,0-16.5,0-24.7,0c-8.3,0-16.6,0-24.8,0c-8.4,0-16.7,0-25.1,0
				c-8.3,0-16.6,0-24.9,0c-8.3,0-16.5,0-24.8,0c-1,0-2,0-3.1,0C740.1,214.2,740.1,217,741.9,217z"/>
			<path class="st1" d="M795.3,162.3c8.1,0.3,16.2,0.3,24.2,0c4-0.1,8.1-0.3,12.1-0.6c0.5,0,1-0.1,1.5-0.1c0.4,0,0.6,0.1,0.1-0.3
				c-0.8-0.6-0.3-0.3-0.3-0.1c0-0.1,0,0.1,0,0.2c0.1,1,0.2,1.9,0.3,2.8c0.3,1.8,0.6,3.6,1.1,5.4c1.1,4,2.7,7.8,4.8,11.3
				c0.3-0.7,0.5-1.4,0.8-2c-3.7,1-7.6,1.2-11.4,1.3c-4.1,0-8.1,0-12.2,0c-4.1,0-8.2,0-12.3,0c-1,0-2,0-3,0c-0.2,0-0.2-0.1-0.4,0
				c0.2,0,0.2,0.2,0.1,0c-0.2-0.4-0.4-0.8-0.6-1.2c-0.7-1.6-1.4-3.3-1.9-5c-1.3-4-2-8.2-2.2-12.4c0-0.8-0.6-1.4-1.4-1.4
				c-0.7,0-1.4,0.6-1.4,1.4c0.2,4,0.8,8,1.9,11.8c0.5,1.9,1.2,3.7,1.9,5.5c0.4,0.9,0.7,2,1.3,2.8c0.6,1,1.5,1.4,2.7,1.4
				c8.6,0.1,17.2,0,25.7,0c4.7,0,9.4-0.1,13.9-1.4c0.8-0.2,1.3-1.3,0.8-2c-1.9-3.1-3.3-6.5-4.3-10c-0.5-1.8-0.9-3.7-1.2-5.5
				c-0.1-0.9-0.2-1.7-0.3-2.6c-0.1-1-0.4-2.1-1.5-2.5c-0.9-0.3-2.1,0-3,0c-1,0.1-2.1,0.1-3.1,0.2c-2.1,0.1-4.2,0.2-6.3,0.3
				c-4.2,0.2-8.3,0.2-12.5,0.3c-4.7,0-9.4-0.1-14.1-0.2C793.5,159.4,793.5,162.2,795.3,162.3z"/>
			<path class="st1" d="M768.8,148.2c-1.1,8.9-2.2,17.7-3.2,26.6c-1,8.4-2,16.9-3.6,25.3c-0.9,4.6-2.1,9.2-3.5,13.7
				c-0.2,0.7,0.3,1.5,1,1.7c0.8,0.2,1.5-0.3,1.7-1c2.7-8,4.2-16.4,5.4-24.8c1.2-8.8,2.2-17.6,3.3-26.4c0.6-5,1.2-10.1,1.8-15.1
				c0.1-0.7-0.7-1.4-1.4-1.4C769.3,146.8,768.9,147.4,768.8,148.2z"/>
			<path class="st1" d="M768.4,150.5c1.1,8.3,2.1,16.6,3.2,24.9c1.1,8.4,2.2,16.7,3.3,25.1c0.6,4.7,1.3,9.3,1.9,14
				c0.1,0.7,1,1.2,1.7,1c0.8-0.2,1.1-1,1-1.7c-1.1-8.2-2.2-16.4-3.3-24.5c-1.1-8.2-2.2-16.5-3.2-24.7c-0.6-4.7-1.2-9.3-1.8-14
				c-0.1-0.7-0.6-1.4-1.4-1.4C769.1,149.1,768.3,149.8,768.4,150.5z"/>
			<path class="st1" d="M771.2,145.8c-0.5-2.2-0.7-4.4-0.8-6.6c0-0.8-0.6-1.4-1.4-1.4c-0.7,0-1.4,0.6-1.4,1.4
				c0.1,2.5,0.4,4.9,0.9,7.3c0.2,0.7,1,1.2,1.7,1C771,147.3,771.4,146.5,771.2,145.8z"/>
			<path class="st1" d="M769.6,140c1.5-0.4,3.1-1,4.7-1.3c-0.2,0-0.5,0-0.7,0c0,0,0.1,0,0.1,0c-0.3-0.2-0.5-0.4-0.8-0.6
				c-0.1-0.2-0.1-0.4-0.1-0.1c0,0.2,0,0.4,0,0.5c0,0.3,0,0.6,0,0.9c0,0.7,0,1.3,0.1,2c0.2,1.3,0.4,2.6,0.7,3.9c0.2,0.7,1,1.2,1.7,1
				c0.8-0.2,1.1-1,1-1.7c-0.2-1.1-0.5-2.2-0.6-3.3c-0.1-1.2-0.1-2.4-0.2-3.6c-0.1-0.7-0.3-1.4-1.1-1.6c-0.6-0.2-1.3,0.1-1.8,0.3
				c-1.2,0.3-2.4,0.6-3.6,1C767.1,137.7,767.9,140.4,769.6,140z"/>
			<path class="st1" d="M848.9,145.6c0.2-1.9,0.2-3.9,0.2-5.8c0-1.1,0-2.4-1.2-2.8c-0.5-0.1-1-0.1-1.5-0.1c-0.5,0-1,0-1.4,0
				c-0.4,0-0.9,0-1.3,0c-0.5,0-1.1-0.1-1.6,0.1c-0.5,0.2-1,0.6-1.1,1.1c-0.1,0.5,0,1.1,0.1,1.7c0.3,1.9,0.4,3.8,0.3,5.8
				c0,1.8,2.7,1.8,2.8,0c0-1.2,0-2.4-0.1-3.6c0-0.6-0.1-1.2-0.2-1.8c-0.1-0.5-0.2-1.2-0.2-1.6c-0.1,0.2-0.1,0.5-0.2,0.7
				c0,0,0-0.1,0-0.1c-0.2,0.2-0.3,0.3-0.5,0.5c0,0,0.1,0,0.1-0.1c-0.2,0.1-0.5,0.1-0.7,0.2c0.8-0.1,1.7,0,2.6,0c0.9,0,1.7-0.1,2.6,0
				c-0.2-0.1-0.5-0.1-0.7-0.2c0,0,0.1,0.1,0.1,0.1c-0.2-0.3-0.4-0.6-0.6-0.8c0-0.2,0-0.2,0,0.1c0,0.1,0,0.3,0,0.4c0,0.3,0,0.6,0,0.9
				c0,0.6,0,1.2,0,1.8c0,1.2-0.1,2.4-0.2,3.6c-0.1,0.8,0.7,1.4,1.4,1.4C848.3,147,848.9,146.4,848.9,145.6z"/>
			<path class="st1" d="M795.8,165.8c2.2,0.7,4.6,0.7,6.9,0.8c2.5,0.1,5,0.2,7.5,0.2c5,0,9.9-0.5,14.9-1.1c2.8-0.3,5.6-0.6,8.4-0.9
				c0.7-0.1,0.7-1.1,0-1c-4.9,0.5-9.8,1.2-14.6,1.6c-4.9,0.5-9.9,0.4-14.8,0.2c-2.6-0.1-5.5,0-8-0.8
				C795.5,164.6,795.2,165.6,795.8,165.8z"/>
			<path class="st1" d="M805.7,166.7c1.2,5,2.9,9.9,5,14.6c0.3,0.6,1.2,0.1,0.9-0.5c-2.1-4.6-3.8-9.4-4.9-14.4
				C806.6,165.7,805.6,166,805.7,166.7z"/>
			<path class="st1" d="M830.2,180.8c-3.4-4.4-4.6-9.9-5.8-15.3c-0.1-0.7-1.1-0.4-1,0.3c1.2,5.4,2.5,11,6,15.5
				C829.7,181.9,830.6,181.3,830.2,180.8z"/>
			<path class="st1" d="M772.3,161.8c0.1,7.5,1.2,14.9,3.3,22c2.1,7.4,5.4,14.3,8.5,21.3c0.2,0.5,0.7,1.1,0.3,1.5
				c-0.3,0.3-0.7,0.7-1,1c-0.6,0.7-1.2,1.4-1.7,2.1c-1.1,1.5-2,3.2-2.6,4.9c-0.2,0.6,0.8,0.9,1,0.3c0.6-1.6,1.4-3.1,2.4-4.5
				c0.5-0.7,1.1-1.4,1.6-2.1c0.3-0.3,0.5-0.6,0.8-0.8c0.3-0.3,0.6-0.5,0.7-0.8c0.4-0.7-0.3-1.7-0.6-2.4c-0.4-0.9-0.8-1.8-1.2-2.7
				c-0.8-1.8-1.6-3.7-2.4-5.5c-1.5-3.5-3-7-4.1-10.7c-1.1-3.6-2-7.3-2.7-11c-0.7-4.2-1.1-8.5-1.2-12.7
				C773.3,161.2,772.3,161.2,772.3,161.8z"/>
			<path class="st1" d="M767.6,159.4c-0.8,3.9-1.6,7.8-2.4,11.7c-0.8,3.8-1.5,7.6-2.4,11.3c-0.4,1.8-1,3.6-1.8,5.2
				c-0.8,1.6-1.9,3.1-2.8,4.7c-1,1.6-2,3.3-2.8,5c-0.4,0.7-0.8,1.5-0.7,2.4c0.1,0.8,0.7,1.5,1,2.2c1.6,3.7,2,7.8,2.4,11.7
				c0.1,0.7,1.1,0.7,1,0c-0.3-3.5-0.7-7-1.8-10.3c-0.3-0.8-0.6-1.6-0.9-2.4c-0.2-0.4-0.4-0.7-0.5-1.1c-0.2-0.5-0.2-0.9,0-1.4
				c0.8-1.7,1.8-3.4,2.8-5c0.9-1.6,2-3,2.8-4.6c0.9-1.6,1.5-3.3,2-5c1-3.7,1.7-7.5,2.4-11.2c0.9-4.4,1.8-8.7,2.7-13.1
				C768.7,159.1,767.7,158.8,767.6,159.4z"/>
			<path class="st1" d="M861.1,210.5c-6.9,0.1-13.7,0.2-20.6,0.4c-0.7,0-0.7,1.1,0,1c6.9-0.1,13.7-0.2,20.6-0.4
				C861.8,211.5,861.8,210.5,861.1,210.5z"/>
			<path class="st1" d="M829,210.8c-4.5,0-9,0-13.5,0c-0.7,0-0.7,1,0,1c4.5,0,9,0,13.5,0C829.7,211.8,829.7,210.8,829,210.8z"/>
			<path class="st1" d="M806.5,210.4c-1.1,0-2.2,0-3.3,0c-0.7,0-0.7,1,0,1c1.1,0,2.2,0,3.3,0C807.2,211.4,807.2,210.4,806.5,210.4z"
				/>
			<path class="st1" d="M751.7,205c-0.7,1.4-1.4,2.7-2.1,4.1c-0.3,0.6,0.6,1.1,0.9,0.5c0.7-1.4,1.4-2.8,2.1-4.1
				C752.9,204.9,752,204.4,751.7,205z"/>
			<path class="st1" d="M752.2,209.5c0,0.1-0.1,0.2-0.1,0.2c0,0.1,0,0.3,0.1,0.4c0.1,0.1,0.2,0.2,0.3,0.2c0.3,0.1,0.5-0.1,0.6-0.4
				c0-0.1,0-0.2,0.1-0.2c0-0.1,0-0.3-0.1-0.4c-0.1-0.1-0.2-0.2-0.3-0.2C752.6,209,752.3,209.2,752.2,209.5z"/>
			<path class="st1" d="M776.7,151.2c-0.7,1.2,0,2.6,0.4,3.9c0.5,1.5,1.1,3,1.7,4.6c1.2,3,2.4,6,3.7,9c0.3,0.6,1.2,0.1,0.9-0.5
				c-1.2-2.8-2.3-5.5-3.4-8.3c-0.5-1.4-1-2.7-1.5-4.1c-0.2-0.7-0.5-1.4-0.7-2.1c-0.2-0.6-0.4-1.2-0.1-1.8
				C778,151.1,777.1,150.6,776.7,151.2z"/>
			<path class="st1" d="M783.8,177.4c0.3,0.6,0.5,1.2,0.6,1.9c0.1,0.7,1.1,0.4,1-0.3c-0.1-0.7-0.4-1.4-0.7-2.1
				C784.4,176.3,783.5,176.8,783.8,177.4z"/>
			<path class="st1" d="M811,172.4c1.6-0.1,3.2-0.1,4.8-0.1c1.4,0,3,0.2,4.4-0.3c0.6-0.2,0.3-1.3-0.3-1c-1.3,0.5-2.9,0.3-4.3,0.3
				c-1.5,0-3.1,0-4.6,0.1C810.4,171.4,810.4,172.5,811,172.4z"/>
			<path class="st1" d="M816.6,174.6c0.8,0,1.5,0,2.3,0c0.7,0,0.7-1,0-1c-0.8,0-1.5,0-2.3,0C815.9,173.6,815.9,174.6,816.6,174.6z"
				/>
			<path class="st1" d="M829.7,171.9c0.7,0.1,1.3-0.1,1.9-0.3c0.3-0.1,0.3-0.5,0.2-0.7c-0.2-0.3-0.5-0.3-0.7-0.2
				c-0.4,0.2-0.9,0.2-1.4,0.2c-0.3,0-0.5,0.3-0.5,0.5C829.1,171.7,829.4,171.9,829.7,171.9z"/>
			<path class="st1" d="M800.1,173.8c1.1,0,2.3,0,3.4,0c0.7,0,0.7-1,0-1c-1.1,0-2.3,0-3.4,0C799.4,172.8,799.4,173.8,800.1,173.8z"
				/>
			<path class="st1" d="M811.5,187.5c1.8,0,3.5,0,5.3,0c0.7,0,0.7-1,0-1c-1.8,0-3.5,0-5.3,0C810.9,186.4,810.9,187.5,811.5,187.5z"
				/>
			<path class="st1" d="M823.8,151.3c5.1,0.3,10.3,0.1,15.4-0.3c0.7-0.1,0.7-1.1,0-1c-5.1,0.5-10.3,0.6-15.4,0.3
				C823.2,150.2,823.2,151.2,823.8,151.3z"/>
			<path class="st1" d="M843.2,152.2c0.1,0.9,0.3,1.7,0.6,2.6c0.2,0.6,1.2,0.3,1-0.3c-0.3-0.7-0.5-1.5-0.6-2.3
				C844.2,151.5,843.1,151.5,843.2,152.2z"/>
			<path class="st1" d="M851.3,187.1c0.8,2.7,1.9,5.4,3.1,8c0.3,0.6,1.2,0.1,0.9-0.5c-1.2-2.5-2.2-5.1-3-7.7
				C852.1,186.2,851.1,186.4,851.3,187.1z"/>
			<path class="st1" d="M837.4,199.3c1.2,0,2.3,0,3.5,0c0.7,0,0.7-1,0-1c-1.2,0-2.3,0-3.5,0C836.8,198.3,836.8,199.3,837.4,199.3z"
				/>
			<path class="st1" d="M834.4,195.9c1.5-0.2,3.1-0.3,4.6-0.5c0.7-0.1,0.7-1.1,0-1c-1.5,0.2-3.1,0.3-4.6,0.5
				C833.8,194.9,833.8,196,834.4,195.9z"/>
			<path class="st1" d="M759.9,196.8c-0.2,0.8-0.4,1.6-0.8,2.3c-0.3,0.6,0.6,1.1,0.9,0.5c0.4-0.8,0.7-1.6,0.9-2.5
				C761.1,196.4,760.1,196.1,759.9,196.8z"/>
			<path class="st1" d="M778.8,200.8c0,1,0,2,0,2.9c0,0.7,1,0.7,1,0c0-1,0-2,0-2.9C779.9,200.1,778.8,200.1,778.8,200.8z"/>
		</g>
	</g>
	<g id="barraca1">
		<defs>
			<rect id="SVGID_11_" x="417.6" y="147" width="170" height="104"/>
		</defs>
		<clipPath id="SVGID_12_">
			<use xlink:href="#SVGID_11_"  style="overflow:visible;"/>
		</clipPath>
		<g class="st6">
			<path class="st1" d="M551.2,158.9c2.2,12.1,6.1,23.8,10.8,35.2c4.7,11.5,10,22.9,15.5,34.1c3.2,6.5,6.5,13,9.8,19.4
				c0.4,0.9,0.2,1.9-0.6,2.4c-0.8,0.5-2,0.2-2.5-0.6c-6-11.5-11.7-23.1-17.1-34.8c-5.2-11.3-10.3-22.7-14.2-34.6
				c-2.2-6.6-4-13.3-5.2-20.2c-0.2-1,0.3-1.9,1.3-2.2C549.9,157.4,551,158,551.2,158.9z"/>
			<path class="st1" d="M551.3,160c-2.9,11.9-6.5,23.6-10.7,35.1c-4.3,11.7-8.9,23.2-13.4,34.8c-2.5,6.5-5.1,13.1-7.6,19.6
				c-0.3,0.9-1.2,1.5-2.2,1.2c-0.9-0.2-1.6-1.3-1.3-2.2c4.5-11.7,9.1-23.3,13.6-35c4.5-11.5,8.9-23,12.6-34.7
				c2-6.5,3.9-13.1,5.5-19.8C548.4,156.8,551.8,157.8,551.3,160z"/>
			<path class="st1" d="M548.5,161.7c-13.3,0.1-26.6,0.2-39.9,0.2c-13.2,0-26.4-0.1-39.6-0.2c-7.5-0.1-15-0.2-22.5-0.3
				c-2.3,0-2.3-3.6,0-3.6c13.3,0.2,26.6,0.3,39.9,0.4c13.2,0.1,26.4,0.1,39.6,0c7.5,0,15-0.1,22.5-0.1
				C550.8,158.1,550.8,161.7,548.5,161.7z"/>
			<path class="st1" d="M446.5,162.5c-2.3,0-2.3-3.6,0-3.6C448.8,158.9,448.8,162.5,446.5,162.5z"/>
			<path class="st1" d="M448.6,161.2c-1.7,11.9-4.2,23.7-7.4,35.4c-3.2,11.7-7.1,23.2-11.5,34.4c-2.5,6.2-5.1,12.4-8,18.4
				c-0.4,0.9-1.7,1.1-2.5,0.6c-0.9-0.5-1.1-1.6-0.6-2.4c5-10.6,9.4-21.6,13.2-32.7c3.9-11.4,7.2-23,9.8-34.8
				c1.4-6.6,2.6-13.2,3.6-19.8c0.1-1,1.4-1.5,2.2-1.2C448.4,159.3,448.7,160.3,448.6,161.2z"/>
			<path class="st1" d="M585.8,251c-10.8,0-21.6,0-32.3,0c-10.8,0-21.7,0-32.5,0c-10.9,0-21.8,0-32.8,0c-10.8,0-21.7,0-32.5,0
				c-10.8,0-21.6,0-32.4,0c-1.3,0-2.7,0-4,0c-2.3,0-2.3-3.6,0-3.6c10.8,0,21.6,0,32.3,0c10.8,0,21.7,0,32.5,0c10.9,0,21.8,0,32.8,0
				c10.8,0,21.7,0,32.5,0c10.8,0,21.6,0,32.4,0c1.3,0,2.7,0,4,0C588.1,247.4,588.2,251,585.8,251z"/>
			<path class="st1" d="M516,180.8c-10.6,0.4-21.1,0.4-31.7,0c-5.3-0.2-10.6-0.4-15.8-0.7c-0.6,0-1.3-0.1-1.9-0.1
				c-0.5,0-0.8,0.2-0.1-0.4c1-0.8,0.3-0.4,0.4-0.1c-0.1-0.2,0,0.2,0,0.2c-0.1,1.2-0.3,2.4-0.4,3.7c-0.3,2.3-0.8,4.6-1.5,6.9
				c-1.4,5.1-3.5,10-6.3,14.6c-0.4-0.9-0.7-1.8-1.1-2.6c4.9,1.3,9.9,1.6,15,1.6c5.3,0.1,10.6,0.1,16,0.1c5.4,0,10.7,0,16.1,0
				c1.3,0,2.6,0,3.9,0c0.2,0,0.3-0.1,0.5-0.1c-0.2,0-0.2,0.3-0.1,0c0.3-0.5,0.5-1.1,0.8-1.6c1-2.1,1.8-4.3,2.5-6.4
				c1.6-5.2,2.6-10.5,2.8-15.9c0-1,0.8-1.8,1.8-1.8c0.9,0,1.8,0.8,1.8,1.8c-0.2,5.1-1,10.2-2.5,15.2c-0.7,2.4-1.5,4.8-2.5,7.1
				c-0.5,1.2-1,2.5-1.7,3.6c-0.8,1.2-2,1.7-3.5,1.8c-11.2,0.2-22.4,0-33.6,0c-6.1,0-12.3-0.2-18.2-1.8c-1.1-0.3-1.7-1.6-1.1-2.6
				c2.5-4,4.3-8.3,5.7-12.8c0.7-2.3,1.2-4.7,1.6-7.1c0.2-1.1,0.3-2.2,0.4-3.4c0.1-1.3,0.5-2.7,1.9-3.2c1.2-0.4,2.7,0,4,0
				c1.3,0.1,2.7,0.2,4,0.2c2.7,0.1,5.5,0.3,8.2,0.4c5.4,0.2,10.9,0.3,16.3,0.3c6.1,0,12.3-0.1,18.4-0.3
				C518.3,177.1,518.3,180.7,516,180.8z"/>
			<path class="st1" d="M550.7,162.6c1.4,11.4,2.8,22.8,4.2,34.2c1.3,10.8,2.6,21.7,4.7,32.4c1.2,6,2.7,11.9,4.6,17.6
				c0.3,0.9-0.4,2-1.3,2.2c-1,0.3-1.9-0.3-2.2-1.2c-3.5-10.3-5.5-21.1-7-31.9c-1.6-11.3-2.9-22.6-4.3-33.9
				c-0.8-6.5-1.6-12.9-2.4-19.4c-0.1-1,0.9-1.8,1.8-1.8C549.9,160.8,550.6,161.7,550.7,162.6z"/>
			<path class="st1" d="M551.2,165.6c-1.4,10.7-2.8,21.3-4.2,32c-1.4,10.7-2.9,21.4-4.3,32.2c-0.8,6-1.6,12-2.5,18
				c-0.1,1-1.4,1.5-2.2,1.2c-1-0.3-1.4-1.2-1.3-2.2c1.4-10.5,2.9-21,4.3-31.5c1.4-10.6,2.8-21.1,4.2-31.7c0.8-6,1.6-12,2.3-18
				c0.1-1,0.7-1.8,1.8-1.8C550.2,163.8,551.3,164.7,551.2,165.6z"/>
			<path class="st1" d="M547.5,159.5c0.6-2.8,1-5.6,1.1-8.5c0-1,0.8-1.8,1.8-1.8c0.9,0,1.8,0.8,1.8,1.8c-0.1,3.2-0.6,6.3-1.2,9.4
				c-0.2,0.9-1.3,1.5-2.2,1.2C547.7,161.5,547.3,160.5,547.5,159.5z"/>
			<path class="st1" d="M549.6,152.1c-2-0.5-4.1-1.2-6.1-1.6c0.3,0,0.6,0,1,0c0,0-0.1,0-0.1,0c0.4-0.3,0.7-0.5,1.1-0.8
				c0.2-0.2,0.1-0.6,0.1-0.1c0,0.2,0,0.5,0,0.7c0,0.4,0,0.7,0,1.1c0,0.8-0.1,1.7-0.2,2.5c-0.2,1.7-0.5,3.3-0.9,5
				c-0.2,0.9-1.3,1.5-2.2,1.2c-1-0.3-1.5-1.3-1.3-2.2c0.3-1.4,0.6-2.8,0.8-4.2c0.2-1.5,0.1-3.1,0.2-4.6c0.1-1,0.5-1.8,1.5-2.1
				c0.8-0.2,1.7,0.1,2.4,0.3c1.6,0.4,3.2,0.8,4.7,1.2C552.8,149.2,551.9,152.7,549.6,152.1z"/>
			<path class="st1" d="M445.9,159.3c-0.2-2.5-0.3-5-0.2-7.5c0-1.4,0-3.1,1.6-3.6c0.6-0.2,1.4-0.1,2-0.1c0.6,0,1.3,0,1.9,0
				c0.6,0,1.2,0,1.7,0c0.7,0,1.5-0.1,2.1,0.1c0.7,0.2,1.3,0.8,1.5,1.5c0.2,0.7,0,1.5-0.1,2.1c-0.4,2.4-0.5,4.9-0.4,7.4
				c0.1,2.3-3.5,2.3-3.6,0c0-1.6,0-3.1,0.1-4.7c0.1-0.8,0.1-1.6,0.2-2.3c0.1-0.6,0.3-1.5,0.3-2.1c0.1,0.3,0.2,0.6,0.2,0.9
				c0,0,0-0.1-0.1-0.1c0.2,0.2,0.4,0.4,0.6,0.6c-0.1,0-0.1-0.1-0.2-0.1c0.3,0.1,0.6,0.2,0.9,0.2c-1.1-0.1-2.2,0-3.4,0
				c-1.1,0-2.3-0.1-3.4,0c0.3-0.1,0.6-0.2,0.9-0.2c-0.1,0-0.1,0.1-0.2,0.1c0.3-0.4,0.6-0.7,0.8-1.1c0-0.3,0-0.2,0,0.1
				c0,0.2,0,0.4,0,0.6c0,0.4,0,0.8,0,1.2c0,0.8,0,1.5,0,2.3c0,1.5,0.1,3.1,0.3,4.6c0.1,1-0.9,1.8-1.8,1.8
				C446.6,161.1,446,160.3,445.9,159.3z"/>
			<path class="st1" d="M515.3,185.3c-2.9,0.9-6,0.9-9,1c-3.3,0.1-6.5,0.2-9.8,0.2c-6.5,0-13-0.6-19.5-1.4c-3.7-0.4-7.3-0.8-11-1.2
				c-0.9-0.1-0.9-1.4,0-1.3c6.4,0.7,12.8,1.5,19.1,2.1c6.5,0.6,12.9,0.5,19.4,0.3c3.4-0.1,7.1,0.1,10.5-1
				C515.8,183.7,516.1,185,515.3,185.3z"/>
			<path class="st1" d="M502.4,186.4c-1.5,6.5-3.8,12.7-6.6,18.8c-0.4,0.8-1.5,0.1-1.2-0.7c2.8-5.9,4.9-12.1,6.4-18.4
				C501.3,185.2,502.6,185.5,502.4,186.4z"/>
			<path class="st1" d="M470.4,204.5c4.4-5.7,6.1-12.8,7.6-19.6c0.2-0.8,1.5-0.5,1.3,0.4c-1.6,7-3.3,14.2-7.8,19.9
				C471,205.9,469.9,205.2,470.4,204.5z"/>
			<path class="st1" d="M546.1,180.2c-0.2,9.6-1.6,19.1-4.3,28.3c-2.8,9.5-7.1,18.3-11.1,27.3c-0.3,0.6-0.9,1.4-0.4,2
				c0.5,0.4,0.9,0.9,1.3,1.3c0.8,0.9,1.5,1.8,2.2,2.7c1.4,2,2.6,4.1,3.4,6.3c0.3,0.8-1,1.2-1.3,0.4c-0.8-2-1.8-3.9-3.1-5.7
				c-0.7-0.9-1.4-1.8-2.1-2.7c-0.3-0.4-0.7-0.7-1-1.1c-0.3-0.3-0.7-0.6-0.9-1.1c-0.5-1,0.4-2.2,0.8-3c0.5-1.2,1-2.3,1.6-3.5
				c1.1-2.4,2.1-4.7,3.2-7.1c2-4.5,3.9-9,5.4-13.7c1.5-4.6,2.6-9.3,3.5-14.1c0.9-5.4,1.5-10.9,1.6-16.3
				C544.8,179.3,546.1,179.3,546.1,180.2z"/>
			<path class="st1" d="M552.2,177.1c1,5,2.1,10,3.1,15c1,4.9,2,9.7,3.2,14.6c0.6,2.3,1.2,4.6,2.3,6.7c1.1,2.1,2.5,4,3.7,6
				c1.3,2.1,2.5,4.2,3.7,6.4c0.5,0.9,1.1,1.9,0.9,3c-0.2,1-0.9,1.9-1.3,2.9c-2.1,4.7-2.6,10-3.2,15.1c-0.1,0.9-1.4,0.9-1.4,0
				c0.5-4.4,0.9-8.9,2.3-13.2c0.3-1,0.8-2.1,1.2-3.1c0.2-0.5,0.5-0.9,0.7-1.4c0.3-0.7,0.3-1.2-0.1-1.8c-1.1-2.2-2.3-4.4-3.6-6.5
				c-1.2-2-2.6-3.9-3.7-5.9c-1.1-2-1.9-4.2-2.6-6.4c-1.3-4.7-2.2-9.6-3.2-14.4c-1.2-5.6-2.4-11.2-3.5-16.8
				C550.8,176.6,552.1,176.3,552.2,177.1z"/>
			<path class="st1" d="M429.9,242.6c9,0.1,18,0.3,26.9,0.5c0.9,0,0.9,1.4,0,1.3c-9-0.2-18-0.3-26.9-0.5
				C429.1,243.9,429,242.6,429.9,242.6z"/>
			<path class="st1" d="M471.9,243c5.9,0,11.7,0,17.6,0c0.9,0,0.9,1.3,0,1.3c-5.9,0-11.7,0-17.6,0C471,244.4,471,243,471.9,243z"/>
			<path class="st1" d="M501.3,242.5c1.4,0,2.9,0,4.3,0c0.9,0,0.9,1.3,0,1.3c-1.4,0-2.9,0-4.3,0
				C500.4,243.9,500.4,242.5,501.3,242.5z"/>
			<path class="st1" d="M573,235.6c0.9,1.8,1.9,3.5,2.8,5.3c0.4,0.8-0.8,1.5-1.2,0.7c-0.9-1.8-1.8-3.5-2.8-5.3
				C571.5,235.5,572.6,234.8,573,235.6z"/>
			<path class="st1" d="M572.3,241.3c0,0.1,0.1,0.2,0.1,0.3c0.1,0.2,0,0.4-0.1,0.5c-0.1,0.1-0.2,0.3-0.4,0.3
				c-0.4,0.1-0.7-0.1-0.8-0.5c0-0.1-0.1-0.2-0.1-0.3c-0.1-0.2,0-0.4,0.1-0.5c0.1-0.1,0.2-0.3,0.4-0.3
				C571.9,240.8,572.2,241,572.3,241.3z"/>
			<path class="st1" d="M540.3,166.5c0.9,1.6,0,3.4-0.5,4.9c-0.7,2-1.4,3.9-2.2,5.9c-1.5,3.9-3.1,7.8-4.8,11.6
				c-0.3,0.8-1.5,0.1-1.2-0.7c1.6-3.5,3-7.1,4.4-10.7c0.7-1.8,1.4-3.5,2-5.3c0.3-0.9,0.7-1.8,1-2.7c0.3-0.8,0.5-1.6,0.1-2.3
				C538.7,166.4,539.8,165.7,540.3,166.5z"/>
			<path class="st1" d="M531,200.2c-0.4,0.8-0.7,1.5-0.8,2.4c-0.2,0.8-1.5,0.5-1.3-0.4c0.2-0.9,0.5-1.8,1-2.7
				C530.2,198.7,531.4,199.4,531,200.2z"/>
			<path class="st1" d="M495.4,193.8c-2.1-0.1-4.2-0.1-6.3-0.1c-1.9,0-3.9,0.3-5.7-0.4c-0.8-0.3-0.5-1.6,0.4-1.3
				c1.8,0.7,3.8,0.4,5.6,0.3c2,0,4,0,6,0.1C496.3,192.5,496.3,193.8,495.4,193.8z"/>
			<path class="st1" d="M488.2,196.6c-1,0-2,0-3,0c-0.9,0-0.9-1.3,0-1.3c1,0,2,0,3,0C489.1,195.2,489.1,196.6,488.2,196.6z"/>
			<path class="st1" d="M471.1,193.1c-0.9,0.1-1.7-0.1-2.5-0.4c-0.3-0.1-0.4-0.6-0.2-0.9c0.2-0.3,0.6-0.4,0.9-0.2
				c0.6,0.2,1.2,0.3,1.8,0.2c0.4,0,0.7,0.3,0.7,0.7C471.7,192.8,471.4,193.1,471.1,193.1z"/>
			<path class="st1" d="M509.8,195.6c-1.5,0-2.9,0-4.4,0c-0.9,0-0.9-1.3,0-1.3c1.5,0,2.9,0,4.4,0
				C510.6,194.2,510.6,195.6,509.8,195.6z"/>
			<path class="st1" d="M494.8,213.1c-2.3,0-4.6,0-6.9,0c-0.9,0-0.9-1.3,0-1.3c2.3,0,4.6,0,6.9,0
				C495.6,211.7,495.6,213.1,494.8,213.1z"/>
			<path class="st1" d="M478.7,166.6c-6.7,0.3-13.5,0.2-20.2-0.4c-0.9-0.1-0.9-1.4,0-1.3c6.7,0.6,13.4,0.7,20.2,0.4
				C479.5,165.2,479.5,166.6,478.7,166.6z"/>
			<path class="st1" d="M453.3,167.8c-0.1,1.1-0.4,2.2-0.8,3.3c-0.3,0.8-1.6,0.4-1.3-0.4c0.4-1,0.6-1.9,0.8-2.9
				C452.1,166.9,453.4,166.9,453.3,167.8z"/>
			<path class="st1" d="M442.7,212.6c-1.1,3.5-2.5,6.9-4.1,10.3c-0.4,0.8-1.5,0.1-1.2-0.7c1.6-3.2,2.9-6.5,4-9.9
				C441.7,211.4,443,211.8,442.7,212.6z"/>
			<path class="st1" d="M460.9,228.3c-1.5,0-3,0-4.5,0c-0.9,0-0.9-1.3,0-1.3c1.5,0,3,0,4.5,0C461.8,226.9,461.8,228.3,460.9,228.3z"
				/>
			<path class="st1" d="M464.8,223.9c-2-0.2-4-0.4-6-0.6c-0.9-0.1-0.9-1.4,0-1.3c2,0.2,4,0.4,6,0.6
				C465.7,222.6,465.7,224,464.8,223.9z"/>
			<path class="st1" d="M562.2,225c0.2,1,0.5,2,1,2.9c0.4,0.8-0.8,1.4-1.2,0.7c-0.5-1-0.9-2.1-1.2-3.2
				C560.8,224.6,562.1,224.2,562.2,225z"/>
			<path class="st1" d="M537.5,230.2c0,1.3,0,2.5,0,3.8c0,0.9-1.4,0.9-1.4,0c0-1.3,0-2.5,0-3.8C536.2,229.3,537.5,229.3,537.5,230.2
				z"/>
		</g>
	</g>
</g>
<g id="fogueira">
	<g id="fogueira2">
		<defs>
			<rect id="SVGID_13_" x="932.2" y="193.7" width="60" height="49"/>
		</defs>
		<clipPath id="SVGID_14_">
			<use xlink:href="#SVGID_13_"  style="overflow:visible;"/>
		</clipPath>
		<g class="st7">
			<path class="st1" d="M944.1,197.1c5.9-0.9,11.9-1.3,17.9-1.3c3,0,6.1,0,9.1,0c2.8,0,5.8-0.1,8.6,0.6c1.3,0.3,2.5,0.8,3.7,1.4
				c0.3,0.2,0.6,0.3,0.9,0.5c0,0,0.3,0.2,0.2,0.1c0.1,0,0.2,0.1,0.1,0.1c0,0,0-0.2,0-0.1c0,0.1-0.1,0.1-0.1,0.1
				c-0.1,0.1-0.3,0.2-0.4,0.2c-2.8,0.7-5.7,1-8.6,1.2c-3,0.2-5.9,0.2-8.9,0.2c-3,0-6,0-9-0.1c-3-0.1-6.1-0.2-9.1-0.5
				c-1.3-0.1-2.7-0.3-4-0.6c-0.5-0.1-1.2-0.4-1.5-0.6c-0.1-0.1,0,0.1-0.1-0.1c0,0.1,0-0.1,0-0.2c0-0.1,0.1-0.3,0.2-0.5
				c-0.1,0.1,0,0,0.1,0c0.1-0.1,0.1-0.1,0.2-0.1c0.3-0.1,0.5-0.1,0.8-0.1c0.6,0,1.1-0.4,1.1-1c0-0.5-0.5-1.1-1.1-1
				c-0.7,0.1-1.5,0.1-2.1,0.6c-0.6,0.4-1,1-1.2,1.7c-0.2,0.8,0,1.5,0.5,2.1c0.5,0.6,1.3,0.9,2,1.1c1.4,0.5,3,0.7,4.5,0.8
				c1.7,0.2,3.3,0.3,5,0.4c3.3,0.2,6.6,0.2,9.9,0.3c3.3,0,6.5,0.1,9.8,0c3.3-0.1,6.6-0.4,9.8-1c1.4-0.2,3.1-0.4,4-1.6
				c0.4-0.6,0.5-1.5,0.1-2.2c-0.4-0.6-1.1-1-1.8-1.4c-2.8-1.6-5.9-2.2-9.1-2.3c-3.3-0.1-6.5-0.1-9.8-0.1c-6.6,0-13.2,0.2-19.7,1.1
				c-0.8,0.1-1.7,0.2-2.5,0.4c-0.6,0.1-0.9,0.8-0.7,1.3C942.9,197,943.5,197.2,944.1,197.1z"/>
			<path class="st1" d="M984,199.1c-1.7,7-2.4,14.2-2.2,21.3c0.1,1.8,0.2,3.6,0.4,5.4c0.1,0.9,0.1,1.8,0.4,2.6
				c0.3,0.9,0.9,1.4,1.8,1.7c1.6,0.8,3.3,1.4,5.1,1.8c0.2,0,0.4,0.1,0.6,0.1c0,0,0.3,0.1,0.3,0.1c0,0-0.2-0.2-0.3-0.2
				c0,0,0.1-0.3,0,0.1c0,0.1,0,0.2,0,0.2c0,0.3,0,0.5,0,0.8c0,0.9-0.1,1.9-0.1,2.8c0,0.1,0,0.2,0,0.3c0,0.1,0,0.1,0,0.2
				c0.1,0.3,0.3-0.5,0.6-0.3c0.1,0-0.2,0-0.2,0c-0.5-0.1-1-0.2-1.4-0.3c-1-0.3-2-0.5-3-0.8c-1.9-0.6-3.9-1.3-5.7-2.1
				c-0.5-0.2-1.1-0.2-1.4,0.4c-0.3,0.4-0.1,1.2,0.4,1.4c3.5,1.5,7.2,2.8,10.9,3.5c1.2,0.2,2-0.4,2.1-1.6c0.1-0.9,0.1-1.9,0.1-2.8
				c0-0.9,0.3-1.9-0.2-2.7c-0.5-0.9-1.7-0.9-2.5-1.1c-0.9-0.2-1.8-0.5-2.6-0.9c-0.4-0.2-0.8-0.3-1.2-0.5c-0.3-0.1-0.8-0.3-1-0.5
				c-0.1-0.1-0.1-0.5-0.1-0.8c-0.1-0.5-0.1-1-0.2-1.5c-0.1-0.9-0.2-1.8-0.2-2.8c-0.3-3.7-0.3-7.5,0-11.2c0.3-4.1,1-8.2,1.9-12.2
				C986.3,198.3,984.3,197.8,984,199.1z"/>
			<path class="st1" d="M980.3,232.8c-1.2-0.7-3.2-1-4.5-0.3c-1.3,0.7-1.7,2.3-1.5,3.7c0.1,0.7,0.4,1.3,0.7,1.9
				c0.2,0.4,0.1,0.7-0.3,0.9c-0.3,0.1-0.7,0.1-1,0.1c-0.4,0-0.9,0-1.3,0.1c-0.4,0-0.9,0-1.3,0.1c-0.2,0-0.5,0-0.7,0
				c-0.1,0-0.4,0.1-0.5,0c0.2,0.1,0.3,0.2,0.5,0.3c0.1,0.2,0.1,0.3,0.1,0.1c0,0.1,0,0,0-0.1c0-0.2,0-0.4-0.1-0.7
				c0-0.4-0.1-0.8-0.1-1.3c-0.1-0.9-0.2-1.7-0.3-2.6c-0.1-0.6-0.4-1-1.1-1c-0.5,0-1.1,0.5-1,1c0.1,0.9,0.2,1.7,0.3,2.6
				c0.1,0.9,0.1,1.8,0.3,2.6c0.1,0.4,0.3,0.8,0.7,1c0.5,0.3,1,0.2,1.5,0.1c0.9,0,1.8-0.1,2.7-0.1c0.9,0,1.8,0,2.6-0.4
				c0.8-0.4,1.2-1.2,1.3-2c0.1-0.4,0-0.8-0.2-1.2c-0.1-0.2-0.2-0.4-0.3-0.6c0-0.1-0.1-0.1-0.1-0.2c0,0-0.2-0.3-0.1-0.2
				c-0.1-0.1-0.1-0.3-0.1-0.4c0,0-0.1-0.4,0-0.3c0-0.2,0-0.3,0-0.5c0-0.2,0-0.2,0-0.3c0.1-0.5,0.2-0.9,0.8-1c0.6-0.1,1.4,0,2,0.4
				C980.4,235.3,981.4,233.5,980.3,232.8z"/>
			<path class="st1" d="M969.2,234c-1.5-1.5-3.5-1-5.2-0.3c-0.4,0.2-0.9,0.3-1.4,0.4c-0.4,0.1-0.8-0.1-1.2,0c-0.6,0.1-1.1,0.4-1.3,1
				c-0.2,0.5-0.1,1.1-0.1,1.6c0,0.5,0,1,0,1.4c0,0.3,0,0.7-0.2,1c-0.4,0.6-1.3,1-2,1.2c-0.8,0.2-1.6,0.3-2.4,0.3c-0.2,0-0.4,0-0.5,0
				c0,0-0.3,0-0.1,0c-0.2,0-0.1-0.1-0.1,0c0.1,0.1-0.1-0.1-0.1,0c0,0.1,0,0.1,0-0.1c0,0,0-0.2,0-0.1c0-0.1,0-0.3,0-0.4
				c0.1-0.8,0.8-1.7,1.1-2.5c0.4-1.1,0.3-2.4,0.1-3.5c-0.1-0.6-0.4-1-1.1-1c-0.5,0-1.1,0.5-1,1c0.1,1,0.3,2-0.1,3
				c-0.3,0.8-0.9,1.5-1,2.4c-0.2,1-0.1,2.1,0.7,2.8c0.8,0.6,1.8,0.5,2.7,0.5c1.9-0.2,4-0.6,5.3-2c0.8-0.9,0.8-1.9,0.8-3
				c0-0.5,0-1,0-1.5c0-0.1,0-0.3,0-0.4c0,0,0-0.1,0-0.1c-0.2,0.2-0.4,0.3-0.6,0.5c0,0,0.1,0,0.1,0c-0.1,0-0.1,0,0.1,0
				c0.2,0,0.4,0.1,0.6,0c1.2,0,2.2-0.6,3.3-0.9c0.8-0.2,1.5-0.4,2.1,0.2C968.7,236.4,970.2,234.9,969.2,234z"/>
			<path class="st1" d="M955.5,233.1c-0.8-0.4-1.6-0.7-2.5-0.9c-0.8-0.2-1.8-0.4-2.6-0.2c-0.8,0.2-1.4,0.8-2.1,1.2
				c-0.6,0.4-1.3,0.8-1.9,1.1c-2.5,1.3-5.3,1.8-8.1,1.6c-1.5-0.1-3.1-0.5-4.5-1.1c0.2,0.3,0.3,0.6,0.5,0.9c0-0.7,0.1-1.3,0.1-2
				c0-0.1,0-0.8,0.1-0.8c0.1,0-0.3,0.4-0.3,0.3c0,0,0.1,0,0.2,0c1.1,0,2.2,0,3.4-0.3c2.3-0.5,4.4-1.7,6.1-3.3c0.4-0.4,0.4-1.1,0-1.5
				c-0.4-0.4-1.1-0.4-1.5,0c-1.7,1.5-3.8,2.6-6.1,2.9c-0.5,0.1-1.1,0.1-1.7,0.1c-0.6,0-1.2,0-1.7,0.5c-0.5,0.5-0.5,1.3-0.6,1.9
				c0,0.7-0.1,1.4-0.1,2.1c0,0.3,0.2,0.8,0.5,0.9c2.8,1.2,5.7,1.7,8.7,1.3c3-0.4,5.9-1.5,8.4-3.3c0.3-0.2,0.6-0.6,1-0.7
				c0.3-0.1,0.6,0,0.9,0c0.9,0.1,1.8,0.4,2.7,0.8c0.5,0.2,1.1,0.1,1.4-0.4C956.2,234,956,233.3,955.5,233.1z"/>
			<path class="st1" d="M940.6,199c0.2,1.7,0.5,3.4,0.7,5c0.1,0.8,0.3,1.6,0.3,2.4c0,0.1,0,0.3,0,0.3c0,0.1,0,0,0.1-0.1
				c0.3-0.3,0.2,0,0.3-0.1c0,0-0.2,0,0,0c-0.1,0-0.1,0-0.2,0c-0.2-0.1-0.3-0.1-0.5-0.2c-1.4-0.5-2.8-1.2-4-2.1
				c-0.3-0.2-0.6-0.5-1-0.6c-0.5-0.1-0.9,0-1.3,0.3c-0.6,0.5-0.8,1.3-0.9,2c-0.3,1.6-0.6,3.2-0.8,4.8c-0.1,0.9-0.3,1.9,0.6,2.5
				c0.7,0.4,1.5,0.5,2.3,0.5c0.8,0,1.5-0.1,2.3,0c0.6,0.1,1.3,0.3,1.8,0.6c0.5,0.3,0.9,0.5,1.1,1.1c0.3,0.7,0.4,1.5,0.5,2.2
				c0.7,3.5,1,7.1,0.8,10.7c0,0.6,0.5,1,1.1,1c0.6,0,1-0.5,1-1c0.1-3.3-0.1-6.5-0.6-9.7c-0.1-0.8-0.3-1.6-0.4-2.3
				c-0.2-0.7-0.3-1.5-0.7-2.2c-0.8-1.2-2.4-2-3.8-2.3c-0.8-0.2-1.6-0.2-2.3-0.2c-0.4,0-0.7,0-1.1,0c-0.2,0-0.8-0.2-0.9-0.2
				c0.1,0.1,0.1,0.2,0.2,0.3c0,0,0,0,0,0c0,0,0-0.3,0-0.3c0-0.2,0-0.3,0.1-0.5c0.1-0.4,0.1-0.8,0.2-1.2c0.1-0.8,0.3-1.6,0.4-2.4
				c0.1-0.4,0.2-0.8,0.2-1.1c0-0.2,0.1-0.3,0.1-0.5c0-0.1,0.1-0.3,0.1-0.3c0.2,0.2-0.7,0.3-0.7,0.2c0,0,0.2,0.1,0.2,0.1
				c0.2,0.1,0.3,0.2,0.5,0.3c0.4,0.2,0.7,0.5,1.1,0.7c0.7,0.4,1.3,0.7,2,1c0.7,0.3,1.3,0.6,2.1,0.7c1,0.2,1.9-0.3,2.2-1.3
				c0.2-0.8,0-1.8-0.1-2.6c-0.3-1.9-0.5-3.8-0.8-5.6c-0.1-0.6-0.4-1-1-1C941.2,197.9,940.5,198.4,940.6,199z"/>
			<path class="st1" d="M947.1,200c0.7-0.4,1.3-1,1.9-1.6c0.7-0.7,1.3-1.4,2-2.1c0.3-0.4-0.2-0.9-0.6-0.5c-0.6,0.7-1.2,1.3-1.9,2
				c-0.6,0.6-1.1,1.2-1.8,1.6C946.2,199.5,946.6,200.2,947.1,200z"/>
			<path class="st1" d="M953.2,201.1c1.5-1.7,2.6-3.8,4.5-5.1c0.4-0.3,0-1-0.4-0.7c-2,1.4-3.1,3.5-4.7,5.2
				C952.3,200.9,952.9,201.5,953.2,201.1z"/>
			<path class="st1" d="M959.1,200.7c0.5-0.2,0.8-0.7,1.2-1c0.4-0.5,0.9-1,1.3-1.5c0.9-0.9,1.7-1.9,2.6-2.8c0.3-0.4-0.2-0.9-0.6-0.5
				c-0.8,0.9-1.6,1.8-2.5,2.7c-0.4,0.4-0.8,0.9-1.2,1.3c-0.4,0.4-0.7,0.9-1.2,1.2C958.3,200.2,958.7,200.9,959.1,200.7z"/>
			<path class="st1" d="M966.4,201.6c0.1-0.6,0.7-1,1.1-1.4c0.4-0.4,0.9-0.8,1.4-1.2c0.9-0.8,1.7-1.7,2.3-2.7
				c0.2-0.4-0.4-0.8-0.7-0.4c-0.6,1.1-1.5,2-2.5,2.8c-0.5,0.4-0.9,0.8-1.3,1.2c-0.4,0.4-0.9,0.8-1,1.4
				C965.5,201.8,966.3,202.1,966.4,201.6z"/>
			<path class="st1" d="M974.5,200.8c1-1.4,2.1-2.8,3.1-4.2c0.3-0.4-0.2-0.9-0.6-0.5c-1.1,1.4-2.2,2.9-3.3,4.3
				C973.6,200.8,974.2,201.2,974.5,200.8z"/>
			<path class="st1" d="M951.9,229.3c0.3-0.7,0.1-1.3-0.2-1.9c-0.3-0.7-0.3-1.5-0.3-2.3c0-0.8,0-1.6-0.1-2.3
				c-0.1-0.7-0.3-1.5-0.4-2.2c-0.4-1.6-0.7-3.2-0.8-4.8c0-1.6,0.1-3.2,0.3-4.8c0.2-1.5,0.8-3.5,2.5-3.8c-0.2-0.1-0.3-0.2-0.5-0.3
				c0.6,1.5,0.5,3.1,0.4,4.7c0,1.6,0.1,3.2,0.5,4.7c0.4,1.6,0.8,3.2,0.9,4.9c0.1,1.7,0.1,3.4,0.1,5.1c0,0.8,0,1.7-0.5,2.4
				c-0.3,0.5-1.2,0.9-1.6,0.3c-0.3-0.4-0.9,0.2-0.6,0.5c0.9,1.1,2.6,0.3,3.1-0.8c0.3-0.7,0.4-1.5,0.4-2.3c0-1,0-1.9,0-2.9
				c0-1.9-0.2-3.7-0.6-5.5c-0.4-1.8-0.9-3.5-1-5.4c0-2,0.3-4-0.4-5.9c-0.1-0.2-0.3-0.3-0.5-0.3c-1.4,0.2-2.3,1.4-2.7,2.6
				c-0.5,1.5-0.6,3.2-0.7,4.8c-0.1,1.7,0,3.4,0.3,5c0.3,1.6,0.9,3.2,0.9,4.9c0,0.9,0,1.8,0.1,2.6c0.1,0.4,0.1,0.9,0.3,1.3
				c0.1,0.4,0.5,0.9,0.3,1.3C950.9,229.4,951.6,229.8,951.9,229.3z"/>
			<path class="st1" d="M956.7,221.4c-0.3,1.3-0.5,2.7-0.4,4.1c0,0.7,0.1,1.3,0.2,2c0.1,0.6,0.2,1.3,0.5,1.9
				c0.2,0.5,0.7,0.6,1.2,0.5c0.6-0.1,0.8-0.5,0.9-1c0.2-1.4,0.2-2.8,0-4.2c-0.1-1.2-0.3-2.9-1.6-3.4c-0.5-0.2-0.7,0.6-0.2,0.7
				c0.5,0.2,0.7,0.9,0.8,1.4c0.2,0.7,0.2,1.4,0.3,2.1c0,0.7,0,1.3,0,2c0,0.3,0,0.7,0,1c0,0.3,0,0.7-0.4,0.6
				c-0.3-0.1-0.3-0.3-0.4-0.6c-0.1-0.3-0.2-0.7-0.2-1c-0.1-0.6-0.2-1.3-0.2-1.9c0-1.3,0.1-2.7,0.4-3.9
				C957.6,221.2,956.8,221,956.7,221.4z"/>
			<path class="st1" d="M979.9,232.5c-0.6-0.2-1.2-0.4-1.9-0.7c-0.2-0.1-0.6-0.2-0.8-0.4c-0.1-0.1-0.1-0.3-0.2-0.4
				c-0.5-1.3-1.4-2-2.7-2.4c-0.5-0.2-1.1,0.2-1.3,0.7c-0.2,0.6,0.2,1.1,0.7,1.3c0.4,0.1,0.9,0.3,1.1,0.7c0.3,0.4,0.4,1,0.7,1.4
				c0.4,0.5,1.1,0.8,1.7,1c0.7,0.3,1.4,0.6,2.1,0.8c0.5,0.2,1.1-0.2,1.3-0.7C980.8,233.2,980.4,232.7,979.9,232.5z"/>
			<path class="st1" d="M957.8,231.2c-0.5,0.4-1.1,0.8-1.6,1.1c-0.2,0.1-0.5,0.4-0.7,0.4c-0.3,0.1-0.6,0-0.9,0c-0.6,0-1,0.5-1,1
				c0,0.5,0.5,1.1,1,1c0.4,0,0.9,0,1.3,0c0.5-0.1,0.8-0.3,1.2-0.5c0.8-0.5,1.5-1,2.2-1.5c0.4-0.4,0.4-1.1,0-1.5
				C958.8,230.8,958.2,230.8,957.8,231.2z"/>
			<path class="st1" d="M944.3,229.7c0.6-0.6,1.4-0.8,2.2-1.1c0.8-0.4,1.6-1,2.1-1.8c0.7-1.2-1.1-2.2-1.8-1c-0.4,0.6-1,0.9-1.7,1.2
				c-0.8,0.3-1.6,0.7-2.2,1.3C941.8,229.1,943.3,230.6,944.3,229.7z"/>
			<path class="st1" d="M985.2,228.5c-0.6-0.2-1.2-0.5-1.6-0.9c-0.6-0.5-0.7-1.2-1.2-1.8c-0.5-0.6-1.1-0.9-1.7-1.3
				c-0.4-0.3-1-0.5-1.1-1c-0.2-0.5-0.7-0.9-1.3-0.7c-0.5,0.1-0.9,0.7-0.7,1.3c0.3,0.8,0.9,1.4,1.6,1.9c0.6,0.4,1.3,0.6,1.7,1.2
				c0.2,0.3,0.3,0.6,0.5,1c0.2,0.3,0.5,0.7,0.8,0.9c0.6,0.5,1.3,0.9,2.1,1.2c0.5,0.2,1.1,0.2,1.4-0.4
				C985.8,229.4,985.7,228.7,985.2,228.5z"/>
			<path class="st1" d="M946.9,210.1c-1.3-1.7-3.3-2.7-5.2-3.6c-0.5-0.3-1.1-0.1-1.4,0.4c-0.3,0.5-0.1,1.2,0.4,1.4
				c0.9,0.4,1.7,0.9,2.6,1.4c0.7,0.4,1.4,0.9,1.9,1.5c0.3,0.4,0.9,0.7,1.4,0.4C947,211.2,947.2,210.5,946.9,210.1z"/>
			<path class="st1" d="M977.6,201.5c0,1.3,0,2.7,0,4c0,1.4-0.2,2.7-0.6,4c-0.4,1.3-0.6,2.5-0.7,3.8c-0.1,1.3,0,2.7,0.1,4
				c0,0.5,0.8,0.5,0.8,0c-0.1-1.3-0.2-2.6-0.1-4c0.1-1.4,0.4-2.7,0.8-4c0.4-1.3,0.5-2.5,0.5-3.8c0-1.4-0.1-2.7,0-4.1
				C978.4,201,977.6,201,977.6,201.5z"/>
			<path class="st1" d="M972.7,218.7c0,1,0,2,0.2,3c0.1,0.5,0.8,0.3,0.8-0.2c-0.2-0.9-0.2-1.9-0.2-2.8
				C973.5,218.2,972.7,218.2,972.7,218.7z"/>
			<path class="st1" d="M967,221.9c-0.8-1.4-1.1-2.9-1-4.5c0-0.8,0.2-1.6,0.5-2.3c0.3-0.8,0.6-1.5,0.9-2.3c0.5-1.7,0.3-3.4,0.1-5.1
				c-0.2-1.8-0.4-3.6-0.6-5.3c-0.1-0.5-0.8-0.5-0.8,0c0.2,1.4,0.3,2.8,0.5,4.3c0.2,1.4,0.4,2.8,0.3,4.2c-0.1,1.4-0.6,2.6-1.1,3.9
				c-0.4,1.2-0.6,2.4-0.6,3.6c0.1,1.4,0.5,2.7,1.2,3.9C966.6,222.8,967.3,222.4,967,221.9z"/>
			<path class="st1" d="M969.6,234.6c-0.1-0.5-0.4-0.7-0.7-1.1c-0.3-0.5-0.2-1.1-0.1-1.6c0.2-1.2,0.3-2.4,0.2-3.5
				c0-0.5-0.8-0.5-0.8,0c0.1,1.3,0,2.5-0.2,3.8c-0.1,0.5-0.1,1,0.1,1.5c0.2,0.4,0.7,0.7,0.8,1.2
				C968.9,235.3,969.7,235.1,969.6,234.6z"/>
			<path class="st1" d="M958.8,206.8c0,3.2-0.1,6.5-0.1,9.7c0,0.5,0.8,0.5,0.8,0c0-3.2,0.1-6.5,0.1-9.7
				C959.6,206.3,958.8,206.3,958.8,206.8z"/>
			<path class="st1" d="M947.9,201.4c-0.2,1.8-0.2,3.6,0,5.4c0,0.5,0.8,0.5,0.8,0c-0.2-1.8-0.2-3.6,0-5.4
				C948.8,200.9,948,200.9,947.9,201.4z"/>
			<path class="st1" d="M946.1,215.6c0.9,2,0.1,4.2,0.6,6.3c0.1,0.5,0.9,0.3,0.8-0.2c-0.5-2.1,0.2-4.4-0.7-6.5
				C946.6,214.7,945.9,215.1,946.1,215.6z"/>
			<path class="st1" d="M948.2,229.6c-1.1,0-2.1,0.5-2.9,1.3c-0.2,0.2-0.4,0.5-0.7,0.7c-0.3,0.2-0.6,0.2-0.9,0.3
				c-0.7,0.2-1.3,0.4-2,0.6c-2.5,0.7-5.4,1.9-8.1,1.3c-0.5-0.1-0.7,0.6-0.2,0.7c2.7,0.6,5.4-0.4,8-1.2c0.7-0.2,1.3-0.4,2-0.6
				c0.6-0.2,1.3-0.3,1.8-0.7c0.4-0.4,0.7-0.9,1.2-1.2c0.5-0.4,1.1-0.5,1.7-0.6C948.7,230.3,948.7,229.6,948.2,229.6z"/>
			<path class="st1" d="M958.2,236c-0.3,2-1.3,3.9-2.8,5.4c-0.4,0.4,0.2,0.9,0.6,0.5c1.6-1.5,2.6-3.6,3-5.7
				C959,235.7,958.2,235.5,958.2,236z"/>
			<path class="st1" d="M971.8,232.9c-0.2,1.2,0,2.4,0.5,3.6c0.2,0.5,0.4,1.1,0.5,1.7c0.1,0.6,0,1.1,0.2,1.7
				c0.2,0.5,0.9,0.3,0.8-0.2c-0.2-0.5-0.1-1.1-0.2-1.6c-0.1-0.6-0.3-1.1-0.5-1.6c-0.4-1.1-0.6-2.3-0.5-3.5
				C972.6,232.4,971.9,232.4,971.8,232.9z"/>
			<path class="st1" d="M980.3,231.3c0.8,0.5,1.6,1,2.5,1.4c0.9,0.4,1.9,0.5,2.9,0.7c1,0.2,1.8,0.7,2.7,1c0.4,0.1,0.7,0.2,1.1,0.2
				c0.4,0,0.8,0.1,1,0.4c0.3,0.4,0.9,0,0.7-0.4c-0.4-0.7-1.2-0.7-1.9-0.8c-0.5-0.1-0.9-0.3-1.3-0.5c-0.5-0.2-0.9-0.4-1.4-0.6
				c-1-0.3-2.1-0.3-3-0.7c-1-0.3-1.9-0.9-2.7-1.5C980.3,230.3,979.9,231,980.3,231.3z"/>
			<path class="st1" d="M980.1,215.8c0,1.1,0,2.2,0,3.2c0,0.5,0.8,0.5,0.8,0c0-1.1,0-2.2,0-3.2C980.9,215.3,980.1,215.3,980.1,215.8
				z"/>
			<path class="st1" d="M972.1,202.1c0,1.7,0.2,3.5,0.3,5.2c0,0.5,0.8,0.5,0.8,0c-0.1-1.7-0.3-3.5-0.3-5.2
				C972.8,201.6,972.1,201.6,972.1,202.1z"/>
			<path class="st1" d="M959,203.8c0,0.1,0,0.1,0,0.2c0,0.1,0,0.2,0.1,0.3c0.1,0.1,0.2,0.1,0.3,0.1c0.1,0,0.2,0,0.3-0.1
				c0.1-0.1,0.1-0.2,0.1-0.3c0-0.1,0-0.1,0-0.2c0-0.1,0-0.2-0.1-0.3c-0.1-0.1-0.2-0.1-0.3-0.1c-0.1,0-0.2,0-0.3,0.1
				C959,203.6,959,203.7,959,203.8z"/>
			<path class="st1" d="M942.2,210.6c-0.8-0.9-1.9-1.4-3.1-1.4c-0.7,0-1.4,0-2-0.2c-0.6-0.2-1.2-0.6-1.7-1.1
				c-0.4-0.3-0.9,0.2-0.6,0.5c1,0.8,2,1.4,3.3,1.5c0.7,0,1.3,0,2,0.2c0.6,0.2,1.1,0.6,1.6,1C942,211.5,942.6,210.9,942.2,210.6z"/>
		</g>
	</g>
	<g id="fogueira1">
		<defs>
			<rect id="SVGID_15_" x="636.2" y="166.7" width="66" height="77"/>
		</defs>
		<clipPath id="SVGID_16_">
			<use xlink:href="#SVGID_15_"  style="overflow:visible;"/>
		</clipPath>
		<g class="st8">
			<path class="st1" d="M663.5,218.4c-2.8,0.9-5.7-0.5-7.9-2.4c-1.2-1.1-2.2-2.3-2.9-3.8c-0.3-0.7-0.6-1.4-0.7-2.1
				c-0.1-0.9,0.2-1.7,0.5-2.5c0.7-1.9,1.1-4-0.3-5.7c-0.5,0.7-1,1.3-1.5,2c1.8,0.8,3.5,1.6,5.3,2.3c0.9,0.4,1.8-0.1,1.9-1.1
				c0.3-4.6-0.4-9.3-2.1-13.6c-0.3,0.5-0.6,1-0.9,1.6c1.4-0.5,2.6,0.6,3.6,1.4c0.6,0.5,1.3,1.1,2,1.5c1,0.5,2,0.3,2.5-0.7
				c0.9-1.8,1.5-3.7,2-5.7c1.3-4.9,2.1-9.9,2.9-14.8c0.4-2.2,0.7-4.4,1.2-6.6c-0.6,0.3-1.2,0.5-1.9,0.8c0.1,0.1,0.3,0.2,0.4,0.3
				c0.3,0.2-0.2-0.2,0,0c0,0,0.1,0.1,0.1,0.1c0.3,0.3,0.6,0.5,0.9,0.8c0.3,0.3,0.5,0.6,0.8,0.9c0.1,0.1,0.1,0.2,0.2,0.3
				c0.2,0.3-0.1-0.2,0.1,0.1c0.1,0.2,0.3,0.4,0.4,0.6c1.2,1.7,2.2,3.5,3.1,5.3c1.8,3.5,3.2,7,4.4,10.8c0.3,1,0.6,2,0.7,3
				c0.2,1.7,0,3.4-0.1,5.1c-0.1,1,1.1,1.5,1.9,1.1c2.4-1.1,4.9-1.9,7.5-2.2c-0.5-0.5-1-1-1.6-1.6c-0.6,3.4-1.8,6.6-3.6,9.5
				c-0.4,0.7,0,1.6,0.8,1.9c2.5,0.7,5.1,1,7.7,1c-0.3-0.7-0.6-1.4-0.9-2.2c-1.6,1.6-2.5,3.5-3.5,5.5c-0.5,1-0.9,1.9-1.5,2.9
				c-0.5,0.9-1.1,1.5-1.8,2.3c-0.7,0.8-1.3,1.6-2,2.3c-0.3,0.4-0.7,0.7-1.1,1c-0.2,0.2-0.7,0.4-0.9,0.5c-2.3,0.8-4.8,0.8-7.2,0.7
				c-2.9-0.1-5.8-0.5-8.7-0.5c-1.6,0-1.6,2.5,0,2.5c5.2,0,10.6,1.3,15.7,0c1.2-0.3,2.2-0.8,3.2-1.6c0.8-0.7,1.5-1.6,2.2-2.4
				c0.7-0.8,1.5-1.5,2.1-2.4c0.7-0.9,1.2-1.8,1.7-2.8c1.1-2.1,2-4.5,3.7-6.2c0.8-0.8,0.2-2.2-0.9-2.2c-2.4,0-4.7-0.3-7-0.9
				c0.3,0.6,0.5,1.2,0.8,1.9c1.9-3.1,3.2-6.5,3.9-10.1c0.2-1-0.6-1.7-1.6-1.6c-2.8,0.4-5.5,1.3-8.1,2.5c0.6,0.4,1.3,0.7,1.9,1.1
				c0.1-1.6,0.2-3.2,0.1-4.7c-0.1-1.2-0.3-2.4-0.7-3.5c-0.5-1.8-1.1-3.5-1.8-5.2c-1.6-4.1-3.4-8.2-5.9-11.8
				c-1.1-1.6-2.4-3.2-4.1-4.3c-0.7-0.4-1.7,0-1.9,0.8c-1.5,7.4-2.3,14.9-4.3,22.1c-0.3,0.9-0.5,1.8-0.9,2.7
				c-0.1,0.2-0.1,0.4-0.2,0.6c0,0.1-0.1,0.2-0.1,0.3c-0.1,0.2,0.1-0.2,0,0c-0.1,0.3-0.3,0.8-0.4,0.9c0.3-0.1,0.6-0.2,0.9-0.4
				c0.3,0-0.1-0.1-0.2-0.2c-0.2-0.1-0.3-0.2-0.4-0.3c-0.2-0.2-0.5-0.4-0.7-0.6c-0.6-0.5-1.2-1-1.8-1.4c-1.3-0.8-2.9-1.3-4.4-0.7
				c-0.6,0.2-1.2,0.9-0.9,1.6c1.6,4.1,2.3,8.5,2,12.9c0.6-0.4,1.3-0.7,1.9-1.1c-1.8-0.8-3.5-1.6-5.3-2.3c-1.3-0.6-2.5,0.8-1.5,2
				c0.3,0.4,0.3,1.1,0.2,1.7c-0.2,0.9-0.6,1.8-0.8,2.7c-0.5,2-0.1,3.9,0.9,5.6c1.7,3.1,4.6,5.8,7.9,7c1.8,0.7,3.9,0.8,5.7,0.2
				c0.7-0.2,1.1-0.9,0.9-1.6C664.9,218.7,664.2,218.2,663.5,218.4z"/>
			<path class="st1" d="M702,228.4c-0.2-0.4-0.6-0.6-1-0.8c-0.5-0.3-0.9-0.6-1.4-0.9c-1.3-0.9-2.7-1.7-4.1-2.6c-1-0.6-2-1.3-3.1-1.9
				c-1.3-0.8-2.5-1.8-3.9-2.5c-1.9-1.1-3.9-2-5.8-3c-0.6-0.3-1.4-0.2-1.7,0.5c-0.3,0.6-0.2,1.4,0.5,1.7c1.7,0.9,3.5,1.8,5.3,2.7
				c1.5,0.8,2.8,1.8,4.2,2.7c2.2,1.4,4.4,2.8,6.6,4.2c0.6,0.4,1.2,0.8,1.8,1.2c0.2,0.1,0.4,0.3,0.6,0.4c0,0,0.1,0.1,0.2,0.1
				c-0.1,0-0.3-0.2-0.4-0.4C700.6,231.1,702.8,229.8,702,228.4z"/>
			<path class="st1" d="M652.7,203.3c-1.4-1.2-2.8-2.3-4.3-3.3c-0.7-0.5-1.5-0.9-2.2-1.4c-0.9-0.5-1.8-0.7-2.7-0.2
				c-0.8,0.4-1.4,1-2.1,1.6c-0.7,0.6-1.4,1.1-2,1.7c-1.2,1.1-2.7,2.3-3,4c-0.3,1.9,1,3.3,2.2,4.6c1.1,1.2,2.2,2.3,3.3,3.4
				c2.4,2.2,4.9,4.3,7.5,6.2c5.2,3.8,10.9,7,16.6,9.9c2.8,1.4,5.6,2.8,8.4,4.2c1.5,0.8,2.9,1.7,4.4,2.5c2,1.2,3.9,2.3,6,3.4
				c1.6,0.9,3.4,1.8,5.2,2.4c0.4,0.1,0.7,0.2,1.1,0.2c0.7,0.1,1.3-0.6,1.3-1.3c0-0.7-0.6-1.2-1.3-1.3c-0.2,0,0.3,0.1,0.1,0
				c-0.1,0-0.1,0-0.2,0c-0.2,0-0.3-0.1-0.4-0.1c-0.3-0.1-0.7-0.2-1-0.4c-0.2-0.1,0.2,0.1,0,0c-0.1,0-0.2-0.1-0.3-0.1
				c-0.2-0.1-0.4-0.2-0.6-0.3c-0.4-0.2-0.9-0.4-1.3-0.6c-1.9-1-3.8-2.1-5.6-3.2c-1.6-1-3.3-1.9-4.9-2.9c-2-1.1-4.1-2-6.1-3.1
				c-5.5-2.7-10.9-5.6-16-8.9c-5.1-3.3-9.8-7-13.9-11.4c-0.5-0.5-1-1-1.4-1.6c-0.3-0.4-0.6-0.9-0.4-1.4c0.2-0.6,0.8-1.1,1.2-1.5
				c0.6-0.6,1.2-1.1,1.8-1.7c0.6-0.5,1.2-1,1.8-1.5c0.3-0.2,0.6-0.4,0.9-0.6c0,0,0.2-0.1,0.2-0.1c0,0-0.2,0.1-0.2,0.1
				c0,0,0.4,0.2,0.4,0.2c1.4,0.8,2.8,1.7,4.1,2.7c0.6,0.5,1.3,1,1.9,1.5c0.5,0.4,1.3,0.5,1.8,0C653.1,204.6,653.2,203.7,652.7,203.3
				z"/>
			<path class="st1" d="M686.8,200.9c1.8-1.3,3.9-2,6-2.8c0.4-0.2,0.9-0.5,1.3-0.3c0.3,0.1,0.7,0.6,0.9,0.9c0.7,0.8,1.2,1.8,1.6,2.7
				c0.5,1,0.8,1.9,1.2,2.9c0.1,0.2,0.1,0.5,0.3,0.8c0,0.1,0,0.1,0,0.2c0.1-0.3,0.1-0.4,0-0.2c0.1,0-0.3,0.4-0.2,0.2
				c-0.4,0.5-0.8,0.9-1.2,1.3c-1.8,1.8-3.6,3.5-5.4,5.3c-2,2-4,4-6.2,5.8c-0.5,0.4-0.4,1.3,0,1.8c0.5,0.5,1.3,0.4,1.8,0
				c2.2-1.7,4.1-3.7,6.1-5.6c2-2,4.1-3.9,6-5.9c0.5-0.5,1-1,1.3-1.6c0.4-0.7,0.3-1.5,0.1-2.3c-0.4-1.2-0.9-2.4-1.4-3.6
				c-0.5-1.2-1.2-2.3-2-3.3c-0.8-1-1.9-2-3.3-1.9c-0.8,0.1-1.5,0.4-2.2,0.7c-0.7,0.2-1.3,0.5-2,0.7c-1.4,0.5-2.7,1.1-3.9,2
				c-0.6,0.4-0.8,1.1-0.5,1.7C685.4,201,686.2,201.3,686.8,200.9z"/>
			<path class="st1" d="M699.5,228.9c-1.7,4.5-5.9,7.4-8.9,11c0.7,0.2,1.4,0.4,2.1,0.6c0,0.1,0,0.2,0,0.3c0.3-0.6,0.2-1.4-0.5-1.7
				c-0.6-0.3-1.4-0.2-1.7,0.5c-0.3,0.6-0.3,1-0.2,1.6c0.2,0.9,1.5,1.2,2.1,0.6c3.4-3.9,7.7-7.1,9.6-12.1c0.2-0.6-0.3-1.4-0.9-1.6
				C700.4,227.9,699.8,228.3,699.5,228.9z"/>
			<path class="st1" d="M651.7,220.7c-3.3,2.3-6.5,4.5-9.8,6.8c-0.8,0.6-1.6,1.1-2.4,1.7c-0.7,0.5-1.7,1-2.3,1.7
				c-0.8,0.9-0.8,2-0.1,2.9c0.6,0.7,1.3,1.3,2,2c1.5,1.3,2.9,2.7,4.4,4c0.7,0.7,1.4,1.3,2.1,2c0.7,0.6,1.4,1.5,2.3,1.8
				c1.9,0.7,3.7-0.9,5.1-1.9c1.6-1.1,3.2-2.3,4.8-3.4c3.6-2.6,7.2-5.1,10.8-7.7c0.6-0.4,0.8-1.1,0.5-1.7c-0.3-0.5-1.2-0.9-1.7-0.5
				c-2.9,2.1-5.8,4.2-8.8,6.2c-1.5,1-2.9,2.1-4.4,3.1c-1.4,1-2.8,2.1-4.3,3c-0.4,0.3-0.9,0.6-1.3,0.3c-0.7-0.5-1.3-1.2-1.9-1.8
				c-1.3-1.2-2.7-2.5-4-3.7c-0.3-0.3-3.5-3.4-3.6-3.3c0,0,0,0.4-0.1,0.4c0,0,0.1-0.1,0.1-0.1c0.1-0.1,0.3-0.2,0.4-0.3
				c0.4-0.3,0.7-0.5,1.1-0.8c0.7-0.5,1.5-1,2.2-1.5c3.4-2.3,6.8-4.7,10.2-7c0.6-0.4,0.8-1.1,0.5-1.7
				C653.1,220.6,652.3,220.3,651.7,220.7z"/>
			<path class="st1" d="M700.1,228.7c-1.7-0.6-3,0.8-4.5,1.5c-0.8,0.4-1.7,0.4-2.5,0.7c-0.6,0.3-1.2,0.7-1.6,1.2
				c-0.9,1.1-1.4,2.5-1.6,3.9c-0.3,1.6-0.3,3.3,0.5,4.7c0.3,0.5,1.1,0.1,0.8-0.5c-0.7-1.3-0.6-2.8-0.4-4.3c0.2-1.2,0.6-2.4,1.4-3.3
				c0.4-0.5,0.9-0.8,1.5-1c0.7-0.2,1.4-0.3,2-0.5c1.3-0.5,2.6-2,4.1-1.5C700.4,229.8,700.7,228.8,700.1,228.7z"/>
			<path class="st1" d="M638.1,232.5c0.8-0.2,1.5-0.4,2.3-0.5c0.4-0.1,0.8-0.1,1.2,0.1c0.3,0.2,0.6,0.3,1,0.5
				c1.2,0.5,2.5,0.7,3.6,1.5c1,0.7,1.7,1.8,2.1,2.9c0.4,1.4,0.4,3,0.5,4.4c0.1,0.6,1,0.6,1,0c-0.1-1.6-0.1-3.3-0.6-4.9
				c-0.4-1.3-1.2-2.4-2.3-3.2c-1.2-0.9-2.8-1.1-4.1-1.7c-0.8-0.4-1.3-0.6-2.2-0.5c-0.9,0.1-1.7,0.3-2.6,0.5
				C637.3,231.8,637.5,232.7,638.1,232.5z"/>
			<path class="st1" d="M645,233.3c1.9-1.3,3.9-2.6,5.6-4.2c0.9-0.8,1.8-1.6,2.8-2.2c1.1-0.7,2.1-1.3,3.2-2c0.5-0.3,0-1.1-0.5-0.8
				c-1,0.7-2.1,1.3-3.1,2c-1,0.6-1.9,1.3-2.8,2.1c-1.8,1.6-3.8,2.9-5.7,4.3C644,232.8,644.5,233.7,645,233.3z"/>
			<path class="st1" d="M648.6,236.8c1.3-0.8,2.5-1.7,3.8-2.5c0.7-0.4,1.3-0.7,2-1c0.6-0.2,1.2-0.5,1.7-0.9c1-0.8,1.8-1.8,2.8-2.6
				c1.1-0.9,2.3-1.6,3.5-2.2c0.6-0.3,0.1-1.1-0.5-0.8c-1.2,0.6-2.3,1.3-3.4,2.1c-1.1,0.8-1.9,1.8-2.9,2.7c-0.5,0.5-1.2,0.7-1.9,1
				c-0.6,0.2-1.2,0.5-1.8,0.9c-1.3,0.8-2.6,1.7-3.9,2.5C647.6,236.3,648.1,237.1,648.6,236.8z"/>
			<path class="st1" d="M695.5,198.4c-1.4,1.1-2.8,2.3-4.3,3.3c-0.8,0.5-1.5,0.5-2.3,0.8c-0.8,0.2-1.5,0.7-2.2,1.1
				c-0.5,0.3,0,1.1,0.5,0.8c0.7-0.5,1.4-0.9,2.3-1.1c0.9-0.2,1.6-0.4,2.4-0.9c1.5-1,3-2.2,4.4-3.3
				C696.6,198.7,695.9,198,695.5,198.4z"/>
			<path class="st1" d="M698,202.7c-2,0.8-3.8,2-5.3,3.5c-0.8,0.8-1.5,1.5-2.3,2.2c-0.9,0.8-1.9,1.3-2.9,2c-0.5,0.4,0,1.2,0.5,0.8
				c0.9-0.6,1.8-1.2,2.6-1.8c0.8-0.7,1.6-1.4,2.3-2.2c1.5-1.6,3.2-2.9,5.3-3.7C698.8,203.3,698.6,202.4,698,202.7z"/>
			<path class="st1" d="M677.3,221.2c1.6,0.7,3.1,1.5,4.6,2.4c1.4,0.9,2.6,2,4.2,2.6c0.8,0.3,1.6,0.3,2.3,0.8c0.7,0.5,1.3,1,2,1.5
				c1.4,1,2.9,2,4.5,2.8c0.5,0.3,1-0.5,0.5-0.8c-1.6-0.8-3.1-1.8-4.5-2.8c-0.7-0.5-1.3-1.1-2.1-1.6c-0.7-0.5-1.4-0.5-2.1-0.7
				c-1.6-0.5-2.9-1.7-4.3-2.6c-1.5-0.9-3-1.7-4.6-2.4C676.9,220.1,676.7,221,677.3,221.2z"/>
			<path class="st1" d="M690.5,233.7c-0.9-0.2-1.7-0.7-2.4-1.2c-0.8-0.6-1.6-1-2.5-1.4c-1-0.4-1.9-0.6-2.9-0.9
				c-1-0.3-1.9-0.7-2.8-1.2c-1.8-0.9-3.4-2.1-5.1-3.4c-0.7-0.6-1.5-1.1-2.4-1.4c-1-0.4-2.1-0.7-3.1-1.2c-2.2-1-4.2-2.2-6.3-3.4
				c-0.5-0.3-1,0.5-0.5,0.8c1.9,1.1,3.7,2.2,5.7,3.1c0.9,0.4,1.9,0.8,2.9,1.2c1,0.4,2,0.7,2.9,1.4c1.6,1.2,3.1,2.4,4.9,3.4
				c1.8,0.9,3.6,1.6,5.6,2.2c1.1,0.3,2.1,0.8,3,1.5c0.8,0.6,1.7,1.2,2.7,1.4C690.8,234.7,691.1,233.8,690.5,233.7z"/>
			<path class="st1" d="M652.8,214.6c-1.5-2.3-3.8-3.7-6.1-5c-1.2-0.7-2.4-1.4-3.6-2.2c-1.3-0.9-2.5-1.7-4-2.3
				c-0.6-0.2-0.8,0.7-0.3,0.9c1.4,0.5,2.6,1.4,3.8,2.2c1.1,0.7,2.2,1.4,3.3,2.1c2.2,1.3,4.5,2.6,5.9,4.8
				C652.4,215.5,653.2,215.1,652.8,214.6z"/>
			<path class="st1" d="M651,206.5c-0.9-0.2-1.8-0.4-2.6-0.9c-0.8-0.5-1.3-1.4-2-2c-1.3-1.2-2.9-2-4.7-2.3c-0.6-0.1-0.9,0.8-0.3,0.9
				c1.8,0.4,3.4,1.2,4.7,2.5c0.6,0.7,1.2,1.4,2,1.8c0.8,0.4,1.6,0.7,2.5,0.9C651.3,207.6,651.5,206.7,651,206.5z"/>
			<path class="st1" d="M668.8,177.6c0.2,2.4,0.1,4.8-0.3,7.2c-0.1,0.6,0.8,0.9,0.9,0.3c0.4-2.5,0.5-5,0.4-7.5
				C669.7,177,668.7,177,668.8,177.6z"/>
			<path class="st1" d="M667.1,191.9c0,0.5,0,0.9,0,1.4c0,0.6,1,0.6,1,0c0-0.5,0-0.9,0-1.4C668.1,191.2,667.1,191.2,667.1,191.9z"/>
			<path class="st1" d="M685.2,208.4c-0.1,0.2-0.2,0.4-0.3,0.6c-0.1,0.2-0.1,0.5,0.2,0.6c0.2,0.1,0.5,0.1,0.7-0.2
				c0.1-0.2,0.2-0.4,0.3-0.6c0.1-0.2,0.1-0.5-0.2-0.6C685.6,208.2,685.3,208.2,685.2,208.4z"/>
			<path class="st1" d="M654.4,210.1c0.4,1.4,1.2,2.6,2.3,3.5c0.5,0.4,1.1-0.3,0.7-0.7c-1-0.8-1.7-1.8-2-3
				C655.2,209.2,654.3,209.5,654.4,210.1z"/>
			<path class="st1" d="M680.6,199.7c-0.3,0.2-0.6,0.4-0.8,0.5c-0.2,0.1-0.3,0.4-0.2,0.6c0.1,0.2,0.4,0.3,0.7,0.2
				c0.3-0.2,0.6-0.4,0.8-0.5c0.2-0.1,0.3-0.4,0.2-0.6C681.1,199.6,680.8,199.5,680.6,199.7z"/>
		</g>
	</g>
</g>
<g id="bandeira">
	<rect x="1117.2" y="163" class="st9" width="96" height="117"/>
	<g id="bandeira_1_">
		<path class="st1" d="M1117.3,168.5c4.3,28.6,8.9,57.1,13.7,85.6c1.3,8,2.7,15.9,4.1,23.9c0.3,1.6,2.2,2.4,3.6,2
			c1.6-0.5,2.3-2,2-3.6c-4.9-28.5-9.6-57-14.1-85.5c-1.2-8-2.5-15.9-3.7-23.9c-0.2-1.6-2.2-2.4-3.6-2
			C1117.7,165.3,1117.1,166.9,1117.3,168.5z"/>
		<path class="st1" d="M1121.9,170.7c4.2-0.7,8.4-1.3,12.6-2c-1.2-0.7-2.4-1.4-3.6-2c7.4,28.3,12.1,57.3,17,86.1
			c1.4,8.3,2.8,16.5,4.1,24.8c0.2,1.6,2.2,2.4,3.6,2c1.7-0.5,2.3-2,2-3.6c-2.2-14.7-4.8-29.4-7.3-44c-2.5-14.3-5-28.7-8-42.9
			c-1.7-8-3.6-16.1-5.7-24c-0.4-1.6-2-2.3-3.6-2c-4.2,0.7-8.4,1.3-12.6,2c-1.6,0.3-2.4,2.2-2,3.6
			C1118.8,170.3,1120.4,171,1121.9,170.7z"/>
		<path class="st1" d="M1137.5,172.6c4.6-0.7,9.2-1.4,13.7-2c4.4-0.6,8.9-1.3,13.2,0.3c1.9,0.7,3.7,1.7,5.5,2.7c2,1.1,4.1,2,6.2,2.8
			c4.1,1.6,8.3,2.6,12.7,3.1c2.3,0.3,4.7,0.4,7.1,0.4c1.1,0,2.3-0.1,3.4-0.2c1.2-0.1,2.6-0.4,3.6-0.4c-0.5-0.1-1-0.3-1.5-0.4
			c-0.6-1.5-0.9-1.8-0.7-0.8c0,0.3,0.1,0.6,0.1,1c0.1,0.6,0.1,1.3,0.2,1.9c0.1,1.1,0.2,2.2,0.4,3.4c0.3,2.4,0.5,4.8,0.8,7.2
			c0.5,4.8,1.1,9.6,1.6,14.4c1.1,9.6,2.3,19.3,3.4,28.9c0.2,1.6,1.2,2.9,2.9,2.9c1.4,0,3.1-1.3,2.9-2.9c-2.2-17.8-4.2-35.6-6.2-53.4
			c-0.2-2,0-4.8-1.3-6.5c-1.5-2.1-4-1.3-6.2-1.1c-3.8,0.3-7.7,0.3-11.4-0.3c-3.9-0.6-7.7-1.7-11.3-3.2c-3.8-1.6-7.2-3.8-11.1-5.2
			c-4.7-1.7-9.6-1.1-14.5-0.4c-5.1,0.7-10.2,1.4-15.3,2.2c-1.6,0.2-2.4,2.2-2,3.6C1134.3,172.2,1135.9,172.8,1137.5,172.6z"/>
		<path class="st1" d="M1150.3,246.1c3.9-1.6,8.1-2.7,12.4-2.9c4.5-0.2,8.9,0.4,13.3,1.2c8.1,1.4,16.4,3,24.5,0.7
			c4.2-1.1,8.1-3.3,11.1-6.4c2.6-2.7-1.5-6.8-4.1-4.1c-4.8,5-11.7,6.2-18.3,5.8c-8.6-0.5-17-3.3-25.7-3c-5,0.2-10,1.2-14.6,3.2
			c-1.5,0.6-2.5,1.9-2,3.6C1147.1,245.4,1148.8,246.7,1150.3,246.1z"/>
		<path class="st1" d="M1180.5,191.2c-14.5-1.1-25.6,17.8-16.8,29.6c4.3,5.7,12.6,8,18.8,3.9c5.7-3.7,8.8-10.5,9-17.1
			c0.2-6.9-3.7-16.8-12-16.7c-3.8,0.1-3.8,5.9,0,5.8c0.9,0,1.6,0.2,2.5,0.9c0.8,0.6,1.5,1.6,2,2.5c1,1.9,1.6,4.1,1.7,6.2
			c0.2,4.6-1.4,9.3-4.9,12.5c-3.3,3.1-8.2,2.8-11.4-0.4c-3.3-3.4-3.7-8.7-1.7-12.9c2.3-5,7.3-8.9,12.9-8.5c1.6,0.1,2.9-1.4,2.9-2.9
			C1183.4,192.4,1182.1,191.3,1180.5,191.2z"/>
		<path class="st1" d="M1147.1,216.2c4.9-0.8,9.8-1.6,14.8-2.3c1.6-0.2,2.4-2.2,2-3.6c-0.5-1.7-2-2.3-3.6-2
			c-4.9,0.8-9.8,1.6-14.8,2.3c-1.6,0.2-2.4,2.2-2,3.6C1144,215.8,1145.6,216.5,1147.1,216.2z"/>
		<path class="st1" d="M1191.5,209.5c4.7-0.8,9.4-1.6,14.1-2.4c1.6-0.3,2.4-2.2,2-3.6c-0.5-1.6-2-2.3-3.6-2
			c-4.7,0.8-9.4,1.6-14.1,2.4c-1.6,0.3-2.4,2.2-2,3.6C1188.3,209.1,1189.9,209.8,1191.5,209.5z"/>
		<path class="st1" d="M1126.5,168.2c0.2,13.9,5,27.2,7.8,40.7c0.7,3.6,1.3,7.1,1.7,10.7c0.3,3.6,0.5,7.1,1,10.7
			c0.9,7.4,2.6,14.7,4,22c1.6,8.3,3.2,16.7,4.8,25c0.3,1.4,2.4,0.8,2.1-0.6c-1.4-7.4-2.8-14.8-4.2-22.2c-1.4-7.2-2.9-14.4-4.1-21.7
			c-1.1-7.1-1.2-14.4-2.5-21.5c-1.2-6.7-3.1-13.3-4.7-19.9c-1.9-7.6-3.5-15.4-3.6-23.2C1128.7,166.8,1126.5,166.8,1126.5,168.2z"/>
		<path class="st1" d="M1171.9,179.5c-1.6,0.5-3.1-0.2-4.6-0.8c-1.3-0.6-2.7-1.2-4-1.7c-2.8-1.2-5.6-2.1-8.6-2.1
			c-1.4,0-1.4,2.2,0,2.2c3.3,0.1,6.4,1.3,9.4,2.6c2.6,1.1,5.5,2.9,8.4,2C1173.8,181.2,1173.2,179.1,1171.9,179.5z"/>
		<path class="st1" d="M1146.4,174.6c-0.1,0.1-0.2,0.1-0.2,0.2c-0.2,0.2-0.4,0.4-0.5,0.7c-0.1,0.3,0,0.6,0.1,0.8
			c0.2,0.2,0.4,0.4,0.7,0.5c0.3,0.1,0.6,0.1,0.8-0.1c0.1-0.1,0.2-0.1,0.2-0.2c0.2-0.2,0.4-0.4,0.5-0.7c0.1-0.3,0-0.6-0.1-0.8
			c-0.2-0.2-0.4-0.4-0.7-0.5C1146.9,174.4,1146.6,174.5,1146.4,174.6z"/>
		<path class="st1" d="M1178.2,199.4c-1.8-0.1-3.3,0.8-4.6,2c-1.1,1.1-2.4,2.6-2.2,4.3c0.2,1.4,2.4,1.4,2.2,0
			c-0.1-1.1,0.9-2.1,1.6-2.8c0.8-0.9,1.8-1.5,3-1.4C1179.6,201.7,1179.6,199.5,1178.2,199.4z"/>
		<path class="st1" d="M1179.4,204.6c0,0.1,0,0.2,0.1,0.3c0,0.1,0,0.1,0,0c0,0,0,0.1,0,0.1c0,0.2,0,0.4,0,0.6
			c-0.1,0.6,0.6,1.1,1.1,1.1c0.7,0,1-0.5,1.1-1.1c0.1-0.5,0-1.1-0.1-1.6c-0.2-0.5-0.8-0.9-1.3-0.8
			C1179.6,203.4,1179.3,204,1179.4,204.6z"/>
		<path class="st1" d="M1208.2,228.1c-1.7,1-3.2,2.2-4.9,3.2c-1.7,0.9-3.5,1.6-5.4,2c-3.8,0.9-7.8,0.9-11.6,0.9
			c-1.4,0-1.4,2.2,0,2.2c4.1,0,8.2-0.1,12.2-1c1.9-0.4,3.8-1.1,5.6-2c1.8-1,3.4-2.3,5.2-3.4C1210.5,229.3,1209.4,227.4,1208.2,228.1
			z"/>
		<path class="st1" d="M1176.8,233.9c-1.4-0.5-2.8-0.9-4.2-1.2c-1.4-0.3-2,1.8-0.6,2.1c1.4,0.3,2.8,0.7,4.2,1.2
			C1177.6,236.5,1178.1,234.3,1176.8,233.9z"/>
	</g>
</g>
</svg>
