<svg width="140" height="135" viewBox="0 0 140 135" fill="none" xmlns="http://www.w3.org/2000/svg">
<g clip-path="url(#clip0)">
<path d="M138.955 59.0893C130.999 13.4423 85.0134 -8.11656 42.7634 3.41285C39.3663 4.33932 37.7928 6.89815 37.631 9.61874C11.6016 23.8687 -3.17783 53.604 1.86629 84.1481C8.21923 122.604 49.8075 141.398 84.7634 132.957C116.793 125.222 144.896 93.2364 138.955 59.0893Z" fill="#F3D254"/>
<path d="M83.544 57.6175C82.8087 57.2352 82.1911 56.897 81.7646 56.6323C78.6764 54.6911 75.3528 52.7793 71.8969 50.9705C68.6616 49.2646 65.2646 47.6028 61.794 46.044C60.8969 45.647 60.0293 45.1323 59.1175 44.5881C57.6175 43.7058 56.0587 42.794 54.2646 42.3234C52.6175 41.897 51.2793 42.1764 50.3969 43.1028C49.2205 44.3381 49.1469 46.3528 49.2352 48.147C49.3822 51.1617 49.4263 54.2205 49.4558 57.2058C49.4705 58.6323 49.4852 60.0587 49.5146 61.4852C49.5734 64.1175 49.6028 66.7499 49.6175 69.3675C49.6911 76.1764 49.7646 83.2058 50.2793 90.1322C50.294 90.3675 50.3381 90.5881 50.4263 90.8234C50.6469 92.1764 51.6763 93.1469 52.9263 93.1469C53.2646 93.1469 53.6175 93.0734 53.9558 92.9411C60.6028 90.3234 67.3087 86.4411 74.4705 81.0734C77.5146 78.794 80.6322 76.2793 83.7352 73.5881C84.3087 73.1028 85.0587 72.5587 85.8675 71.9999C88.0146 70.4999 90.4411 68.794 91.2205 66.5146C91.5293 65.6323 91.6616 64.2499 90.5734 62.6764C89.0734 60.544 85.8675 58.8528 83.544 57.6175ZM84.6175 65.294C77.3822 71.9411 66.9705 80.7793 55.6616 86.1175C55.2793 79.2352 55.2205 72.2352 55.1616 65.4558C55.1175 60.1175 55.0734 54.6323 54.8675 49.1911C66.2352 53.9558 76.4558 59.4999 84.6175 65.294Z" fill="#60B5E4"/>
</g>
<defs>
<clipPath id="clip0">
<rect width="138.868" height="134.588" fill="white" transform="translate(0.882324 0.352905)"/>
</clipPath>
</defs>
</svg>
