<svg width="374" height="213" viewBox="0 0 374 213" fill="none" xmlns="http://www.w3.org/2000/svg">
<g clip-path="url(#clip0)">
<path d="M373.021 82.4547C372.615 82.0485 372.208 81.507 371.802 81.1008C371.531 80.4238 370.99 79.7468 370.177 79.2053C368.824 77.4452 367.74 75.685 366.657 73.7895C363.949 68.78 362.731 63.4996 361.918 57.4069C361.648 55.1052 361.377 52.6681 361.241 50.0956C360.835 43.4613 360.565 36.6917 362.46 30.1928C363.949 25.0478 365.98 21.1214 365.033 15.7056C364.491 12.8624 361.512 12.1854 359.211 13.1332C358.804 13.2685 358.398 13.5393 358.127 13.8101C357.992 13.5393 357.721 13.1332 357.586 12.8624C356.773 11.7792 355.42 10.8315 353.659 10.5607C344.046 9.34213 334.434 8.25898 324.685 7.31123C309.927 5.82189 295.169 4.46796 280.411 3.24941C274.996 2.84323 269.445 2.30166 263.758 1.89548C244.803 0.406147 225.442 -0.947789 206.893 0.812328C206.216 0.812328 205.539 1.21851 205.133 1.76008C204.32 2.16627 203.643 2.84323 203.237 3.6556C203.237 4.19717 203.102 4.73875 203.102 5.41571C189.562 7.17583 176.023 9.34213 162.484 11.6438C139.196 15.7056 115.367 20.0382 92.7558 26.6725C90.5895 27.3495 89.5064 28.7034 89.371 30.1928C89.371 30.3281 89.371 30.4635 89.371 30.5989C85.9861 41.5658 86.6631 53.3451 84.4968 64.4474C83.1429 71.217 81.5181 77.9867 79.4872 84.621C78.9457 85.5688 78.4041 86.3811 77.8625 87.3289C77.1856 88.412 77.1855 89.766 77.4563 91.1199C76.644 93.4216 75.967 95.5879 75.1546 97.7542C74.2069 100.462 76.5086 102.222 79.0811 102.358C79.6226 102.358 80.2996 102.358 80.8412 102.222C81.3828 102.087 81.7889 101.951 82.3305 101.681C83.1429 102.358 84.3614 102.764 85.7154 102.628C86.1215 102.628 86.5277 102.493 87.0693 102.358C87.0693 102.358 87.2047 102.358 87.3401 102.222C88.017 101.951 88.694 101.816 89.2356 101.545C93.839 99.9205 98.4424 98.4312 103.181 96.9418C114.554 93.4216 126.063 90.5783 138.113 88.2766H138.248C145.695 86.9227 153.141 85.5688 160.588 84.2148C164.785 83.4025 169.118 82.7255 173.315 81.9131C175.617 81.507 177.918 80.9654 180.22 80.5592C179.949 78.9345 180.085 77.039 179.949 75.4142C179.814 73.3833 179.272 71.4878 178.595 69.5923C178.325 68.9154 178.866 68.103 179.543 67.9676C179.679 67.9676 179.814 67.9676 179.949 67.9676C180.22 67.6968 180.626 67.426 181.168 67.426C185.23 67.9676 189.292 67.8322 193.218 67.8322C193.895 67.8322 194.436 67.8322 195.113 67.8322C195.113 67.1552 195.52 66.4783 196.467 66.4783C203.102 66.4783 209.736 65.9367 216.37 65.9367C222.192 65.9367 228.15 65.1243 233.971 64.9889C239.929 64.8535 245.886 65.5305 251.843 65.6659C254.687 65.8013 257.53 65.9367 260.373 65.8013C261.998 65.6659 264.164 65.3951 265.518 66.4783C267.143 67.6968 266.466 69.5923 266.06 71.3524C265.518 73.9249 266.06 76.6328 266.466 79.2053C273.913 79.6114 281.359 79.7468 288.806 79.3407C291.514 79.3407 294.086 79.3407 296.794 79.3407C299.773 79.3407 302.887 79.3407 305.865 79.3407C312.5 79.3407 318.999 79.3407 325.498 79.6114C336.735 80.0176 347.702 81.2362 358.263 84.3502C360.971 85.1626 363.679 85.975 366.386 87.0581C367.74 87.5997 368.824 87.4643 369.771 87.0581C369.771 87.0581 369.771 87.0581 369.907 87.0581C370.584 87.1935 371.125 87.0581 371.667 86.9227C371.938 86.9227 372.073 86.7873 372.344 86.6519C373.156 86.2457 373.562 85.5688 373.698 84.7564C373.968 84.0794 373.698 83.2671 373.021 82.4547Z" fill="#60B5E4"/>
<path d="M123.219 82.861C122.542 82.9964 121.865 83.1318 121.188 83.1318C119.564 83.4026 117.803 83.6733 116.043 84.0795C116.314 83.8087 116.45 83.4026 116.585 83.1318C117.803 83.1318 118.887 82.9964 120.105 82.9964C121.459 82.861 122.948 82.861 124.302 82.7256C124.032 82.7256 123.625 82.861 123.219 82.861Z" fill="#60B5E4"/>
<path d="M271.069 14.2163C269.715 13.9455 268.361 13.6747 267.143 13.4039C268.497 13.5393 269.851 13.5393 271.205 13.6747C271.069 13.9455 271.069 14.0809 271.069 14.2163Z" fill="#60B5E4"/>
<path d="M349.597 68.5093C349.868 68.1031 350.139 67.6969 350.274 67.1553C350.41 67.6969 350.681 68.2385 350.816 68.6447C350.41 68.6447 350.004 68.6447 349.597 68.5093Z" fill="#60B5E4"/>
<path d="M280.14 100.598C288.806 99.9206 293.544 109.534 294.221 116.709C295.034 125.375 292.732 134.988 291.378 143.653C284.744 143.247 277.703 142.976 271.069 143.924C270.934 143.382 270.798 142.84 270.392 142.299C269.444 140.809 268.632 139.049 267.955 136.883C265.924 130.384 265.518 121.313 267.413 113.866C269.309 106.69 273.371 101.139 280.14 100.598Z" fill="#60B5E4"/>
<path d="M321.706 146.631C315.614 145.684 309.521 145.007 303.428 144.465C303.293 144.465 303.158 144.465 303.022 144.465C303.022 144.33 303.022 144.194 303.022 144.059C303.699 133.092 304.241 117.657 311.417 109.263C315.749 104.118 323.196 102.358 327.528 108.45C331.861 114.543 329.559 122.667 326.581 128.624C325.904 130.113 326.174 131.603 326.987 132.55C326.716 133.227 326.581 133.904 326.31 134.581C325.091 138.508 323.873 142.57 323.06 146.767C322.79 146.767 322.248 146.631 321.706 146.631Z" fill="#60B5E4"/>
<path d="M152.058 116.303C153.141 113.595 155.037 111.294 157.745 109.804C158.286 109.534 158.828 109.263 159.505 108.992C160.182 108.721 160.859 108.45 161.671 108.315H161.806C163.16 108.044 164.379 107.909 165.597 108.044C172.909 108.721 174.94 117.386 175.481 124.427C175.617 125.645 175.617 126.864 175.617 128.082C175.887 133.363 175.887 138.643 175.887 143.924V144.059C175.887 145.954 175.887 147.715 175.752 149.61C175.752 149.881 175.752 150.152 175.752 150.422C175.752 151.235 175.752 151.912 175.752 152.724C169.253 152.724 162.619 152.995 155.985 153.401C155.985 153.266 155.985 153.13 155.985 152.995C155.443 151.235 154.766 149.068 154.089 146.631C151.381 137.425 148.538 124.698 152.058 116.303Z" fill="#60B5E4"/>
<path d="M111.034 119.959C111.034 119.824 111.034 119.824 111.034 119.959C111.711 118.063 112.929 116.574 114.96 115.897C121.324 113.731 127.823 118.876 131.207 123.75C137.3 132.821 139.06 144.601 142.445 154.89C136.082 155.838 129.718 157.192 123.625 159.223C123.219 159.358 122.678 159.494 122.271 159.629C121.865 158.275 121.594 156.786 121.188 155.432C120.917 154.62 120.647 153.807 120.511 152.86C118.616 146.496 116.043 140.403 113.065 134.446C112.794 133.769 112.388 133.092 112.117 132.415C111.711 131.603 111.169 130.655 110.763 129.843C110.357 126.593 109.951 122.802 111.034 119.959Z" fill="#60B5E4"/>
<path d="M95.4634 106.149C95.0573 106.555 94.6511 107.096 94.5157 107.638C94.1095 107.232 93.7033 106.826 93.2971 106.419C93.9741 106.284 94.7865 106.284 95.4634 106.149Z" fill="#F5F5F5"/>
<path d="M76.373 99.6498C76.2376 99.7852 76.2376 99.9206 76.2376 100.191C76.1022 100.191 75.9668 100.191 75.9668 100.327C75.1545 100.598 75.5607 101.816 76.2376 101.545C76.373 101.545 76.6438 101.41 76.7792 101.41L78.5393 95.588C77.9977 96.8066 77.1854 98.2959 76.373 99.6498Z" fill="#63350F"/>
<path d="M81.5182 85.9751L78.6749 95.4526C80.1642 92.474 81.3828 89.4953 82.6013 86.5166C82.1951 86.5166 81.789 86.3812 81.5182 85.9751Z" fill="#63350F"/>
<path d="M76.5086 102.764L74.6131 108.857L75.967 109.534L77.9979 102.628L78.5395 100.868C77.9979 101.004 77.4564 101.139 76.9148 101.275L76.5086 102.764Z" fill="#63350F"/>
<path d="M280.547 63.6351C285.692 69.5924 294.898 68.9154 299.096 62.5519C303.97 66.7491 313.312 70.2694 316.697 64.4474C319.54 70.6755 328.747 70.134 334.027 65.2598C336.193 68.2385 339.308 70.9463 343.505 70.9463C346.348 70.9463 348.785 69.7278 350.139 67.5615C352.576 71.2171 356.773 72.9772 361.241 72.4357C360.971 71.7587 360.7 71.0817 360.429 70.4048C356.232 70.8109 352.711 68.6446 350.951 64.5828C350.545 63.7705 349.056 64.0413 348.92 64.8536C346.754 73.6542 337.412 66.7491 334.704 63.2289C334.163 62.5519 333.079 62.9581 333.079 63.6351C329.83 66.7491 318.728 72.8418 317.915 61.0626C317.915 60.1148 316.291 59.7087 316.02 60.7918C313.718 69.1862 304.647 65.1244 299.773 61.3334C299.908 61.0626 300.043 60.7918 300.179 60.521C300.585 59.4379 298.825 58.8963 298.283 59.9794C298.283 59.9794 298.283 60.1148 298.148 60.1148C297.742 60.1148 297.335 60.6564 297.742 61.0626C294.221 67.2907 285.15 67.4261 281.088 61.3334C280.682 60.7918 279.599 60.7918 279.328 61.4688C278.11 66.8845 273.1 68.9154 267.82 67.4261C267.82 67.5615 267.955 67.6969 267.955 67.9677C267.955 68.2385 267.82 68.3739 267.684 68.6446C272.965 70.8109 278.38 68.5092 280.547 63.6351Z" fill="#63350F"/>
<path d="M292.461 34.5254C292.326 33.7131 291.107 33.5777 290.837 34.2547C288.941 37.7749 285.692 39.3996 282.171 38.858C282.036 39.2642 281.901 39.6704 281.63 40.0766C285.421 40.8889 288.806 39.6704 291.378 36.6917C294.086 42.7845 305.73 43.0552 309.25 37.3687C311.01 39.1288 314.124 40.0766 316.291 40.212C319.134 40.4828 321.436 39.6704 323.06 37.7749C325.362 43.4614 335.246 44.003 338.089 38.4519C339.037 39.6704 339.714 41.1597 340.932 41.9721C342.557 43.1906 344.588 43.8676 346.483 43.8676C349.462 43.8676 352.305 42.3783 354.201 40.0766C354.066 40.0766 354.065 40.0766 353.93 39.9412C353.659 39.8058 353.389 39.3996 353.389 39.1288C353.389 38.9934 353.389 38.9934 353.253 38.858C353.253 38.9934 353.389 39.1288 353.389 39.1288C353.253 38.858 353.253 38.7226 353.118 38.4519C353.118 38.3165 352.982 38.1811 352.982 38.0457C350.41 41.1597 346.619 42.7845 342.828 40.6182C341.203 39.8058 340.255 37.6395 338.766 36.5563C338.766 36.2856 338.901 36.0148 338.901 35.744C339.037 34.6608 337.141 34.39 336.871 35.4732C336.871 35.744 336.735 36.0148 336.735 36.1502C336.6 36.2856 336.6 36.421 336.6 36.5563C334.433 41.5659 324.414 40.8889 324.55 34.5254C324.55 33.3069 322.925 33.1715 322.519 34.2547C321.436 37.7749 312.635 39.1288 309.792 35.4732C309.792 35.3378 309.927 35.2024 309.927 35.067C310.063 34.2547 309.386 33.7131 308.844 33.8485C308.438 33.5777 307.761 33.8485 307.896 34.39C307.896 34.5254 307.896 34.6608 307.896 34.7962C306.001 40.7535 293.545 41.1597 292.461 34.5254Z" fill="#63350F"/>
<path d="M212.173 34.7962C208.247 38.7226 204.862 39.535 202.154 37.0979C201.477 36.5563 200.8 36.0148 200.123 35.4732C199.581 35.067 198.769 35.3378 198.634 36.0148C197.144 44.4092 188.208 41.7013 184.417 37.2333C183.876 36.6917 182.793 36.9625 182.928 37.7749C182.793 38.858 182.657 39.9412 182.522 41.0243C183.063 41.1597 183.47 41.2951 184.011 41.5659C184.147 40.8889 184.417 40.3474 184.417 39.6704C189.427 44.1384 197.686 44.9508 200.123 37.7749C202.695 39.9412 205.674 41.8367 209.059 41.2951C211.631 40.8889 213.121 39.3996 213.798 37.3687C217.86 42.6491 225.577 41.4305 228.691 35.4732C232.482 40.8889 243.584 40.6182 246.292 34.2547C246.292 34.39 246.292 34.5254 246.428 34.6608C251.031 40.8889 260.779 43.326 264.57 35.8794C268.632 40.0766 277.568 42.9198 280.141 37.7749C280.818 38.9934 281.901 40.0766 282.984 40.7535C282.984 40.4828 282.984 40.0766 282.984 39.8058C282.984 39.3996 283.119 39.1288 283.255 38.858C282.984 38.7226 282.713 38.4519 282.578 38.3165C281.495 37.2333 281.088 36.0148 280.818 34.5254V34.39C280.818 34.1193 280.818 33.9839 280.682 33.8485C280.547 33.5777 280.141 33.3069 279.87 33.4423C279.328 33.4423 278.651 33.8485 278.651 34.5254C275.943 38.5872 272.829 39.535 269.445 37.5041C267.549 36.5563 266.195 35.067 265.112 33.1715C264.57 32.3591 263.487 32.7653 263.216 33.5777C261.727 35.2024 260.373 36.8271 258.884 38.4519C256.041 39.2642 253.603 38.858 251.437 37.2333C249.812 36.2856 248.594 35.2024 247.24 33.8485C246.969 33.5777 246.563 33.7131 246.428 33.9839C246.428 33.8485 246.563 33.7131 246.563 33.5777C246.834 32.4945 244.938 31.8176 244.667 32.9007C243.449 36.8271 230.993 38.858 229.639 32.6299C229.368 31.5468 227.879 31.4114 227.608 32.4945C225.983 38.4519 223.004 39.9412 218.672 37.0979C216.506 37.2333 215.016 36.6917 214.069 35.3378C214.069 35.067 214.069 34.6608 214.069 34.39C214.069 33.3069 212.173 33.5777 212.173 34.7962Z" fill="#63350F"/>
<path d="M344.859 21.2569C344.588 20.3091 343.234 20.3091 342.963 21.2569C339.714 31.5468 329.289 25.7249 326.581 18.9552C326.445 18.549 326.039 18.549 325.768 18.6844C325.498 18.6844 325.091 18.8198 324.956 19.226C321.707 27.2142 313.583 24.2355 310.198 18.549C309.792 17.872 308.844 18.0074 308.573 18.8198C304.105 25.4541 299.773 25.4541 295.44 18.8198C295.44 18.1428 294.357 18.0074 294.357 18.6844C293.815 22.6108 296.659 24.7771 300.314 25.4541C304.376 26.131 307.761 24.3709 309.657 20.9861C313.989 26.5372 322.79 28.8389 326.175 21.5276C329.424 29.2451 339.714 31.8176 344.047 24.2355C346.077 28.1619 350.139 31.6822 354.472 31.8176C354.472 31.6822 354.472 31.5468 354.472 31.276C354.472 31.4114 354.472 31.4114 354.472 31.5468C354.472 31.1406 354.472 30.7344 354.472 30.4636C354.472 30.0575 354.472 29.6513 354.607 29.2451C353.118 28.9743 351.899 28.8389 352.035 28.9743C348.514 27.7558 345.942 24.7771 344.859 21.2569Z" fill="#63350F"/>
<path d="M368.282 80.0176C367.605 79.3406 367.063 78.6637 366.522 77.9867C363.949 75.008 362.054 71.6232 360.429 68.103C359.617 66.2075 358.804 64.1766 358.127 62.0103C358.127 61.8749 358.127 61.8749 357.992 61.7395C357.992 61.6041 357.992 61.6041 357.992 61.4687C358.127 61.4687 358.263 61.4687 358.398 61.3333L357.721 60.3855C357.044 58.0838 356.638 55.7821 356.232 53.4805C355.961 51.9911 355.826 50.3664 355.555 48.8771C354.472 38.4518 353.659 26.6725 356.503 16.518C356.503 16.3826 356.503 16.2472 356.503 16.1118C356.909 15.5702 356.773 14.6225 355.961 14.4871C355.149 14.3517 354.201 14.2163 353.389 13.9455C352.847 13.8101 352.441 13.8101 351.899 13.6747C342.557 11.9146 333.215 10.2899 323.873 9.07133C311.958 7.4466 299.908 6.36346 287.858 5.68649C282.578 5.4157 277.297 5.14491 271.882 5.00952C254.687 4.46794 237.085 4.60334 220.297 7.17582C220.161 7.17582 219.89 7.17582 219.755 7.31121C219.755 7.71739 219.755 8.25897 219.62 8.66515H219.755C219.89 8.66515 219.89 8.80054 220.026 8.93594C220.026 8.93594 220.026 8.93594 220.026 8.80054H220.161C242.366 8.39436 264.435 6.76964 286.639 7.98818C309.656 9.20672 332.402 12.1854 355.013 16.6534C353.93 19.632 353.389 22.8815 352.982 26.1309V26.2663C352.982 26.4017 352.982 26.6725 352.982 26.8079C352.982 26.6725 352.982 26.5371 352.982 26.5371C352.982 26.9433 352.982 27.3495 352.982 27.7557C352.982 28.2972 352.982 28.7034 352.847 29.245C352.847 29.3804 352.712 29.5158 352.712 29.5158C352.576 32.7652 352.576 36.0147 352.712 39.2641C352.712 39.3995 352.847 39.5349 352.847 39.6703C352.847 40.0765 352.712 40.4827 352.847 40.8888V41.0242C352.982 41.1596 352.982 41.4304 353.118 41.5658C353.253 41.972 353.253 42.3782 353.118 42.7844C353.118 42.7844 353.118 42.9198 352.982 42.9198C352.982 43.5967 353.118 44.2737 353.253 44.9507C353.253 44.9507 353.253 45.086 353.389 45.086C353.524 45.4922 353.524 46.0338 353.524 46.44C353.524 46.5754 353.524 46.7108 353.659 46.7108C353.659 46.5754 353.524 46.5754 353.524 46.44C353.659 46.7108 353.795 46.9816 353.795 47.2523C353.93 47.6585 353.795 47.9293 353.659 48.3355C353.795 49.4186 353.93 50.6372 354.065 51.7203C354.607 55.7821 355.419 59.7086 356.638 63.4996C356.638 63.4996 356.638 63.4996 356.638 63.635C356.909 64.4473 357.18 65.2597 357.45 66.0721C357.586 66.3429 357.721 66.6136 357.857 66.8844C357.992 67.1552 357.992 67.2906 357.992 67.5614C359.752 71.894 362.189 76.0912 365.439 79.7468C365.574 79.8822 365.709 80.0176 365.845 80.153C365.574 80.153 365.168 80.0176 364.897 80.0176C361.106 79.2053 357.315 78.5283 353.389 77.8513C344.046 76.2266 334.704 75.008 325.362 73.9249C323.196 73.6541 320.894 73.5187 318.728 73.2479C305.459 71.894 291.92 70.6754 278.516 70.8108C275.131 70.8108 271.611 70.9462 268.226 71.217C267.955 71.217 267.82 71.3524 267.82 71.4878C267.82 69.5923 267.82 67.5614 267.955 65.6659H266.06C265.924 65.6659 265.789 65.6659 265.653 65.5305C265.518 79.8822 265.518 94.3693 265.518 108.721C265.653 127.541 265.112 146.767 266.872 165.586C265.924 165.586 264.841 165.586 263.893 165.722C262.81 165.722 261.592 165.857 260.508 165.857C261.727 163.691 262.269 160.983 261.727 158.546C261.592 158.004 261.185 157.869 260.779 158.004C260.644 157.869 260.508 157.869 260.238 157.869C242.772 157.327 225.306 158.14 208.111 160.848V160.712C207.57 159.629 206.757 158.681 206.216 157.598C205.809 156.786 205.403 155.973 204.862 155.161C222.057 153.266 238.981 152.453 256.311 153.807C256.582 153.807 256.717 153.807 256.853 153.672C256.582 154.755 256.447 155.838 256.176 156.786C256.04 157.463 257.124 157.869 257.259 157.057C257.665 155.838 258.071 154.62 258.342 153.536C258.478 152.724 257.53 152.318 257.124 152.859C257.124 152.453 256.853 152.182 256.311 152.047C253.603 151.776 250.895 151.641 248.323 151.505C248.458 151.37 248.458 151.235 248.458 150.964C247.375 141.893 246.292 132.957 245.886 123.75C245.48 114.272 246.157 104.93 246.157 95.4525C246.157 95.0463 245.751 94.9109 245.48 95.0463C245.48 94.6401 245.209 94.3693 244.667 94.2339C240.335 93.8278 235.19 93.557 230.857 94.9109C230.722 94.9109 230.722 95.0463 230.586 95.1817C230.045 94.9109 229.368 95.1817 229.503 95.8587C231.94 114.001 233.159 132.55 236.544 150.558C236.679 150.964 237.356 150.829 237.356 150.422C236.815 132.28 233.565 114.001 231.263 95.9941C235.731 96.1295 240.199 95.5879 244.667 95.9941C244.803 95.9941 244.938 95.9941 245.074 95.8587C243.313 114.272 244.397 132.686 246.563 150.964C246.563 151.099 246.698 151.235 246.698 151.37C242.501 151.235 238.439 151.099 234.242 151.235C231.94 133.227 230.316 114.678 226.931 96.671C228.014 96.671 228.014 94.9109 226.931 94.9109C221.244 94.9109 215.422 95.5879 210.142 97.6188C209.736 97.7542 209.6 98.2958 209.871 98.5666C209.871 98.7019 209.736 98.8373 209.736 98.9727C211.361 116.439 213.662 134.852 219.078 151.505C219.078 151.776 219.349 151.776 219.484 151.912C218.266 152.047 217.047 152.047 215.829 152.182C215.964 152.047 215.964 151.912 215.964 151.776C213.933 133.498 210.277 115.355 206.893 97.348C206.893 97.348 206.893 97.348 206.893 97.2126C206.893 97.2126 207.028 97.2126 207.163 97.2126C220.703 92.4738 234.242 90.5783 248.458 91.5261C248.865 91.5261 249.135 91.3907 249.406 91.1199C248.865 101.545 248.594 111.835 248.729 122.26C248.865 131.738 248.594 141.893 250.625 151.099C250.76 151.776 251.843 151.641 251.843 150.964C252.385 141.08 251.031 130.926 250.896 120.907C250.76 110.887 251.031 100.868 251.572 90.8491C251.572 89.766 250.083 89.4952 249.677 90.4429C249.677 89.9014 249.271 89.3598 248.594 89.3598C234.377 88.0058 220.026 90.1721 206.893 95.7233C206.486 95.8587 206.351 96.4002 206.351 96.8064C205.809 96.8064 205.132 97.2126 205.268 98.025C208.653 116.032 211.361 134.175 215.016 152.182C215.016 152.318 215.152 152.453 215.287 152.453C211.496 152.859 207.57 153.401 203.779 154.078C203.237 154.213 203.237 155.026 203.779 155.161C203.914 156.244 204.862 157.327 205.539 158.411C206.08 159.223 206.757 160.171 207.434 160.848C206.351 160.983 205.403 161.118 204.32 161.389C203.914 161.525 203.779 161.795 203.914 162.202C203.643 162.337 203.508 162.608 203.643 163.014C204.049 164.232 204.726 165.451 205.268 166.67C205.674 167.482 205.945 168.294 206.351 169.107C203.372 169.377 200.394 169.513 197.415 169.784C195.655 152.859 191.864 135.8 188.885 119.011C185.907 101.816 183.063 84.621 180.085 67.426C179.408 67.5614 178.866 67.8322 178.054 67.6968C177.918 67.6968 177.918 67.6968 177.783 67.6968C178.054 69.3215 178.325 70.8108 178.595 72.4356C174.398 74.4665 170.607 73.1125 169.118 69.7277C169.253 69.7277 169.524 69.5923 169.524 69.4569C169.659 69.7277 170.065 69.9985 170.336 69.7277C170.472 69.5923 170.607 69.5923 170.742 69.4569C172.503 68.103 174.398 66.749 176.158 65.2597C176.564 64.9889 176.971 64.5827 177.377 64.3119C176.971 64.1766 176.564 64.0412 176.158 63.9058C175.752 63.7704 175.21 63.635 174.804 63.4996C173.18 65.1243 171.555 66.749 170.065 68.3738C169.93 68.5092 169.795 68.6445 169.795 68.6445C169.795 68.6445 169.795 68.7799 169.659 68.7799C169.389 67.6968 168.982 66.4782 168.576 65.3951C168.305 64.4473 167.899 63.635 167.493 62.6872C167.493 62.5518 167.358 62.281 167.222 62.1457C167.222 62.0103 167.087 62.0103 167.087 61.8749C166.951 61.8749 166.681 61.8749 166.545 61.8749C166.139 61.8749 165.733 61.7395 165.462 61.6041C165.327 61.4687 165.056 61.4687 164.921 61.3333C164.785 61.1979 164.514 61.1979 164.379 61.0625C164.108 60.9271 163.973 60.7917 163.837 60.6563C163.702 60.5209 163.567 60.5209 163.296 60.3855C161.942 59.4378 160.723 58.2192 159.911 56.5945C159.505 55.6468 158.015 56.1883 158.015 57.1361C153.547 63.0934 149.756 64.3119 146.372 60.9271C145.424 60.2501 144.476 59.4378 143.799 58.3546C143.393 57.813 142.174 58.0838 142.039 58.7608C140.82 67.1552 131.614 69.5923 125.927 63.3642C125.521 62.958 124.709 63.4996 124.844 64.0412C124.573 64.1766 124.167 64.4473 124.167 64.8535C123.761 75.5496 110.086 70.5401 106.024 67.1552C105.483 66.749 104.535 66.8844 104.4 67.5614C102.639 75.0081 94.922 77.5805 88.9647 72.8417C89.6416 69.7277 90.1832 66.4782 90.7248 63.3642C94.3804 62.281 97.0883 59.7086 98.4422 56.3237C102.504 62.8226 112.659 61.1979 114.419 53.6158C119.834 58.49 127.687 56.0529 129.989 49.2833C135.811 54.9698 149.079 53.8866 149.486 45.2214C155.578 50.5018 164.108 48.8771 168.035 41.972C173.044 46.9816 180.762 45.8984 184.011 39.5349C184.282 39.8057 184.417 40.0765 184.688 40.3473C184.959 40.6181 185.094 40.7535 185.365 40.8888C185.636 40.7535 185.771 40.4827 186.042 40.3473C186.313 40.0765 186.719 39.8057 186.99 39.5349L186.313 38.8579L184.688 36.9624C184.146 36.1501 183.063 36.4209 182.792 37.2332C180.355 44.0029 172.773 44.6799 168.576 39.3995C168.17 38.8579 167.087 38.9933 166.951 39.6703C163.702 47.2523 155.037 48.7417 149.35 43.0551C149.079 42.7844 148.944 42.7844 148.673 42.7844C148.132 42.649 147.319 43.0551 147.319 43.7321C145.695 48.8771 142.445 51.4495 137.842 51.1788C134.457 51.0434 132.02 49.554 130.395 46.5754C129.989 45.8984 128.635 45.8984 128.5 46.8462C127.416 54.2928 120.105 56.5945 114.689 51.8557C114.689 50.6372 112.929 50.7726 112.794 51.8557C111.711 59.9793 102.098 60.7917 98.9838 53.6158C98.713 52.9389 97.4945 53.0743 97.3591 53.7512C96.5467 57.6777 94.245 60.2501 90.8602 61.8749C91.6726 55.9175 92.2141 49.9602 92.4849 44.0029C96.9529 46.9816 102.369 44.8153 103.993 39.8057C108.326 46.9816 119.834 44.6799 120.105 35.0669C125.792 39.8057 136.352 41.1596 138.519 33.5776C140.143 35.8793 142.851 37.2332 145.965 37.0978C150.975 36.6916 153.954 32.4944 155.037 28.0264C159.911 36.1501 169.795 34.9315 173.044 26.8079C174.804 29.5158 177.783 31.0051 181.303 30.7343C185.636 30.3281 188.75 27.2141 190.916 23.6938C191.999 25.7248 194.03 27.3495 196.196 28.0264C196.603 28.1618 197.144 28.2972 197.55 28.2972C197.821 28.0264 198.092 27.6203 198.363 27.3495C198.498 27.2141 198.769 26.9433 198.904 26.8079C199.04 26.6725 199.175 26.5371 199.175 26.4017C198.634 26.4017 198.092 26.2663 197.55 26.1309C195.113 25.5894 193.082 24.5062 191.728 22.0691C192.405 20.8506 190.645 19.9028 189.968 20.986C187.531 25.454 177.241 35.0669 173.721 23.6938C173.45 22.7461 171.961 22.6107 171.69 23.6938C170.878 27.8911 170.201 28.2972 166.004 29.922C163.702 32.0883 161.536 32.2236 159.505 30.1927C157.474 29.3804 155.985 28.0264 154.901 26.1309C154.901 25.9955 154.766 25.9955 154.631 25.9955C154.089 25.5894 153.277 25.454 153.141 26.4017C152.6 29.5158 151.652 31.1405 149.215 33.1714C145.695 36.0147 140.008 35.7439 138.654 30.0574C138.383 29.1096 136.759 29.245 136.759 30.3281C137.165 41.7012 124.709 37.3686 119.97 33.713C119.428 33.3068 118.751 33.8484 118.887 34.3899C118.48 34.3899 118.074 34.6607 118.074 35.2023C117.804 43.5967 106.566 45.086 104.129 37.0978C103.858 36.2855 102.504 36.4209 102.504 37.3686C102.504 42.5136 96.4113 45.3568 92.2141 43.0551C92.2141 41.972 92.3495 41.0242 92.3495 39.9411C92.6203 34.2546 93.8389 33.4422 99.1192 31.8175C103.181 30.4635 107.107 29.245 111.169 28.1618C142.851 19.0905 175.617 15.164 208.247 11.6438C209.465 11.5084 210.684 11.373 211.902 11.2376H212.038C212.444 11.2376 212.714 11.1022 213.121 11.1022C213.256 11.1022 213.256 11.1022 213.391 10.9668C213.527 10.9668 213.662 10.8314 213.798 10.8314C213.798 10.8314 213.798 10.8314 213.933 10.8314C213.933 10.5607 213.798 10.2899 213.798 10.0191C213.662 9.6129 213.391 9.34212 213.256 8.93594C212.444 8.93594 211.767 9.07133 210.954 9.20672C210.684 9.20672 210.277 9.20672 209.871 9.34212C169.795 13.1331 129.312 18.6843 91.2664 32.359C90.8602 32.4944 90.454 32.9006 90.454 33.4422C89.777 50.908 88.6939 68.2384 83.0074 84.4856L79.4871 97.4834C80.4349 95.9941 81.2472 94.5047 81.9242 93.0154C83.8197 94.3693 85.986 94.234 88.2877 93.2862C89.9124 92.6092 91.2664 91.6615 92.6203 90.4429C93.5681 89.4952 95.3282 86.5165 96.5467 86.2457C96.8175 86.2457 99.9316 87.8704 100.338 88.0058C101.962 88.412 103.723 88.412 105.483 88.1412C109.951 87.3289 113.065 84.2148 114.825 80.153C114.825 80.153 114.825 80.153 114.825 80.0176C116.45 81.3715 118.21 82.4547 120.241 82.9963C120.647 83.1317 120.918 83.1317 121.324 83.2671C122.678 83.5379 124.032 83.5379 125.386 83.2671C127.416 82.8609 129.447 82.0485 131.072 80.6946C131.749 80.153 133.645 77.5805 134.322 77.3097C135.134 77.039 137.436 78.6637 138.248 78.9345C139.873 79.3406 141.633 79.3406 143.258 78.9345C147.319 77.9867 150.163 74.8727 152.058 71.3524C156.255 77.3097 163.973 77.3097 168.305 72.0294C170.472 75.1434 174.533 76.2266 178.054 74.8727C178.054 74.8727 178.189 74.8727 178.189 74.7373C178.46 75.9558 178.595 77.3097 178.866 78.5283H178.731C145.018 79.8822 111.169 88.6828 79.2163 99.2435L78.5394 100.868C79.4871 100.597 80.4349 100.327 81.3826 100.191C81.9242 101.004 82.4658 101.816 83.0074 102.628C83.1428 102.764 83.2781 103.035 83.4135 103.17C87.4754 109.263 91.4018 115.491 95.0574 121.854C98.0361 126.999 100.879 132.28 103.452 137.695C108.461 148.256 112.117 159.088 115.502 170.054C116.45 173.168 117.533 176.418 118.48 179.667C117.397 179.803 116.314 180.074 115.231 180.209C114.689 180.344 114.013 180.344 113.471 180.48C113.065 180.615 112.794 180.615 112.388 180.751L112.523 181.157L112.659 181.563L113.336 183.188C113.606 183.188 114.013 183.052 114.283 183.052C114.825 182.917 115.366 182.917 115.908 182.781C152.329 176.689 188.885 173.033 225.983 170.461C253.333 168.565 280.953 166.534 308.302 168.294C314.26 168.7 320.217 169.242 326.174 169.919H326.31C326.31 170.461 326.174 171.002 326.174 171.679C326.039 173.168 328.205 173.033 328.341 171.679C328.341 171.408 328.476 171.002 328.476 170.596V170.19L328.747 168.294C328.747 167.617 328.882 167.076 329.018 166.534C329.424 163.826 329.83 161.254 330.236 158.681C333.756 139.455 340.255 121.583 349.056 104.524C351.899 99.1081 354.878 93.6924 358.127 88.412C359.481 86.2457 360.7 84.2148 362.054 82.0485C363.272 82.3193 364.491 82.4547 365.709 82.7255C366.386 82.8609 366.792 82.4547 366.928 81.9131C367.876 82.1839 369.094 80.9654 368.282 80.0176ZM211.225 99.3789C211.225 99.2435 211.09 99.1081 211.09 98.9727C215.964 97.8896 220.703 97.2126 225.712 97.0772C225.171 106.149 227.608 116.032 228.691 124.968C229.909 133.904 230.993 142.705 232.211 151.641C228.014 151.776 223.817 151.912 219.484 152.318C219.755 152.182 219.89 152.047 219.755 151.641C216.912 134.175 213.121 117.115 211.225 99.3789ZM167.358 69.7277C163.837 75.5496 156.797 75.4142 152.87 70.4047C152.735 70.1339 152.329 70.1339 152.194 70.2693C151.923 69.5923 150.975 69.3215 150.569 70.1339C147.455 75.8204 140.414 80.2884 134.592 74.7373C134.186 74.3311 133.374 74.3311 133.103 74.8727C129.312 82.1839 121.324 83.4025 114.96 78.6637C114.689 78.3929 114.419 78.5283 114.148 78.7991C113.742 78.6637 113.065 78.7991 112.794 79.476C109.815 86.6519 101.962 88.1412 96.0052 83.8086C95.599 83.5379 94.922 83.6732 94.6512 84.0794C92.8911 88.0058 87.4753 94.9109 82.3304 92.0677C84.9029 86.5165 86.9338 80.6946 88.2877 74.7373C94.3804 80.0176 102.91 77.3097 105.483 69.8631C111.982 74.1957 124.709 76.0912 125.656 65.9367C131.343 71.894 140.82 69.1861 143.258 61.4687C148.267 65.9367 157.474 67.426 159.369 60.3855C160.588 61.8749 162.077 62.958 163.973 63.4996C164.379 63.635 164.921 63.7704 165.462 63.9058C165.733 64.8535 166.139 65.6659 166.545 66.6136C166.951 67.5614 167.493 68.6445 168.035 69.4569C167.899 69.1861 167.628 69.3215 167.358 69.7277ZM134.728 177.095C129.989 177.772 125.25 178.449 120.376 179.261C114.96 152.182 101.556 124.562 85.0383 102.493C84.9029 102.358 84.7675 102.222 84.6321 101.951C84.0905 101.274 83.5489 100.462 82.872 99.7851C114.148 91.6615 144.882 82.7255 177.377 80.83C177.648 80.83 178.054 80.83 178.324 80.83H179.001C181.168 93.4216 183.469 106.149 185.636 118.74C188.614 135.935 190.645 153.536 194.707 170.461C174.669 172.085 154.631 174.252 134.728 177.095ZM258.884 165.993C241.553 166.94 224.088 168.024 206.757 169.377C206.216 167.211 205.403 164.774 204.32 163.014C222.869 160.712 241.283 159.223 259.967 159.764C259.967 161.931 259.696 163.826 258.884 165.993ZM359.481 82.5901C340.797 106.69 330.101 137.831 326.445 167.888C307.219 165.586 287.587 164.909 267.955 165.586C268.226 155.973 268.09 146.361 267.955 136.748C267.82 129.03 267.549 121.448 267.414 113.731C267.414 112.106 267.414 110.481 267.414 108.721C267.414 96.5356 267.414 84.3502 267.684 72.1648V71.7586C267.684 71.894 267.955 72.0294 268.091 72.0294C278.922 72.9771 289.753 73.2479 300.585 73.9249C305.73 74.1957 310.875 74.6019 316.02 75.0081C330.507 76.362 344.723 78.6637 359.075 80.9654C359.481 81.1008 360.023 81.1008 360.429 81.2362C360.023 81.9131 359.752 82.3193 359.481 82.5901Z" fill="#63350F"/>
<path d="M233.159 64.0413C230.993 64.0413 228.691 64.0413 226.525 64.1767C213.256 64.4474 199.717 64.7182 186.313 66.4783C182.928 66.8845 179.543 67.4261 176.158 68.1031C176.023 68.1031 175.888 68.2385 175.752 68.3739C175.752 68.5093 175.752 68.5093 175.617 68.6446L175.481 68.78L175.617 68.9154C175.888 69.0508 176.158 69.1862 176.429 69.1862C187.261 68.78 197.957 67.8323 208.653 67.1553C213.798 66.8845 218.943 66.4783 224.088 66.4783C238.575 66.0722 252.927 66.6137 267.414 67.2907L267.549 67.1553C267.82 66.8845 267.955 66.7491 268.091 66.4783C268.226 66.343 268.226 66.2076 268.361 66.0722V65.9368C268.361 65.8014 268.497 65.666 268.497 65.5306C268.497 65.5306 268.497 65.5306 268.497 65.3952V65.2598V65.1244C266.06 64.989 263.623 64.8536 261.186 64.7182C252.114 64.0413 242.637 63.9059 233.159 64.0413Z" fill="#63350F"/>
<path d="M249.271 19.4968C247.375 22.7462 244.532 24.5063 241.147 25.0479C241.824 25.4541 242.366 25.8603 243.043 26.2665C245.074 25.7249 246.969 24.7771 248.594 23.2878C249.271 25.3187 251.708 26.9434 254.281 27.2142C258.613 27.7558 262.54 25.4541 264.029 21.7985C268.091 27.6204 279.193 29.6513 281.495 22.7462C285.963 27.2142 293.139 26.1311 295.846 19.6322C296.253 18.549 294.492 17.7367 293.951 18.8198C291.785 23.4232 285.692 25.8603 281.765 19.4968C281.224 18.549 279.735 18.9552 279.735 20.0384C277.568 24.5063 274.454 25.9957 270.528 24.5063C267.684 23.694 265.789 21.9339 264.57 19.0906C264.57 18.9552 264.57 18.8198 264.57 18.8198C264.57 17.4659 262.675 17.6013 262.54 18.8198C262.404 22.0693 260.238 24.5063 256.853 25.1833C255.093 25.4541 248.052 25.4541 250.896 20.5799C251.437 19.3614 249.948 18.549 249.271 19.4968Z" fill="#63350F"/>
<path d="M236.409 19.6322C238.439 22.7462 241.418 24.371 244.938 24.6417C244.397 25.0479 243.72 25.5895 243.178 25.9957C241.012 25.7249 239.116 24.7771 237.356 23.4232C236.815 25.5895 234.513 27.3496 232.076 27.7558C227.743 28.5682 223.682 26.6726 222.057 23.017C218.537 29.1097 207.434 31.953 204.726 25.3187C200.665 30.0575 193.353 29.5159 190.239 23.2878C189.698 22.2047 191.458 21.2569 192.135 22.34C194.707 26.808 200.935 28.8389 204.32 22.0693C204.726 21.1215 206.216 21.3923 206.351 22.4754C208.924 26.808 212.038 28.0266 215.829 26.2665C218.537 25.3187 220.432 23.2878 221.38 20.4445C221.38 20.3091 221.38 20.1737 221.38 20.1737C221.244 18.9552 223.275 18.8198 223.411 20.0384C223.817 23.2878 226.254 25.5895 229.503 25.8603C231.264 25.9957 238.304 25.4541 235.055 20.7153C234.242 19.7676 235.732 18.8198 236.409 19.6322Z" fill="#63350F"/>
<path d="M205.132 54.5637C207.163 57.6778 210.142 59.3025 213.662 59.5733C213.121 59.9795 212.444 60.5211 211.902 60.9272C209.736 60.6565 207.84 59.7087 206.08 58.3548C205.539 60.5211 203.237 62.2812 200.8 62.6874C196.467 63.4997 192.405 61.6042 190.781 57.9486C187.125 64.0413 176.023 66.8846 173.315 60.1149C169.253 64.8537 161.942 64.3121 158.828 58.084C158.286 57.0008 160.046 56.0531 160.723 57.1362C163.296 61.6042 169.524 63.6351 172.909 56.8654C173.315 55.9177 174.804 56.1885 174.94 57.2716C177.512 61.6042 180.626 62.8228 184.417 61.0626C187.125 60.1149 189.021 58.084 189.968 55.2407C189.968 55.1053 189.968 54.9699 189.968 54.9699C189.833 53.7514 191.864 53.616 191.999 54.8345C192.405 58.084 194.842 60.3857 198.092 60.6565C199.852 60.7919 206.892 60.2503 203.643 55.5115C202.966 54.6991 204.455 53.616 205.132 54.5637Z" fill="#63350F"/>
<path d="M250.219 51.8558C252.25 54.9699 255.228 56.5946 258.748 56.8654C258.207 57.2716 257.53 57.8132 256.988 58.2193C254.822 57.9486 252.927 57.0008 251.166 55.6469C250.625 57.8132 248.323 59.5733 245.886 59.9795C241.553 60.7918 237.492 58.8963 235.867 55.2407C232.347 61.3334 221.244 64.1767 218.537 57.5424C214.475 62.2812 207.163 61.7396 204.049 55.5115C203.508 54.4283 205.268 53.4806 205.945 54.5637C208.517 59.0317 214.746 61.0626 218.13 54.2929C218.537 53.3452 220.026 53.616 220.161 54.6991C222.734 59.0317 225.848 60.2502 229.639 58.4901C232.347 57.5424 234.242 55.5115 235.19 52.6682C235.19 52.5328 235.19 52.3974 235.19 52.3974C235.055 51.1789 237.085 51.0435 237.221 52.262C237.627 55.5115 240.064 57.8132 243.314 58.084C245.074 58.2193 252.114 57.6778 248.865 52.939C248.052 51.9912 249.542 50.9081 250.219 51.8558Z" fill="#63350F"/>
<path d="M295.711 49.8249C297.742 52.939 300.72 54.5637 304.241 54.8345C303.699 55.2407 303.022 55.7822 302.48 56.1884C300.314 55.9176 298.419 54.9699 296.658 53.6159C296.117 55.7822 293.815 57.5424 291.378 57.9485C287.046 58.7609 282.984 56.8654 281.359 53.2098C277.839 59.3025 266.736 62.1458 264.029 55.5115C259.967 60.2502 252.656 59.7087 249.541 53.4806C249 52.3974 250.76 51.4496 251.437 52.5328C254.009 57.0008 260.238 59.0317 263.622 52.262C264.029 51.3143 265.518 51.585 265.653 52.6682C268.226 57.0008 271.34 58.2193 275.131 56.4592C277.839 55.5115 279.734 53.4806 280.682 50.6373C280.682 50.5019 280.682 50.3665 280.682 50.3665C280.547 49.148 282.578 49.0126 282.713 50.2311C283.119 53.4806 285.556 55.7822 288.806 56.053C290.566 56.1884 297.606 55.6469 294.357 50.9081C293.544 49.8249 295.034 48.8772 295.711 49.8249Z" fill="#63350F"/>
<path d="M347.567 51.8559C349.597 55.2407 352.711 57.1362 356.638 57.8132C355.961 58.2194 355.149 58.6256 354.472 58.8963C352.17 58.3548 350.004 57.2716 348.243 55.6469C347.431 57.6778 344.588 59.1671 341.609 59.3025C336.6 59.5733 332.267 57.2716 330.778 53.4806C326.039 59.1671 313.177 60.6565 310.875 53.616C305.594 57.9486 297.471 56.4593 294.628 49.9604C294.221 48.8772 296.252 48.2002 296.794 49.2834C299.096 54.0222 306.001 56.73 310.604 50.5019C311.281 49.5542 312.906 50.0958 312.906 51.1789C315.207 55.7823 318.592 57.407 323.196 56.0531C326.445 55.3761 328.747 53.616 330.236 50.9081C330.236 50.7727 330.236 50.6373 330.236 50.6373C330.236 49.4188 332.538 49.4188 332.538 50.7727C332.538 54.0222 334.975 56.5946 338.766 57.2716C340.797 57.6778 348.92 57.9486 345.806 52.939C345.129 51.5851 346.89 50.7727 347.567 51.8559Z" fill="#63350F"/>
<path d="M142.851 153.401C139.331 143.517 136.623 131.332 130.666 122.531C127.552 117.928 121.188 112.648 115.096 115.085C112.794 116.032 111.575 117.793 111.034 119.688C111.034 119.688 111.034 119.688 111.034 119.823C110.086 123.208 111.034 127.541 111.711 130.79C111.846 131.332 111.982 131.873 112.117 132.415C114.013 140.403 116.991 148.256 121.188 155.297C122.001 156.515 122.813 157.869 123.626 159.088C123.761 159.223 123.761 159.358 123.896 159.494C124.032 159.765 124.167 160.035 124.573 160.035C124.709 160.035 124.979 160.035 125.115 159.9C131.208 158.546 137.3 156.921 143.393 155.297C144.612 155.161 144.07 153.13 142.851 153.401ZM132.562 155.567C131.478 151.912 130.26 148.392 129.041 144.871C131.478 144.059 134.051 143.247 136.488 142.57C136.488 142.57 136.488 142.57 136.623 142.57C137.977 146.361 139.331 150.287 140.685 154.078C137.842 154.89 134.999 155.703 132.155 156.515C132.426 156.244 132.697 155.974 132.562 155.567ZM130.666 129.707C128.5 130.249 126.469 130.79 124.302 131.467C122.813 126.864 121.459 121.584 118.074 118.199C119.699 116.574 121.595 116.709 123.626 118.47C125.656 119.823 127.417 121.584 128.77 123.614C130.937 126.729 132.155 130.52 133.509 134.04C134.322 136.341 135.134 138.643 135.946 140.945C133.509 141.757 130.937 142.57 128.5 143.382C127.281 139.862 126.063 136.477 124.844 132.957C126.875 132.415 129.041 131.738 131.072 131.061C132.02 130.926 131.614 129.572 130.666 129.707ZM114.013 131.467C113.606 129.978 113.336 128.489 113.065 126.864C111.846 123.614 112.929 121.448 116.585 120.23C116.72 119.959 116.856 119.823 116.991 119.688C119.428 123.479 121.053 127.812 122.407 132.009C119.835 132.821 117.262 133.498 114.825 134.311C114.554 133.363 114.283 132.415 114.013 131.467ZM116.585 140.403C116.043 138.779 115.502 137.289 115.096 135.664C117.668 134.988 120.376 134.311 122.949 133.634C123.219 134.581 123.626 135.529 124.032 136.612C124.979 139.185 125.927 141.622 126.74 144.194C124.438 145.007 122.136 145.954 119.835 146.902C119.293 147.173 119.699 148.121 120.241 147.985C122.542 147.173 124.844 146.361 127.281 145.684C128.635 149.204 129.854 152.724 131.208 156.244C131.343 156.651 131.749 156.786 132.02 156.651C129.718 157.327 127.281 158.004 124.979 158.681C121.865 152.589 118.751 146.767 116.585 140.403Z" fill="#63350F"/>
<path d="M175.481 128.082C174.669 125.239 173.721 122.396 172.503 119.688C171.013 116.303 168.712 111.294 165.462 108.044C163.16 105.878 160.453 104.389 157.203 105.066C150.027 106.284 149.756 115.355 149.756 121.042C149.621 129.572 150.569 138.643 153.954 146.631C154.631 148.256 155.443 149.881 156.255 151.37C156.526 151.776 156.797 151.776 157.068 151.641C157.203 151.776 157.338 151.912 157.609 151.912C160.453 152.047 163.431 152.047 166.41 151.912C166.545 152.453 167.493 152.453 167.493 151.776C169.93 151.641 172.232 151.37 174.669 150.964C175.752 150.829 175.346 149.068 174.127 149.204C171.826 149.475 169.659 149.745 167.493 150.016C167.358 146.496 167.087 142.976 166.545 139.456C169.524 139.456 172.367 139.456 175.346 139.456C175.481 139.456 175.617 139.456 175.752 139.32C175.887 140.809 175.887 142.299 176.023 143.788V143.924C176.023 145.819 176.023 147.715 175.887 149.475C175.887 149.745 175.887 149.881 175.887 150.152V150.287C175.887 151.506 177.918 151.506 177.918 150.152C178.189 142.705 177.512 135.258 175.481 128.082ZM161.806 108.45C163.16 108.721 164.379 109.669 165.327 111.158C168.305 114.137 170.472 118.063 172.096 122.396C169.118 122.802 166.139 123.208 163.296 123.479C162.619 120.365 161.806 117.251 160.994 114.272C160.453 112.377 160.317 110.617 159.369 109.127C159.234 108.992 159.234 108.721 159.099 108.586C160.046 108.315 160.994 108.315 161.806 108.45ZM152.6 112.918C154.36 111.294 155.985 110.075 157.474 109.263C157.609 109.398 157.745 109.669 157.88 109.804C159.369 112.241 159.64 115.897 160.317 118.47C160.723 120.094 161.129 121.854 161.536 123.479C158.286 123.614 155.172 123.614 151.923 123.479C151.923 121.854 151.923 120.365 152.058 118.74C152.058 117.928 152.193 117.116 152.193 116.303C152.193 115.22 152.329 114.137 152.6 112.918ZM157.609 150.693H157.474C157.474 150.693 157.474 150.693 157.474 150.558C154.224 143.247 152.464 135.935 152.058 127.947C152.058 126.864 151.923 125.781 151.923 124.562C155.172 124.833 158.557 124.968 161.942 124.968C162.213 126.187 162.483 127.406 162.754 128.624C163.431 131.603 163.973 134.581 164.514 137.695C163.025 137.695 161.536 137.831 160.046 137.831C158.557 137.966 154.631 137.154 154.224 139.185C154.224 139.456 154.224 139.726 154.495 139.862C154.631 139.862 154.631 139.997 154.766 139.997C155.037 140.133 155.443 139.997 155.578 139.726C158.151 138.914 162.213 139.456 164.65 139.32H164.92C165.462 142.84 166.004 146.361 166.41 149.881C163.296 150.422 160.453 150.693 157.609 150.693ZM175.21 137.831C172.232 137.695 169.253 137.695 166.139 137.831C165.597 134.175 164.92 130.655 164.108 126.999C163.973 126.322 163.837 125.645 163.702 124.968C166.681 124.833 169.659 124.562 172.773 124.021C174.263 128.489 175.075 133.227 175.481 137.831C175.346 137.831 175.21 137.831 175.21 137.831Z" fill="#63350F"/>
<path d="M293.68 117.522C293.951 117.116 293.815 116.574 293.409 116.303C293.274 115.897 293.274 115.355 293.138 114.949C292.055 109.398 288.806 99.1082 281.359 99.2436C274.725 99.5144 272.152 109.669 270.798 114.679C270.663 114.949 270.663 115.22 270.663 115.626C270.257 115.626 269.715 115.626 269.309 115.626C269.174 115.626 269.174 115.897 269.309 115.897C269.715 116.032 270.121 116.032 270.528 116.168C268.632 124.968 269.038 134.04 272.152 142.57C272.288 142.84 272.558 143.111 272.829 142.976C272.694 143.382 272.829 143.788 273.371 143.788C278.922 143.382 284.338 143.653 289.889 144.601C290.566 144.736 290.972 144.059 290.972 143.517C291.378 143.517 291.649 143.247 291.784 142.84C294.628 135.123 294.898 125.781 293.68 117.522ZM284.879 102.628C288.4 104.659 290.295 110.887 291.243 116.032C290.701 116.032 290.16 116.032 289.618 116.032C289.483 116.032 289.483 115.897 289.347 115.897C287.452 115.626 285.421 115.626 283.525 115.626C283.796 111.429 284.202 107.096 284.879 102.628ZM277.162 104.524C279.599 102.493 281.63 101.952 283.39 102.222C282.307 106.555 281.63 111.158 281.359 115.762C281.088 115.762 280.817 115.762 280.411 115.762C277.839 115.762 275.266 115.762 272.694 115.762C273.506 111.158 274.86 106.419 277.162 104.524ZM271.746 122.667C271.881 121.042 272.152 118.876 272.558 116.439C275.402 116.845 278.245 117.251 281.224 117.522C280.953 121.313 280.953 124.968 281.088 128.759C277.974 128.624 274.86 128.218 271.746 128.489C271.611 126.458 271.611 124.562 271.746 122.667ZM273.642 142.57C273.642 142.434 273.777 142.299 273.642 142.163C272.558 137.966 271.882 133.634 271.611 129.436C274.454 130.249 277.703 130.655 281.088 130.79C281.359 134.717 281.765 138.508 282.307 142.299C279.464 142.028 276.62 142.163 273.642 142.57ZM290.024 142.434C290.024 142.705 290.024 142.84 290.024 142.976C287.858 142.57 285.692 142.434 283.39 142.299C283.119 138.372 282.984 134.581 282.848 130.79C285.692 130.79 288.535 130.655 290.972 130.384C291.92 130.249 291.92 128.895 290.972 128.895C288.264 128.759 285.556 128.895 282.713 128.895C282.713 125.239 282.848 121.584 283.119 117.793C285.827 117.928 288.535 118.063 291.378 118.063C291.649 119.553 291.784 120.907 291.784 121.854C292.461 128.759 291.649 135.529 290.024 142.434Z" fill="#63350F"/>
<path d="M322.248 102.087C314.801 100.733 310.469 108.586 308.031 114.272C303.97 123.479 302.21 133.498 302.887 143.517C302.887 143.653 302.887 143.788 303.022 143.924C303.157 144.194 303.428 144.33 303.699 144.33C303.563 144.33 303.563 144.33 303.563 144.465C303.157 144.736 303.293 145.548 303.834 145.548C306.001 145.684 308.167 145.819 310.333 145.954C310.469 145.954 310.469 145.954 310.604 145.954C313.989 146.225 317.374 146.631 320.758 147.173C321.3 147.308 321.571 146.902 321.706 146.631C321.842 146.361 321.842 146.09 321.706 145.954C322.925 142.163 324.685 138.508 326.58 134.717C328.882 129.707 331.184 124.698 331.455 119.417C331.725 113.189 329.424 103.441 322.248 102.087ZM329.018 119.959C326.445 119.147 323.873 118.47 321.165 117.928C322.519 114.543 324.008 111.158 325.497 107.773C325.768 106.961 324.82 106.42 324.414 107.096C322.383 110.346 320.623 113.866 318.998 117.386C315.884 116.845 312.77 116.439 309.656 116.303C309.521 116.303 309.521 116.303 309.385 116.303C309.927 114.814 310.604 113.46 311.416 112.106C312.229 110.346 313.312 108.721 314.53 107.232C321.977 103.982 326.58 105.201 328.07 111.023C329.288 114.272 329.424 117.116 329.018 119.959ZM305.73 129.166C306.136 126.999 306.542 124.968 307.219 122.938C307.761 121.042 308.438 119.147 309.115 117.251C309.115 117.386 309.25 117.522 309.521 117.657C312.499 118.199 315.343 118.74 318.186 119.282C316.561 122.938 315.207 126.729 313.853 130.655C311.146 130.113 308.438 129.572 305.73 129.166ZM313.312 132.28C312.093 136.342 310.875 140.403 309.927 144.33C307.896 144.33 306.001 144.194 303.97 144.33C304.24 144.194 304.511 144.059 304.511 143.653C304.376 139.185 304.647 134.852 305.459 130.384C308.031 131.061 310.739 131.603 313.312 132.28ZM319.946 145.413C317.103 144.871 314.26 144.601 311.416 144.465C312.635 140.539 313.989 136.612 315.343 132.821C318.051 133.498 320.894 134.04 323.602 134.446C321.977 137.966 320.488 141.486 319.946 145.413ZM316.02 130.926C317.509 127.135 318.998 123.479 320.488 119.824C322.519 120.23 324.414 120.771 326.445 121.313C326.58 121.719 326.851 122.125 327.393 122.125C327.799 122.125 328.341 122.125 328.882 121.99C328.07 125.645 326.31 129.166 324.685 132.686C321.571 132.009 318.728 131.467 316.02 130.926Z" fill="#63350F"/>
<path d="M114.148 182.917C113.877 182.917 113.471 183.052 113.2 183.052L112.523 181.427L112.388 181.021L112.252 180.615C112.658 180.48 112.929 180.48 113.335 180.48L113.471 180.886L114.148 182.917Z" fill="#63350F"/>
<path d="M357.992 61.8749C357.992 62.0103 357.992 62.0103 358.127 62.1457L357.992 61.8749Z" fill="#63350F"/>
<path d="M189.562 64.4475C189.562 64.5829 189.698 64.5829 189.698 64.7183C190.104 64.3121 190.51 63.9059 191.051 63.6351C190.374 63.7705 189.833 63.7705 189.156 63.9059C189.156 64.0413 189.427 64.1767 189.562 64.4475Z" fill="#60B5E4"/>
<path d="M222.598 9.88372L222.734 9.74832C223.005 9.61293 223.275 9.61293 223.546 9.61293L223.682 9.47753C224.494 8.80057 225.171 8.1236 225.983 7.44663C225.171 7.58202 224.494 7.58202 223.682 7.58202C223.005 7.58202 222.192 7.58202 221.515 7.58202C220.974 7.71742 220.567 7.58202 220.161 7.17584C216.506 7.9882 212.715 8.80057 209.194 9.74832C209.059 9.74832 208.788 9.88372 208.653 9.88372C208.653 10.4253 208.653 10.8315 208.653 11.373H208.788C208.924 11.373 208.924 11.5084 209.059 11.6438C209.059 11.6438 209.059 11.6438 208.924 11.5084H209.059C213.662 11.1023 218.13 10.4253 222.598 9.88372Z" fill="#63350F"/>
</g>
<g clip-path="url(#clip1)">
<path d="M62.3 57.4C35.2 53.1 25.7 62 20.7 65.1C14 69.3 6.4 77.8 3.4 84.7C-4.4 103 9 130.1 25 141C45.4 155 74.9 151.6 92.2 134.2L92.3 134.1C98.4 128 101.7 120 101.7 111.8V94.2C101.7 86.2 99.2 78.3 94.3 71.5L94.2 71.4C86.9 61.4 75 59.4 62.3 57.4Z" fill="#F2CD4C"/>
<path d="M62.3 57.6L57.5 57C55.9 56.9 54.3 56.7 52.7 56.6C49.5 56.5 46.2 56.5 43.1 57C36.7 57.7 30.5 59.8 25.3 63.4C24 64.3 22.7 65.2 21.3 66.2C20 67.1 18.8 68 17.6 69C15.2 71.1 13 73.3 11 75.7C9.99999 76.9 8.99999 78.2 8.09999 79.4C7.19999 80.7 6.39999 82 5.59999 83.4C4.19999 86.1 3.19999 89.1 2.69999 92.1C2.19999 95.2 2.19999 98.3 2.49999 101.5C2.79999 104.6 3.49999 107.8 4.39999 110.8C6.19999 116.9 9.09999 122.7 12.7 128C14.5 130.6 16.6 133.1 18.9 135.4C21.2 137.7 23.6 139.7 26.4 141.4C31.8 144.8 37.9 147 44.2 148.1C56.8 150.1 69.9 147.7 80.8 141.3C82.1 140.4 83.5 139.6 84.7 138.7L86.6 137.3C87.2 136.8 87.9 136.4 88.4 135.8L90.1 134.2C90.7 133.7 91.3 133.1 91.8 132.6C92.8 131.5 93.8 130.3 94.7 129C98.2 123.9 100.2 117.9 100.1 111.7L100.2 102V97.2C100.2 95.6 100.3 94 100.2 92.4C99.9 86.2 98.2 80 95 74.6C93.4 71.9 91.5 69.3 89.1 67.3C86.7 65 83.9 63.4 81 62.1C75.1 59.6 68.6 58.6 62.3 57.6ZM62.3 57.3C65.5 57.8 68.7 58.3 71.9 58.9C75.1 59.5 78.2 60.3 81.3 61.4C84.4 62.5 87.3 64 90 66C92.6 68 94.8 70.6 96.7 73.4C100.4 78.9 102.7 85.4 103.1 92.1C103.2 93.8 103.2 95.4 103.2 97V101.8L103.3 111.5C103.4 118.3 101.2 125.1 97.2 130.6C96.2 132 95.1 133.3 94 134.5C93.4 135.1 92.8 135.7 92.2 136.2L90.3 137.9C89.7 138.5 89 138.9 88.4 139.5L86.4 141C85 141.9 83.6 142.8 82.2 143.7C70.6 150.3 56.8 152.3 43.9 149.7C37.5 148.4 31.3 145.9 25.9 142.3C23.1 140.6 20.6 138.4 18.3 136.1C16 133.8 13.9 131.3 12 128.7C10.1 126.1 8.39999 123.3 6.79999 120.4C5.19999 117.5 3.89999 114.5 2.79999 111.4C0.599985 105.2 -0.500015 98.6 0.199985 91.9C0.699985 88.6 1.59999 85.3 3.19999 82.3C4.79999 79.3 6.69999 76.6 8.89999 74.1C9.99999 72.8 11.1 71.7 12.3 70.5C13.5 69.4 14.7 68.3 16 67.2C17.3 66.2 18.7 65.2 20.1 64.4C21.4 63.6 22.8 62.7 24.2 61.9C29.9 58.5 36.4 56.7 42.9 56.3C49.4 55.7 55.9 56.2 62.3 57.3Z" fill="#63350F"/>
<path d="M24.5 71C24.8 74.3 25.1 77.7 25.8 81C26.3 83.2 27 85.4 27.7 87.5C28 88.3 28.3 89.1 28.6 89.9C28.9 90.6 29.2 91.4 29.5 92.1C30.1 93.5 30.6 95 31.2 96.4C31.8 98 32.3 99.8 32.8 101.4C32.9 101.6 32.9 101.8 33 102.1C33.3 102.9 33.5 103.8 33.8 104.6C34.4 106.5 35.2 108.5 36.1 110.4C38 114.3 40.5 118 42.7 121C42.8 121.1 43 121.3 43.2 121.6C43.8 122.4 44.7 123.6 45.4 124.8C46.5 126.6 46.3 127 46.3 127.1L46.8 127.4C46.8 129.4 46.8 131.4 46.8 133.4C46.8 144.4 47.6 155.3 48.5 166.1C48.6 166.9 48.6 167.7 48.7 168.6C49.8 180.7 51.1 192.8 51.7 205C51.7 205.8 51.8 206.6 51.8 207.4C53.4 207.2 55 206.9 56.6 206.7C55.3 195.1 54.2 183.5 53.5 171.9C53.5 171.1 53.4 170.3 53.4 169.5C53.4 169.1 53.4 168.8 53.3 168.4C52.8 156.3 52.8 144.2 53 132C62.4 128.1 72.2 112 76.9 103.3C77.5 102.2 78 101.3 78.4 100.5C79.3 98.7 80.2 96.9 81 95.2C83.3 90.2 84.9 85.2 85.8 79.8C84.5 83.2 83 86.8 81.2 90.4C79.9 93 78.5 95.6 77.1 98.2C72.7 106.1 67.6 113.6 63.2 119C60.1 122.8 55.7 127.4 52.9 127.9C53 122.6 53.1 117.2 53.2 111.9C65 102.4 73 86 74.4 66.6H73.7C71.6 76.2 68 92.3 61.9 98.6C59.2 101.4 56.6 104.3 53.5 107.9C53.6 104.1 53.6 100.3 53.6 96.5C53.6 94.6 54.4 88.4 54.9 81.7C55.4 81.2 55.9 80.7 56.5 80.1C56.7 79.9 56.9 79.7 57 79.5C59.8 76.6 63 73 65.4 69C65.8 68.2 66.2 67.4 66.5 66.7H65.3C65 67.3 64.7 67.9 64.4 68.6C62.1 72.5 59 76 56.2 78.9C56 79.1 55.9 79.3 55.6 79.5C55.4 79.7 55.2 79.9 55 80.1C55.3 75.4 55.4 70.5 54.9 66.7H49.5C49.1 74.1 48.6 81.5 48.2 88.8C47.6 88.2 47.1 87.7 47 87.5C45.8 86 44.9 84.4 44.1 82.7C43.8 82.1 43.6 81.6 43.3 81C42.6 79.2 41.9 77.4 41.3 75.5C40.9 74.2 40.5 72.9 40.1 71.6C39.9 70.8 39.6 70 39.4 69.1C39.2 68.2 39 67.4 38.8 66.5H37.7C38 67.8 38.3 69.1 38.7 70.5C38.9 71.4 39.2 72.3 39.5 73.1C39.8 73.9 40 74.8 40.3 75.7C41 78 41.8 80.2 42.8 82.4C43.1 83 43.3 83.6 43.6 84.1C44.3 85.5 45.1 86.8 46.1 88C46.3 88.3 47.3 89.2 48.2 90.1C48 93.9 47.8 97.7 47.6 101.6C47.1 101 46.5 100.4 46 99.8C44.9 98.6 43.8 97.4 42.8 96.1C41.9 94.9 41.1 93.8 40.4 92.5C40 91.9 39.6 91.2 39.3 90.6C37.6 87.6 36.3 84.4 35.2 80.9C34.9 79.9 34.6 78.8 34.3 77.7C34.2 77.3 34.1 76.9 34 76.5C33.6 75 33.3 73.4 32.9 71.9C32.5 70.1 32 68.3 31.6 66.5H30.5C30.9 68.4 31.4 70.3 31.8 72.2C32.2 73.7 32.5 75.3 32.9 76.8C33.1 77.6 33.3 78.3 33.5 79C33.8 80.1 34.1 81.1 34.4 82.1C35.5 85.6 37 88.8 38.7 91.8C39.1 92.4 39.4 93.1 39.8 93.7C40.4 94.7 41.1 95.7 41.9 96.7C42.9 98 44 99.2 45.1 100.5C45.9 101.4 46.7 102.3 47.5 103.2C47.2 110.5 46.9 117.8 46.8 125.2C46.2 124.1 45.3 122.8 44.1 121.2C43.9 120.9 43.8 120.7 43.7 120.6C41.6 117.6 39.1 113.9 37.2 110.1C36.1 107.9 35.3 105.6 34.6 103.4C34.4 102.7 34.2 102 34 101.3C34 101.2 33.9 101 33.9 100.9C33.4 99.4 32.9 97.8 32.4 96.2C31.9 94.8 31.3 93.3 30.7 91.9C30.3 90.9 29.9 90 29.6 89C29.3 88.2 29 87.3 28.7 86.5C28.1 84.6 27.5 82.8 27.1 80.9C26.2 76.9 25.9 72.6 25.6 68.6C25.6 68 25.5 67.4 25.5 66.7H24.4C24.5 67.3 24.5 68 24.5 68.6C24.4 69.4 24.5 70.2 24.5 71Z" fill="#63350F"/>
<path d="M86.2 111C86.9 111.6 87.6 111.9 88.1 111.6L87.5 112.3C87.3 112.5 87.3 112.9 87.4 113.1C87.9 114.2 89.5 114.1 90 113C90.2 112.5 90.3 112 90.2 111.4C90.7 112 91.3 112.7 92 113C92.8 113.5 93.5 112.4 92.8 111.8C92.4 111.5 92 111.3 91.5 111.3C92.1 111.3 92.6 111.1 93.1 110.9C94.1 110.4 93.5 108.8 92.4 109.1C92.1 109.2 91.8 109.3 91.6 109.4C92 109.2 92.4 108.8 92.7 108.5C93.4 107.5 92 106.3 91.2 107.3C91 107.6 90.8 107.9 90.6 108.2C92.2 104 86.3 106.3 88.1 108.5C86.4 107.6 84.8 109.8 86.2 111Z" fill="#FDDF6C"/>
<path d="M80.6 66C77.9 68.1 82.9 70.2 82.8 66.8C82.8 66.8 83.2 67.2 83.7 67.7C84.6 68.6 86.1 67.4 85.4 66.3C85.1 65.9 84.7 65.5 84.3 65.2C84.9 65.5 85.5 65.5 86 65.3C87 65 87.1 63.5 86 63C85.5 62.8 85 62.8 84.5 63.2C86.3 61 81.8 59.8 81.7 63.5C79.4 61.3 77.3 65.4 80.6 66Z" fill="#FDDF6C"/>
<path d="M8.99997 98.1C9.39997 98.3 9.89997 98.5 10.2 98.5C9.29997 98.8 8.09997 99.6 8.49997 100.3C8.89997 101 9.89998 100.3 10.6 99.7C10.4 99.9 10.4 100.3 10.6 100.7C10.9 101.4 11.9 101.5 12 100.8C12.1 100.2 12.1 99.5 12.2 98.9C12.5 99.2 12.9 99.6 13.3 99.8C13.7 100.1 14.1 99.6 13.7 99.2C13.3 98.8 12.7 98.4 12.2 98.1C13.1 98.5 14.4 98.6 14.9 97.9C14.1 96.9 12.7 97 11.8 97.2C12.5 96.9 13 96.3 13.4 95.7C12.6 95 11.9 96.3 11.5 96.7C11.5 96.5 11.3 96.1 11.1 95.8C10.7 95.2 9.79997 95.6 10.2 96.2C10.4 96.6 10.7 97 10.8 97.5C10.4 97 9.59997 96.9 8.99997 97C8.39997 97 8.39997 97.8 8.99997 98.1Z" fill="#FDDF6C"/>
<path d="M85 77.8C85.7 78.5 86.4 79.3 87.4 79.3C86.2 79.5 83.1 80.9 83.5 82.2C84.2 84 87.3 81.2 87.9 80.6L88 80.1C88.2 80.4 90 83.7 91.2 83.2C92.8 82.5 89.4 79.9 88.8 79.3C90.5 79.5 93.3 80.9 94.7 79.3C93.5 77.7 91.4 78.2 89.8 78.5C91.1 77.5 93.3 76.5 93.7 74.8C92 74.5 90.2 76.9 89.2 78.2C89.8 77.1 91 74.9 89.9 74.1C88.6 75.4 88.4 76.3 88.2 78C87.2 77 85.8 76.4 85 77.8Z" fill="#FDDF6C"/>
<path d="M10.8 119.9C10.3 120.6 10.9 121.4 11.6 121.9C10.1 121.8 8.09999 122.4 8.19999 123.5C8.39999 125.2 12 123.9 13.3 123.2L12.8 123.5C12.5 124.2 10.8 128.8 13.2 126.6C14.2 125.6 14.2 124 14 122.8C14.5 123.4 15.4 124.4 16.3 124.9C16.9 125.2 17.6 124.5 17.2 123.9C16.7 123.2 16.1 122.5 15.6 122.2C17.3 122.6 19.8 122.5 19.6 121.1C19.3 119.2 14.8 120.3 14 121.4C14.4 120.6 15.2 119.6 15.5 118.7C15.7 118 14.8 117.5 14.4 118.1C13.7 118.9 13.4 120.1 13.3 121.1C13 120.2 11.6 118.7 10.8 119.9Z" fill="#FDDF6C"/>
<path d="M36 61.9C36.4 62.1 36.9 62.3 37.2 62.3C36.3 62.6 35.1 63.4 35.5 64.1C35.9 64.8 36.9 64.1 37.6 63.5C37.4 63.7 37.4 64.1 37.6 64.5C37.9 65.2 38.9 65.3 39 64.6C39 64 39 63.3 39.2 62.7C39.5 63 39.9 63.4 40.3 63.6C40.7 63.9 41.1 63.4 40.7 63C40.3 62.6 39.7 62.2 39.2 61.9C40.1 62.3 41.4 62.4 41.9 61.7C41.1 60.7 39.7 60.8 38.8 61C39.5 60.7 40 60.1 40.4 59.5C39.6 58.8 38.9 60.1 38.5 60.5C38.5 60.3 38.3 59.9 38.1 59.6C37.7 59 36.8 59.4 37.2 60C37.4 60.4 37.7 60.8 37.8 61.3C37.4 60.8 36.6 60.7 36 60.8C35.4 60.8 35.4 61.6 36 61.9Z" fill="#FDDF6C"/>
<path d="M72.1 128.7C72.5 128.9 73 129.1 73.3 129.1C72.4 129.4 71.2 130.2 71.6 130.9C72 131.6 73 130.9 73.7 130.3C73.5 130.5 73.5 130.9 73.7 131.3C74 132 75 132.1 75.1 131.4C75.2 130.8 75.2 130.1 75.3 129.5C75.6 129.8 76 130.2 76.4 130.4C76.8 130.7 77.2 130.2 76.8 129.8C76.4 129.4 75.8 129 75.3 128.7C76.2 129.1 77.5 129.2 78 128.5C77.2 127.5 75.8 127.6 74.9 127.8C75.6 127.5 76.1 126.9 76.5 126.3C75.7 125.6 75 126.9 74.6 127.3C74.6 127.1 74.4 126.7 74.2 126.4C73.8 125.8 72.9 126.2 73.3 126.8C73.5 127.2 73.8 127.6 73.9 128.1C73.5 127.6 72.7 127.5 72.1 127.6C71.5 127.6 71.5 128.5 72.1 128.7Z" fill="#FDDF6C"/>
<path d="M30.2 124.1C29.2 125.4 31.4 127.2 32.9 128C31.4 127.6 28.7 127.7 28.6 129.3C28.4 131.5 32.4 130.7 33.5 130.4L34.2 130C33.4 130.9 32.3 135.1 34.4 135.5C36.6 135.9 36.7 131.4 36.2 130.1C37.6 131.3 40.8 134.2 42.7 132.8C42 131.1 39.5 130.1 37.7 129.9C39.1 129.6 44.1 126.7 42.7 124.7C41.6 123.1 38.3 125.9 37.3 127.1C38.2 126 40 121.9 38 121.4C35.9 120.9 35.2 125.6 35.4 126.7C34.8 125.5 31.6 122.3 30.2 124.1Z" fill="#FDDF6C"/>
<path d="M22.7 89.3C24.1 89.7 25.5 89.8 27 89.7C25.5 90.1 19.7 90.9 21.3 93.3C22.5 95.2 26.3 94.1 28.4 92.7C26.7 94.1 24.1 96.5 25.3 97.6C26.3 98.5 28.8 95.1 30.3 92.9C31.3 93.5 33.7 95.8 34.6 95.5C36.2 94.8 32.6 92.5 31.3 91.6C31.3 91.6 31.3 91.6 31.3 91.5C32.6 92 34.4 91.8 35.8 91.1C36.9 90.6 36.5 88.9 35.3 88.9C33.3 88.9 31.9 89.3 30.4 89.8C32.2 89 33.3 87.7 33.8 85.6C34.1 84.3 32.3 83.7 31.7 84.9C31 86.3 30.3 88 29.7 88.8C30.1 87.3 29.7 82.8 28.2 82.8C25.6 82.7 26.9 87.8 27.7 88.7C26.6 88.2 25 87.5 23.4 87.3C21.8 87 21.4 88.9 22.7 89.3Z" fill="#FDDF6C"/>
<path d="M76.4 96.9C76.5 97 76.4 97.1 76.3 97.1C74.6 96.5 72.6 98 73.5 100C74.2 101.4 75.4 101.2 76.6 101.2C76.8 101.2 77.7 100.8 78.3 100.5C78.4 100.5 78.4 100.5 78.5 100.6C78.5 100.6 78.5 100.6 78.5 100.7C78.2 101.2 77.7 103.2 79 104.3H79.1C80.4 103.4 81.1 102.1 80.4 100.8C80.4 100.7 80.5 100.6 80.5 100.7C81.6 101.3 82.9 101.8 84 101.7C84.7 101.6 85 100.8 84.5 100.3C84.1 100 83.8 99.7 83.4 99.5C83.3 99.4 83.3 99.3 83.5 99.3C84.6 99.3 85.5 98.7 86.2 97.8C86.5 97.3 86.4 96.7 86 96.4C85.1 95.8 84 96.2 83.1 97C83 97.1 82.9 97 82.9 96.9C83.6 95.5 84.9 92.8 83.8 92.2C82.2 91.3 80.5 94.3 80 95.8C80 95.9 79.8 95.9 79.8 95.8C78.5 90.7 74.2 94.4 76.4 96.9Z" fill="#FDDF6C"/>
<path d="M79.3 99.5C79.8 99.3 80.2 99 80.5 98.7C80.9 98.2 80.7 97.5 80.1 97.4C79.4 97.2 78.9 97.1 78.4 98C78.4 98 78 98.4 78.2 98.7C78.6 99.1 78.6 99.2 79.3 99.5Z" fill="#FDDF6C"/>
</g>
<g clip-path="url(#clip2)">
<path d="M120.09 177.568C120.635 176.126 121.33 174.749 122.156 173.447C122.586 172.771 123.039 172.093 123.568 171.491C123.79 171.238 124.023 170.985 124.308 170.808C124.426 170.732 124.452 170.711 124.582 170.671C124.635 170.655 124.87 170.645 124.842 170.635C125.298 170.719 125.689 171.232 125.977 171.71C126.394 172.401 126.738 173.144 127.014 173.903C127.624 175.582 127.93 177.328 127.929 179.115C127.929 179.621 128.245 180.096 128.702 180.284C129.207 180.491 129.662 180.357 130.074 180.02C131.257 179.055 132.558 178.092 134.082 177.812C135.032 177.637 136.329 177.91 136.983 178.79V178.791C136.983 178.801 137.118 179.029 137.141 179.075C137.194 179.188 137.23 179.305 137.263 179.425C137.373 179.817 137.406 180.206 137.426 180.613C137.473 181.557 137.473 182.505 137.438 183.45C137.369 185.306 137.16 187.165 136.762 188.979C136.741 189.075 136.702 189.244 136.678 189.334C136.716 189.329 136.746 189.321 136.764 189.311C136.731 189.329 136.677 189.345 136.665 189.383C136.668 189.374 136.673 189.356 136.679 189.334C136.469 189.361 136 189.326 135.751 189.326C135.006 189.326 134.26 189.325 133.513 189.325C133.391 189.813 133.261 190.299 133.125 190.783C132.959 191.375 132.048 191.121 132.216 190.527C132.329 190.128 132.438 189.727 132.54 189.324C130.694 189.324 128.851 189.324 127.006 189.324C125.633 189.324 124.259 189.324 122.886 189.324C122.886 189.844 122.886 190.364 122.886 190.884C122.886 191.502 121.944 191.501 121.944 190.884C121.944 190.364 121.944 189.844 121.944 189.324C121.226 189.324 120.508 189.324 119.79 189.324C119.708 189.819 118.946 189.819 118.864 189.324C117.957 189.324 117.052 189.323 116.146 189.323C116.075 189.809 115.322 189.97 115.235 189.419C115.23 189.387 115.224 189.354 115.22 189.323C114.633 189.323 114.045 189.323 113.457 189.323C113.506 189.72 113.556 190.116 113.609 190.512C113.689 191.123 112.746 191.115 112.667 190.512C112.614 190.116 112.564 189.719 112.515 189.323C111.131 189.323 109.744 189.323 108.359 189.322C108.389 189.483 108.423 189.643 108.462 189.802C108.607 190.401 107.699 190.655 107.553 190.056C107.493 189.812 107.443 189.568 107.403 189.321C106.925 189.321 106.447 189.321 105.969 189.321C106.037 189.636 106.132 189.945 106.264 190.245C106.512 190.805 105.699 191.291 105.451 190.729C105.247 190.268 105.115 189.797 105.031 189.32C104.211 189.32 103.391 189.32 102.571 189.32C102.604 189.791 102.649 190.259 102.705 190.721C102.764 191.206 102.42 191.643 101.997 191.858C102.069 191.87 102.145 191.877 102.226 191.877C110.833 191.879 119.439 191.88 128.047 191.881C130.163 191.881 132.28 191.881 134.397 191.882C135.379 191.882 136.489 192.022 137.449 191.766C138.492 191.488 138.997 190.557 139.206 189.558C139.648 187.452 139.9 185.293 139.96 183.142C140.013 181.283 140.175 178.954 139.051 177.363C137.928 175.773 135.914 175.034 134.03 175.255C132.647 175.417 131.423 175.986 130.285 176.727C130.39 177.518 130.442 178.319 130.442 179.114C129.728 178.814 129.013 178.512 128.298 178.21C128.939 177.688 129.596 177.175 130.285 176.727C130.164 175.811 129.971 174.905 129.704 174.027C129.224 172.443 128.548 170.798 127.503 169.51C126.403 168.159 124.651 167.663 123.109 168.556C121.712 169.366 120.728 170.968 119.887 172.313C119.605 172.766 119.337 173.23 119.087 173.703C119.403 174.958 119.663 176.227 119.866 177.508L120.09 177.568Z" fill="#63350F"/>
<path d="M104.879 185.612C104.867 184.994 105.809 184.996 105.821 185.612C105.847 186.829 105.711 188.12 105.97 189.323C106.448 189.323 106.926 189.323 107.403 189.323C107.282 188.591 107.244 187.852 107.295 187.105C107.337 186.492 108.279 186.489 108.237 187.105C108.186 187.857 108.223 188.592 108.359 189.323C109.743 189.324 111.129 189.324 112.514 189.324C111.952 184.769 111.588 180.192 111.426 175.603C111.404 174.985 112.346 174.989 112.368 175.603C112.53 180.192 112.895 184.769 113.457 189.324C114.044 189.324 114.632 189.324 115.219 189.324C115.129 188.708 115.098 188.099 115.148 187.478C115.197 186.867 116.139 186.862 116.09 187.478C116.045 188.042 116.055 188.605 116.143 189.164C116.152 189.221 116.152 189.275 116.145 189.324C117.052 189.324 117.957 189.325 118.863 189.325C118.857 189.296 118.855 189.267 118.855 189.234C118.855 188.737 118.855 188.24 118.855 187.743C118.855 187.126 119.797 187.126 119.797 187.743C119.797 188.239 119.797 188.737 119.797 189.234C119.797 189.266 119.795 189.296 119.789 189.325C120.508 189.325 121.225 189.325 121.944 189.325C121.944 185.495 121.944 181.668 121.944 177.839C121.944 177.222 122.886 177.223 122.886 177.839C122.886 181.668 122.886 185.496 122.886 189.325C124.259 189.325 125.633 189.326 127.006 189.326C128.851 189.326 130.695 189.326 132.539 189.326C133.101 187.145 133.53 184.928 133.809 182.689C133.885 182.085 134.827 182.079 134.751 182.689C134.472 184.928 134.062 187.141 133.513 189.326C134.259 189.326 135.005 189.327 135.751 189.327C135.999 189.327 136.469 189.362 136.678 189.334C136.702 189.245 136.742 189.076 136.762 188.98C137.161 187.166 137.37 185.307 137.438 183.451C137.473 182.506 137.473 181.558 137.426 180.614C137.406 180.207 137.373 179.819 137.263 179.426C137.229 179.305 137.194 179.189 137.141 179.076C137.118 179.03 136.984 178.801 136.984 178.792V178.791C136.329 177.91 135.032 177.638 134.082 177.813C132.558 178.093 131.256 179.055 130.074 180.021C129.662 180.357 129.207 180.492 128.702 180.285C128.245 180.097 127.93 179.622 127.93 179.116C127.93 177.328 127.624 175.583 127.014 173.904C126.739 173.145 126.394 172.401 125.977 171.711C125.688 171.232 125.298 170.719 124.842 170.636C124.871 170.647 124.635 170.656 124.582 170.672C124.453 170.711 124.427 170.733 124.308 170.809C124.023 170.986 123.79 171.239 123.568 171.492C123.04 172.094 122.586 172.772 122.156 173.448C121.33 174.749 120.635 176.126 120.09 177.569C120.012 177.775 119.938 177.983 119.866 178.191C119.682 178.725 119.232 179.13 118.655 179.13C118.147 179.13 117.53 178.737 117.443 178.191C117.408 177.971 117.372 177.751 117.333 177.532C116.961 175.4 116.434 173.299 115.744 171.25C115.48 170.468 115.251 169.467 114.776 168.806C114.686 168.681 114.648 168.669 114.496 168.589C114.54 168.619 114.433 168.581 114.391 168.567C114.356 168.563 114.311 168.557 114.3 168.556C114.03 168.547 113.76 168.599 113.515 168.698C112.192 169.232 111.224 170.7 110.683 172.024C110.073 173.516 109.845 175.118 109.832 176.729C109.818 178.788 109.998 180.797 109.09 182.71C108.701 183.531 107.698 183.431 107.117 182.969C106.505 182.485 106.084 181.807 105.689 181.139C105.418 180.678 105.129 180.135 104.71 179.851C104.635 179.801 104.51 179.741 104.475 179.724C104.543 179.712 104.498 179.709 104.339 179.716C104.362 179.709 104.38 179.705 104.391 179.701C104.38 179.704 104.366 179.706 104.347 179.711C104.308 179.719 104.269 179.728 104.231 179.741C104.224 179.746 104.208 179.756 104.179 179.771C104.125 179.807 104.111 179.813 104.136 179.788C104.083 179.834 104.031 179.883 103.982 179.935C103.744 180.181 103.505 180.697 103.376 181.103C102.55 183.704 102.369 186.575 102.57 189.322C103.391 189.322 104.21 189.322 105.031 189.322C104.818 188.112 104.905 186.86 104.879 185.612ZM136.092 186.589C136.283 186.404 136.567 186.41 136.758 186.589C136.943 186.76 136.937 187.092 136.758 187.266C136.736 187.286 136.717 187.307 136.698 187.329C136.702 187.322 136.705 187.317 136.708 187.313C136.703 187.32 136.699 187.326 136.693 187.336C136.685 187.348 136.65 187.419 136.639 187.438C136.639 187.439 136.638 187.439 136.639 187.441C136.634 187.457 136.625 187.49 136.619 187.514C136.626 187.506 136.612 187.615 136.613 187.637C136.621 187.905 136.39 188.104 136.142 188.116C135.881 188.127 135.679 187.887 135.67 187.637C135.657 187.245 135.815 186.858 136.092 186.589ZM130.579 182.471C130.579 182.341 130.632 182.226 130.717 182.133C130.803 182.038 130.929 181.998 131.05 181.992C131.167 181.987 131.302 182.049 131.383 182.133C131.469 182.219 131.521 182.348 131.521 182.471C131.521 182.56 131.521 182.648 131.521 182.737C131.521 182.867 131.468 182.982 131.383 183.075C131.297 183.169 131.171 183.211 131.05 183.216C130.933 183.221 130.799 183.159 130.717 183.075C130.631 182.988 130.579 182.86 130.579 182.737C130.579 182.648 130.579 182.56 130.579 182.471ZM128.447 188.254C128.468 188.112 128.488 187.971 128.51 187.829C128.529 187.709 128.63 187.606 128.726 187.542C128.832 187.472 128.968 187.466 129.089 187.495C129.201 187.521 129.312 187.615 129.371 187.715C129.439 187.834 129.438 187.952 129.417 188.084C129.396 188.225 129.376 188.367 129.354 188.508C129.335 188.628 129.234 188.732 129.138 188.795C129.032 188.865 128.896 188.871 128.775 188.843C128.663 188.817 128.551 188.723 128.493 188.623C128.424 188.503 128.427 188.387 128.447 188.254ZM125.973 177.466C125.973 176.848 126.915 176.849 126.915 177.466C126.915 180.98 126.915 184.495 126.915 188.009C126.915 188.627 125.973 188.626 125.973 188.009C125.973 184.495 125.973 180.981 125.973 177.466ZM118.332 181.46C118.332 181.33 118.385 181.215 118.47 181.122C118.555 181.027 118.681 180.987 118.803 180.981C118.92 180.976 119.054 181.038 119.135 181.122C119.221 181.208 119.274 181.337 119.274 181.46C119.274 181.53 119.274 181.602 119.274 181.674C119.274 181.804 119.221 181.919 119.135 182.012C119.051 182.105 118.924 182.147 118.803 182.153C118.686 182.158 118.551 182.095 118.47 182.012C118.384 181.924 118.332 181.796 118.332 181.674C118.332 181.601 118.332 181.53 118.332 181.46ZM113.57 171.449C113.584 171.18 113.774 170.981 114.041 170.969C114.286 170.958 114.526 171.197 114.512 171.449C114.499 171.679 114.508 171.906 114.547 172.12C114.595 172.376 114.48 172.636 114.218 172.71C113.987 172.774 113.687 172.629 113.638 172.375C113.581 172.069 113.552 171.76 113.57 171.449ZM110.272 184.921C110.272 184.791 110.325 184.676 110.411 184.582C110.495 184.487 110.622 184.447 110.743 184.442C110.86 184.437 110.995 184.499 111.076 184.582C111.162 184.668 111.214 184.798 111.214 184.921C111.214 184.938 111.214 184.956 111.214 184.974C111.214 185.104 111.161 185.219 111.076 185.313C110.991 185.406 110.865 185.448 110.743 185.454C110.626 185.459 110.492 185.396 110.411 185.313C110.325 185.225 110.272 185.097 110.272 184.974C110.272 184.956 110.272 184.938 110.272 184.921Z" fill="#60B95D"/>
<path d="M136.141 188.115C136.39 188.103 136.621 187.904 136.612 187.636C136.612 187.614 136.625 187.505 136.619 187.513C136.626 187.489 136.634 187.456 136.639 187.44C136.635 187.444 136.635 187.444 136.638 187.435C136.639 187.432 136.639 187.431 136.64 187.431C136.64 187.433 136.64 187.435 136.639 187.438C136.651 187.419 136.685 187.349 136.694 187.336C136.7 187.326 136.704 187.32 136.708 187.313C136.706 187.317 136.703 187.323 136.698 187.329C136.717 187.306 136.737 187.286 136.759 187.266C136.938 187.093 136.943 186.76 136.759 186.589C136.567 186.41 136.284 186.404 136.092 186.589C135.814 186.858 135.658 187.245 135.67 187.636C135.678 187.886 135.88 188.127 136.141 188.115ZM136.64 187.426C136.64 187.426 136.64 187.426 136.639 187.427C136.639 187.427 136.64 187.426 136.64 187.426Z" fill="#63350F"/>
<path d="M136.764 189.312C136.746 189.322 136.716 189.329 136.678 189.334C136.673 189.357 136.667 189.374 136.664 189.384C136.677 189.346 136.731 189.33 136.764 189.312Z" fill="#63350F"/>
<path d="M136.637 187.435C136.634 187.444 136.634 187.444 136.638 187.44C136.637 187.439 136.638 187.439 136.638 187.437C136.639 187.434 136.639 187.432 136.639 187.43C136.638 187.431 136.638 187.432 136.637 187.435Z" fill="#63350F"/>
<path d="M133.809 182.689C133.53 184.928 133.101 187.145 132.539 189.326C132.637 189.326 132.737 189.326 132.836 189.326C133.062 189.326 133.287 189.326 133.513 189.326C134.062 187.141 134.472 184.928 134.752 182.689C134.826 182.079 133.884 182.085 133.809 182.689Z" fill="#63350F"/>
<path d="M132.539 189.326C132.437 189.729 132.329 190.129 132.216 190.529C132.049 191.123 132.958 191.376 133.124 190.785C133.26 190.3 133.39 189.814 133.512 189.327C133.286 189.327 133.061 189.327 132.835 189.327C132.737 189.326 132.638 189.326 132.539 189.326Z" fill="#63350F"/>
<path d="M131.05 183.217C131.171 183.212 131.298 183.17 131.383 183.076C131.467 182.983 131.521 182.868 131.521 182.738C131.521 182.649 131.521 182.56 131.521 182.472C131.521 182.349 131.469 182.219 131.383 182.134C131.301 182.05 131.167 181.988 131.05 181.993C130.929 181.998 130.802 182.039 130.717 182.134C130.632 182.227 130.579 182.342 130.579 182.472C130.579 182.56 130.579 182.649 130.579 182.738C130.579 182.86 130.631 182.99 130.717 183.076C130.799 183.16 130.933 183.222 131.05 183.217Z" fill="#63350F"/>
<path d="M130.441 179.115C130.441 178.32 130.39 177.52 130.284 176.729C129.595 177.178 128.938 177.689 128.297 178.213C129.013 178.514 129.728 178.815 130.441 179.115Z" fill="#63350F"/>
<path d="M128.775 188.843C128.895 188.871 129.031 188.866 129.138 188.796C129.235 188.733 129.336 188.63 129.354 188.509C129.375 188.367 129.396 188.226 129.417 188.085C129.437 187.953 129.439 187.835 129.371 187.716C129.313 187.616 129.201 187.521 129.089 187.496C128.968 187.468 128.832 187.473 128.726 187.543C128.629 187.607 128.528 187.709 128.51 187.83C128.488 187.972 128.468 188.113 128.446 188.255C128.427 188.387 128.424 188.504 128.494 188.623C128.551 188.723 128.663 188.818 128.775 188.843Z" fill="#63350F"/>
<path d="M126.915 188.01C126.915 184.496 126.915 180.981 126.915 177.467C126.915 176.85 125.973 176.849 125.973 177.467C125.973 180.981 125.973 184.496 125.973 188.01C125.973 188.626 126.915 188.628 126.915 188.01Z" fill="#63350F"/>
<path d="M121.943 190.885C121.943 191.501 122.885 191.502 122.885 190.885C122.885 190.365 122.885 189.844 122.885 189.324C122.572 189.324 122.257 189.324 121.943 189.324C121.943 189.844 121.943 190.365 121.943 190.885Z" fill="#63350F"/>
<path d="M121.943 177.838C121.943 181.667 121.943 185.495 121.943 189.324C122.257 189.324 122.572 189.324 122.885 189.324C122.885 185.494 122.885 181.667 122.885 177.838C122.885 177.222 121.943 177.221 121.943 177.838Z" fill="#63350F"/>
<path d="M118.654 179.129C119.231 179.129 119.681 178.725 119.865 178.19C119.937 177.982 120.012 177.773 120.089 177.568L119.865 177.511C119.057 177.511 118.249 177.511 117.442 177.511L117.332 177.531C117.37 177.75 117.407 177.969 117.442 178.19C117.529 178.735 118.146 179.129 118.654 179.129Z" fill="#63350F"/>
<path d="M119.865 177.511C119.662 176.231 119.402 174.961 119.086 173.706C118.437 174.925 117.892 176.202 117.442 177.511C118.25 177.511 119.057 177.511 119.865 177.511Z" fill="#63350F"/>
<path d="M119.797 187.743C119.797 187.126 118.855 187.126 118.855 187.743C118.855 188.239 118.855 188.737 118.855 189.234C118.855 189.266 118.858 189.296 118.863 189.325C119.172 189.325 119.48 189.325 119.789 189.325C119.796 189.296 119.797 189.267 119.797 189.234C119.797 188.737 119.797 188.24 119.797 187.743Z" fill="#63350F"/>
<path d="M119.789 189.325C119.48 189.325 119.172 189.325 118.863 189.325C118.945 189.821 119.707 189.821 119.789 189.325Z" fill="#63350F"/>
<path d="M118.803 182.152C118.924 182.147 119.051 182.105 119.135 182.011C119.22 181.918 119.274 181.803 119.274 181.673C119.274 181.601 119.274 181.53 119.274 181.459C119.274 181.336 119.221 181.207 119.135 181.121C119.053 181.038 118.92 180.975 118.803 180.98C118.681 180.985 118.554 181.026 118.47 181.121C118.385 181.214 118.332 181.329 118.332 181.459C118.332 181.529 118.332 181.601 118.332 181.673C118.332 181.795 118.384 181.924 118.47 182.011C118.552 182.094 118.685 182.157 118.803 182.152Z" fill="#63350F"/>
<path d="M101.45 191.999C101.631 191.999 101.822 191.948 101.999 191.858C100.612 191.63 100.69 189.321 102.227 189.321C102.342 189.321 102.457 189.321 102.572 189.321C102.372 186.575 102.553 183.703 103.378 181.103C103.507 180.696 103.745 180.18 103.985 179.934C104.034 179.881 104.085 179.833 104.139 179.787C104.143 179.784 104.148 179.779 104.154 179.773C104.158 179.77 104.162 179.766 104.166 179.762L104.167 179.761C104.222 179.739 104.244 179.731 104.234 179.74C104.271 179.727 104.31 179.717 104.349 179.71C104.368 179.706 104.383 179.702 104.393 179.7C104.382 179.703 104.364 179.707 104.341 179.714C104.5 179.707 104.546 179.711 104.478 179.722C104.512 179.739 104.638 179.8 104.712 179.85C105.132 180.133 105.421 180.677 105.692 181.138C106.085 181.805 106.507 182.484 107.119 182.967C107.7 183.428 108.703 183.528 109.092 182.709C110 180.796 109.821 178.786 109.835 176.727C109.846 175.116 110.076 173.514 110.685 172.022C111.227 170.699 112.194 169.23 113.518 168.696C113.763 168.597 114.033 168.546 114.303 168.555C114.313 168.556 114.358 168.561 114.394 168.566C114.39 168.565 114.386 168.563 114.384 168.562C114.399 168.565 114.409 168.566 114.417 168.567C114.411 168.567 114.403 168.566 114.394 168.565C114.435 168.579 114.542 168.616 114.499 168.586C114.652 168.666 114.689 168.678 114.779 168.804C115.253 169.465 115.482 170.467 115.746 171.248C116.436 173.297 116.964 175.398 117.335 177.529L117.445 177.509C117.895 176.201 118.441 174.924 119.089 173.704C118.831 172.681 118.535 171.665 118.2 170.663C117.853 169.627 117.534 168.438 116.944 167.514C116.333 166.559 115.351 166.007 114.231 165.999C112.146 165.987 110.434 167.571 109.328 169.22C108.224 170.868 107.688 172.837 107.447 174.795C107.308 175.921 107.323 177.039 107.343 178.171C107.348 178.452 107.354 178.739 107.351 179.027C107.407 179.106 107.46 179.185 107.512 179.266C107.946 179.941 108.256 180.654 108.895 181.16C108.238 181.247 107.579 181.333 106.922 181.418C107.272 180.681 107.344 179.847 107.351 179.026C106.852 178.309 106.232 177.693 105.411 177.365C103.73 176.693 102.133 177.787 101.398 179.309C100.6 180.959 100.351 182.909 100.153 184.716C99.9344 186.713 99.9541 188.727 100.194 190.721C100.275 191.406 100.712 191.999 101.45 191.999Z" fill="#63350F"/>
<path d="M116.143 189.164C116.056 188.605 116.046 188.042 116.091 187.478C116.14 186.862 115.198 186.867 115.149 187.478C115.099 188.099 115.129 188.708 115.22 189.324C115.262 189.324 115.303 189.324 115.345 189.324C115.612 189.324 115.879 189.324 116.145 189.324C116.152 189.274 116.152 189.22 116.143 189.164Z" fill="#63350F"/>
<path d="M115.22 189.324C115.224 189.355 115.229 189.388 115.235 189.419C115.322 189.97 116.075 189.809 116.146 189.324C115.879 189.324 115.612 189.324 115.346 189.324C115.303 189.324 115.262 189.324 115.22 189.324Z" fill="#63350F"/>
<path d="M114.218 172.71C114.479 172.636 114.595 172.376 114.547 172.12C114.506 171.906 114.498 171.679 114.511 171.449C114.525 171.197 114.285 170.958 114.04 170.969C113.773 170.981 113.584 171.18 113.569 171.449C113.553 171.76 113.581 172.069 113.638 172.374C113.686 172.629 113.987 172.773 114.218 172.71Z" fill="#63350F"/>
<path d="M112.667 190.513C112.746 191.116 113.689 191.124 113.609 190.513C113.556 190.117 113.506 189.72 113.457 189.324C113.143 189.324 112.829 189.324 112.515 189.324C112.564 189.721 112.614 190.117 112.667 190.513Z" fill="#63350F"/>
<path d="M111.426 175.603C111.588 180.192 111.953 184.769 112.515 189.324C112.829 189.324 113.143 189.324 113.457 189.324C112.895 184.769 112.531 180.192 112.368 175.603C112.346 174.989 111.404 174.985 111.426 175.603Z" fill="#63350F"/>
<path d="M110.743 185.454C110.864 185.449 110.991 185.407 111.076 185.313C111.16 185.219 111.214 185.104 111.214 184.974C111.214 184.956 111.214 184.938 111.214 184.921C111.214 184.798 111.162 184.668 111.076 184.582C110.994 184.499 110.86 184.437 110.743 184.442C110.622 184.447 110.495 184.487 110.411 184.582C110.325 184.676 110.272 184.791 110.272 184.921C110.272 184.938 110.272 184.956 110.272 184.974C110.272 185.097 110.325 185.226 110.411 185.313C110.492 185.396 110.626 185.459 110.743 185.454Z" fill="#63350F"/>
<path d="M108.893 181.162C108.255 180.656 107.945 179.942 107.511 179.268C107.458 179.187 107.405 179.107 107.349 179.029C107.343 179.85 107.27 180.682 106.92 181.421C107.578 181.334 108.236 181.248 108.893 181.162Z" fill="#63350F"/>
<path d="M107.554 190.058C107.7 190.656 108.608 190.403 108.462 189.804C108.424 189.644 108.389 189.484 108.36 189.324C108.042 189.324 107.723 189.324 107.404 189.324C107.443 189.569 107.494 189.814 107.554 190.058Z" fill="#63350F"/>
<path d="M108.238 187.104C108.28 186.488 107.338 186.491 107.296 187.104C107.244 187.852 107.282 188.591 107.404 189.322C107.722 189.322 108.041 189.322 108.36 189.322C108.225 188.591 108.187 187.857 108.238 187.104Z" fill="#63350F"/>
<path d="M105.452 190.731C105.7 191.293 106.512 190.806 106.265 190.247C106.133 189.947 106.038 189.638 105.97 189.323C105.657 189.323 105.345 189.323 105.032 189.322C105.116 189.799 105.248 190.27 105.452 190.731Z" fill="#63350F"/>
<path d="M105.821 185.612C105.809 184.996 104.867 184.994 104.879 185.612C104.905 186.86 104.818 188.112 105.032 189.321C105.345 189.322 105.657 189.322 105.97 189.322C105.711 188.12 105.847 186.83 105.821 185.612Z" fill="#63350F"/>
<path d="M104.166 179.762C104.188 179.755 104.211 179.747 104.233 179.741C104.243 179.732 104.22 179.74 104.166 179.762Z" fill="#63350F"/>
<path d="M104.18 179.771C104.208 179.756 104.226 179.746 104.233 179.741C104.211 179.747 104.188 179.755 104.166 179.762L104.165 179.763C104.161 179.767 104.157 179.771 104.153 179.774C104.147 179.779 104.142 179.785 104.138 179.788C104.112 179.812 104.126 179.807 104.18 179.771Z" fill="#63350F"/>
<path d="M102.705 190.722C102.649 190.26 102.604 189.793 102.571 189.322C102.455 189.322 102.34 189.322 102.225 189.322C100.688 189.322 100.609 191.631 101.996 191.86C102.421 191.644 102.764 191.208 102.705 190.722Z" fill="#63350F"/>
</g>
<path d="M54.9327 202.455C54.5235 201.4 54.0025 200.394 53.3832 199.443C53.0606 198.949 52.7208 198.453 52.3239 198.014C52.1574 197.828 51.9823 197.644 51.7691 197.514C51.6806 197.459 51.661 197.444 51.5633 197.414C51.524 197.403 51.3476 197.395 51.3685 197.388C51.0263 197.45 50.7332 197.824 50.5169 198.174C50.2042 198.678 49.9462 199.222 49.7397 199.776C49.282 201.003 49.0522 202.279 49.0528 203.585C49.0528 203.955 48.8162 204.302 48.4734 204.439C48.0949 204.59 47.7533 204.492 47.4443 204.246C46.557 203.541 45.5814 202.837 44.4385 202.633C43.7258 202.505 42.7532 202.704 42.2623 203.348V203.348C42.2623 203.356 42.1615 203.522 42.1443 203.556C42.1044 203.638 42.0774 203.723 42.0528 203.811C41.9704 204.098 41.9453 204.383 41.9305 204.68C41.8955 205.369 41.8955 206.062 41.9213 206.753C41.9729 208.109 42.1296 209.467 42.4282 210.793C42.4442 210.863 42.4737 210.987 42.4915 211.052C42.4632 211.049 42.4405 211.043 42.427 211.036C42.4515 211.049 42.4921 211.061 42.5013 211.088C42.4988 211.082 42.4952 211.069 42.4909 211.052C42.6481 211.072 43.0002 211.047 43.1864 211.047C43.7455 211.047 44.3052 211.046 44.865 211.046C44.9565 211.403 45.0542 211.758 45.1562 212.112C45.2809 212.544 45.9635 212.359 45.8376 211.925C45.7528 211.633 45.6717 211.34 45.5949 211.046C46.9792 211.046 48.3616 211.046 49.7452 211.046C50.775 211.046 51.8054 211.045 52.8351 211.045C52.8351 211.425 52.8351 211.805 52.8351 212.185C52.8351 212.637 53.5417 212.636 53.5417 212.185C53.5417 211.805 53.5417 211.425 53.5417 211.045C54.0805 211.045 54.6188 211.045 55.1576 211.045C55.2191 211.407 55.7905 211.407 55.8519 211.045C56.5321 211.045 57.211 211.044 57.8905 211.044C57.9434 211.399 58.5086 211.517 58.5738 211.114C58.5774 211.091 58.5817 211.068 58.5848 211.044C59.0254 211.044 59.4665 211.044 59.907 211.044C59.8702 211.335 59.8327 211.624 59.7934 211.914C59.7332 212.36 60.4403 212.354 60.4999 211.914C60.5393 211.624 60.5767 211.334 60.6136 211.044C61.652 211.044 62.6916 211.044 63.7305 211.044C63.7084 211.161 63.6826 211.278 63.6537 211.395C63.5444 211.833 64.2258 212.018 64.3351 211.58C64.38 211.402 64.4174 211.223 64.4476 211.043C64.8064 211.043 65.1646 211.043 65.5228 211.043C65.4718 211.273 65.4005 211.499 65.3016 211.719C65.116 212.127 65.7255 212.483 65.9117 212.072C66.0647 211.735 66.1636 211.391 66.2263 211.043C66.8419 211.043 67.4563 211.043 68.072 211.043C68.0468 211.387 68.013 211.728 67.9712 212.066C67.927 212.421 68.185 212.74 68.5021 212.897C68.448 212.906 68.3915 212.911 68.3307 212.911C61.875 212.913 55.4206 212.913 48.9649 212.914C47.3773 212.914 45.7896 212.914 44.202 212.914C43.4653 212.914 42.6334 213.017 41.9133 212.83C41.1312 212.627 40.7521 211.946 40.5954 211.216C40.2642 209.678 40.075 208.1 40.0295 206.528C39.9902 205.169 39.8685 203.467 40.7115 202.305C41.5539 201.143 43.0641 200.603 44.4773 200.764C45.515 200.883 46.4329 201.299 47.2864 201.84C47.2071 202.418 47.1684 203.003 47.1684 203.584C47.7035 203.365 48.2399 203.144 48.7763 202.924C48.2958 202.542 47.8031 202.167 47.2864 201.839C47.3767 201.171 47.5217 200.509 47.722 199.867C48.082 198.709 48.5889 197.507 49.3729 196.566C50.1975 195.578 51.5117 195.216 52.668 195.869C53.7162 196.46 54.4541 197.631 55.0845 198.614C55.2965 198.946 55.4968 199.284 55.6848 199.63C55.4476 200.547 55.2528 201.475 55.1005 202.41L54.9327 202.455Z" fill="#63350F"/>
<path d="M66.3404 208.333C66.3497 207.881 65.6431 207.882 65.6339 208.333C65.6148 209.222 65.7168 210.165 65.5227 211.044C65.1638 211.044 64.8056 211.044 64.4474 211.044C64.5384 210.51 64.5666 209.969 64.5285 209.424C64.4972 208.976 63.7906 208.973 63.822 209.424C63.8607 209.973 63.8324 210.51 63.731 211.044C62.6927 211.045 61.6531 211.045 60.6141 211.045C61.0356 207.717 61.309 204.372 61.4307 201.018C61.4472 200.567 60.7407 200.57 60.7241 201.018C60.6024 204.372 60.329 207.717 59.9075 211.045C59.467 211.045 59.0258 211.045 58.5853 211.045C58.6535 210.595 58.6762 210.15 58.6388 209.696C58.6019 209.25 57.8953 209.246 57.9322 209.696C57.966 210.108 57.9586 210.52 57.8929 210.929C57.8861 210.97 57.8861 211.01 57.891 211.046C57.2109 211.046 56.5319 211.046 55.8524 211.046C55.8573 211.025 55.8585 211.004 55.8585 210.98C55.8585 210.616 55.8585 210.253 55.8585 209.89C55.8585 209.439 55.152 209.439 55.152 209.89C55.152 210.253 55.152 210.616 55.152 210.98C55.152 211.003 55.1538 211.025 55.1581 211.046C54.6193 211.046 54.081 211.046 53.5422 211.046C53.5422 208.247 53.5422 205.45 53.5422 202.653C53.5422 202.201 52.8356 202.202 52.8356 202.653C52.8356 205.45 52.8356 208.248 52.8356 211.046C51.8059 211.046 50.7755 211.047 49.7457 211.047C48.3615 211.047 46.979 211.047 45.5954 211.047C45.1739 209.453 44.8525 207.833 44.643 206.196C44.5865 205.755 43.8799 205.751 43.9364 206.196C44.146 207.833 44.4538 209.45 44.8654 211.047C44.3057 211.047 43.746 211.047 43.1869 211.047C43.0007 211.047 42.648 211.073 42.4913 211.053C42.4735 210.988 42.4434 210.864 42.4281 210.794C42.1288 209.468 41.9728 208.11 41.9212 206.753C41.8954 206.063 41.8954 205.37 41.9304 204.68C41.9451 204.383 41.9703 204.099 42.0526 203.812C42.0778 203.724 42.1043 203.639 42.1442 203.557C42.1614 203.522 42.2622 203.356 42.2622 203.349V203.348C42.7531 202.704 43.7257 202.505 44.4384 202.633C45.5812 202.838 46.5575 203.541 47.4441 204.247C47.7532 204.493 48.0948 204.591 48.4733 204.44C48.8161 204.303 49.0527 203.956 49.0527 203.586C49.0521 202.279 49.2818 201.004 49.7396 199.777C49.946 199.222 50.2041 198.679 50.5168 198.174C50.7337 197.824 51.0262 197.45 51.3684 197.389C51.3469 197.397 51.5238 197.403 51.5632 197.415C51.6602 197.444 51.6799 197.459 51.769 197.515C51.9828 197.645 52.1573 197.829 52.3238 198.014C52.7201 198.454 53.0605 198.95 53.3831 199.444C54.0024 200.394 54.524 201.4 54.9326 202.455C54.991 202.606 55.0463 202.757 55.1003 202.91C55.2386 203.3 55.5759 203.596 56.0085 203.596C56.3894 203.596 56.8527 203.309 56.9178 202.91C56.9436 202.749 56.9712 202.588 57.0001 202.428C57.2791 200.87 57.6747 199.335 58.1921 197.838C58.3899 197.266 58.562 196.535 58.9177 196.052C58.9853 195.96 59.0136 195.951 59.1278 195.893C59.0947 195.915 59.1751 195.887 59.2065 195.877C59.2329 195.874 59.2667 195.87 59.2747 195.869C59.4774 195.862 59.6796 195.9 59.8633 195.973C60.8556 196.362 61.5818 197.436 61.9879 198.403C62.4451 199.493 62.6165 200.664 62.6257 201.841C62.6361 203.346 62.5016 204.814 63.1824 206.212C63.4742 206.812 64.2262 206.739 64.6625 206.401C65.1208 206.048 65.4373 205.552 65.7328 205.064C65.9362 204.727 66.153 204.33 66.4676 204.123C66.5235 204.087 66.6175 204.042 66.6433 204.03C66.5924 204.021 66.6268 204.019 66.746 204.024C66.7288 204.019 66.7152 204.016 66.7066 204.013C66.7146 204.015 66.7257 204.017 66.7398 204.021C66.7687 204.026 66.7982 204.033 66.8264 204.043C66.832 204.046 66.8443 204.054 66.8658 204.065C66.9063 204.091 66.9168 204.095 66.8977 204.077C66.9377 204.11 66.9764 204.146 67.0132 204.184C67.192 204.364 67.3714 204.741 67.4679 205.038C68.0872 206.938 68.223 209.037 68.0725 211.044C67.4568 211.044 66.8424 211.044 66.2268 211.044C66.3865 210.159 66.3214 209.245 66.3404 208.333ZM42.9313 209.047C42.7875 208.911 42.5749 208.916 42.4311 209.047C42.2929 209.172 42.2972 209.414 42.4311 209.542C42.4477 209.556 42.4625 209.572 42.4766 209.587C42.4735 209.583 42.4711 209.579 42.4692 209.576C42.4723 209.581 42.4754 209.585 42.4803 209.592C42.4864 209.601 42.5122 209.653 42.5208 209.667C42.5208 209.668 42.5214 209.668 42.5208 209.669C42.5245 209.681 42.5313 209.705 42.5356 209.723C42.5307 209.717 42.5411 209.796 42.5405 209.812C42.5343 210.008 42.7076 210.154 42.8938 210.162C43.0892 210.171 43.2409 209.995 43.2471 209.812C43.2569 209.526 43.1389 209.243 42.9313 209.047ZM47.0657 206.037C47.0657 205.942 47.0257 205.858 46.9618 205.79C46.8979 205.721 46.8033 205.692 46.7124 205.687C46.6245 205.684 46.5237 205.729 46.4629 205.79C46.3984 205.854 46.3591 205.947 46.3591 206.037C46.3591 206.102 46.3591 206.167 46.3591 206.232C46.3591 206.327 46.399 206.411 46.4629 206.479C46.5268 206.547 46.6214 206.578 46.7124 206.582C46.8002 206.586 46.901 206.54 46.9618 206.479C47.0263 206.415 47.0657 206.321 47.0657 206.232C47.0657 206.167 47.0657 206.102 47.0657 206.037ZM48.665 210.264C48.649 210.16 48.6336 210.056 48.6177 209.953C48.6035 209.865 48.5273 209.79 48.4555 209.743C48.3756 209.692 48.2736 209.688 48.1833 209.709C48.0991 209.727 48.0155 209.796 47.9719 209.869C47.9203 209.957 47.9215 210.043 47.9369 210.139C47.9529 210.242 47.9682 210.346 47.9842 210.449C47.9983 210.537 48.0745 210.613 48.1464 210.659C48.2263 210.71 48.3283 210.714 48.4186 210.694C48.5028 210.675 48.5863 210.606 48.63 210.533C48.6816 210.446 48.6797 210.36 48.665 210.264ZM50.5199 202.38C50.5199 201.928 49.8133 201.929 49.8133 202.38C49.8133 204.948 49.8133 207.516 49.8133 210.084C49.8133 210.536 50.5199 210.535 50.5199 210.084C50.5199 207.516 50.5199 204.948 50.5199 202.38ZM56.2511 205.299C56.2511 205.204 56.2112 205.12 56.1473 205.051C56.084 204.982 55.9888 204.953 55.8979 204.948C55.81 204.945 55.7092 204.99 55.6484 205.051C55.5839 205.114 55.5446 205.208 55.5446 205.299C55.5446 205.35 55.5446 205.402 55.5446 205.455C55.5446 205.55 55.5845 205.634 55.6484 205.702C55.7117 205.77 55.8069 205.801 55.8979 205.805C55.9857 205.808 56.0865 205.763 56.1473 205.702C56.2118 205.638 56.2511 205.544 56.2511 205.455C56.2511 205.402 56.2511 205.35 56.2511 205.299ZM59.8227 197.983C59.8117 197.786 59.6697 197.641 59.4694 197.632C59.2857 197.624 59.1057 197.799 59.1162 197.983C59.1254 198.151 59.1192 198.317 59.0897 198.473C59.0535 198.66 59.1401 198.851 59.3361 198.904C59.5094 198.951 59.7349 198.845 59.7711 198.659C59.8141 198.436 59.8356 198.21 59.8227 197.983ZM62.2958 207.828C62.2958 207.733 62.2558 207.649 62.1919 207.58C62.1286 207.511 62.0334 207.482 61.9425 207.477C61.8546 207.474 61.7538 207.519 61.693 207.58C61.6285 207.643 61.5892 207.738 61.5892 207.828C61.5892 207.84 61.5892 207.853 61.5892 207.867C61.5892 207.962 61.6291 208.046 61.693 208.114C61.7569 208.182 61.8515 208.213 61.9425 208.217C62.0303 208.221 62.1311 208.175 62.1919 208.114C62.2564 208.05 62.2958 207.956 62.2958 207.867C62.2958 207.853 62.2958 207.84 62.2958 207.828Z" fill="#60B95D"/>
<path d="M42.8939 210.162C42.7078 210.153 42.5345 210.008 42.5407 209.812C42.5413 209.796 42.5314 209.716 42.5357 209.722C42.5308 209.704 42.5247 209.681 42.521 209.668C42.5241 209.671 42.5241 209.671 42.5216 209.665C42.521 209.663 42.521 209.662 42.5198 209.662C42.5198 209.664 42.5198 209.665 42.5204 209.667C42.5118 209.653 42.486 209.602 42.4798 209.592C42.4749 209.585 42.4718 209.581 42.4688 209.576C42.4706 209.579 42.4725 209.583 42.4761 209.587C42.462 209.571 42.4473 209.556 42.4307 209.542C42.2967 209.415 42.2924 209.172 42.4307 209.046C42.5744 208.916 42.787 208.911 42.9308 209.046C43.1391 209.243 43.2565 209.526 43.2472 209.812C43.2411 209.994 43.0899 210.17 42.8939 210.162ZM42.5198 209.658C42.5198 209.658 42.5198 209.659 42.5204 209.659C42.5204 209.659 42.5198 209.659 42.5198 209.658Z" fill="#63350F"/>
<path d="M42.427 211.036C42.4405 211.044 42.4632 211.049 42.4915 211.053C42.4952 211.069 42.4995 211.082 42.502 211.089C42.4921 211.061 42.4516 211.05 42.427 211.036Z" fill="#63350F"/>
<path d="M42.522 209.665C42.5247 209.672 42.5247 209.672 42.5214 209.669C42.522 209.668 42.5214 209.668 42.5214 209.667C42.5207 209.664 42.5207 209.663 42.5207 209.661C42.5214 209.662 42.5214 209.663 42.522 209.665Z" fill="#63350F"/>
<path d="M44.6432 206.196C44.8527 207.833 45.1741 209.453 45.5956 211.047C45.5218 211.047 45.4475 211.047 45.3731 211.047C45.2036 211.047 45.0346 211.047 44.865 211.047C44.4534 209.45 44.1462 207.833 43.936 206.196C43.8801 205.751 44.5867 205.755 44.6432 206.196Z" fill="#63350F"/>
<path d="M45.5955 211.047C45.6723 211.341 45.7534 211.633 45.8382 211.926C45.9635 212.36 45.2815 212.545 45.1568 212.113C45.0548 211.759 44.9571 211.404 44.8656 211.047C45.0351 211.047 45.2041 211.047 45.3737 211.047C45.4474 211.047 45.5218 211.047 45.5955 211.047Z" fill="#63350F"/>
<path d="M46.7124 206.583C46.6214 206.579 46.5262 206.549 46.4629 206.48C46.3996 206.411 46.3591 206.327 46.3591 206.232C46.3591 206.167 46.3591 206.103 46.3591 206.038C46.3591 205.948 46.3984 205.854 46.4629 205.791C46.5243 205.73 46.6245 205.684 46.7124 205.688C46.8033 205.692 46.8985 205.721 46.9618 205.791C47.0257 205.859 47.0656 205.943 47.0656 206.038C47.0656 206.103 47.0656 206.167 47.0656 206.232C47.0656 206.322 47.0263 206.416 46.9618 206.48C46.901 206.541 46.8002 206.586 46.7124 206.583Z" fill="#63350F"/>
<path d="M47.1688 203.585C47.1688 203.004 47.2075 202.419 47.2868 201.841C47.8035 202.169 48.2963 202.543 48.7767 202.926C48.2403 203.145 47.704 203.366 47.1688 203.585Z" fill="#63350F"/>
<path d="M48.4187 210.694C48.3284 210.714 48.2264 210.711 48.1465 210.659C48.074 210.614 47.9978 210.538 47.9843 210.45C47.9683 210.346 47.9529 210.243 47.937 210.14C47.9222 210.044 47.9204 209.957 47.972 209.87C48.015 209.797 48.0992 209.727 48.1833 209.709C48.2737 209.689 48.3757 209.693 48.4555 209.744C48.528 209.791 48.6036 209.865 48.6177 209.953C48.6337 210.057 48.6491 210.161 48.6651 210.264C48.6798 210.36 48.6816 210.446 48.6294 210.533C48.5864 210.606 48.5028 210.675 48.4187 210.694Z" fill="#63350F"/>
<path d="M49.8135 210.085C49.8135 207.517 49.8135 204.948 49.8135 202.38C49.8135 201.93 50.5201 201.929 50.5201 202.38C50.5201 204.948 50.5201 207.517 50.5201 210.085C50.5201 210.535 49.8135 210.536 49.8135 210.085Z" fill="#63350F"/>
<path d="M53.5424 212.186C53.5424 212.637 52.8358 212.637 52.8358 212.186C52.8358 211.806 52.8358 211.426 52.8358 211.046C53.0711 211.046 53.3071 211.046 53.5424 211.046C53.5424 211.426 53.5424 211.806 53.5424 212.186Z" fill="#63350F"/>
<path d="M53.5424 202.652C53.5424 205.45 53.5424 208.247 53.5424 211.046C53.3071 211.046 53.0711 211.046 52.8358 211.046C52.8358 208.247 52.8358 205.45 52.8358 202.652C52.8364 202.201 53.5424 202.201 53.5424 202.652Z" fill="#63350F"/>
<path d="M56.0093 203.595C55.5767 203.595 55.2394 203.3 55.1011 202.909C55.0471 202.757 54.9912 202.605 54.9334 202.455L55.1011 202.413C55.707 202.413 56.3128 202.413 56.9186 202.413L57.0009 202.427C56.972 202.587 56.9444 202.748 56.9186 202.909C56.8535 203.307 56.3902 203.595 56.0093 203.595Z" fill="#63350F"/>
<path d="M55.1011 202.413C55.2535 201.477 55.4482 200.549 55.6854 199.632C56.172 200.523 56.5812 201.456 56.9185 202.413C56.3121 202.413 55.7069 202.413 55.1011 202.413Z" fill="#63350F"/>
<path d="M55.1519 209.89C55.1519 209.439 55.8585 209.439 55.8585 209.89C55.8585 210.253 55.8585 210.616 55.8585 210.98C55.8585 211.003 55.8567 211.025 55.8524 211.046C55.6207 211.046 55.3897 211.046 55.1581 211.046C55.1532 211.025 55.1519 211.004 55.1519 210.98C55.1519 210.616 55.1519 210.253 55.1519 209.89Z" fill="#63350F"/>
<path d="M55.1583 211.046C55.3899 211.046 55.6209 211.046 55.8526 211.046C55.7911 211.409 55.2197 211.409 55.1583 211.046Z" fill="#63350F"/>
<path d="M55.8979 205.804C55.807 205.801 55.7117 205.77 55.6484 205.701C55.5846 205.633 55.5446 205.549 55.5446 205.454C55.5446 205.402 55.5446 205.35 55.5446 205.298C55.5446 205.208 55.5839 205.113 55.6484 205.051C55.7099 204.99 55.81 204.944 55.8979 204.948C55.9888 204.951 56.0841 204.981 56.1474 205.051C56.2113 205.119 56.2512 205.203 56.2512 205.298C56.2512 205.349 56.2512 205.402 56.2512 205.454C56.2512 205.544 56.2119 205.638 56.1474 205.701C56.0859 205.762 55.9858 205.808 55.8979 205.804Z" fill="#63350F"/>
<path d="M68.9122 213C68.7764 213 68.6332 212.963 68.5005 212.897C69.5407 212.73 69.4824 211.043 68.3297 211.043C68.2431 211.043 68.1571 211.043 68.0704 211.043C68.221 209.036 68.0852 206.938 67.4658 205.037C67.3694 204.74 67.1906 204.363 67.0112 204.183C66.9743 204.145 66.9356 204.109 66.8957 204.076C66.8926 204.074 66.8883 204.07 66.884 204.066C66.8815 204.063 66.8785 204.061 66.8754 204.058L66.8748 204.057C66.833 204.041 66.8164 204.035 66.8244 204.041C66.7961 204.032 66.7673 204.025 66.7378 204.019C66.7236 204.016 66.7126 204.014 66.7046 204.012C66.7132 204.014 66.7267 204.017 66.7439 204.022C66.6247 204.017 66.5903 204.02 66.6413 204.028C66.6155 204.041 66.5215 204.085 66.4656 204.122C66.151 204.329 65.9341 204.726 65.7307 205.063C65.4358 205.551 65.1194 206.046 64.6604 206.4C64.2248 206.737 63.4728 206.81 63.1803 206.211C62.4995 204.813 62.6341 203.344 62.6236 201.84C62.615 200.663 62.443 199.492 61.9859 198.401C61.5798 197.434 60.8541 196.361 59.8612 195.971C59.6775 195.899 59.4748 195.861 59.2726 195.868C59.2646 195.868 59.2309 195.872 59.2044 195.876C59.2075 195.875 59.21 195.874 59.2118 195.873C59.2007 195.875 59.1928 195.876 59.1866 195.877C59.1915 195.877 59.1977 195.876 59.2044 195.875C59.1731 195.885 59.0932 195.912 59.1258 195.891C59.0109 195.949 58.9826 195.958 58.9157 196.05C58.5599 196.533 58.3879 197.265 58.19 197.836C57.6727 199.333 57.277 200.868 56.9981 202.426L56.9157 202.411C56.5784 201.455 56.1692 200.522 55.6826 199.631C55.8768 198.883 56.0986 198.14 56.3499 197.408C56.6098 196.651 56.8494 195.782 57.2918 195.107C57.7501 194.409 58.4862 194.006 59.3267 194C60.8904 193.991 62.1739 195.149 63.0034 196.354C63.8316 197.558 64.234 198.997 64.4147 200.428C64.5185 201.251 64.5074 202.068 64.4921 202.895C64.489 203.1 64.4841 203.31 64.4866 203.52C64.4448 203.578 64.4048 203.636 64.3655 203.695C64.0399 204.188 63.8076 204.709 63.3284 205.079C63.8211 205.143 64.3151 205.205 64.8085 205.268C64.5455 204.729 64.4915 204.12 64.4866 203.52C64.8607 202.995 65.3258 202.545 65.9415 202.306C67.2023 201.815 68.3998 202.614 68.9509 203.726C69.5493 204.932 69.7367 206.357 69.8848 207.678C70.0488 209.137 70.0341 210.609 69.8541 212.066C69.7932 212.566 69.4658 213 68.9122 213Z" fill="#63350F"/>
<path d="M57.8924 210.929C57.9582 210.52 57.9656 210.108 57.9318 209.696C57.8949 209.246 58.6015 209.25 58.6383 209.696C58.6758 210.15 58.6531 210.595 58.5849 211.045C58.5536 211.045 58.5228 211.045 58.4915 211.045C58.2912 211.045 58.0909 211.045 57.8912 211.045C57.8857 211.009 57.8857 210.969 57.8924 210.929Z" fill="#63350F"/>
<path d="M58.5847 211.045C58.5816 211.068 58.5779 211.092 58.5736 211.115C58.5085 211.518 57.9432 211.4 57.8904 211.045C58.0907 211.045 58.291 211.045 58.4907 211.045C58.5226 211.045 58.5534 211.045 58.5847 211.045Z" fill="#63350F"/>
<path d="M59.3363 198.904C59.1404 198.851 59.0537 198.66 59.09 198.473C59.1201 198.317 59.1262 198.151 59.1164 197.983C59.1059 197.799 59.286 197.624 59.4697 197.632C59.67 197.641 59.8119 197.786 59.823 197.983C59.8352 198.21 59.8144 198.436 59.7713 198.659C59.7351 198.845 59.5096 198.95 59.3363 198.904Z" fill="#63350F"/>
<path d="M60.4999 211.914C60.4403 212.355 59.7331 212.361 59.7933 211.914C59.8326 211.625 59.8701 211.335 59.9069 211.045C60.1423 211.045 60.3782 211.045 60.6135 211.045C60.5767 211.336 60.5392 211.625 60.4999 211.914Z" fill="#63350F"/>
<path d="M61.4302 201.018C61.3085 204.372 61.0351 207.717 60.6136 211.045C60.3783 211.045 60.1424 211.045 59.9071 211.045C60.3285 207.717 60.602 204.372 60.7236 201.018C60.7402 200.57 61.4468 200.567 61.4302 201.018Z" fill="#63350F"/>
<path d="M61.9426 208.217C61.8517 208.213 61.7564 208.183 61.6932 208.114C61.6299 208.046 61.5893 207.962 61.5893 207.867C61.5893 207.853 61.5893 207.84 61.5893 207.828C61.5893 207.738 61.6286 207.643 61.6932 207.58C61.7546 207.519 61.8548 207.474 61.9426 207.477C62.0335 207.481 62.1288 207.511 62.1921 207.58C62.256 207.649 62.2959 207.733 62.2959 207.828C62.2959 207.84 62.2959 207.853 62.2959 207.867C62.2959 207.956 62.2566 208.051 62.1921 208.114C62.1312 208.175 62.0305 208.221 61.9426 208.217Z" fill="#63350F"/>
<path d="M63.3299 205.081C63.8085 204.711 64.0414 204.189 64.367 203.697C64.4064 203.638 64.4463 203.579 64.4881 203.522C64.493 204.122 64.5471 204.73 64.81 205.27C64.3167 205.207 63.8227 205.143 63.3299 205.081Z" fill="#63350F"/>
<path d="M64.3345 211.582C64.2252 212.019 63.5438 211.834 63.6531 211.396C63.682 211.279 63.7078 211.163 63.7299 211.045C63.9683 211.045 64.208 211.045 64.447 211.045C64.4175 211.224 64.3794 211.403 64.3345 211.582Z" fill="#63350F"/>
<path d="M63.8214 209.423C63.7901 208.973 64.4967 208.975 64.528 209.423C64.5667 209.969 64.5384 210.51 64.4469 211.044C64.2085 211.044 63.9689 211.044 63.7299 211.044C63.8312 210.51 63.8595 209.973 63.8214 209.423Z" fill="#63350F"/>
<path d="M65.9111 212.073C65.7249 212.484 65.116 212.129 65.301 211.72C65.3999 211.501 65.4712 211.275 65.5222 211.044C65.7569 211.044 65.991 211.044 66.2257 211.044C66.163 211.392 66.0641 211.736 65.9111 212.073Z" fill="#63350F"/>
<path d="M65.634 208.333C65.6432 207.882 66.3498 207.881 66.3406 208.333C66.3215 209.244 66.3867 210.159 66.2257 211.043C65.991 211.044 65.7569 211.044 65.5222 211.044C65.7169 210.165 65.615 209.223 65.634 208.333Z" fill="#63350F"/>
<path d="M66.8757 204.058C66.8591 204.052 66.8419 204.047 66.8253 204.042C66.8179 204.036 66.8345 204.041 66.8757 204.058Z" fill="#63350F"/>
<path d="M66.8645 204.064C66.8436 204.053 66.8307 204.046 66.8252 204.042C66.8418 204.047 66.859 204.052 66.8756 204.058L66.8762 204.058C66.8793 204.061 66.8823 204.064 66.8848 204.066C66.8897 204.07 66.8934 204.074 66.8965 204.077C66.9161 204.094 66.9057 204.091 66.8645 204.064Z" fill="#63350F"/>
<path d="M67.9711 212.067C68.0129 211.729 68.0467 211.388 68.0718 211.044C68.1585 211.044 68.2445 211.044 68.3311 211.044C69.4838 211.044 69.5428 212.731 68.5025 212.899C68.1843 212.741 67.9268 212.422 67.9711 212.067Z" fill="#63350F"/>
<defs>
<clipPath id="clip0">
<rect width="308.833" height="184" fill="white" transform="translate(65)"/>
</clipPath>
<clipPath id="clip1">
<rect width="103.2" height="151.4" fill="white" transform="translate(0 56)"/>
</clipPath>
<clipPath id="clip2">
<rect width="40" height="26" fill="white" transform="translate(100 166)"/>
</clipPath>
</defs>
</svg>
