<svg width="59" height="44" viewBox="0 0 59 44" fill="none" xmlns="http://www.w3.org/2000/svg">
<g clip-path="url(#clip0)">
<path d="M55.2285 19.6063C52.7089 17.4803 50.5961 16.4252 48.859 16.4252C48.9685 15.3228 49.8293 13.5276 51.4099 11.0551C53.0062 8.58268 54.8998 6.50394 57.0908 4.8189C56.9187 2.70866 55.8388 1.10236 53.8669 0C49.8762 1.22835 46.1203 3.5748 42.5834 7.07087C39.0622 10.5669 36.2608 14.4724 34.2107 18.8189C32.1606 23.1496 31.1277 27.3071 31.1277 31.2598C31.1277 35.2126 32.3797 38.3307 34.8993 40.5984C37.4189 42.8661 40.6428 44 44.5709 44C48.499 44 51.8951 42.3937 54.7277 39.1968C57.5603 36 58.9844 32.4567 58.9844 28.5827C59.0001 24.7244 57.7325 21.7323 55.2285 19.6063Z" fill="#60B5E4"/>
<path d="M24.1634 19.6067C21.6438 17.4807 19.5154 16.4256 17.7782 16.4256C17.8878 15.3232 18.7485 13.528 20.3292 11.0555C21.9255 8.58307 23.7878 6.50433 25.9318 4.81929C25.7597 2.66181 24.6798 1.07126 22.7236 0.0161438C16.7767 1.85866 11.487 6.03189 6.90159 12.4886C2.30053 18.9453 0 24.6776 0 29.6854C0 34.6933 1.26764 38.3311 3.81857 40.5988C6.3695 42.8665 9.60902 44.0004 13.5371 44.0004C17.4653 44.0004 20.8456 42.3941 23.6939 39.1972C26.5265 36.0004 27.9507 32.4571 27.9507 28.5831C27.935 24.7248 26.683 21.7327 24.1634 19.6067Z" fill="#60B5E4"/>
</g>
<defs>
<clipPath id="clip0">
<rect width="59" height="44" fill="white"/>
</clipPath>
</defs>
</svg>
