<svg width="61" height="62" viewBox="0 0 61 62" fill="none" xmlns="http://www.w3.org/2000/svg">
<g clip-path="url(#clip0)">
<path fill-rule="evenodd" clip-rule="evenodd" d="M30.3617 55.1341C30.6032 56.8937 30.7757 57.9288 31.0862 59.7574C30.3272 60.3439 29.1886 60.3439 28.1881 60.3439C26.325 59.1019 26.2905 56.9972 26.601 54.9961C27.36 53.6161 29.4646 54.2716 30.3617 55.1341Z" fill="#F7875F"/>
<path fill-rule="evenodd" clip-rule="evenodd" d="M32.4319 9.28101C31.4313 9.90205 30.1892 10.3851 28.8092 9.86754C28.1191 8.10794 28.4641 6.72787 27.8086 4.79576C29.0507 3.07066 32.1213 3.58819 32.7079 5.07177C32.5354 6.62436 32.7079 7.55591 32.4319 9.28101Z" fill="#F7875F"/>
<path fill-rule="evenodd" clip-rule="evenodd" d="M4.14034 28.4641C5.62392 28.6711 6.62448 28.5331 8.17707 28.4641C8.97061 29.6027 8.8671 30.3617 8.7636 32.2248C8.03906 32.1903 7.55603 32.3628 7.45252 32.9494C6.07245 32.7769 4.86488 33.3979 3.69181 33.2254C3.00177 32.0523 2.79476 31.4658 3.10528 29.6027C3.4503 29.1887 4.17484 29.1887 4.14034 28.4641Z" fill="#F7875F"/>
<path fill-rule="evenodd" clip-rule="evenodd" d="M50.6487 30.7412C51.4768 31.0172 52.9259 30.5687 53.6849 31.0172C54.3749 30.6722 54.72 30.8102 55.7205 30.8792C56.2725 31.1897 56.0655 32.2938 56.7211 32.4663C56.4105 33.3634 56.5141 33.9499 55.9965 34.7779C53.7539 34.985 52.2358 36.2615 50.5107 35.2265C49.6827 33.6394 49.9932 32.2593 50.6487 30.7412Z" fill="#F7875F"/>
<path fill-rule="evenodd" clip-rule="evenodd" d="M26.532 33.6394C26.1869 33.1219 25.9454 32.5699 25.6004 32.0179C25.4969 31.8453 25.3589 31.6383 25.2554 31.4658C24.5653 32.5009 23.3233 33.0874 22.3227 33.743C20.7356 34.778 19.1485 35.6406 17.8375 37.0896C16.8024 38.2282 15.6293 39.5393 15.1118 40.9194C15.3188 41.0919 15.3533 41.5404 15.4913 41.8509C16.1814 41.8164 16.7334 42.1959 17.4579 41.9199C18.7 41.4714 19.4591 39.5048 20.1491 38.6077C22.1502 37.1241 24.6344 35.7096 26.9805 34.226C26.808 34.0535 26.67 33.8465 26.532 33.6394Z" fill="#F7875F"/>
<path fill-rule="evenodd" clip-rule="evenodd" d="M27.3256 27.6705C27.9121 27.8085 28.4987 28.0155 29.1197 28.1535C29.3267 28.188 29.5337 28.257 29.7408 28.2915C29.4992 27.084 29.9478 25.7729 30.1893 24.5998C30.5688 22.7712 31.1208 21.0116 31.0173 19.045C30.9483 17.5269 30.8448 15.7673 30.2583 14.4218C29.9823 14.4563 29.6372 14.1802 29.3267 14.0422C28.8782 14.5598 28.2227 14.6978 27.8776 15.3878C27.3256 16.5609 28.1882 18.493 28.3262 19.6316C27.9467 22.0812 27.1876 24.8413 26.6011 27.5325C26.8426 27.6015 27.0841 27.636 27.3256 27.6705Z" fill="#F7875F"/>
<path fill-rule="evenodd" clip-rule="evenodd" d="M59.2058 35.675C60.5859 33.0529 60.2408 29.4302 60.1373 26.2905C59.8958 25.98 59.6888 25.6004 59.5163 25.2209C59.7233 25.0139 59.6543 24.5654 59.6543 24.1514C59.0333 21.0807 57.8602 18.5966 56.2731 16.4574C54.341 15.4569 53.6165 13.0072 51.8224 12.3172C49.8213 9.10851 45.2325 8.45298 42.6104 5.86533C40.9888 5.45131 39.5052 4.89928 38.2976 4.03673H37.3661C36.9175 3.41569 36.055 3.20868 35.8135 2.34613C33.5363 1.51809 31.7422 0.0345019 29.2236 0C28.43 0 27.464 0.483027 26.6014 0.310518C23.4963 -0.310518 20.0116 1.44908 16.9409 2.31163C16.9064 2.48414 16.9754 2.76016 16.7684 2.76016C13.4562 4.20924 10.42 6.72788 7.86689 9.38453C7.76338 9.86756 8.1429 9.86756 7.86689 10.1436C7.59087 10.1436 7.38386 10.1781 7.24585 10.2816C4.20968 15.1119 1.07 19.3556 0.621478 26.118C0.448969 26.3595 0.414467 26.739 0.172953 26.877C-0.103063 31.0863 -0.172066 34.571 0.793988 38.5732C0.897494 38.8492 1.24251 38.8147 1.41502 39.0217C0.966498 42.1959 3.51964 44.9905 4.34769 47.9232C5.86577 49.5793 7.24585 51.4079 8.48792 53.3055C8.97095 53.409 9.28147 53.616 9.72999 53.754C10.075 54.8926 11.3171 55.1341 11.7311 56.2037C15.1813 57.5838 17.1824 59.8609 21.1156 60.9649C31.0867 62.9316 42.0238 62.1035 47.8546 56.6522C47.6821 56.6177 47.6821 56.4107 47.7166 56.2037C49.4762 56.1692 50.2353 53.823 51.8569 53.133C52.1329 51.9944 53.0989 51.3389 53.6855 50.3728C54.479 49.1308 54.8585 47.5437 55.9971 46.5431V45.6116C57.7912 43.3689 57.8257 40.0223 59.3783 37.7796C58.9988 37.0896 59.5163 36.4341 59.2058 35.675ZM29.3961 3.07067C29.1546 3.5882 28.5681 3.79521 28.016 4.00223C27.533 4.07123 27.602 3.5882 27.257 3.5537C27.602 3.03617 28.6026 3.17418 29.3961 3.07067ZM54.134 39.1942C52.6504 40.7813 52.2364 44.473 50.4423 46.5776C50.3733 46.5086 50.2698 46.4396 50.2008 46.4051C49.6832 47.6817 49.0622 48.9238 48.4067 50.1313C48.3032 50.3383 48.0962 50.4763 47.8546 50.5109C43.0589 57.9288 31.3282 60.9994 22.0472 57.7908C21.8747 57.9633 21.6332 58.0323 21.3226 57.9633C20.0806 57.6183 18.873 57.0662 17.7344 56.4797C16.6304 55.8932 15.4573 55.1686 14.6293 54.1681C14.5948 54.1336 14.5948 54.0991 14.5603 54.0646C14.1117 53.9265 13.6632 53.823 13.3872 53.5125C13.4217 53.3055 13.8357 53.4435 13.8357 53.202C8.97095 49.5448 6.3488 43.7485 4.93422 36.9171C4.76171 36.0545 4.65821 35.2265 4.86522 34.4674C4.10618 32.3628 3.65765 30.0857 4.72721 28.0501C4.72721 27.8431 4.72721 27.6706 4.72721 27.4981C4.34769 27.6016 3.83016 27.36 3.76116 26.946C3.51964 25.6349 4.5547 24.7379 5.07223 23.6338C5.17574 23.4268 5.27924 23.0473 5.38275 22.7713C5.52076 22.4263 5.62426 22.0812 5.76227 21.7707C6.03828 21.0807 6.2798 20.3907 6.52131 19.6661C6.59032 19.4591 6.69382 19.3211 6.83183 19.2521C7.38386 17.734 8.38442 16.2504 9.41947 14.9393C9.62649 13.8353 10.3165 12.8692 11.1101 12.0757C11.5586 11.6272 12.0416 11.2476 12.5592 10.9026C15.4228 7.24541 19.2525 5.2788 24.0138 3.69171V4.34725C24.1173 4.07123 24.3588 3.86422 24.7383 3.82972C26.843 3.72621 28.9476 4.24374 30.8452 5.10629C31.5352 5.41681 32.1908 5.79633 32.8118 6.27935C34.2609 5.86533 36.124 6.72788 36.952 7.38342C37.6421 7.45242 38.5736 7.31441 38.6426 8.00445C41.6098 8.10796 42.2998 10.4886 45.0945 10.7646C45.1635 10.9026 45.267 11.0061 45.267 11.2131C47.7511 11.4546 48.1652 13.7318 50.0283 14.5943C50.6148 16.4229 52.6849 16.7334 53.2714 18.5966C53.306 18.7691 53.5475 18.7346 53.72 18.7346C55.2726 22.1848 55.8591 26.808 55.8591 31.3278C54.962 33.7774 54.203 37.7796 54.134 39.1942Z" fill="#F7875F"/>
<path fill-rule="evenodd" clip-rule="evenodd" d="M31.8799 31.5691C32.0179 31.2931 31.9834 30.9136 31.9834 30.5686C31.9489 30.5341 31.9489 30.4996 31.9144 30.4651C31.9489 30.4306 31.9144 30.3961 31.9144 30.3616C31.8454 30.0511 31.7074 29.775 31.5694 29.5335C31.3624 29.43 31.2934 29.154 31.0864 29.085C30.8794 28.74 30.3963 28.671 30.1203 28.395C29.9478 28.3605 29.7753 28.2915 29.6718 28.1879H29.5683C29.5338 28.1189 29.4303 28.0844 29.3958 28.0154C29.1543 27.9464 28.9472 27.7739 28.7057 27.7739C28.6367 27.7739 28.5332 27.8084 28.4297 27.8084C28.0847 27.7394 27.7397 27.9464 27.3947 28.0154C27.3947 28.0499 27.3947 28.0499 27.3947 28.0499C27.0496 28.188 26.7046 28.464 26.4631 28.74C26.4631 28.809 26.4976 28.7745 26.4631 28.809C26.4286 28.809 26.4286 28.809 26.3941 28.809C26.0836 29.3265 25.7386 29.775 25.7041 30.4996C25.6696 30.5341 25.6696 30.5686 25.6696 30.5686C25.6351 31.0171 25.6351 31.3966 25.7386 31.8107C25.7386 31.8452 25.7731 31.8452 25.8076 31.8452C25.7731 32.1902 26.0146 32.4662 26.1181 32.7767C26.2906 32.9492 26.4286 33.1562 26.5666 33.3632C26.6011 33.3632 26.6356 33.3977 26.7046 33.3977C26.7391 33.5358 26.8771 33.5358 26.9116 33.6738C27.2912 33.8118 27.4982 34.0533 27.9122 34.1913C28.9817 34.3983 30.1203 34.2948 30.7413 33.7428C30.7068 33.7428 30.7068 33.7083 30.7413 33.7083C30.9139 33.7083 31.0174 33.4667 31.1899 33.3977C31.2244 33.2942 31.3279 33.1907 31.3969 33.0872C31.4659 32.9492 31.5349 32.7767 31.6384 32.6732V32.5697C31.8454 32.3282 31.8454 31.9832 31.9834 31.7416C31.8454 31.7071 31.9144 31.6381 31.8799 31.5691ZM28.7057 28.1189C28.6712 28.1879 28.6022 28.188 28.5677 28.2225C28.5332 28.2225 28.5332 28.1879 28.4987 28.1879C28.5332 28.1189 28.6367 28.1189 28.7057 28.1189ZM31.3279 31.9487C31.1554 32.1212 31.1209 32.5007 30.9484 32.7422C30.9484 32.7422 30.9484 32.7422 30.9139 32.7077C30.8449 32.8457 30.7758 32.9837 30.7068 33.0872C30.7068 33.1217 30.6723 33.1217 30.6378 33.1217C30.1203 33.9153 28.8782 34.2258 27.9122 33.8808C27.8777 33.9153 27.8777 33.9153 27.8432 33.9153C27.7052 33.8808 27.5672 33.8118 27.4637 33.7428C27.3602 33.6738 27.2221 33.6048 27.1186 33.5012C27.0841 33.5012 27.0151 33.4667 26.9806 33.4322C26.9806 33.3977 27.0151 33.4322 27.0151 33.3977C26.4976 33.0182 26.2216 32.3972 26.0836 31.6726C26.0491 31.5691 26.0491 31.5001 26.0836 31.3966C26.0146 31.1896 25.9456 30.9481 26.0836 30.7066C26.0836 30.6721 26.0836 30.6721 26.0836 30.6376C26.0491 30.6376 25.9801 30.6376 25.9801 30.5686C25.9456 30.4306 26.0491 30.3271 26.1181 30.2236C26.1181 30.1891 26.1526 30.1546 26.1526 30.1201C26.1526 30.0856 26.1871 30.0511 26.1871 30.0166C26.2216 29.9475 26.2561 29.8785 26.2561 29.8095C26.2561 29.775 26.2906 29.775 26.2906 29.775C26.3596 29.6025 26.4631 29.4645 26.5666 29.3265C26.6011 29.223 26.6701 29.1195 26.7391 29.016C26.7736 28.9815 26.8426 28.9125 26.8771 28.878C27.1876 28.4985 27.6017 28.2915 28.0847 28.1189V28.1879C28.0847 28.1534 28.1192 28.1189 28.1537 28.1189C28.3607 28.1189 28.6022 28.1534 28.8092 28.257C28.8782 28.2915 28.9472 28.326 29.0162 28.395C29.1543 28.3605 29.3613 28.4295 29.4648 28.4985C29.5338 28.4985 29.6373 28.4985 29.6373 28.5675C29.9478 28.5675 30.0168 28.8435 30.3273 28.878V28.9125C30.6033 28.947 30.6378 29.1885 30.8449 29.2575C30.9139 29.4645 31.1209 29.499 31.1899 29.6715C31.1899 29.706 31.2244 29.6715 31.2244 29.6715C31.3969 30.0511 31.4659 30.5341 31.4659 31.0171C31.4314 31.3621 31.3279 31.8107 31.3279 31.9487Z" fill="#F7875F" stroke="#F7875F" stroke-width="1.38008" stroke-miterlimit="10"/>
</g>
<defs>
<clipPath id="clip0">
<rect width="60.2404" height="62" fill="white"/>
</clipPath>
</defs>
</svg>
