<svg width="309" height="192" viewBox="0 0 309 192" fill="none" xmlns="http://www.w3.org/2000/svg">
<g clip-path="url(#clip0)">
<path d="M308.021 82.4547C307.615 82.0485 307.208 81.5069 306.802 81.1008C306.531 80.4238 305.99 79.7468 305.177 79.2052C303.824 77.4451 302.74 75.685 301.657 73.7895C298.949 68.7799 297.731 63.4996 296.918 57.4069C296.648 55.1052 296.377 52.6681 296.241 50.0956C295.835 43.4613 295.565 36.6916 297.46 30.1927C298.949 25.0478 300.98 21.1214 300.033 15.7056C299.491 12.8623 296.512 12.1854 294.211 13.1331C293.804 13.2685 293.398 13.5393 293.127 13.8101C292.992 13.5393 292.721 13.1331 292.586 12.8623C291.773 11.7792 290.42 10.8314 288.659 10.5606C279.046 9.3421 269.434 8.25895 259.685 7.31119C244.927 5.82186 230.169 4.46793 215.411 3.24938C209.996 2.8432 204.445 2.30163 198.758 1.89545C179.803 0.406117 160.442 -0.94782 141.893 0.812298C141.216 0.812298 140.539 1.21848 140.133 1.76005C139.32 2.16623 138.643 2.8432 138.237 3.65557C138.237 4.19714 138.102 4.73871 138.102 5.41568C124.562 7.1758 111.023 9.3421 97.4836 11.6438C74.1959 15.7056 50.3666 20.0382 27.7558 26.6725C25.5895 27.3495 24.5064 28.7034 24.371 30.1927C24.371 30.3281 24.371 30.4635 24.371 30.5989C20.9861 41.5658 21.6631 53.345 19.4968 64.4473C18.1429 71.217 16.5181 77.9867 14.4872 84.621C13.9457 85.5687 13.4041 86.3811 12.8625 87.3289C12.1856 88.412 12.1855 89.766 12.4563 91.1199C11.644 93.4216 10.967 95.5879 10.1546 97.7542C9.20689 100.462 11.5086 102.222 14.0811 102.358C14.6226 102.358 15.2996 102.358 15.8412 102.222C16.3828 102.087 16.7889 101.951 17.3305 101.681C18.1429 102.358 19.3614 102.764 20.7154 102.628C21.1215 102.628 21.5277 102.493 22.0693 102.358C22.0693 102.358 22.2047 102.358 22.3401 102.222C23.017 101.951 23.694 101.816 24.2356 101.545C28.839 99.9205 33.4424 98.4311 38.1811 96.9418C49.5542 93.4216 61.0627 90.5783 73.1127 88.2766H73.2481C80.6947 86.9227 88.1414 85.5687 95.5881 84.2148C99.7853 83.4024 104.118 82.7255 108.315 81.9131C110.617 81.5069 112.918 80.9654 115.22 80.5592C114.949 78.9344 115.085 77.0389 114.949 75.4142C114.814 73.3833 114.272 71.4878 113.595 69.5923C113.325 68.9153 113.866 68.103 114.543 67.9676C114.679 67.9676 114.814 67.9676 114.949 67.9676C115.22 67.6968 115.626 67.426 116.168 67.426C120.23 67.9676 124.292 67.8322 128.218 67.8322C128.895 67.8322 129.436 67.8322 130.113 67.8322C130.113 67.1552 130.52 66.4782 131.467 66.4782C138.102 66.4782 144.736 65.9367 151.37 65.9367C157.192 65.9367 163.15 65.1243 168.971 64.9889C174.929 64.8535 180.886 65.5305 186.843 65.6659C189.687 65.8013 192.53 65.9367 195.373 65.8013C196.998 65.6659 199.164 65.3951 200.518 66.4782C202.143 67.6968 201.466 69.5923 201.06 71.3524C200.518 73.9249 201.06 76.6328 201.466 79.2052C208.913 79.6114 216.359 79.7468 223.806 79.3406C226.514 79.3406 229.086 79.3406 231.794 79.3406C234.773 79.3406 237.887 79.3406 240.865 79.3406C247.5 79.3406 253.999 79.3406 260.498 79.6114C271.735 80.0176 282.702 81.2361 293.263 84.3502C295.971 85.1626 298.679 85.9749 301.386 87.0581C302.74 87.5997 303.824 87.4643 304.771 87.0581C304.771 87.0581 304.771 87.0581 304.907 87.0581C305.584 87.1935 306.125 87.0581 306.667 86.9227C306.938 86.9227 307.073 86.7873 307.344 86.6519C308.156 86.2457 308.562 85.5687 308.698 84.7564C308.968 84.0794 308.698 83.2671 308.021 82.4547Z" fill="#60B5E4"/>
<path d="M58.2192 82.861C57.5422 82.9964 56.8653 83.1318 56.1883 83.1318C54.5636 83.4026 52.8035 83.6733 51.0433 84.0795C51.3141 83.8087 51.4495 83.4026 51.5849 83.1318C52.8034 83.1318 53.8866 82.9964 55.1051 82.9964C56.4591 82.861 57.9484 82.861 59.3023 82.7256C59.0316 82.7256 58.6254 82.861 58.2192 82.861Z" fill="#60B5E4"/>
<path d="M206.069 14.2162C204.715 13.9454 203.361 13.6747 202.143 13.4039C203.497 13.5393 204.851 13.5393 206.205 13.6747C206.069 13.9454 206.069 14.0808 206.069 14.2162Z" fill="#60B5E4"/>
<path d="M284.597 68.5092C284.868 68.103 285.139 67.6968 285.274 67.1553C285.41 67.6968 285.681 68.2384 285.816 68.6446C285.41 68.6446 285.004 68.6446 284.597 68.5092Z" fill="#60B5E4"/>
<path d="M215.14 100.598C223.806 99.9206 228.544 109.534 229.221 116.709C230.034 125.375 227.732 134.988 226.378 143.653C219.744 143.247 212.703 142.976 206.069 143.924C205.934 143.382 205.798 142.84 205.392 142.299C204.444 140.809 203.632 139.049 202.955 136.883C200.924 130.384 200.518 121.313 202.413 113.866C204.309 106.69 208.371 101.139 215.14 100.598Z" fill="#60B5E4"/>
<path d="M256.707 146.631C250.614 145.684 244.521 145.007 238.428 144.465C238.293 144.465 238.158 144.465 238.022 144.465C238.022 144.33 238.022 144.194 238.022 144.059C238.699 133.092 239.241 117.657 246.417 109.263C250.749 104.118 258.196 102.358 262.528 108.45C266.861 114.543 264.559 122.667 261.581 128.624C260.904 130.113 261.175 131.603 261.987 132.55C261.716 133.227 261.581 133.904 261.31 134.581C260.091 138.508 258.873 142.57 258.06 146.767C257.79 146.767 257.248 146.631 256.707 146.631Z" fill="#60B5E4"/>
<path d="M87.0581 116.303C88.1413 113.595 90.0368 111.294 92.7446 109.804C93.2862 109.534 93.8278 109.263 94.5048 108.992C95.1817 108.721 95.8587 108.45 96.6711 108.315H96.8064C98.1604 108.044 99.3789 107.909 100.597 108.044C107.909 108.721 109.94 117.386 110.481 124.427C110.617 125.645 110.617 126.864 110.617 128.082C110.887 133.363 110.887 138.643 110.887 143.924V144.059C110.887 145.954 110.887 147.715 110.752 149.61C110.752 149.881 110.752 150.152 110.752 150.422C110.752 151.235 110.752 151.912 110.752 152.724C104.253 152.724 97.6188 152.995 90.9845 153.401C90.9845 153.266 90.9845 153.13 90.9845 152.995C90.4429 151.235 89.766 149.068 89.089 146.631C86.3811 137.425 83.5379 124.698 87.0581 116.303Z" fill="#60B5E4"/>
<path d="M46.0338 119.959C46.0338 119.823 46.0338 119.823 46.0338 119.959C46.7107 118.063 47.9293 116.574 49.9602 115.897C56.3237 113.731 62.8226 118.876 66.2074 123.75C72.3001 132.821 74.0603 144.601 77.4451 154.89C71.0816 155.838 64.7181 157.192 58.6254 159.223C58.2192 159.358 57.6776 159.494 57.2714 159.629C56.8653 158.275 56.5945 156.786 56.1883 155.432C55.9175 154.62 55.6467 153.807 55.5113 152.86C53.6158 146.496 51.0433 140.403 48.0647 134.446C47.7939 133.769 47.3877 133.092 47.1169 132.415C46.7107 131.603 46.1692 130.655 45.763 129.843C45.3568 126.593 44.9506 122.802 46.0338 119.959Z" fill="#60B5E4"/>
<path d="M30.4634 106.149C30.0572 106.555 29.6511 107.096 29.5157 107.638C29.1095 107.232 28.7033 106.826 28.2971 106.419C28.9741 106.284 29.7865 106.284 30.4634 106.149Z" fill="#F5F5F5"/>
<path d="M11.373 99.6498C11.2376 99.7852 11.2376 99.9206 11.2376 100.191C11.1022 100.191 10.9668 100.191 10.9668 100.327C10.1544 100.598 10.5606 101.816 11.2376 101.545C11.373 101.545 11.6438 101.41 11.7792 101.41L13.5393 95.588C12.9977 96.8065 12.1854 98.2958 11.373 99.6498Z" fill="#63350F"/>
<path d="M16.5182 85.975L13.6749 95.4526C15.1643 92.4739 16.3828 89.4953 17.6013 86.5166C17.1952 86.5166 16.789 86.3812 16.5182 85.975Z" fill="#63350F"/>
<path d="M11.5085 102.764L9.61304 108.857L10.967 109.534L12.9979 102.628L13.5395 100.868C12.9979 101.004 12.4563 101.139 11.9147 101.275L11.5085 102.764Z" fill="#63350F"/>
<path d="M215.547 63.635C220.692 69.5923 229.898 68.9154 234.096 62.5519C238.97 66.7491 248.312 70.2693 251.697 64.4474C254.54 70.6755 263.747 70.1339 269.027 65.2597C271.194 68.2384 274.308 70.9463 278.505 70.9463C281.348 70.9463 283.785 69.7277 285.139 67.5614C287.576 71.2171 291.773 72.9772 296.241 72.4356C295.971 71.7586 295.7 71.0817 295.429 70.4047C291.232 70.8109 287.712 68.6446 285.951 64.5828C285.545 63.7704 284.056 64.0412 283.921 64.8536C281.754 73.6542 272.412 66.7491 269.704 63.2288C269.163 62.5519 268.079 62.958 268.079 63.635C264.83 66.7491 253.728 72.8418 252.915 61.0625C252.915 60.1148 251.291 59.7086 251.02 60.7917C248.718 69.1862 239.647 65.1243 234.773 61.3333C234.908 61.0625 235.043 60.7917 235.179 60.521C235.585 59.4378 233.825 58.8962 233.283 59.9794C233.283 59.9794 233.283 60.1148 233.148 60.1148C232.742 60.1148 232.336 60.6564 232.742 61.0625C229.221 67.2906 220.15 67.426 216.088 61.3333C215.682 60.7917 214.599 60.7917 214.328 61.4687C213.11 66.8845 208.1 68.9154 202.82 67.426C202.82 67.5614 202.955 67.6968 202.955 67.9676C202.955 68.2384 202.82 68.3738 202.684 68.6446C207.965 70.8109 213.38 68.5092 215.547 63.635Z" fill="#63350F"/>
<path d="M227.461 34.5254C227.326 33.713 226.107 33.5776 225.837 34.2546C223.941 37.7748 220.692 39.3996 217.171 38.858C217.036 39.2642 216.901 39.6703 216.63 40.0765C220.421 40.8889 223.806 39.6703 226.378 36.6917C229.086 42.7844 240.73 43.0552 244.25 37.3686C246.01 39.1288 249.124 40.0765 251.291 40.2119C254.134 40.4827 256.436 39.6703 258.06 37.7748C260.362 43.4614 270.246 44.0029 273.089 38.4518C274.037 39.6703 274.714 41.1597 275.932 41.972C277.557 43.1906 279.588 43.8675 281.483 43.8675C284.462 43.8675 287.305 42.3782 289.201 40.0765C289.066 40.0765 289.065 40.0765 288.93 39.9411C288.659 39.8057 288.389 39.3995 288.389 39.1288C288.389 38.9934 288.389 38.9934 288.253 38.858C288.253 38.9934 288.389 39.1288 288.389 39.1288C288.253 38.858 288.253 38.7226 288.118 38.4518C288.118 38.3164 287.982 38.181 287.982 38.0456C285.41 41.1597 281.619 42.7844 277.828 40.6181C276.203 39.8057 275.255 37.6394 273.766 36.5563C273.766 36.2855 273.901 36.0147 273.901 35.7439C274.037 34.6608 272.141 34.39 271.871 35.4731C271.871 35.7439 271.735 36.0147 271.735 36.1501C271.6 36.2855 271.6 36.4209 271.6 36.5563C269.433 41.5658 259.414 40.8889 259.55 34.5254C259.55 33.3068 257.925 33.1714 257.519 34.2546C256.436 37.7748 247.635 39.1288 244.792 35.4731C244.792 35.3377 244.927 35.2023 244.927 35.067C245.063 34.2546 244.386 33.713 243.844 33.8484C243.438 33.5776 242.761 33.8484 242.896 34.39C242.896 34.5254 242.896 34.6608 242.896 34.7962C241.001 40.7535 228.545 41.1597 227.461 34.5254Z" fill="#63350F"/>
<path d="M147.173 34.7962C143.247 38.7226 139.862 39.5349 137.154 37.0979C136.477 36.5563 135.8 36.0147 135.123 35.4731C134.581 35.067 133.769 35.3377 133.634 36.0147C132.144 44.4091 123.208 41.7012 119.417 37.2333C118.876 36.6917 117.793 36.9625 117.928 37.7748C117.793 38.858 117.657 39.9411 117.522 41.0243C118.063 41.1597 118.469 41.2951 119.011 41.5659C119.146 40.8889 119.417 40.3473 119.417 39.6703C124.427 44.1383 132.686 44.9507 135.123 37.7748C137.695 39.9411 140.674 41.8366 144.059 41.2951C146.631 40.8889 148.121 39.3996 148.798 37.3686C152.859 42.649 160.577 41.4305 163.691 35.4731C167.482 40.8889 178.584 40.6181 181.292 34.2546C181.292 34.39 181.292 34.5254 181.428 34.6608C186.031 40.8889 195.779 43.326 199.57 35.8793C203.632 40.0765 212.568 42.9198 215.141 37.7748C215.818 38.9934 216.901 40.0765 217.984 40.7535C217.984 40.4827 217.984 40.0765 217.984 39.8057C217.984 39.3996 218.119 39.1288 218.255 38.858C217.984 38.7226 217.713 38.4518 217.578 38.3164C216.494 37.2333 216.088 36.0147 215.818 34.5254V34.39C215.818 34.1192 215.818 33.9838 215.682 33.8484C215.547 33.5776 215.141 33.3068 214.87 33.4422C214.328 33.4422 213.651 33.8484 213.651 34.5254C210.943 38.5872 207.829 39.5349 204.444 37.504C202.549 36.5563 201.195 35.067 200.112 33.1714C199.57 32.3591 198.487 32.7653 198.216 33.5776C196.727 35.2023 195.373 36.8271 193.884 38.4518C191.04 39.2642 188.603 38.858 186.437 37.2333C184.812 36.2855 183.594 35.2023 182.24 33.8484C181.969 33.5776 181.563 33.713 181.428 33.9838C181.428 33.8484 181.563 33.713 181.563 33.5776C181.834 32.4945 179.938 31.8175 179.667 32.9007C178.449 36.8271 165.993 38.858 164.639 32.6299C164.368 31.5467 162.879 31.4113 162.608 32.4945C160.983 38.4518 158.004 39.9411 153.672 37.0979C151.506 37.2333 150.016 36.6917 149.068 35.3377C149.068 35.067 149.068 34.6608 149.068 34.39C149.068 33.3068 147.173 33.5776 147.173 34.7962Z" fill="#63350F"/>
<path d="M279.859 21.2568C279.588 20.309 278.234 20.309 277.963 21.2568C274.714 31.5467 264.289 25.7248 261.581 18.9551C261.445 18.5489 261.039 18.5489 260.768 18.6843C260.498 18.6843 260.091 18.8197 259.956 19.2259C256.707 27.2141 248.583 24.2355 245.198 18.5489C244.792 17.872 243.844 18.0074 243.573 18.8197C239.105 25.454 234.773 25.454 230.44 18.8197C230.44 18.1427 229.357 18.0074 229.357 18.6843C228.815 22.6107 231.659 24.777 235.314 25.454C239.376 26.131 242.761 24.3709 244.657 20.986C248.989 26.5372 257.79 28.8388 261.175 21.5276C264.424 29.245 274.714 31.8175 279.047 24.2355C281.077 28.1619 285.139 31.6821 289.472 31.8175C289.472 31.6821 289.472 31.5467 289.472 31.2759C289.472 31.4113 289.472 31.4113 289.472 31.5467C289.472 31.1405 289.472 30.7344 289.472 30.4636C289.472 30.0574 289.472 29.6512 289.607 29.245C288.118 28.9742 286.899 28.8388 287.035 28.9742C283.514 27.7557 280.942 24.777 279.859 21.2568Z" fill="#63350F"/>
<path d="M303.282 80.0176C302.605 79.3406 302.063 78.6636 301.522 77.9866C298.949 75.008 297.054 71.6231 295.429 68.1029C294.617 66.2074 293.804 64.1765 293.127 62.0102C293.127 61.8748 293.127 61.8748 292.992 61.7394C292.992 61.604 292.992 61.604 292.992 61.4686C293.127 61.4686 293.263 61.4686 293.398 61.3332L292.721 60.3855C292.044 58.0838 291.638 55.7821 291.232 53.4804C290.961 51.9911 290.826 50.3663 290.555 48.877C289.472 38.4517 288.659 26.6724 291.503 16.5179C291.503 16.3825 291.503 16.2471 291.503 16.1117C291.909 15.5702 291.773 14.6224 290.961 14.487C290.149 14.3516 289.201 14.2162 288.388 13.9454C287.847 13.81 287.441 13.81 286.899 13.6747C277.557 11.9145 268.215 10.2898 258.873 9.07127C246.958 7.44654 234.908 6.36339 222.858 5.68643C217.578 5.41564 212.297 5.14485 206.881 5.00946C189.686 4.46788 172.085 4.60328 155.296 7.17576C155.161 7.17576 154.89 7.17576 154.755 7.31115C154.755 7.71733 154.755 8.25891 154.62 8.66509H154.755C154.89 8.66509 154.89 8.80048 155.026 8.93587C155.026 8.93587 155.026 8.93587 155.026 8.80048H155.161C177.366 8.3943 199.435 6.76958 221.639 7.98812C244.656 9.20666 267.402 12.1853 290.013 16.6533C288.93 19.632 288.388 22.8814 287.982 26.1309V26.2663C287.982 26.4017 287.982 26.6724 287.982 26.8078C287.982 26.6724 287.982 26.5371 287.982 26.5371C287.982 26.9432 287.982 27.3494 287.982 27.7556C287.982 28.2972 287.982 28.7034 287.847 29.2449C287.847 29.3803 287.711 29.5157 287.711 29.5157C287.576 32.7652 287.576 36.0146 287.711 39.2641C287.711 39.3995 287.847 39.5348 287.847 39.6702C287.847 40.0764 287.711 40.4826 287.847 40.8888V41.0242C287.982 41.1596 287.982 41.4304 288.118 41.5658C288.253 41.9719 288.253 42.3781 288.118 42.7843C288.118 42.7843 288.118 42.9197 287.982 42.9197C287.982 43.5967 288.118 44.2736 288.253 44.9506C288.253 44.9506 288.253 45.086 288.388 45.086C288.524 45.4922 288.524 46.0337 288.524 46.4399C288.524 46.5753 288.524 46.7107 288.659 46.7107C288.659 46.5753 288.524 46.5753 288.524 46.4399C288.659 46.7107 288.795 46.9815 288.795 47.2523C288.93 47.6585 288.795 47.9293 288.659 48.3354C288.795 49.4186 288.93 50.6371 289.065 51.7203C289.607 55.7821 290.419 59.7085 291.638 63.4995C291.638 63.4995 291.638 63.4995 291.638 63.6349C291.909 64.4473 292.179 65.2596 292.45 66.072C292.586 66.3428 292.721 66.6136 292.856 66.8844C292.992 67.1552 292.992 67.2906 292.992 67.5613C294.752 71.8939 297.189 76.0911 300.438 79.7468C300.574 79.8822 300.709 80.0176 300.845 80.1529C300.574 80.1529 300.168 80.0176 299.897 80.0176C296.106 79.2052 292.315 78.5282 288.388 77.8513C279.046 76.2265 269.704 75.008 260.362 73.9248C258.196 73.654 255.894 73.5187 253.728 73.2479C240.459 71.8939 226.92 70.6754 213.516 70.8108C210.131 70.8108 206.611 70.9462 203.226 71.217C202.955 71.217 202.82 71.3524 202.82 71.4877C202.82 69.5922 202.82 67.5613 202.955 65.6658H201.06C200.924 65.6658 200.789 65.6658 200.653 65.5304C200.518 79.8822 200.518 94.3693 200.518 108.721C200.653 127.541 200.112 146.767 201.872 165.586C200.924 165.586 199.841 165.586 198.893 165.722C197.81 165.722 196.592 165.857 195.508 165.857C196.727 163.691 197.269 160.983 196.727 158.546C196.592 158.004 196.185 157.869 195.779 158.004C195.644 157.869 195.508 157.869 195.238 157.869C177.772 157.327 160.306 158.14 143.111 160.848V160.712C142.569 159.629 141.757 158.681 141.216 157.598C140.809 156.786 140.403 155.973 139.862 155.161C157.057 153.266 173.981 152.453 191.311 153.807C191.582 153.807 191.717 153.807 191.853 153.672C191.582 154.755 191.447 155.838 191.176 156.786C191.04 157.463 192.124 157.869 192.259 157.057C192.665 155.838 193.071 154.619 193.342 153.536C193.477 152.724 192.53 152.318 192.124 152.859C192.124 152.453 191.853 152.182 191.311 152.047C188.603 151.776 185.895 151.641 183.323 151.505C183.458 151.37 183.458 151.235 183.458 150.964C182.375 141.892 181.292 132.956 180.886 123.75C180.48 114.272 181.157 104.93 181.157 95.4524C181.157 95.0462 180.75 94.9109 180.48 95.0462C180.48 94.6401 180.209 94.3693 179.667 94.2339C175.335 93.8277 170.19 93.5569 165.857 94.9109C165.722 94.9109 165.722 95.0463 165.586 95.1816C165.045 94.9109 164.368 95.1816 164.503 95.8586C166.94 114.001 168.159 132.55 171.544 150.558C171.679 150.964 172.356 150.828 172.356 150.422C171.815 132.28 168.565 114.001 166.263 95.994C170.731 96.1294 175.199 95.5878 179.667 95.994C179.803 95.994 179.938 95.994 180.074 95.8586C178.313 114.272 179.397 132.686 181.563 150.964C181.563 151.099 181.698 151.235 181.698 151.37C177.501 151.235 173.439 151.099 169.242 151.235C166.94 133.227 165.316 114.678 161.931 96.671C163.014 96.671 163.014 94.9109 161.931 94.9109C156.244 94.9109 150.422 95.5878 145.142 97.6187C144.736 97.7541 144.6 98.2957 144.871 98.5665C144.871 98.7019 144.736 98.8373 144.736 98.9727C146.36 116.438 148.662 134.852 154.078 151.505C154.078 151.776 154.349 151.776 154.484 151.912C153.266 152.047 152.047 152.047 150.828 152.182C150.964 152.047 150.964 151.912 150.964 151.776C148.933 133.498 145.277 115.355 141.893 97.3479C141.893 97.3479 141.893 97.3479 141.893 97.2126C141.893 97.2126 142.028 97.2126 142.163 97.2126C155.703 92.4738 169.242 90.5783 183.458 91.526C183.865 91.526 184.135 91.3906 184.406 91.1198C183.865 101.545 183.594 111.835 183.729 122.26C183.865 131.738 183.594 141.892 185.625 151.099C185.76 151.776 186.843 151.641 186.843 150.964C187.385 141.08 186.031 130.926 185.895 120.906C185.76 110.887 186.031 100.868 186.572 90.849C186.572 89.7659 185.083 89.4951 184.677 90.4429C184.677 89.9013 184.271 89.3597 183.594 89.3597C169.377 88.0058 155.026 90.1721 141.893 95.7232C141.486 95.8586 141.351 96.4002 141.351 96.8064C140.809 96.8064 140.132 97.2126 140.268 98.0249C143.653 116.032 146.361 134.175 150.016 152.182C150.016 152.318 150.152 152.453 150.287 152.453C146.496 152.859 142.569 153.401 138.778 154.078C138.237 154.213 138.237 155.026 138.778 155.161C138.914 156.244 139.862 157.327 140.539 158.41C141.08 159.223 141.757 160.171 142.434 160.848C141.351 160.983 140.403 161.118 139.32 161.389C138.914 161.525 138.778 161.795 138.914 162.202C138.643 162.337 138.508 162.608 138.643 163.014C139.049 164.232 139.726 165.451 140.268 166.67C140.674 167.482 140.945 168.294 141.351 169.107C138.372 169.377 135.394 169.513 132.415 169.784C130.655 152.859 126.864 135.8 123.885 119.011C120.906 101.816 118.063 84.6209 115.085 67.4259C114.408 67.5613 113.866 67.8321 113.054 67.6967C112.918 67.6967 112.918 67.6967 112.783 67.6967C113.054 69.3215 113.324 70.8108 113.595 72.4355C109.398 74.4664 105.607 73.1125 104.118 69.7276C104.253 69.7276 104.524 69.5922 104.524 69.4568C104.659 69.7276 105.065 69.9984 105.336 69.7276C105.472 69.5922 105.607 69.5922 105.742 69.4568C107.503 68.1029 109.398 66.749 111.158 65.2596C111.564 64.9889 111.971 64.5827 112.377 64.3119C111.971 64.1765 111.564 64.0411 111.158 63.9057C110.752 63.7703 110.21 63.6349 109.804 63.4995C108.179 65.1243 106.555 66.749 105.065 68.3737C104.93 68.5091 104.795 68.6445 104.795 68.6445C104.795 68.6445 104.795 68.7799 104.659 68.7799C104.388 67.6967 103.982 66.4782 103.576 65.395C103.305 64.4473 102.899 63.6349 102.493 62.6872C102.493 62.5518 102.358 62.281 102.222 62.1456C102.222 62.0102 102.087 62.0102 102.087 61.8748C101.951 61.8748 101.681 61.8748 101.545 61.8748C101.139 61.8748 100.733 61.7394 100.462 61.604C100.327 61.4686 100.056 61.4686 99.9205 61.3332C99.7851 61.1978 99.5143 61.1978 99.3789 61.0624C99.1081 60.927 98.9727 60.7916 98.8373 60.6563C98.7019 60.5209 98.5665 60.5209 98.2957 60.3855C96.9418 59.4377 95.7233 58.2192 94.9109 56.5944C94.5047 55.6467 93.0154 56.1883 93.0154 57.136C88.5474 63.0933 84.7564 64.3119 81.3715 60.927C80.4238 60.2501 79.476 59.4377 78.7991 58.3546C78.3929 57.813 77.1743 58.0838 77.0389 58.7607C75.8204 67.1552 66.6136 69.5922 60.9271 63.3641C60.5209 62.958 59.7085 63.4995 59.8439 64.0411C59.5732 64.1765 59.167 64.4473 59.167 64.8535C58.7608 75.5496 45.086 70.54 41.0242 67.1552C40.4826 66.749 39.5349 66.8844 39.3995 67.5613C37.6394 75.008 29.9219 77.5805 23.9646 72.8417C24.6416 69.7276 25.1832 66.4782 25.7247 63.3641C29.3804 62.281 32.0882 59.7085 33.4422 56.3237C37.504 62.8226 47.6585 61.1978 49.4186 53.6158C54.8344 58.49 62.6872 56.0529 64.9889 49.2832C70.8108 54.9697 84.0794 53.8866 84.4856 45.2214C90.5783 50.5017 99.1081 48.877 103.035 41.9719C108.044 46.9815 115.762 45.8983 119.011 39.5348C119.282 39.8056 119.417 40.0764 119.688 40.3472C119.959 40.618 120.094 40.7534 120.365 40.8888C120.636 40.7534 120.771 40.4826 121.042 40.3472C121.313 40.0764 121.719 39.8056 121.99 39.5348L121.313 38.8579L119.688 36.9624C119.146 36.15 118.063 36.4208 117.792 37.2332C115.355 44.0028 107.773 44.6798 103.576 39.3995C103.17 38.8579 102.087 38.9933 101.951 39.6702C98.7019 47.2523 90.0367 48.7416 84.3502 43.0551C84.0794 42.7843 83.944 42.7843 83.6732 42.7843C83.1317 42.6489 82.3193 43.0551 82.3193 43.732C80.6946 48.877 77.4451 51.4495 72.8417 51.1787C69.4569 51.0433 67.0198 49.554 65.3951 46.5753C64.9889 45.8983 63.635 45.8983 63.4996 46.8461C62.4164 54.2928 55.1052 56.5944 49.6894 51.8557C49.6894 50.6371 47.9293 50.7725 47.7939 51.8557C46.7108 59.9793 37.0978 60.7916 33.9838 53.6158C33.713 52.9388 32.4944 53.0742 32.359 53.7512C31.5467 57.6776 29.245 60.2501 25.8601 61.8748C26.6725 55.9175 27.2141 49.9602 27.4849 44.0028C31.9528 46.9815 37.3686 44.8152 38.9933 39.8056C43.3259 46.9815 54.8344 44.6798 55.1052 35.0669C60.7917 39.8056 71.3524 41.1596 73.5187 33.5775C75.1434 35.8792 77.8513 37.2332 80.9654 37.0978C85.9749 36.6916 88.9536 32.4944 90.0367 28.0264C94.9109 36.15 104.795 34.9315 108.044 26.8078C109.804 29.5157 112.783 31.005 116.303 30.7343C120.636 30.3281 123.75 27.214 125.916 23.6938C126.999 25.7247 129.03 27.3494 131.196 28.0264C131.603 28.1618 132.144 28.2972 132.55 28.2972C132.821 28.0264 133.092 27.6202 133.363 27.3494C133.498 27.214 133.769 26.9432 133.904 26.8078C134.04 26.6724 134.175 26.5371 134.175 26.4017C133.633 26.4017 133.092 26.2663 132.55 26.1309C130.113 25.5893 128.082 24.5061 126.728 22.0691C127.405 20.8505 125.645 19.9028 124.968 20.9859C122.531 25.4539 112.241 35.0669 108.721 23.6938C108.45 22.746 106.961 22.6106 106.69 23.6938C105.878 27.891 105.201 28.2972 101.004 29.9219C98.7019 32.0882 96.5356 32.2236 94.5047 30.1927C92.4738 29.3803 90.9845 28.0264 89.9013 26.1309C89.9013 25.9955 89.7659 25.9955 89.6305 25.9955C89.089 25.5893 88.2766 25.4539 88.1412 26.4017C87.5996 29.5157 86.6519 31.1404 84.2148 33.1713C80.6946 36.0146 75.008 35.7438 73.6541 30.0573C73.3833 29.1095 71.7586 29.2449 71.7586 30.3281C72.1648 41.7011 59.7085 37.3685 54.9698 33.7129C54.4282 33.3067 53.7512 33.8483 53.8866 34.3899C53.4804 34.3899 53.0743 34.6607 53.0743 35.2022C52.8035 43.5967 41.5658 45.086 39.1287 37.0978C38.8579 36.2854 37.504 36.4208 37.504 37.3685C37.504 42.5135 31.4113 45.3568 27.2141 43.0551C27.2141 41.9719 27.3495 41.0242 27.3495 39.941C27.6202 34.2545 28.8388 33.4421 34.1191 31.8174C38.181 30.4635 42.1074 29.2449 46.1692 28.1618C77.8513 19.0904 110.617 15.164 143.246 11.6437C144.465 11.5084 145.684 11.373 146.902 11.2376H147.037C147.444 11.2376 147.714 11.1022 148.121 11.1022C148.256 11.1022 148.256 11.1022 148.391 10.9668C148.527 10.9668 148.662 10.8314 148.798 10.8314C148.798 10.8314 148.798 10.8314 148.933 10.8314C148.933 10.5606 148.798 10.2898 148.798 10.019C148.662 9.61284 148.391 9.34206 148.256 8.93587C147.444 8.93587 146.767 9.07127 145.954 9.20666C145.684 9.20666 145.277 9.20666 144.871 9.34206C104.795 13.1331 64.3119 18.6842 26.2663 32.359C25.8601 32.4944 25.4539 32.9006 25.4539 33.4421C24.777 50.9079 23.6938 68.2383 18.0073 84.4855L14.4871 97.4833C15.4348 95.994 16.2472 94.5047 16.9241 93.0153C18.8197 94.3693 20.986 94.2339 23.2877 93.2861C24.9124 92.6092 26.2663 91.6614 27.6202 90.4429C28.568 89.4951 30.3281 86.5164 31.5467 86.2457C31.8175 86.2457 34.9315 87.8704 35.3377 88.0058C36.9624 88.412 38.7225 88.412 40.4826 88.1412C44.9506 87.3288 48.0647 84.2148 49.8248 80.1529C49.8248 80.1529 49.8248 80.1529 49.8248 80.0176C51.4495 81.3715 53.2097 82.4546 55.2406 82.9962C55.6467 83.1316 55.9175 83.1316 56.3237 83.267C57.6776 83.5378 59.0316 83.5378 60.3855 83.267C62.4164 82.8608 64.4473 82.0485 66.072 80.6945C66.749 80.1529 68.6445 77.5805 69.3215 77.3097C70.1339 77.0389 72.4356 78.6636 73.2479 78.9344C74.8726 79.3406 76.6328 79.3406 78.2575 78.9344C82.3193 77.9866 85.1626 74.8726 87.0581 71.3524C91.2553 77.3097 98.9727 77.3097 103.305 72.0293C105.472 75.1434 109.533 76.2265 113.054 74.8726C113.054 74.8726 113.189 74.8726 113.189 74.7372C113.46 75.9557 113.595 77.3097 113.866 78.5282H113.731C80.0176 79.8822 46.1692 88.6828 14.2163 99.2435L13.5393 100.868C14.4871 100.597 15.4348 100.327 16.3826 100.191C16.9241 101.004 17.4657 101.816 18.0073 102.628C18.1427 102.764 18.2781 103.034 18.4135 103.17C22.4753 109.263 26.4017 115.491 30.0573 121.854C33.036 126.999 35.8793 132.28 38.4517 137.695C43.4613 148.256 47.1169 159.087 50.5018 170.054C51.4495 173.168 52.5327 176.418 53.4804 179.667C52.3973 179.803 51.3141 180.073 50.231 180.209C49.6894 180.344 49.0124 180.344 48.4709 180.48C48.0647 180.615 47.7939 180.615 47.3877 180.75L47.5231 181.157L47.6585 181.563L48.3355 183.188C48.6063 183.188 49.0125 183.052 49.2832 183.052C49.8248 182.917 50.3664 182.917 50.908 182.781C87.3288 176.689 123.885 173.033 160.983 170.461C188.333 168.565 215.953 166.534 243.302 168.294C249.26 168.7 255.217 169.242 261.174 169.919H261.31C261.31 170.461 261.174 171.002 261.174 171.679C261.039 173.168 263.205 173.033 263.341 171.679C263.341 171.408 263.476 171.002 263.476 170.596V170.19L263.747 168.294C263.747 167.617 263.882 167.076 264.018 166.534C264.424 163.826 264.83 161.254 265.236 158.681C268.756 139.455 275.255 121.583 284.056 104.524C286.899 99.1081 289.878 93.6923 293.127 88.412C294.481 86.2457 295.7 84.2148 297.054 82.0485C298.272 82.3192 299.491 82.4546 300.709 82.7254C301.386 82.8608 301.792 82.4546 301.928 81.9131C302.876 82.1839 304.094 80.9653 303.282 80.0176ZM146.225 99.3789C146.225 99.2435 146.09 99.1081 146.09 98.9727C150.964 97.8895 155.703 97.2125 160.712 97.0772C160.171 106.149 162.608 116.032 163.691 124.968C164.909 133.904 165.993 142.705 167.211 151.641C163.014 151.776 158.817 151.912 154.484 152.318C154.755 152.182 154.89 152.047 154.755 151.641C151.912 134.175 148.121 117.115 146.225 99.3789ZM102.358 69.7276C98.8373 75.5496 91.7969 75.4142 87.8704 70.4046C87.735 70.1338 87.3289 70.1338 87.1935 70.2692C86.9227 69.5922 85.9749 69.3214 85.5687 70.1338C82.4547 75.8204 75.4142 80.2883 69.5923 74.7372C69.1861 74.331 68.3737 74.331 68.103 74.8726C64.3119 82.1839 56.3237 83.4024 49.9602 78.6636C49.6894 78.3928 49.4186 78.5282 49.1478 78.799C48.7417 78.6636 48.0647 78.799 47.7939 79.476C44.8152 86.6518 36.9624 88.1412 31.0051 83.8086C30.5989 83.5378 29.9219 83.6732 29.6512 84.0794C27.891 88.0058 22.4753 94.9109 17.3303 92.0676C19.9028 86.5164 21.9337 80.6945 23.2877 74.7372C29.3804 80.0176 37.9102 77.3097 40.4826 69.863C46.9815 74.1956 59.7085 76.0911 60.6563 65.9366C66.3428 71.8939 75.8204 69.1861 78.2575 61.4686C83.267 65.9366 92.4738 67.4259 94.3693 60.3855C95.5879 61.8748 97.0772 62.958 98.9727 63.4995C99.3789 63.6349 99.9205 63.7703 100.462 63.9057C100.733 64.8535 101.139 65.6658 101.545 66.6136C101.951 67.5613 102.493 68.6445 103.035 69.4568C102.899 69.1861 102.628 69.3215 102.358 69.7276ZM69.7277 177.095C64.9889 177.772 60.2501 178.449 55.376 179.261C49.9602 152.182 36.5562 124.562 20.0382 102.493C19.9028 102.358 19.7674 102.222 19.632 101.951C19.0904 101.274 18.5489 100.462 17.8719 99.785C49.1478 91.6614 79.8822 82.7254 112.377 80.8299C112.647 80.8299 113.054 80.8299 113.324 80.8299H114.001C116.168 93.4215 118.469 106.149 120.636 118.74C123.614 135.935 125.645 153.536 129.707 170.461C109.669 172.085 89.6305 174.252 69.7277 177.095ZM193.884 165.993C176.553 166.94 159.087 168.023 141.757 169.377C141.216 167.211 140.403 164.774 139.32 163.014C157.869 160.712 176.283 159.223 194.967 159.764C194.967 161.931 194.696 163.826 193.884 165.993ZM294.481 82.59C275.797 106.69 265.101 137.831 261.445 167.888C242.219 165.586 222.587 164.909 202.955 165.586C203.226 155.973 203.09 146.36 202.955 136.748C202.82 129.03 202.549 121.448 202.413 113.731C202.413 112.106 202.413 110.481 202.413 108.721C202.413 96.5356 202.413 84.3502 202.684 72.1647V71.7585C202.684 71.8939 202.955 72.0293 203.09 72.0293C213.922 72.9771 224.753 73.2479 235.585 73.9248C240.73 74.1956 245.875 74.6018 251.02 75.008C265.507 76.3619 279.723 78.6636 294.075 80.9653C294.481 81.1007 295.023 81.1007 295.429 81.2361C295.023 81.9131 294.752 82.3192 294.481 82.59Z" fill="#63350F"/>
<path d="M168.159 64.0413C165.993 64.0413 163.691 64.0413 161.525 64.1767C148.256 64.4474 134.717 64.7182 121.313 66.4783C117.928 66.8845 114.543 67.4261 111.158 68.1031C111.023 68.1031 110.888 68.2385 110.752 68.3739C110.752 68.5093 110.752 68.5093 110.617 68.6446L110.481 68.78L110.617 68.9154C110.888 69.0508 111.158 69.1862 111.429 69.1862C122.261 68.78 132.957 67.8323 143.653 67.1553C148.798 66.8845 153.943 66.4783 159.088 66.4783C173.575 66.0722 187.927 66.6137 202.414 67.2907L202.549 67.1553C202.82 66.8845 202.955 66.7491 203.091 66.4783C203.226 66.343 203.226 66.2076 203.361 66.0722V65.9368C203.361 65.8014 203.497 65.666 203.497 65.5306C203.497 65.5306 203.497 65.5306 203.497 65.3952V65.2598V65.1244C201.06 64.989 198.623 64.8536 196.186 64.7182C187.114 64.0413 177.637 63.9059 168.159 64.0413Z" fill="#63350F"/>
<path d="M184.271 19.4967C182.375 22.7462 179.532 24.5063 176.147 25.0479C176.824 25.4541 177.366 25.8602 178.043 26.2664C180.074 25.7249 181.969 24.7771 183.594 23.2878C184.271 25.3187 186.708 26.9434 189.281 27.2142C193.613 27.7558 197.54 25.4541 199.029 21.7984C203.091 27.6204 214.193 29.6513 216.495 22.7462C220.963 27.2142 228.139 26.131 230.846 19.6321C231.253 18.549 229.492 17.7366 228.951 18.8198C226.785 23.4232 220.692 25.8602 216.765 19.4967C216.224 18.549 214.735 18.9552 214.735 20.0383C212.568 24.5063 209.454 25.9956 205.528 24.5063C202.684 23.694 200.789 21.9338 199.57 19.0906C199.57 18.9552 199.57 18.8198 199.57 18.8198C199.57 17.4658 197.675 17.6012 197.54 18.8198C197.404 22.0692 195.238 24.5063 191.853 25.1833C190.093 25.4541 183.052 25.4541 185.896 20.5799C186.437 19.3614 184.948 18.549 184.271 19.4967Z" fill="#63350F"/>
<path d="M171.409 19.6321C173.439 22.7462 176.418 24.3709 179.938 24.6417C179.397 25.0479 178.72 25.5894 178.178 25.9956C176.012 25.7248 174.116 24.7771 172.356 23.4231C171.815 25.5894 169.513 27.3496 167.076 27.7557C162.743 28.5681 158.682 26.6726 157.057 23.017C153.537 29.1097 142.434 31.9529 139.726 25.3186C135.665 30.0574 128.353 29.5159 125.239 23.2877C124.698 22.2046 126.458 21.2568 127.135 22.34C129.707 26.808 135.935 28.8389 139.32 22.0692C139.726 21.1214 141.216 21.3922 141.351 22.4754C143.924 26.808 147.038 28.0265 150.829 26.2664C153.537 25.3186 155.432 23.2877 156.38 20.4445C156.38 20.3091 156.38 20.1737 156.38 20.1737C156.244 18.9551 158.275 18.8198 158.411 20.0383C158.817 23.2877 161.254 25.5894 164.503 25.8602C166.264 25.9956 173.304 25.454 170.055 20.7153C169.242 19.7675 170.732 18.8198 171.409 19.6321Z" fill="#63350F"/>
<path d="M140.132 54.5637C142.163 57.6778 145.142 59.3025 148.662 59.5733C148.121 59.9795 147.444 60.521 146.902 60.9272C144.736 60.6564 142.84 59.7087 141.08 58.3547C140.538 60.521 138.237 62.2812 135.8 62.6873C131.467 63.4997 127.405 61.6042 125.781 57.9486C122.125 64.0413 111.023 66.8845 108.315 60.1149C104.253 64.8536 96.9417 64.3121 93.8277 58.084C93.2861 57.0008 95.0462 56.053 95.7232 57.1362C98.2956 61.6042 104.524 63.6351 107.909 56.8654C108.315 55.9176 109.804 56.1884 109.94 57.2716C112.512 61.6042 115.626 62.8227 119.417 61.0626C122.125 60.1149 124.02 58.0839 124.968 55.2407C124.968 55.1053 124.968 54.9699 124.968 54.9699C124.833 53.7513 126.864 53.616 126.999 54.8345C127.405 58.0839 129.842 60.3856 133.092 60.6564C134.852 60.7918 141.892 60.2502 138.643 55.5115C137.966 54.6991 139.455 53.616 140.132 54.5637Z" fill="#63350F"/>
<path d="M185.219 51.8558C187.25 54.9699 190.228 56.5946 193.748 56.8654C193.207 57.2716 192.53 57.8131 191.988 58.2193C189.822 57.9485 187.926 57.0008 186.166 55.6468C185.625 57.8131 183.323 59.5732 180.886 59.9794C176.553 60.7918 172.492 58.8963 170.867 55.2406C167.347 61.3334 156.244 64.1766 153.536 57.5423C149.475 62.2811 142.163 61.7395 139.049 55.5114C138.508 54.4283 140.268 53.4805 140.945 54.5637C143.517 59.0317 149.745 61.0626 153.13 54.2929C153.536 53.3451 155.026 53.6159 155.161 54.6991C157.734 59.0317 160.848 60.2502 164.639 58.4901C167.347 57.5423 169.242 55.5114 170.19 52.6682C170.19 52.5328 170.19 52.3974 170.19 52.3974C170.054 51.1788 172.085 51.0434 172.221 52.262C172.627 55.5114 175.064 57.8131 178.314 58.0839C180.074 58.2193 187.114 57.6777 183.865 52.939C183.052 51.9912 184.542 50.9081 185.219 51.8558Z" fill="#63350F"/>
<path d="M230.711 49.8249C232.742 52.939 235.72 54.5637 239.24 54.8345C238.699 55.2407 238.022 55.7822 237.48 56.1884C235.314 55.9176 233.419 54.9699 231.658 53.6159C231.117 55.7822 228.815 57.5424 226.378 57.9485C222.045 58.7609 217.984 56.8654 216.359 53.2098C212.839 59.3025 201.736 62.1458 199.029 55.5115C194.967 60.2502 187.655 59.7087 184.541 53.4806C184 52.3974 185.76 51.4496 186.437 52.5328C189.009 57.0008 195.238 59.0317 198.622 52.262C199.029 51.3143 200.518 51.585 200.653 52.6682C203.226 57.0008 206.34 58.2193 210.131 56.4592C212.839 55.5115 214.734 53.4806 215.682 50.6373C215.682 50.5019 215.682 50.3665 215.682 50.3665C215.547 49.148 217.577 49.0126 217.713 50.2311C218.119 53.4806 220.556 55.7822 223.806 56.053C225.566 56.1884 232.606 55.6469 229.357 50.9081C228.544 49.8249 230.034 48.8772 230.711 49.8249Z" fill="#63350F"/>
<path d="M282.566 51.8558C284.597 55.2407 287.711 57.1362 291.638 57.8132C290.961 58.2193 290.149 58.6255 289.472 58.8963C287.17 58.3547 285.004 57.2716 283.243 55.6469C282.431 57.6778 279.588 59.1671 276.609 59.3025C271.6 59.5733 267.267 57.2716 265.778 53.4806C261.039 59.1671 248.176 60.6564 245.875 53.616C240.594 57.9486 232.471 56.4592 229.628 49.9603C229.221 48.8772 231.252 48.2002 231.794 49.2834C234.096 54.0221 241.001 56.73 245.604 50.5019C246.281 49.5541 247.906 50.0957 247.906 51.1789C250.207 55.7823 253.592 57.407 258.196 56.053C261.445 55.3761 263.747 53.616 265.236 50.9081C265.236 50.7727 265.236 50.6373 265.236 50.6373C265.236 49.4188 267.538 49.4188 267.538 50.7727C267.538 54.0221 269.975 56.5946 273.766 57.2716C275.797 57.6778 283.92 57.9486 280.806 52.939C280.129 51.585 281.889 50.7727 282.566 51.8558Z" fill="#63350F"/>
<path d="M77.8514 153.401C74.3311 143.517 71.6233 131.332 65.6659 122.531C62.5519 117.928 56.1884 112.648 50.0957 115.085C47.794 116.032 46.5754 117.792 46.0339 119.688C46.0339 119.688 46.0339 119.688 46.0339 119.823C45.0861 123.208 46.0339 127.541 46.7108 130.79C46.8462 131.332 46.9816 131.873 47.117 132.415C49.0125 140.403 51.9912 148.256 56.1884 155.297C57.0007 156.515 57.8131 157.869 58.6255 159.088C58.7609 159.223 58.7609 159.358 58.8963 159.494C59.0316 159.765 59.167 160.035 59.5732 160.035C59.7086 160.035 59.9794 160.035 60.1148 159.9C66.2075 158.546 72.3002 156.921 78.3929 155.297C79.6115 155.161 79.0699 153.13 77.8514 153.401ZM67.5615 155.567C66.4783 151.912 65.2598 148.391 64.0412 144.871C66.4783 144.059 69.0508 143.246 71.4879 142.57C71.4879 142.57 71.4879 142.57 71.6233 142.57C72.9772 146.361 74.3311 150.287 75.6851 154.078C72.8418 154.89 69.9985 155.703 67.1553 156.515C67.4261 156.244 67.6968 155.973 67.5615 155.567ZM65.6659 129.707C63.4996 130.249 61.4687 130.79 59.3024 131.467C57.8131 126.864 56.4592 121.584 53.0743 118.199C54.6991 116.574 56.5946 116.709 58.6255 118.469C60.6564 119.823 62.4165 121.584 63.7704 123.614C65.9367 126.728 67.1553 130.519 68.5092 134.04C69.3216 136.341 70.1339 138.643 70.9463 140.945C68.5092 141.757 65.9367 142.57 63.4996 143.382C62.2811 139.862 61.0626 136.477 59.844 132.957C61.8749 132.415 64.0412 131.738 66.0721 131.061C67.0199 130.926 66.6137 129.572 65.6659 129.707ZM49.0125 131.467C48.6063 129.978 48.3355 128.489 48.0648 126.864C46.8462 123.614 47.9294 121.448 51.585 120.23C51.7204 119.959 51.8558 119.823 51.9912 119.688C54.4283 123.479 56.053 127.812 57.4069 132.009C54.8344 132.821 52.262 133.498 49.8249 134.311C49.5541 133.363 49.2833 132.415 49.0125 131.467ZM51.585 140.403C51.0434 138.778 50.5018 137.289 50.0957 135.664C52.6681 134.987 55.376 134.311 57.9485 133.634C58.2193 134.581 58.6255 135.529 59.0316 136.612C59.9794 139.185 60.9272 141.622 61.7395 144.194C59.4378 145.007 57.1361 145.954 54.8344 146.902C54.2929 147.173 54.699 148.121 55.2406 147.985C57.5423 147.173 59.844 146.361 62.2811 145.684C63.635 149.204 64.8536 152.724 66.2075 156.244C66.3429 156.65 66.7491 156.786 67.0199 156.65C64.7182 157.327 62.2811 158.004 59.9794 158.681C56.8653 152.589 53.7513 146.767 51.585 140.403Z" fill="#63350F"/>
<path d="M110.481 128.082C109.669 125.239 108.721 122.396 107.503 119.688C106.013 116.303 103.712 111.294 100.462 108.044C98.1604 105.878 95.4525 104.389 92.2031 105.065C85.0272 106.284 84.7564 115.355 84.7564 121.042C84.621 129.572 85.5688 138.643 88.9536 146.631C89.6306 148.256 90.4429 149.881 91.2553 151.37C91.5261 151.776 91.7969 151.776 92.0677 151.641C92.2031 151.776 92.3384 151.912 92.6092 151.912C95.4525 152.047 98.4312 152.047 101.41 151.912C101.545 152.453 102.493 152.453 102.493 151.776C104.93 151.641 107.232 151.37 109.669 150.964C110.752 150.829 110.346 149.068 109.127 149.204C106.826 149.475 104.659 149.745 102.493 150.016C102.358 146.496 102.087 142.976 101.545 139.455C104.524 139.455 107.367 139.455 110.346 139.455C110.481 139.455 110.617 139.455 110.752 139.32C110.887 140.809 110.887 142.299 111.023 143.788V143.923C111.023 145.819 111.023 147.715 110.887 149.475C110.887 149.745 110.887 149.881 110.887 150.152V150.287C110.887 151.506 112.918 151.506 112.918 150.152C113.189 142.705 112.512 135.258 110.481 128.082ZM96.8064 108.45C98.1604 108.721 99.3789 109.669 100.327 111.158C103.305 114.137 105.472 118.063 107.096 122.396C104.118 122.802 101.139 123.208 98.2958 123.479C97.6188 120.365 96.8064 117.251 95.9941 114.272C95.4525 112.377 95.3171 110.617 94.3693 109.127C94.234 108.992 94.234 108.721 94.0986 108.586C95.0463 108.315 95.9941 108.315 96.8064 108.45ZM87.5997 112.918C89.3598 111.294 90.9845 110.075 92.4738 109.263C92.6092 109.398 92.7446 109.669 92.88 109.804C94.3694 112.241 94.6401 115.897 95.3171 118.469C95.7233 120.094 96.1295 121.854 96.5357 123.479C93.2862 123.614 90.1721 123.614 86.9227 123.479C86.9227 121.854 86.9227 120.365 87.0581 118.74C87.0581 117.928 87.1935 117.116 87.1935 116.303C87.1935 115.22 87.3289 114.137 87.5997 112.918ZM92.6092 150.693H92.4738C92.4738 150.693 92.4738 150.693 92.4738 150.558C89.2244 143.247 87.4643 135.935 87.0581 127.947C87.0581 126.864 86.9227 125.781 86.9227 124.562C90.1721 124.833 93.557 124.968 96.9418 124.968C97.2126 126.187 97.4834 127.405 97.7542 128.624C98.4312 131.603 98.9727 134.581 99.5143 137.695C98.025 137.695 96.5356 137.831 95.0463 137.831C93.557 137.966 89.6306 137.154 89.2244 139.185C89.2244 139.455 89.2244 139.726 89.4952 139.862C89.6306 139.862 89.6306 139.997 89.766 139.997C90.0368 140.132 90.4429 139.997 90.5783 139.726C93.1508 138.914 97.2126 139.455 99.6497 139.32H99.9205C100.462 142.84 101.004 146.361 101.41 149.881C98.2958 150.422 95.4525 150.693 92.6092 150.693ZM110.21 137.831C107.232 137.695 104.253 137.695 101.139 137.831C100.597 134.175 99.9205 130.655 99.1081 126.999C98.9727 126.322 98.8373 125.645 98.702 124.968C101.681 124.833 104.659 124.562 107.773 124.021C109.263 128.489 110.075 133.227 110.481 137.831C110.346 137.831 110.21 137.831 110.21 137.831Z" fill="#63350F"/>
<path d="M228.68 117.522C228.951 117.116 228.815 116.574 228.409 116.303C228.274 115.897 228.274 115.355 228.138 114.949C227.055 109.398 223.806 99.1082 216.359 99.2436C209.725 99.5144 207.152 109.669 205.798 114.679C205.663 114.949 205.663 115.22 205.663 115.626C205.257 115.626 204.715 115.626 204.309 115.626C204.174 115.626 204.174 115.897 204.309 115.897C204.715 116.032 205.121 116.032 205.527 116.168C203.632 124.968 204.038 134.04 207.152 142.57C207.288 142.84 207.558 143.111 207.829 142.976C207.694 143.382 207.829 143.788 208.371 143.788C213.922 143.382 219.338 143.653 224.889 144.601C225.566 144.736 225.972 144.059 225.972 143.517C226.378 143.517 226.649 143.247 226.784 142.84C229.628 135.123 229.898 125.781 228.68 117.522ZM219.879 102.628C223.399 104.659 225.295 110.887 226.243 116.032C225.701 116.032 225.16 116.032 224.618 116.032C224.483 116.032 224.483 115.897 224.347 115.897C222.452 115.626 220.421 115.626 218.525 115.626C218.796 111.429 219.202 107.096 219.879 102.628ZM212.162 104.524C214.599 102.493 216.63 101.952 218.39 102.222C217.307 106.555 216.63 111.158 216.359 115.762C216.088 115.762 215.817 115.762 215.411 115.762C212.839 115.762 210.266 115.762 207.694 115.762C208.506 111.158 209.86 106.419 212.162 104.524ZM206.746 122.667C206.881 121.042 207.152 118.876 207.558 116.439C210.402 116.845 213.245 117.251 216.224 117.522C215.953 121.313 215.953 124.968 216.088 128.759C212.974 128.624 209.86 128.218 206.746 128.489C206.611 126.458 206.611 124.562 206.746 122.667ZM208.642 142.57C208.642 142.434 208.777 142.299 208.642 142.163C207.558 137.966 206.881 133.634 206.611 129.436C209.454 130.249 212.703 130.655 216.088 130.79C216.359 134.717 216.765 138.508 217.307 142.299C214.463 142.028 211.62 142.163 208.642 142.57ZM225.024 142.434C225.024 142.705 225.024 142.84 225.024 142.976C222.858 142.57 220.692 142.434 218.39 142.299C218.119 138.372 217.984 134.581 217.848 130.79C220.692 130.79 223.535 130.655 225.972 130.384C226.92 130.249 226.92 128.895 225.972 128.895C223.264 128.759 220.556 128.895 217.713 128.895C217.713 125.239 217.848 121.584 218.119 117.793C220.827 117.928 223.535 118.063 226.378 118.063C226.649 119.553 226.784 120.907 226.784 121.854C227.461 128.759 226.649 135.529 225.024 142.434Z" fill="#63350F"/>
<path d="M257.248 102.087C249.801 100.733 245.469 108.586 243.031 114.272C238.97 123.479 237.21 133.498 237.887 143.517C237.887 143.653 237.887 143.788 238.022 143.924C238.157 144.194 238.428 144.33 238.699 144.33C238.563 144.33 238.563 144.33 238.563 144.465C238.157 144.736 238.293 145.548 238.834 145.548C241.001 145.684 243.167 145.819 245.333 145.954C245.469 145.954 245.469 145.954 245.604 145.954C248.989 146.225 252.374 146.631 255.758 147.173C256.3 147.308 256.571 146.902 256.706 146.631C256.842 146.361 256.842 146.09 256.706 145.954C257.925 142.163 259.685 138.508 261.58 134.717C263.882 129.707 266.184 124.698 266.455 119.417C266.725 113.189 264.424 103.441 257.248 102.087ZM264.018 119.959C261.445 119.147 258.873 118.47 256.165 117.928C257.519 114.543 259.008 111.158 260.497 107.773C260.768 106.961 259.82 106.42 259.414 107.096C257.383 110.346 255.623 113.866 253.998 117.386C250.884 116.845 247.77 116.439 244.656 116.303C244.521 116.303 244.521 116.303 244.385 116.303C244.927 114.814 245.604 113.46 246.416 112.106C247.229 110.346 248.312 108.721 249.53 107.232C256.977 103.982 261.58 105.201 263.07 111.023C264.288 114.272 264.424 117.116 264.018 119.959ZM240.73 129.166C241.136 126.999 241.542 124.968 242.219 122.938C242.761 121.042 243.438 119.147 244.115 117.251C244.115 117.386 244.25 117.522 244.521 117.657C247.499 118.199 250.343 118.74 253.186 119.282C251.561 122.938 250.207 126.729 248.853 130.655C246.146 130.113 243.438 129.572 240.73 129.166ZM248.312 132.28C247.093 136.342 245.875 140.403 244.927 144.33C242.896 144.33 241.001 144.194 238.97 144.33C239.24 144.194 239.511 144.059 239.511 143.653C239.376 139.185 239.647 134.852 240.459 130.384C243.031 131.061 245.739 131.603 248.312 132.28ZM254.946 145.413C252.103 144.871 249.26 144.601 246.416 144.465C247.635 140.539 248.989 136.612 250.343 132.821C253.051 133.498 255.894 134.04 258.602 134.446C256.977 137.966 255.488 141.486 254.946 145.413ZM251.02 130.926C252.509 127.135 253.998 123.479 255.488 119.824C257.519 120.23 259.414 120.771 261.445 121.313C261.58 121.719 261.851 122.125 262.393 122.125C262.799 122.125 263.341 122.125 263.882 121.99C263.07 125.645 261.31 129.166 259.685 132.686C256.571 132.009 253.728 131.467 251.02 130.926Z" fill="#63350F"/>
<path d="M49.1478 182.917C48.877 182.917 48.4709 183.052 48.2001 183.052L47.5231 181.427L47.3877 181.021L47.2523 180.615C47.6585 180.48 47.9293 180.48 48.3355 180.48L48.4709 180.886L49.1478 182.917Z" fill="#63350F"/>
<path d="M292.992 61.8749C292.992 62.0103 292.992 62.0103 293.127 62.1457L292.992 61.8749Z" fill="#63350F"/>
<path d="M124.562 64.4474C124.562 64.5828 124.697 64.5828 124.697 64.7182C125.104 64.312 125.51 63.9059 126.051 63.6351C125.374 63.7705 124.833 63.7705 124.156 63.9059C124.156 64.0413 124.427 64.1766 124.562 64.4474Z" fill="#60B5E4"/>
<path d="M157.598 9.88365L157.734 9.74826C158.005 9.61287 158.275 9.61287 158.546 9.61287L158.682 9.47747C159.494 8.80051 160.171 8.12354 160.983 7.44657C160.171 7.58196 159.494 7.58196 158.682 7.58196C158.005 7.58196 157.192 7.58196 156.515 7.58196C155.974 7.71736 155.567 7.58196 155.161 7.17578C151.506 7.98814 147.715 8.8005 144.194 9.74826C144.059 9.74826 143.788 9.88365 143.653 9.88365C143.653 10.4252 143.653 10.8314 143.653 11.373H143.788C143.924 11.373 143.924 11.5084 144.059 11.6438C144.059 11.6438 144.059 11.6438 143.924 11.5084H144.059C148.662 11.1022 153.13 10.4252 157.598 9.88365Z" fill="#63350F"/>
</g>
<g clip-path="url(#clip1)">
<path d="M55.0895 177.568C55.6351 176.126 56.3298 174.749 57.1556 173.448C57.5857 172.772 58.0387 172.093 58.5679 171.491C58.7899 171.238 59.0234 170.985 59.3077 170.808C59.4256 170.732 59.4519 170.711 59.5821 170.671C59.6345 170.655 59.8697 170.645 59.8418 170.635C60.2981 170.719 60.6889 171.232 60.9772 171.71C61.3942 172.401 61.7383 173.144 62.0136 173.903C62.6239 175.582 62.9303 177.328 62.9294 179.115C62.9294 179.621 63.2448 180.097 63.702 180.284C64.2066 180.491 64.6621 180.357 65.0742 180.02C66.2571 179.055 67.558 178.092 69.0818 177.812C70.0321 177.637 71.3289 177.91 71.9834 178.79V178.791C71.9834 178.801 72.1178 179.029 72.1407 179.075C72.194 179.188 72.23 179.305 72.2628 179.425C72.3726 179.817 72.4062 180.207 72.4258 180.613C72.4725 181.557 72.4725 182.505 72.4381 183.45C72.3693 185.306 72.1604 187.165 71.7623 188.979C71.741 189.075 71.7016 189.244 71.6779 189.334C71.7156 189.329 71.7459 189.321 71.7639 189.311C71.7311 189.329 71.6771 189.345 71.6648 189.383C71.668 189.374 71.673 189.356 71.6787 189.334C71.469 189.361 70.9996 189.326 70.7513 189.326C70.0059 189.326 69.2595 189.325 68.5132 189.325C68.3912 189.813 68.2609 190.299 68.1249 190.783C67.9586 191.375 67.0485 191.121 67.2164 190.527C67.3295 190.128 67.4376 189.727 67.54 189.324C65.6943 189.324 63.8511 189.324 62.0062 189.324C60.6332 189.324 59.2593 189.324 57.8863 189.324C57.8863 189.844 57.8863 190.364 57.8863 190.884C57.8863 191.502 56.9442 191.501 56.9442 190.884C56.9442 190.364 56.9442 189.844 56.9442 189.324C56.2258 189.324 55.5081 189.324 54.7897 189.324C54.7078 189.82 53.9459 189.82 53.864 189.324C52.9571 189.324 52.0519 189.323 51.1458 189.323C51.0753 189.809 50.3217 189.97 50.2348 189.419C50.2299 189.387 50.2242 189.354 50.2201 189.323C49.6327 189.323 49.0445 189.323 48.4571 189.323C48.5063 189.72 48.5562 190.116 48.6087 190.512C48.689 191.123 47.746 191.115 47.6666 190.512C47.6141 190.116 47.5642 189.72 47.515 189.323C46.1305 189.323 44.7444 189.323 43.3591 189.322C43.3886 189.483 43.423 189.643 43.4615 189.802C43.6073 190.401 42.6988 190.655 42.553 190.056C42.4932 189.812 42.4432 189.568 42.4031 189.321C41.9247 189.321 41.4471 189.321 40.9695 189.321C41.0375 189.636 41.1325 189.945 41.2644 190.245C41.5118 190.805 40.6991 191.292 40.4509 190.729C40.2469 190.268 40.115 189.797 40.0315 189.32C39.2106 189.32 38.3914 189.32 37.5705 189.32C37.6041 189.791 37.6492 190.259 37.7049 190.721C37.7639 191.207 37.4198 191.643 36.9971 191.858C37.0692 191.87 37.1445 191.877 37.2256 191.877C45.8332 191.879 54.4391 191.88 63.0466 191.881C65.1635 191.881 67.2803 191.881 69.3972 191.882C70.3794 191.882 71.4886 192.023 72.4488 191.766C73.4916 191.488 73.9971 190.557 74.206 189.558C74.6475 187.452 74.8999 185.294 74.9605 183.142C75.0129 181.283 75.1751 178.954 74.0512 177.363C72.928 175.773 70.9144 175.035 69.0302 175.255C67.6465 175.417 66.4226 175.986 65.2847 176.727C65.3904 177.518 65.442 178.319 65.442 179.114C64.7284 178.814 64.0133 178.512 63.2981 178.21C63.9387 177.688 64.5957 177.175 65.2847 176.727C65.1643 175.811 64.9709 174.905 64.7039 174.027C64.2238 172.443 63.548 170.798 62.5026 169.51C61.4032 168.159 59.6509 167.663 58.1092 168.556C56.7116 169.366 55.7277 170.968 54.8872 172.313C54.6045 172.767 54.3375 173.23 54.0868 173.703C54.403 174.958 54.6627 176.227 54.8659 177.508L55.0895 177.568Z" fill="#63350F"/>
<path d="M39.8793 185.612C39.867 184.994 40.8091 184.996 40.8214 185.612C40.8468 186.829 40.7108 188.12 40.9697 189.323C41.4481 189.323 41.9257 189.323 42.4033 189.323C42.2821 188.591 42.2444 187.852 42.2952 187.105C42.3369 186.492 43.279 186.489 43.2373 187.105C43.1857 187.857 43.2233 188.592 43.3585 189.323C44.743 189.324 46.1291 189.324 47.5144 189.324C46.9524 184.769 46.5879 180.192 46.4257 175.603C46.4035 174.985 47.3457 174.989 47.3678 175.603C47.53 180.192 47.8945 184.769 48.4565 189.324C49.0439 189.324 49.6321 189.324 50.2195 189.324C50.1285 188.708 50.0982 188.099 50.1482 187.478C50.1974 186.867 51.1395 186.862 51.0903 187.478C51.0452 188.042 51.0551 188.605 51.1427 189.164C51.1517 189.221 51.1517 189.275 51.1452 189.324C52.0521 189.324 52.9573 189.325 53.8634 189.325C53.8568 189.296 53.8552 189.267 53.8552 189.234C53.8552 188.737 53.8552 188.24 53.8552 187.743C53.8552 187.126 54.7973 187.126 54.7973 187.743C54.7973 188.239 54.7973 188.737 54.7973 189.234C54.7973 189.266 54.7948 189.296 54.7891 189.325C55.5075 189.325 56.2252 189.325 56.9436 189.325C56.9436 185.495 56.9436 181.668 56.9436 177.839C56.9436 177.222 57.8857 177.223 57.8857 177.839C57.8857 181.668 57.8857 185.496 57.8857 189.325C59.2587 189.325 60.6326 189.326 62.0056 189.326C63.8513 189.326 65.6945 189.326 67.5394 189.326C68.1014 187.145 68.5298 184.928 68.8092 182.689C68.8846 182.085 69.8267 182.079 69.7513 182.689C69.4719 184.928 69.0615 187.141 68.5126 189.326C69.2589 189.326 70.0052 189.327 70.7507 189.327C70.999 189.327 71.4692 189.362 71.6781 189.334C71.7018 189.245 71.742 189.076 71.7625 188.98C72.1614 187.166 72.3695 185.307 72.4383 183.451C72.4727 182.506 72.4727 181.558 72.426 180.614C72.4064 180.207 72.3728 179.819 72.263 179.426C72.2294 179.306 72.1942 179.189 72.1409 179.076C72.118 179.03 71.9837 178.801 71.9837 178.792V178.791C71.3291 177.91 70.0323 177.638 69.082 177.813C67.5582 178.093 66.2565 179.055 65.0744 180.021C64.6623 180.357 64.2068 180.492 63.7022 180.285C63.2451 180.097 62.9297 179.622 62.9297 179.116C62.9305 177.328 62.6241 175.583 62.0138 173.904C61.7385 173.145 61.3944 172.401 60.9775 171.711C60.6883 171.232 60.2983 170.719 59.842 170.636C59.8707 170.647 59.6348 170.656 59.5823 170.672C59.4529 170.711 59.4267 170.733 59.3079 170.809C59.0228 170.986 58.7901 171.239 58.5681 171.492C58.0397 172.094 57.5859 172.772 57.1558 173.448C56.33 174.749 55.6345 176.126 55.0897 177.569C55.0119 177.775 54.9382 177.983 54.8661 178.191C54.6818 178.725 54.232 179.13 53.6553 179.13C53.1474 179.13 52.5297 178.737 52.4428 178.191C52.4084 177.971 52.3716 177.751 52.3331 177.532C51.9611 175.4 51.4336 173.299 50.7438 171.25C50.48 170.469 50.2506 169.467 49.7763 168.807C49.6862 168.681 49.6485 168.669 49.4961 168.589C49.5403 168.619 49.433 168.581 49.3912 168.567C49.356 168.563 49.311 168.557 49.3003 168.556C49.03 168.547 48.7604 168.599 48.5155 168.698C47.1925 169.232 46.2241 170.7 45.6826 172.024C45.0731 173.516 44.8446 175.118 44.8323 176.729C44.8184 178.788 44.9978 180.798 44.0901 182.71C43.7009 183.531 42.6982 183.431 42.1166 182.969C41.5054 182.485 41.0835 181.807 40.6895 181.139C40.4183 180.678 40.1292 180.135 39.7097 179.851C39.6352 179.801 39.5098 179.741 39.4754 179.724C39.5434 179.712 39.4975 179.709 39.3386 179.716C39.3615 179.709 39.3796 179.705 39.391 179.701C39.3804 179.704 39.3656 179.706 39.3468 179.711C39.3083 179.719 39.269 179.728 39.2313 179.741C39.2239 179.746 39.2075 179.756 39.1789 179.771C39.1248 179.807 39.1109 179.813 39.1363 179.788C39.083 179.834 39.0314 179.883 38.9822 179.935C38.7439 180.181 38.5046 180.697 38.376 181.103C37.5503 183.704 37.3692 186.575 37.5699 189.322C38.3908 189.322 39.21 189.322 40.0308 189.322C39.8178 188.112 39.9047 186.861 39.8793 185.612ZM71.0915 186.589C71.2832 186.404 71.5667 186.41 71.7584 186.589C71.9427 186.761 71.937 187.092 71.7584 187.266C71.7363 187.286 71.7166 187.307 71.6978 187.329C71.7018 187.322 71.7051 187.317 71.7076 187.313C71.7035 187.32 71.6994 187.326 71.6928 187.336C71.6846 187.348 71.6502 187.419 71.6388 187.438C71.6388 187.439 71.6379 187.439 71.6388 187.441C71.6339 187.457 71.6248 187.49 71.6191 187.514C71.6257 187.506 71.6117 187.615 71.6126 187.637C71.6207 187.905 71.3897 188.104 71.1415 188.116C70.881 188.128 70.6786 187.887 70.6705 187.637C70.6573 187.245 70.8146 186.858 71.0915 186.589ZM65.579 182.471C65.579 182.341 65.6323 182.226 65.7175 182.133C65.8027 182.038 65.9288 181.998 66.0501 181.992C66.1672 181.987 66.3016 182.049 66.3827 182.133C66.4687 182.22 66.5211 182.348 66.5211 182.471C66.5211 182.56 66.5211 182.648 66.5211 182.737C66.5211 182.867 66.4679 182.982 66.3827 183.076C66.2975 183.169 66.1713 183.211 66.0501 183.216C65.9329 183.221 65.7986 183.159 65.7175 183.076C65.6314 182.988 65.579 182.86 65.579 182.737C65.579 182.648 65.579 182.56 65.579 182.471ZM63.4466 188.254C63.4679 188.113 63.4884 187.971 63.5097 187.829C63.5285 187.709 63.6301 187.607 63.7259 187.542C63.8324 187.472 63.9684 187.467 64.0888 187.495C64.2011 187.521 64.3125 187.615 64.3707 187.715C64.4395 187.834 64.4378 187.952 64.4174 188.084C64.3961 188.225 64.3756 188.367 64.3543 188.508C64.3354 188.628 64.2338 188.732 64.138 188.795C64.0315 188.865 63.8955 188.871 63.7751 188.843C63.6629 188.817 63.5514 188.723 63.4933 188.623C63.4245 188.503 63.4269 188.387 63.4466 188.254ZM60.9734 177.466C60.9734 176.848 61.9155 176.849 61.9155 177.466C61.9155 180.98 61.9155 184.495 61.9155 188.009C61.9155 188.627 60.9734 188.626 60.9734 188.009C60.9734 184.495 60.9734 180.981 60.9734 177.466ZM53.3317 181.46C53.3317 181.33 53.3849 181.215 53.4701 181.122C53.5545 181.027 53.6815 180.987 53.8027 180.981C53.9199 180.976 54.0542 181.038 54.1353 181.122C54.2214 181.208 54.2738 181.337 54.2738 181.46C54.2738 181.53 54.2738 181.602 54.2738 181.674C54.2738 181.804 54.2205 181.919 54.1353 182.012C54.051 182.105 53.924 182.147 53.8027 182.153C53.6856 182.158 53.5512 182.095 53.4701 182.012C53.3841 181.924 53.3317 181.796 53.3317 181.674C53.3317 181.601 53.3317 181.53 53.3317 181.46ZM48.5696 171.449C48.5843 171.18 48.7735 170.981 49.0406 170.97C49.2856 170.958 49.5256 171.197 49.5117 171.449C49.4994 171.679 49.5076 171.906 49.5469 172.12C49.5952 172.376 49.4797 172.637 49.2184 172.71C48.9874 172.774 48.6867 172.629 48.6384 172.375C48.581 172.069 48.5524 171.761 48.5696 171.449ZM45.2722 184.921C45.2722 184.791 45.3255 184.676 45.4107 184.583C45.495 184.488 45.622 184.448 45.7433 184.442C45.8604 184.437 45.9948 184.499 46.0759 184.583C46.1619 184.668 46.2143 184.798 46.2143 184.921C46.2143 184.938 46.2143 184.956 46.2143 184.974C46.2143 185.104 46.1611 185.219 46.0759 185.313C45.9907 185.406 45.8645 185.448 45.7433 185.454C45.6261 185.459 45.4918 185.396 45.4107 185.313C45.3246 185.225 45.2722 185.097 45.2722 184.974C45.2722 184.956 45.2722 184.938 45.2722 184.921Z" fill="#60B95D"/>
<path d="M71.1414 188.115C71.3896 188.103 71.6207 187.904 71.6125 187.636C71.6116 187.614 71.6247 187.505 71.619 187.513C71.6256 187.489 71.6338 187.456 71.6387 187.44C71.6346 187.444 71.6346 187.444 71.6379 187.435C71.6387 187.432 71.6387 187.431 71.6403 187.431C71.6403 187.433 71.6403 187.435 71.6395 187.438C71.651 187.419 71.6854 187.349 71.6936 187.336C71.7001 187.326 71.7042 187.32 71.7083 187.313C71.7059 187.317 71.7034 187.323 71.6985 187.329C71.7173 187.306 71.737 187.286 71.7591 187.266C71.9377 187.093 71.9434 186.76 71.7591 186.589C71.5674 186.41 71.284 186.404 71.0923 186.589C70.8145 186.858 70.6581 187.245 70.6704 187.636C70.6785 187.886 70.8801 188.127 71.1414 188.115ZM71.6403 187.426C71.6403 187.426 71.6403 187.426 71.6395 187.427C71.6395 187.427 71.6403 187.426 71.6403 187.426Z" fill="#63350F"/>
<path d="M71.7639 189.312C71.7459 189.322 71.7156 189.329 71.6779 189.334C71.673 189.357 71.6672 189.374 71.6639 189.384C71.677 189.346 71.7311 189.33 71.7639 189.312Z" fill="#63350F"/>
<path d="M71.6371 187.435C71.6337 187.444 71.6337 187.444 71.6379 187.44C71.6371 187.439 71.6379 187.439 71.6379 187.437C71.6388 187.434 71.6388 187.432 71.6388 187.43C71.6379 187.431 71.6379 187.432 71.6371 187.435Z" fill="#63350F"/>
<path d="M68.809 182.689C68.5296 184.928 68.1012 187.145 67.5392 189.326C67.6375 189.326 67.7366 189.326 67.8357 189.326C68.0618 189.326 68.2871 189.326 68.5132 189.326C69.0621 187.141 69.4717 184.928 69.7519 182.689C69.8264 182.079 68.8843 182.085 68.809 182.689Z" fill="#63350F"/>
<path d="M67.5392 189.326C67.4368 189.729 67.3287 190.129 67.2156 190.529C67.0485 191.123 67.9578 191.377 68.1241 190.785C68.2601 190.3 68.3904 189.814 68.5124 189.327C68.2863 189.327 68.061 189.327 67.8349 189.327C67.7366 189.326 67.6375 189.326 67.5392 189.326Z" fill="#63350F"/>
<path d="M66.05 183.217C66.1713 183.212 66.2983 183.171 66.3826 183.076C66.467 182.983 66.5211 182.868 66.5211 182.738C66.5211 182.649 66.5211 182.56 66.5211 182.472C66.5211 182.349 66.4686 182.219 66.3826 182.134C66.3007 182.05 66.1672 181.988 66.05 181.993C65.9288 181.998 65.8018 182.039 65.7174 182.134C65.6322 182.227 65.579 182.342 65.579 182.472C65.579 182.56 65.579 182.649 65.579 182.738C65.579 182.86 65.6314 182.99 65.7174 183.076C65.7985 183.16 65.9329 183.222 66.05 183.217Z" fill="#63350F"/>
<path d="M65.4414 179.115C65.4414 178.32 65.3898 177.52 65.2841 176.729C64.5951 177.178 63.9381 177.689 63.2975 178.213C64.0127 178.514 64.7278 178.815 65.4414 179.115Z" fill="#63350F"/>
<path d="M63.7749 188.843C63.8954 188.871 64.0314 188.866 64.1379 188.796C64.2345 188.733 64.3361 188.63 64.3541 188.509C64.3754 188.368 64.3959 188.226 64.4172 188.085C64.4369 187.953 64.4393 187.835 64.3705 187.716C64.3132 187.616 64.2009 187.521 64.0887 187.496C63.9683 187.468 63.8323 187.473 63.7258 187.543C63.6291 187.607 63.5284 187.709 63.5095 187.83C63.4882 187.972 63.4677 188.113 63.4464 188.255C63.4268 188.387 63.4243 188.504 63.4939 188.623C63.5513 188.723 63.6627 188.818 63.7749 188.843Z" fill="#63350F"/>
<path d="M61.9151 188.01C61.9151 184.496 61.9151 180.981 61.9151 177.467C61.9151 176.85 60.973 176.849 60.973 177.467C60.973 180.981 60.973 184.496 60.973 188.01C60.973 188.626 61.9151 188.628 61.9151 188.01Z" fill="#63350F"/>
<path d="M56.9434 190.885C56.9434 191.502 57.8855 191.502 57.8855 190.885C57.8855 190.365 57.8855 189.844 57.8855 189.324C57.5717 189.324 57.2571 189.324 56.9434 189.324C56.9434 189.844 56.9434 190.365 56.9434 190.885Z" fill="#63350F"/>
<path d="M56.9434 177.838C56.9434 181.667 56.9434 185.495 56.9434 189.324C57.2571 189.324 57.5717 189.324 57.8855 189.324C57.8855 185.494 57.8855 181.667 57.8855 177.838C57.8846 177.222 56.9434 177.221 56.9434 177.838Z" fill="#63350F"/>
<path d="M53.6541 179.129C54.2309 179.129 54.6806 178.725 54.8649 178.19C54.937 177.982 55.0116 177.773 55.0886 177.568L54.8649 177.511C54.0572 177.511 53.2494 177.511 52.4417 177.511L52.3319 177.531C52.3704 177.75 52.4073 177.969 52.4417 178.19C52.5285 178.735 53.1462 179.129 53.6541 179.129Z" fill="#63350F"/>
<path d="M54.8651 177.511C54.662 176.231 54.4023 174.961 54.0861 173.706C53.4372 174.925 52.8916 176.202 52.4419 177.511C53.2505 177.511 54.0574 177.511 54.8651 177.511Z" fill="#63350F"/>
<path d="M54.7972 187.743C54.7972 187.126 53.8551 187.126 53.8551 187.743C53.8551 188.239 53.8551 188.737 53.8551 189.234C53.8551 189.266 53.8576 189.296 53.8633 189.325C54.1721 189.325 54.4802 189.325 54.789 189.325C54.7956 189.296 54.7972 189.267 54.7972 189.234C54.7972 188.737 54.7972 188.24 54.7972 187.743Z" fill="#63350F"/>
<path d="M54.7889 189.325C54.48 189.325 54.172 189.325 53.8632 189.325C53.9451 189.821 54.707 189.821 54.7889 189.325Z" fill="#63350F"/>
<path d="M53.8026 182.152C53.9238 182.147 54.0508 182.105 54.1352 182.011C54.2204 181.918 54.2736 181.803 54.2736 181.673C54.2736 181.601 54.2736 181.53 54.2736 181.459C54.2736 181.336 54.2212 181.207 54.1352 181.121C54.0533 181.038 53.9197 180.975 53.8026 180.98C53.6813 180.985 53.5544 181.026 53.47 181.121C53.3848 181.214 53.3315 181.329 53.3315 181.459C53.3315 181.529 53.3315 181.601 53.3315 181.673C53.3315 181.795 53.384 181.924 53.47 182.011C53.5519 182.094 53.6854 182.157 53.8026 182.152Z" fill="#63350F"/>
<path d="M36.45 191.999C36.631 191.999 36.8219 191.948 36.9989 191.858C35.6119 191.63 35.6897 189.321 37.2266 189.321C37.3421 189.321 37.4568 189.321 37.5723 189.321C37.3716 186.575 37.5527 183.703 38.3784 181.103C38.507 180.696 38.7454 180.18 38.9846 179.934C39.0338 179.882 39.0854 179.833 39.1387 179.787C39.1428 179.784 39.1485 179.779 39.1542 179.773C39.1575 179.77 39.1616 179.766 39.1657 179.762L39.1665 179.761C39.2222 179.739 39.2443 179.731 39.2337 179.74C39.2714 179.727 39.3099 179.717 39.3492 179.71C39.368 179.706 39.3828 179.702 39.3934 179.7C39.382 179.703 39.3639 179.707 39.341 179.714C39.4999 179.707 39.5458 179.711 39.4778 179.722C39.5122 179.739 39.6376 179.8 39.7121 179.85C40.1316 180.133 40.4207 180.677 40.6919 181.138C41.0851 181.805 41.507 182.484 42.119 182.967C42.6998 183.428 43.7025 183.528 44.0925 182.709C45.0002 180.796 44.8208 178.786 44.8347 176.727C44.8462 175.116 45.0755 173.514 45.685 172.022C46.2265 170.699 47.194 169.23 48.5179 168.696C48.7628 168.597 49.0332 168.546 49.3027 168.555C49.3134 168.556 49.3584 168.561 49.3936 168.566C49.3895 168.565 49.3863 168.563 49.3838 168.562C49.3986 168.565 49.4092 168.566 49.4174 168.567C49.4108 168.567 49.4027 168.566 49.3936 168.565C49.4354 168.579 49.5419 168.616 49.4985 168.586C49.6517 168.666 49.6894 168.678 49.7787 168.804C50.253 169.465 50.4824 170.467 50.7462 171.248C51.436 173.297 51.9635 175.398 52.3355 177.529L52.4452 177.509C52.895 176.201 53.4406 174.924 54.0894 173.704C53.8305 172.681 53.5348 171.665 53.1997 170.663C52.8532 169.627 52.5337 168.438 51.9439 167.514C51.3327 166.559 50.3513 166.007 49.2306 165.999C47.1457 165.987 45.4344 167.571 44.3284 169.22C43.2241 170.868 42.6875 172.837 42.4467 174.795C42.3082 175.921 42.323 177.039 42.3434 178.171C42.3475 178.452 42.3541 178.739 42.3508 179.027C42.4065 179.106 42.4598 179.186 42.5122 179.266C42.9464 179.941 43.2561 180.654 43.895 181.16C43.238 181.247 42.5794 181.333 41.9215 181.419C42.2722 180.681 42.3443 179.847 42.3508 179.026C41.8519 178.309 41.2318 177.693 40.4109 177.365C38.7299 176.693 37.1332 177.787 36.3984 179.309C35.6005 180.959 35.3506 182.909 35.1532 184.716C34.9344 186.713 34.9541 188.727 35.1941 190.721C35.2752 191.406 35.7119 191.999 36.45 191.999Z" fill="#63350F"/>
<path d="M51.1432 189.164C51.0556 188.605 51.0458 188.042 51.0908 187.478C51.14 186.862 50.1979 186.867 50.1487 187.478C50.0987 188.099 50.1291 188.708 50.22 189.324C50.2618 189.324 50.3027 189.324 50.3445 189.324C50.6116 189.324 50.8786 189.324 51.1449 189.324C51.1523 189.274 51.1523 189.22 51.1432 189.164Z" fill="#63350F"/>
<path d="M50.2202 189.324C50.2243 189.355 50.2292 189.388 50.235 189.419C50.3218 189.97 51.0755 189.809 51.1459 189.324C50.8789 189.324 50.6118 189.324 50.3456 189.324C50.303 189.324 50.262 189.324 50.2202 189.324Z" fill="#63350F"/>
<path d="M49.2182 172.71C49.4795 172.636 49.595 172.376 49.5467 172.12C49.5065 171.906 49.4983 171.679 49.5114 171.449C49.5254 171.197 49.2853 170.958 49.0404 170.969C48.7733 170.981 48.5841 171.18 48.5693 171.449C48.553 171.76 48.5808 172.069 48.6382 172.374C48.6865 172.629 48.9871 172.773 49.2182 172.71Z" fill="#63350F"/>
<path d="M47.6667 190.513C47.7462 191.116 48.6891 191.124 48.6088 190.513C48.5564 190.117 48.5064 189.72 48.4572 189.324C48.1435 189.324 47.8289 189.324 47.5151 189.324C47.5643 189.721 47.6143 190.117 47.6667 190.513Z" fill="#63350F"/>
<path d="M46.4263 175.603C46.5885 180.192 46.953 184.769 47.515 189.324C47.8288 189.324 48.1434 189.324 48.4571 189.324C47.8951 184.769 47.5306 180.192 47.3684 175.603C47.3463 174.989 46.4042 174.985 46.4263 175.603Z" fill="#63350F"/>
<path d="M45.7431 185.454C45.8644 185.449 45.9914 185.407 46.0757 185.313C46.1601 185.219 46.2142 185.104 46.2142 184.974C46.2142 184.956 46.2142 184.938 46.2142 184.921C46.2142 184.798 46.1618 184.668 46.0757 184.582C45.9938 184.499 45.8603 184.437 45.7431 184.442C45.6219 184.447 45.4949 184.487 45.4105 184.582C45.3253 184.676 45.2721 184.791 45.2721 184.921C45.2721 184.938 45.2721 184.956 45.2721 184.974C45.2721 185.097 45.3245 185.226 45.4105 185.313C45.4916 185.396 45.626 185.459 45.7431 185.454Z" fill="#63350F"/>
<path d="M43.8933 181.162C43.2551 180.656 42.9446 179.942 42.5105 179.268C42.458 179.187 42.4048 179.107 42.3491 179.029C42.3425 179.85 42.2704 180.682 41.9198 181.421C42.5776 181.334 43.2363 181.248 43.8933 181.162Z" fill="#63350F"/>
<path d="M42.5537 190.058C42.6995 190.656 43.6081 190.403 43.4622 189.804C43.4237 189.644 43.3893 189.484 43.3598 189.324C43.042 189.324 42.7225 189.324 42.4038 189.324C42.4431 189.569 42.4939 189.814 42.5537 190.058Z" fill="#63350F"/>
<path d="M43.238 187.104C43.2798 186.488 42.3377 186.491 42.2959 187.104C42.2443 187.852 42.282 188.591 42.4041 189.322C42.7219 189.322 43.0414 189.322 43.3601 189.322C43.2249 188.591 43.1872 187.857 43.238 187.104Z" fill="#63350F"/>
<path d="M40.4518 190.731C40.7 191.293 41.5119 190.806 41.2653 190.247C41.1334 189.947 41.0384 189.638 40.9704 189.323C40.6574 189.323 40.3453 189.323 40.0323 189.322C40.1159 189.799 40.2478 190.27 40.4518 190.731Z" fill="#63350F"/>
<path d="M40.8212 185.612C40.809 184.996 39.8669 184.994 39.8791 185.612C39.9045 186.86 39.8177 188.112 40.0323 189.321C40.3453 189.322 40.6574 189.322 40.9703 189.322C40.7107 188.12 40.8466 186.83 40.8212 185.612Z" fill="#63350F"/>
<path d="M39.1655 179.762C39.1876 179.755 39.2106 179.747 39.2327 179.741C39.2425 179.732 39.2204 179.74 39.1655 179.762Z" fill="#63350F"/>
<path d="M39.1804 179.771C39.2083 179.756 39.2255 179.746 39.2328 179.741C39.2107 179.747 39.1878 179.755 39.1657 179.762L39.1648 179.763C39.1607 179.767 39.1567 179.771 39.1534 179.774C39.1468 179.779 39.1419 179.785 39.1378 179.788C39.1116 179.812 39.1255 179.807 39.1804 179.771Z" fill="#63350F"/>
<path d="M37.705 190.722C37.6493 190.26 37.6043 189.793 37.5707 189.322C37.4552 189.322 37.3405 189.322 37.225 189.322C35.6881 189.322 35.6095 191.631 36.9964 191.86C37.4208 191.644 37.764 191.208 37.705 190.722Z" fill="#63350F"/>
</g>
<defs>
<clipPath id="clip0">
<rect width="308.833" height="184" fill="white"/>
</clipPath>
<clipPath id="clip1">
<rect width="40" height="26" fill="white" transform="translate(35 166)"/>
</clipPath>
</defs>
</svg>
