<svg width="309" height="184" viewBox="0 0 309 184" fill="none" xmlns="http://www.w3.org/2000/svg">
<g clip-path="url(#clip0)">
<path d="M0.812286 82.4547C1.21844 82.0485 1.62463 81.5069 2.03082 81.1008C2.30161 80.4238 2.8432 79.7468 3.65555 79.2052C5.00949 77.4451 6.09262 75.685 7.17578 73.7895C9.88364 68.7799 11.1022 63.4996 11.9146 57.4069C12.1853 55.1052 12.4561 52.6681 12.5915 50.0956C12.9977 43.4613 13.2685 36.6916 11.373 30.1927C9.88367 25.0478 7.85275 21.1214 8.80051 15.7056C9.34207 12.8623 12.3207 12.1854 14.6224 13.1331C15.0286 13.2685 15.4348 13.5393 15.7056 13.8101C15.841 13.5393 16.1118 13.1331 16.2472 12.8623C17.0595 11.7792 18.4135 10.8314 20.1736 10.5606C29.7865 9.3421 39.3995 8.25895 49.1478 7.31119C63.9057 5.82186 78.6636 4.46793 93.4215 3.24938C98.8373 2.8432 104.388 2.30163 110.075 1.89545C129.03 0.406117 148.391 -0.94782 166.94 0.812298C167.617 0.812298 168.294 1.21848 168.7 1.76005C169.513 2.16623 170.19 2.8432 170.596 3.65557C170.596 4.19714 170.731 4.73871 170.731 5.41568C184.271 7.1758 197.81 9.3421 211.349 11.6438C234.637 15.7056 258.466 20.0382 281.077 26.6725C283.243 27.3495 284.327 28.7034 284.462 30.1927C284.462 30.3281 284.462 30.4635 284.462 30.5989C287.847 41.5658 287.17 53.345 289.336 64.4473C290.69 71.217 292.315 77.9867 294.346 84.621C294.887 85.5687 295.429 86.3811 295.97 87.3289C296.647 88.412 296.647 89.766 296.377 91.1199C297.189 93.4216 297.866 95.5879 298.678 97.7542C299.626 100.462 297.324 102.222 294.752 102.358C294.21 102.358 293.533 102.358 292.992 102.222C292.45 102.087 292.044 101.951 291.502 101.681C290.69 102.358 289.472 102.764 288.118 102.628C287.711 102.628 287.305 102.493 286.764 102.358C286.764 102.358 286.628 102.358 286.493 102.222C285.816 101.951 285.139 101.816 284.597 101.545C279.994 99.9205 275.391 98.4311 270.652 96.9418C259.279 93.4216 247.77 90.5783 235.72 88.2766H235.585C228.138 86.9227 220.692 85.5687 213.245 84.2148C209.048 83.4024 204.715 82.7255 200.518 81.9131C198.216 81.5069 195.915 80.9654 193.613 80.5592C193.884 78.9344 193.748 77.0389 193.884 75.4142C194.019 73.3833 194.561 71.4878 195.238 69.5923C195.508 68.9153 194.967 68.103 194.29 67.9676C194.154 67.9676 194.019 67.9676 193.884 67.9676C193.613 67.6968 193.207 67.426 192.665 67.426C188.603 67.9676 184.541 67.8322 180.615 67.8322C179.938 67.8322 179.397 67.8322 178.72 67.8322C178.72 67.1552 178.313 66.4782 177.366 66.4782C170.731 66.4782 164.097 65.9367 157.463 65.9367C151.641 65.9367 145.684 65.1243 139.862 64.9889C133.904 64.8535 127.947 65.5305 121.99 65.6659C119.146 65.8013 116.303 65.9367 113.46 65.8013C111.835 65.6659 109.669 65.3951 108.315 66.4782C106.69 67.6968 107.367 69.5923 107.773 71.3524C108.315 73.9249 107.773 76.6328 107.367 79.2052C99.9204 79.6114 92.4738 79.7468 85.0271 79.3406C82.3193 79.3406 79.7468 79.3406 77.0389 79.3406C74.0603 79.3406 70.9462 79.3406 67.9675 79.3406C61.3333 79.3406 54.8344 79.3406 48.3355 79.6114C37.0978 80.0176 26.1309 81.2361 15.5702 84.3502C12.8623 85.1626 10.1544 85.9749 7.44656 87.0581C6.09262 87.5997 5.00946 87.4643 4.06171 87.0581C4.06171 87.0581 4.06174 87.0581 3.92633 87.0581C3.24936 87.1935 2.70779 87.0581 2.1662 86.9227C1.89542 86.9227 1.76004 86.7873 1.48926 86.6519C0.67688 86.2457 0.270691 85.5687 0.135315 84.7564C-0.135468 84.0794 0.135315 83.2671 0.812286 82.4547Z" fill="#F7875F"/>
<path d="M250.614 82.861C251.291 82.9964 251.968 83.1318 252.645 83.1318C254.269 83.4026 256.03 83.6733 257.79 84.0795C257.519 83.8087 257.383 83.4026 257.248 83.1318C256.03 83.1318 254.946 82.9964 253.728 82.9964C252.374 82.861 250.885 82.861 249.531 82.7256C249.801 82.7256 250.208 82.861 250.614 82.861Z" fill="#F7875F"/>
<path d="M102.764 14.2162C104.118 13.9454 105.472 13.6747 106.69 13.4039C105.336 13.5393 103.982 13.5393 102.628 13.6747C102.764 13.9454 102.764 14.0808 102.764 14.2162Z" fill="#F7875F"/>
<path d="M24.2356 68.5092C23.9648 68.103 23.694 67.6968 23.5586 67.1553C23.4232 67.6968 23.1524 68.2384 23.017 68.6446C23.4232 68.6446 23.8294 68.6446 24.2356 68.5092Z" fill="#F7875F"/>
<path d="M93.6925 100.598C85.0273 99.9206 80.2885 109.534 79.6116 116.709C78.7992 125.375 81.1009 134.988 82.4549 143.653C89.0891 143.247 96.1296 142.976 102.764 143.924C102.899 143.382 103.035 142.84 103.441 142.299C104.389 140.809 105.201 139.049 105.878 136.883C107.909 130.384 108.315 121.313 106.42 113.866C104.524 106.69 100.462 101.139 93.6925 100.598Z" fill="#F7875F"/>
<path d="M52.1265 146.631C58.2192 145.684 64.3119 145.007 70.4046 144.465C70.54 144.465 70.6754 144.465 70.8108 144.465C70.8108 144.33 70.8108 144.194 70.8108 144.059C70.1338 133.092 69.5923 117.657 62.4164 109.263C58.0838 104.118 50.6371 102.358 46.3045 108.45C41.972 114.543 44.2736 122.667 47.2523 128.624C47.9293 130.113 47.6585 131.603 46.8461 132.55C47.1169 133.227 47.2523 133.904 47.5231 134.581C48.7416 138.508 49.9602 142.57 50.7725 146.767C51.0433 146.767 51.5849 146.631 52.1265 146.631Z" fill="#F7875F"/>
<path d="M221.775 116.303C220.692 113.595 218.796 111.294 216.088 109.804C215.547 109.534 215.005 109.263 214.328 108.992C213.651 108.721 212.974 108.45 212.162 108.315H212.027C210.673 108.044 209.454 107.909 208.236 108.044C200.924 108.721 198.893 117.386 198.352 124.427C198.216 125.645 198.216 126.864 198.216 128.082C197.946 133.363 197.946 138.643 197.946 143.924V144.059C197.946 145.954 197.946 147.715 198.081 149.61C198.081 149.881 198.081 150.152 198.081 150.422C198.081 151.235 198.081 151.912 198.081 152.724C204.58 152.724 211.214 152.995 217.848 153.401C217.848 153.266 217.848 153.13 217.848 152.995C218.39 151.235 219.067 149.068 219.744 146.631C222.452 137.425 225.295 124.698 221.775 116.303Z" fill="#F7875F"/>
<path d="M262.799 119.959C262.799 119.823 262.799 119.823 262.799 119.959C262.122 118.063 260.904 116.574 258.873 115.897C252.509 113.731 246.01 118.876 242.626 123.75C236.533 132.821 234.773 144.601 231.388 154.89C237.751 155.838 244.115 157.192 250.208 159.223C250.614 159.358 251.155 159.494 251.562 159.629C251.968 158.275 252.239 156.786 252.645 155.432C252.915 154.62 253.186 153.807 253.322 152.86C255.217 146.496 257.79 140.403 260.768 134.446C261.039 133.769 261.445 133.092 261.716 132.415C262.122 131.603 262.664 130.655 263.07 129.843C263.476 126.593 263.882 122.802 262.799 119.959Z" fill="#F7875F"/>
<path d="M278.37 106.149C278.776 106.555 279.182 107.096 279.317 107.638C279.724 107.232 280.13 106.826 280.536 106.419C279.859 106.284 279.047 106.284 278.37 106.149Z" fill="#F5F5F5"/>
<path d="M297.46 99.6498C297.595 99.7852 297.595 99.9206 297.595 100.191C297.731 100.191 297.866 100.191 297.866 100.327C298.679 100.598 298.272 101.816 297.595 101.545C297.46 101.545 297.189 101.41 297.054 101.41L295.294 95.588C295.835 96.8065 296.648 98.2958 297.46 99.6498Z" fill="#63350F"/>
<path d="M292.315 85.975L295.158 95.4526C293.669 92.4739 292.45 89.4953 291.232 86.5166C291.638 86.5166 292.044 86.3812 292.315 85.975Z" fill="#63350F"/>
<path d="M297.324 102.764L299.22 108.857L297.866 109.534L295.835 102.628L295.294 100.868C295.835 101.004 296.377 101.139 296.918 101.275L297.324 102.764Z" fill="#63350F"/>
<path d="M93.2863 63.635C88.1413 69.5923 78.9346 68.9154 74.7374 62.5519C69.8632 66.7491 60.521 70.2693 57.1362 64.4474C54.2929 70.6755 45.0861 70.1339 39.8058 65.2597C37.6395 68.2384 34.5254 70.9463 30.3282 70.9463C27.485 70.9463 25.0479 69.7277 23.6939 67.5614C21.2568 71.2171 17.0596 72.9772 12.5916 72.4356C12.8624 71.7586 13.1332 71.0817 13.404 70.4047C17.6012 70.8109 21.1215 68.6446 22.8816 64.5828C23.2878 63.7704 24.7771 64.0412 24.9125 64.8536C27.0788 73.6542 36.4209 66.7491 39.1288 63.2288C39.6704 62.5519 40.7535 62.958 40.7535 63.635C44.003 66.7491 55.1053 72.8418 55.9176 61.0625C55.9176 60.1148 57.5424 59.7086 57.8131 60.7917C60.1148 69.1862 69.1862 65.1243 74.0604 61.3333C73.925 61.0625 73.7896 60.7917 73.6542 60.521C73.248 59.4378 75.0081 58.8962 75.5497 59.9794C75.5497 59.9794 75.5497 60.1148 75.6851 60.1148C76.0913 60.1148 76.4975 60.6564 76.0913 61.0625C79.6115 67.2906 88.6829 67.426 92.7447 61.3333C93.1509 60.7917 94.234 60.7917 94.5048 61.4687C95.7234 66.8845 100.733 68.9154 106.013 67.426C106.013 67.5614 105.878 67.6968 105.878 67.9676C105.878 68.2384 106.013 68.3738 106.149 68.6446C100.868 70.8109 95.4526 68.5092 93.2863 63.635Z" fill="#63350F"/>
<path d="M81.3716 34.5254C81.507 33.713 82.7256 33.5776 82.9964 34.2546C84.8919 37.7748 88.1413 39.3996 91.6616 38.858C91.797 39.2642 91.9323 39.6703 92.2031 40.0765C88.4121 40.8889 85.0273 39.6703 82.4548 36.6917C79.7469 42.7844 68.1031 43.0552 64.5828 37.3686C62.8227 39.1288 59.7086 40.0765 57.5423 40.2119C54.6991 40.4827 52.3974 39.6703 50.7727 37.7748C48.471 43.4614 38.5872 44.0029 35.744 38.4518C34.7962 39.6703 34.1192 41.1597 32.9007 41.972C31.276 43.1906 29.2451 43.8675 27.3496 43.8675C24.3709 43.8675 21.5276 42.3782 19.6321 40.0765C19.7675 40.0765 19.7675 40.0765 19.9029 39.9411C20.1737 39.8057 20.4445 39.3995 20.4445 39.1288C20.4445 38.9934 20.4445 38.9934 20.5799 38.858C20.5799 38.9934 20.4445 39.1288 20.4445 39.1288C20.5799 38.858 20.5799 38.7226 20.7153 38.4518C20.7153 38.3164 20.8507 38.181 20.8507 38.0456C23.4231 41.1597 27.2142 42.7844 31.0052 40.6181C32.6299 39.8057 33.5777 37.6394 35.067 36.5563C35.067 36.2855 34.9316 36.0147 34.9316 35.7439C34.7962 34.6608 36.6917 34.39 36.9625 35.4731C36.9625 35.7439 37.0979 36.0147 37.0979 36.1501C37.2333 36.2855 37.2333 36.4209 37.2333 36.5563C39.3996 41.5658 49.4187 40.8889 49.2833 34.5254C49.2833 33.3068 50.9081 33.1714 51.3142 34.2546C52.3974 37.7748 61.198 39.1288 64.0412 35.4731C64.0412 35.3377 63.9059 35.2023 63.9059 35.067C63.7705 34.2546 64.4474 33.713 64.989 33.8484C65.3952 33.5776 66.0722 33.8484 65.9368 34.39C65.9368 34.5254 65.9368 34.6608 65.9368 34.7962C67.8323 40.7535 80.2885 41.1597 81.3716 34.5254Z" fill="#63350F"/>
<path d="M161.66 34.7962C165.586 38.7226 168.971 39.5349 171.679 37.0979C172.356 36.5563 173.033 36.0147 173.71 35.4731C174.252 35.067 175.064 35.3377 175.199 36.0147C176.689 44.4091 185.625 41.7012 189.416 37.2333C189.957 36.6917 191.04 36.9625 190.905 37.7748C191.04 38.858 191.176 39.9411 191.311 41.0243C190.77 41.1597 190.364 41.2951 189.822 41.5659C189.687 40.8889 189.416 40.3473 189.416 39.6703C184.406 44.1383 176.147 44.9507 173.71 37.7748C171.138 39.9411 168.159 41.8366 164.774 41.2951C162.202 40.8889 160.712 39.3996 160.035 37.3686C155.974 42.649 148.256 41.4305 145.142 35.4731C141.351 40.8889 130.249 40.6181 127.541 34.2546C127.541 34.39 127.541 34.5254 127.405 34.6608C122.802 40.8889 113.054 43.326 109.263 35.8793C105.201 40.0765 96.2649 42.9198 93.6925 37.7748C93.0155 38.9934 91.9323 40.0765 90.8492 40.7535C90.8492 40.4827 90.8492 40.0765 90.8492 39.8057C90.8492 39.3996 90.7138 39.1288 90.5784 38.858C90.8492 38.7226 91.12 38.4518 91.2554 38.3164C92.3385 37.2333 92.7447 36.0147 93.0155 34.5254V34.39C93.0155 34.1192 93.0155 33.9838 93.1509 33.8484C93.2863 33.5776 93.6924 33.3068 93.9632 33.4422C94.5048 33.4422 95.1818 33.8484 95.1818 34.5254C97.8896 38.5872 101.004 39.5349 104.389 37.504C106.284 36.5563 107.638 35.067 108.721 33.1714C109.263 32.3591 110.346 32.7653 110.617 33.5776C112.106 35.2023 113.46 36.8271 114.949 38.4518C117.793 39.2642 120.23 38.858 122.396 37.2333C124.021 36.2855 125.239 35.2023 126.593 33.8484C126.864 33.5776 127.27 33.713 127.405 33.9838C127.405 33.8484 127.27 33.713 127.27 33.5776C126.999 32.4945 128.895 31.8175 129.166 32.9007C130.384 36.8271 142.84 38.858 144.194 32.6299C144.465 31.5467 145.954 31.4113 146.225 32.4945C147.85 38.4518 150.829 39.9411 155.161 37.0979C157.327 37.2333 158.817 36.6917 159.765 35.3377C159.765 35.067 159.765 34.6608 159.765 34.39C159.765 33.3068 161.66 33.5776 161.66 34.7962Z" fill="#63350F"/>
<path d="M28.9741 21.2568C29.2449 20.309 30.5989 20.309 30.8696 21.2568C34.1191 31.5467 44.5444 25.7248 47.2523 18.9551C47.3877 18.5489 47.7938 18.5489 48.0646 18.6843C48.3354 18.6843 48.7416 18.8197 48.877 19.2259C52.1265 27.2141 60.2501 24.2355 63.6349 18.5489C64.0411 17.872 64.9889 18.0074 65.2597 18.8197C69.7276 25.454 74.0602 25.454 78.3928 18.8197C78.3928 18.1427 79.476 18.0074 79.476 18.6843C80.0176 22.6107 77.1743 24.777 73.5187 25.454C69.4568 26.131 66.072 24.3709 64.1765 20.986C59.8439 26.5372 51.0433 28.8388 47.6585 21.5276C44.409 29.245 34.1191 31.8175 29.7865 24.2355C27.7556 28.1619 23.6938 31.6821 19.3612 31.8175C19.3612 31.6821 19.3612 31.5467 19.3612 31.2759C19.3612 31.4113 19.3612 31.4113 19.3612 31.5467C19.3612 31.1405 19.3612 30.7344 19.3612 30.4636C19.3612 30.0574 19.3612 29.6512 19.2258 29.245C20.7151 28.9742 21.9337 28.8388 21.7983 28.9742C25.3185 27.7557 27.891 24.777 28.9741 21.2568Z" fill="#63350F"/>
<path d="M5.55124 80.0176C6.22821 79.3406 6.76981 78.6636 7.31137 77.9866C9.88385 75.008 11.7794 71.6231 13.4041 68.1029C14.2165 66.2074 15.0288 64.1765 15.7058 62.0102C15.7058 61.8748 15.7058 61.8748 15.8412 61.7394C15.8412 61.604 15.8412 61.604 15.8412 61.4686C15.7058 61.4686 15.5704 61.4686 15.435 61.3332L16.112 60.3855C16.7889 58.0838 17.1951 55.7821 17.6013 53.4804C17.8721 51.9911 18.0075 50.3663 18.2783 48.877C19.3614 38.4517 20.1738 26.6724 17.3305 16.5179C17.3305 16.3825 17.3305 16.2471 17.3305 16.1117C16.9243 15.5702 17.0597 14.6224 17.8721 14.487C18.6844 14.3516 19.6322 14.2162 20.4445 13.9454C20.9861 13.81 21.3923 13.81 21.9339 13.6747C31.2761 11.9145 40.6182 10.2898 49.9604 9.07127C61.875 7.44654 73.925 6.36339 85.9751 5.68643C91.2554 5.41564 96.5358 5.14485 101.952 5.00946C119.147 4.46788 136.748 4.60328 153.537 7.17576C153.672 7.17576 153.943 7.17576 154.078 7.31115C154.078 7.71733 154.078 8.25891 154.214 8.66509H154.078C153.943 8.66509 153.943 8.80048 153.807 8.93587C153.807 8.93587 153.807 8.93587 153.807 8.80048H153.672C131.467 8.3943 109.398 6.76958 87.1936 7.98812C64.1767 9.20666 41.4306 12.1853 18.8198 16.6533C19.903 19.632 20.4445 22.8814 20.8507 26.1309V26.2663C20.8507 26.4017 20.8507 26.6724 20.8507 26.8078C20.8507 26.6724 20.8507 26.5371 20.8507 26.5371C20.8507 26.9432 20.8507 27.3494 20.8507 27.7556C20.8507 28.2972 20.8507 28.7034 20.9861 29.2449C20.9861 29.3803 21.1215 29.5157 21.1215 29.5157C21.2569 32.7652 21.2569 36.0146 21.1215 39.2641C21.1215 39.3995 20.9861 39.5348 20.9861 39.6702C20.9861 40.0764 21.1215 40.4826 20.9861 40.8888V41.0242C20.8507 41.1596 20.8507 41.4304 20.7153 41.5658C20.58 41.9719 20.58 42.3781 20.7153 42.7843C20.7153 42.7843 20.7154 42.9197 20.8507 42.9197C20.8507 43.5967 20.7154 44.2736 20.58 44.9506C20.58 44.9506 20.58 45.086 20.4445 45.086C20.3092 45.4922 20.3091 46.0337 20.3091 46.4399C20.3091 46.5753 20.3092 46.7107 20.1738 46.7107C20.1738 46.5753 20.3091 46.5753 20.3091 46.4399C20.1738 46.7107 20.0384 46.9815 20.0384 47.2523C19.903 47.6585 20.0384 47.9293 20.1738 48.3354C20.0384 49.4186 19.903 50.6371 19.7676 51.7203C19.226 55.7821 18.4137 59.7085 17.1951 63.4995C17.1951 63.4995 17.1951 63.4995 17.1951 63.6349C16.9243 64.4473 16.6535 65.2596 16.3828 66.072C16.2473 66.3428 16.112 66.6136 15.9766 66.8844C15.8412 67.1552 15.8412 67.2906 15.8412 67.5613C14.0811 71.8939 11.644 76.0911 8.39453 79.7468C8.25912 79.8822 8.12375 80.0176 7.98834 80.1529C8.25912 80.1529 8.66531 80.0176 8.9361 80.0176C12.7271 79.2052 16.5181 78.5282 20.4445 77.8513C29.7867 76.2265 39.1289 75.008 48.471 73.9248C50.6373 73.654 52.939 73.5187 55.1053 73.2479C68.3739 71.8939 81.9133 70.6754 95.3173 70.8108C98.7021 70.8108 102.222 70.9462 105.607 71.217C105.878 71.217 106.013 71.3524 106.013 71.4877C106.013 69.5922 106.013 67.5613 105.878 65.6658H107.773C107.909 65.6658 108.044 65.6658 108.18 65.5304C108.315 79.8822 108.315 94.3693 108.315 108.721C108.18 127.541 108.721 146.767 106.961 165.586C107.909 165.586 108.992 165.586 109.94 165.722C111.023 165.722 112.241 165.857 113.325 165.857C112.106 163.691 111.564 160.983 112.106 158.546C112.241 158.004 112.648 157.869 113.054 158.004C113.189 157.869 113.325 157.869 113.595 157.869C131.061 157.327 148.527 158.14 165.722 160.848V160.712C166.264 159.629 167.076 158.681 167.617 157.598C168.024 156.786 168.43 155.973 168.971 155.161C151.776 153.266 134.852 152.453 117.522 153.807C117.251 153.807 117.116 153.807 116.98 153.672C117.251 154.755 117.386 155.838 117.657 156.786C117.793 157.463 116.709 157.869 116.574 157.057C116.168 155.838 115.762 154.619 115.491 153.536C115.356 152.724 116.303 152.318 116.709 152.859C116.709 152.453 116.98 152.182 117.522 152.047C120.23 151.776 122.938 151.641 125.51 151.505C125.375 151.37 125.375 151.235 125.375 150.964C126.458 141.892 127.541 132.956 127.947 123.75C128.353 114.272 127.676 104.93 127.676 95.4524C127.676 95.0462 128.083 94.9109 128.353 95.0462C128.353 94.6401 128.624 94.3693 129.166 94.2339C133.498 93.8277 138.643 93.5569 142.976 94.9109C143.111 94.9109 143.111 95.0463 143.247 95.1816C143.788 94.9109 144.465 95.1816 144.33 95.8586C141.893 114.001 140.674 132.55 137.289 150.558C137.154 150.964 136.477 150.828 136.477 150.422C137.018 132.28 140.268 114.001 142.57 95.994C138.102 96.1294 133.634 95.5878 129.166 95.994C129.03 95.994 128.895 95.994 128.759 95.8586C130.52 114.272 129.436 132.686 127.27 150.964C127.27 151.099 127.135 151.235 127.135 151.37C131.332 151.235 135.394 151.099 139.591 151.235C141.893 133.227 143.517 114.678 146.902 96.671C145.819 96.671 145.819 94.9109 146.902 94.9109C152.589 94.9109 158.411 95.5878 163.691 97.6187C164.097 97.7541 164.233 98.2957 163.962 98.5665C163.962 98.7019 164.097 98.8373 164.097 98.9727C162.473 116.438 160.171 134.852 154.755 151.505C154.755 151.776 154.484 151.776 154.349 151.912C155.567 152.047 156.786 152.047 158.005 152.182C157.869 152.047 157.869 151.912 157.869 151.776C159.9 133.498 163.556 115.355 166.941 97.3479C166.941 97.3479 166.941 97.3479 166.941 97.2126C166.941 97.2126 166.805 97.2126 166.67 97.2126C153.13 92.4738 139.591 90.5783 125.375 91.526C124.968 91.526 124.698 91.3906 124.427 91.1198C124.968 101.545 125.239 111.835 125.104 122.26C124.968 131.738 125.239 141.892 123.208 151.099C123.073 151.776 121.99 151.641 121.99 150.964C121.448 141.08 122.802 130.926 122.938 120.906C123.073 110.887 122.802 100.868 122.261 90.849C122.261 89.7659 123.75 89.4951 124.156 90.4429C124.156 89.9013 124.562 89.3597 125.239 89.3597C139.456 88.0058 153.807 90.1721 166.941 95.7232C167.347 95.8586 167.482 96.4002 167.482 96.8064C168.024 96.8064 168.701 97.2126 168.565 98.0249C165.18 116.032 162.473 134.175 158.817 152.182C158.817 152.318 158.681 152.453 158.546 152.453C162.337 152.859 166.264 153.401 170.055 154.078C170.596 154.213 170.596 155.026 170.055 155.161C169.919 156.244 168.971 157.327 168.294 158.41C167.753 159.223 167.076 160.171 166.399 160.848C167.482 160.983 168.43 161.118 169.513 161.389C169.919 161.525 170.055 161.795 169.919 162.202C170.19 162.337 170.325 162.608 170.19 163.014C169.784 164.232 169.107 165.451 168.565 166.67C168.159 167.482 167.888 168.294 167.482 169.107C170.461 169.377 173.439 169.513 176.418 169.784C178.178 152.859 181.969 135.8 184.948 119.011C187.927 101.816 190.77 84.6209 193.748 67.4259C194.425 67.5613 194.967 67.8321 195.779 67.6967C195.915 67.6967 195.915 67.6967 196.05 67.6967C195.779 69.3215 195.509 70.8108 195.238 72.4355C199.435 74.4664 203.226 73.1125 204.715 69.7276C204.58 69.7276 204.309 69.5922 204.309 69.4568C204.174 69.7276 203.768 69.9984 203.497 69.7276C203.361 69.5922 203.226 69.5922 203.091 69.4568C201.33 68.1029 199.435 66.749 197.675 65.2596C197.269 64.9889 196.863 64.5827 196.456 64.3119C196.863 64.1765 197.269 64.0411 197.675 63.9057C198.081 63.7703 198.623 63.6349 199.029 63.4995C200.654 65.1243 202.278 66.749 203.768 68.3737C203.903 68.5091 204.038 68.6445 204.038 68.6445C204.038 68.6445 204.038 68.7799 204.174 68.7799C204.445 67.6967 204.851 66.4782 205.257 65.395C205.528 64.4473 205.934 63.6349 206.34 62.6872C206.34 62.5518 206.475 62.281 206.611 62.1456C206.611 62.0102 206.746 62.0102 206.746 61.8748C206.882 61.8748 207.152 61.8748 207.288 61.8748C207.694 61.8748 208.1 61.7394 208.371 61.604C208.506 61.4686 208.777 61.4686 208.913 61.3332C209.048 61.1978 209.319 61.1978 209.454 61.0624C209.725 60.927 209.86 60.7916 209.996 60.6563C210.131 60.5209 210.266 60.5209 210.537 60.3855C211.891 59.4377 213.11 58.2192 213.922 56.5944C214.328 55.6467 215.818 56.1883 215.818 57.136C220.286 63.0933 224.077 64.3119 227.461 60.927C228.409 60.2501 229.357 59.4377 230.034 58.3546C230.44 57.813 231.659 58.0838 231.794 58.7607C233.013 67.1552 242.219 69.5922 247.906 63.3641C248.312 62.958 249.124 63.4995 248.989 64.0411C249.26 64.1765 249.666 64.4473 249.666 64.8535C250.072 75.5496 263.747 70.54 267.809 67.1552C268.35 66.749 269.298 66.8844 269.434 67.5613C271.194 75.008 278.911 77.5805 284.868 72.8417C284.191 69.7276 283.65 66.4782 283.108 63.3641C279.453 62.281 276.745 59.7085 275.391 56.3237C271.329 62.8226 261.174 61.1978 259.414 53.6158C253.999 58.49 246.146 56.0529 243.844 49.2832C238.022 54.9697 224.754 53.8866 224.347 45.2214C218.255 50.5017 209.725 48.877 205.798 41.9719C200.789 46.9815 193.071 45.8983 189.822 39.5348C189.551 39.8056 189.416 40.0764 189.145 40.3472C188.874 40.618 188.739 40.7534 188.468 40.8888C188.197 40.7534 188.062 40.4826 187.791 40.3472C187.52 40.0764 187.114 39.8056 186.843 39.5348L187.52 38.8579L189.145 36.9624C189.687 36.15 190.77 36.4208 191.041 37.2332C193.478 44.0028 201.06 44.6798 205.257 39.3995C205.663 38.8579 206.746 38.9933 206.882 39.6702C210.131 47.2523 218.796 48.7416 224.483 43.0551C224.754 42.7843 224.889 42.7843 225.16 42.7843C225.701 42.6489 226.514 43.0551 226.514 43.732C228.138 48.877 231.388 51.4495 235.991 51.1787C239.376 51.0433 241.813 49.554 243.438 46.5753C243.844 45.8983 245.198 45.8983 245.333 46.8461C246.417 54.2928 253.728 56.5944 259.144 51.8557C259.144 50.6371 260.904 50.7725 261.039 51.8557C262.122 59.9793 271.735 60.7916 274.849 53.6158C275.12 52.9388 276.339 53.0742 276.474 53.7512C277.286 57.6776 279.588 60.2501 282.973 61.8748C282.161 55.9175 281.619 49.9602 281.348 44.0028C276.88 46.9815 271.464 44.8152 269.84 39.8056C265.507 46.9815 253.999 44.6798 253.728 35.0669C248.041 39.8056 237.481 41.1596 235.314 33.5775C233.69 35.8792 230.982 37.2332 227.868 37.0978C222.858 36.6916 219.879 32.4944 218.796 28.0264C213.922 36.15 204.038 34.9315 200.789 26.8078C199.029 29.5157 196.05 31.005 192.53 30.7343C188.197 30.3281 185.083 27.214 182.917 23.6938C181.834 25.7247 179.803 27.3494 177.637 28.0264C177.23 28.1618 176.689 28.2972 176.283 28.2972C176.012 28.0264 175.741 27.6202 175.47 27.3494C175.335 27.214 175.064 26.9432 174.929 26.8078C174.793 26.6724 174.658 26.5371 174.658 26.4017C175.2 26.4017 175.741 26.2663 176.283 26.1309C178.72 25.5893 180.751 24.5061 182.105 22.0691C181.428 20.8505 183.188 19.9028 183.865 20.9859C186.302 25.4539 196.592 35.0669 200.112 23.6938C200.383 22.746 201.872 22.6106 202.143 23.6938C202.955 27.891 203.632 28.2972 207.829 29.9219C210.131 32.0882 212.297 32.2236 214.328 30.1927C216.359 29.3803 217.849 28.0264 218.932 26.1309C218.932 25.9955 219.067 25.9955 219.202 25.9955C219.744 25.5893 220.556 25.4539 220.692 26.4017C221.233 29.5157 222.181 31.1404 224.618 33.1713C228.138 36.0146 233.825 35.7438 235.179 30.0573C235.45 29.1095 237.074 29.2449 237.074 30.3281C236.668 41.7011 249.124 37.3685 253.863 33.7129C254.405 33.3067 255.082 33.8483 254.946 34.3899C255.353 34.3899 255.759 34.6607 255.759 35.2022C256.03 43.5967 267.267 45.086 269.704 37.0978C269.975 36.2854 271.329 36.4208 271.329 37.3685C271.329 42.5135 277.422 45.3568 281.619 43.0551C281.619 41.9719 281.484 41.0242 281.484 39.941C281.213 34.2545 279.994 33.4421 274.714 31.8174C270.652 30.4635 266.726 29.2449 262.664 28.1618C230.982 19.0904 198.216 15.164 165.587 11.6437C164.368 11.5084 163.149 11.373 161.931 11.2376H161.796C161.389 11.2376 161.119 11.1022 160.712 11.1022C160.577 11.1022 160.577 11.1022 160.442 10.9668C160.306 10.9668 160.171 10.8314 160.035 10.8314C160.035 10.8314 160.035 10.8314 159.9 10.8314C159.9 10.5606 160.035 10.2898 160.035 10.019C160.171 9.61284 160.442 9.34206 160.577 8.93587C161.389 8.93587 162.066 9.07127 162.879 9.20666C163.149 9.20666 163.556 9.20666 163.962 9.34206C204.038 13.1331 244.521 18.6842 282.567 32.359C282.973 32.4944 283.379 32.9006 283.379 33.4421C284.056 50.9079 285.139 68.2383 290.826 84.4855L294.346 97.4833C293.398 95.994 292.586 94.5047 291.909 93.0153C290.013 94.3693 287.847 94.2339 285.545 93.2861C283.921 92.6092 282.567 91.6614 281.213 90.4429C280.265 89.4951 278.505 86.5164 277.286 86.2457C277.016 86.2457 273.902 87.8704 273.495 88.0058C271.871 88.412 270.11 88.412 268.35 88.1412C263.882 87.3288 260.768 84.2148 259.008 80.1529C259.008 80.1529 259.008 80.1529 259.008 80.0176C257.383 81.3715 255.623 82.4546 253.592 82.9962C253.186 83.1316 252.915 83.1316 252.509 83.267C251.155 83.5378 249.801 83.5378 248.447 83.267C246.417 82.8608 244.386 82.0485 242.761 80.6945C242.084 80.1529 240.188 77.5805 239.512 77.3097C238.699 77.0389 236.397 78.6636 235.585 78.9344C233.96 79.3406 232.2 79.3406 230.576 78.9344C226.514 77.9866 223.67 74.8726 221.775 71.3524C217.578 77.3097 209.86 77.3097 205.528 72.0293C203.361 75.1434 199.3 76.2265 195.779 74.8726C195.779 74.8726 195.644 74.8726 195.644 74.7372C195.373 75.9557 195.238 77.3097 194.967 78.5282H195.102C228.815 79.8822 262.664 88.6828 294.617 99.2435L295.294 100.868C294.346 100.597 293.398 100.327 292.45 100.191C291.909 101.004 291.367 101.816 290.826 102.628C290.69 102.764 290.555 103.034 290.42 103.17C286.358 109.263 282.431 115.491 278.776 121.854C275.797 126.999 272.954 132.28 270.381 137.695C265.372 148.256 261.716 159.087 258.331 170.054C257.383 173.168 256.3 176.418 255.353 179.667C256.436 179.803 257.519 180.073 258.602 180.209C259.144 180.344 259.821 180.344 260.362 180.48C260.768 180.615 261.039 180.615 261.445 180.75L261.31 181.157L261.174 181.563L260.498 183.188C260.227 183.188 259.821 183.052 259.55 183.052C259.008 182.917 258.467 182.917 257.925 182.781C221.504 176.689 184.948 173.033 147.85 170.461C120.5 168.565 92.8802 166.534 65.5307 168.294C59.5733 168.7 53.616 169.242 47.6587 169.919H47.5233C47.5233 170.461 47.6587 171.002 47.6587 171.679C47.7941 173.168 45.6278 173.033 45.4924 171.679C45.4924 171.408 45.357 171.002 45.357 170.596V170.19L45.0862 168.294C45.0862 167.617 44.9508 167.076 44.8154 166.534C44.4092 163.826 44.0031 161.254 43.5969 158.681C40.0766 139.455 33.5777 121.583 24.7772 104.524C21.9339 99.1081 18.9552 93.6923 15.7058 88.412C14.3518 86.2457 13.1333 84.2148 11.7794 82.0485C10.5608 82.3192 9.34225 82.4546 8.12372 82.7254C7.44675 82.8608 7.04059 82.4546 6.90518 81.9131C5.95743 82.1839 4.73889 80.9653 5.55124 80.0176ZM162.608 99.3789C162.608 99.2435 162.743 99.1081 162.743 98.9727C157.869 97.8895 153.13 97.2125 148.121 97.0772C148.662 106.149 146.225 116.032 145.142 124.968C143.924 133.904 142.84 142.705 141.622 151.641C145.819 151.776 150.016 151.912 154.349 152.318C154.078 152.182 153.943 152.047 154.078 151.641C156.921 134.175 160.712 117.115 162.608 99.3789ZM206.475 69.7276C209.996 75.5496 217.036 75.4142 220.963 70.4046C221.098 70.1338 221.504 70.1338 221.64 70.2692C221.91 69.5922 222.858 69.3214 223.264 70.1338C226.378 75.8204 233.419 80.2883 239.241 74.7372C239.647 74.331 240.459 74.331 240.73 74.8726C244.521 82.1839 252.509 83.4024 258.873 78.6636C259.144 78.3928 259.414 78.5282 259.685 78.799C260.091 78.6636 260.768 78.799 261.039 79.476C264.018 86.6518 271.871 88.1412 277.828 83.8086C278.234 83.5378 278.911 83.6732 279.182 84.0794C280.942 88.0058 286.358 94.9109 291.503 92.0676C288.93 86.5164 286.899 80.6945 285.545 74.7372C279.453 80.0176 270.923 77.3097 268.35 69.863C261.851 74.1956 249.124 76.0911 248.177 65.9366C242.49 71.8939 233.013 69.1861 230.576 61.4686C225.566 65.9366 216.359 67.4259 214.464 60.3855C213.245 61.8748 211.756 62.958 209.86 63.4995C209.454 63.6349 208.913 63.7703 208.371 63.9057C208.1 64.8535 207.694 65.6658 207.288 66.6136C206.882 67.5613 206.34 68.6445 205.798 69.4568C205.934 69.1861 206.205 69.3215 206.475 69.7276ZM239.105 177.095C243.844 177.772 248.583 178.449 253.457 179.261C258.873 152.182 272.277 124.562 288.795 102.493C288.93 102.358 289.066 102.222 289.201 101.951C289.743 101.274 290.284 100.462 290.961 99.785C259.685 91.6614 228.951 82.7254 196.456 80.8299C196.186 80.8299 195.779 80.8299 195.509 80.8299H194.832C192.665 93.4215 190.364 106.149 188.197 118.74C185.219 135.935 183.188 153.536 179.126 170.461C199.164 172.085 219.202 174.252 239.105 177.095ZM114.949 165.993C132.28 166.94 149.746 168.023 167.076 169.377C167.617 167.211 168.43 164.774 169.513 163.014C150.964 160.712 132.551 159.223 113.866 159.764C113.866 161.931 114.137 163.826 114.949 165.993ZM14.3518 82.59C33.0362 106.69 43.7323 137.831 47.3879 167.888C66.6138 165.586 86.2459 164.909 105.878 165.586C105.607 155.973 105.743 146.36 105.878 136.748C106.013 129.03 106.284 121.448 106.42 113.731C106.42 112.106 106.42 110.481 106.42 108.721C106.42 96.5356 106.42 84.3502 106.149 72.1647V71.7585C106.149 71.8939 105.878 72.0293 105.743 72.0293C94.9111 72.9771 84.0796 73.2479 73.2481 73.9248C68.1031 74.1956 62.9582 74.6018 57.8132 75.008C43.3261 76.3619 29.1097 78.6636 14.758 80.9653C14.3518 81.1007 13.8103 81.1007 13.4041 81.2361C13.8103 81.9131 14.0811 82.3192 14.3518 82.59Z" fill="#63350F"/>
<path d="M140.674 64.0413C142.84 64.0413 145.142 64.0413 147.308 64.1767C160.577 64.4474 174.116 64.7182 187.52 66.4783C190.905 66.8845 194.29 67.4261 197.675 68.1031C197.81 68.1031 197.945 68.2385 198.081 68.3739C198.081 68.5093 198.081 68.5093 198.216 68.6446L198.352 68.78L198.216 68.9154C197.946 69.0508 197.675 69.1862 197.404 69.1862C186.572 68.78 175.876 67.8323 165.18 67.1553C160.035 66.8845 154.89 66.4783 149.745 66.4783C135.258 66.0722 120.906 66.6137 106.419 67.2907L106.284 67.1553C106.013 66.8845 105.878 66.7491 105.742 66.4783C105.607 66.343 105.607 66.2076 105.472 66.0722V65.9368C105.472 65.8014 105.336 65.666 105.336 65.5306C105.336 65.5306 105.336 65.5306 105.336 65.3952V65.2598V65.1244C107.773 64.989 110.21 64.8536 112.647 64.7182C121.719 64.0413 131.196 63.9059 140.674 64.0413Z" fill="#63350F"/>
<path d="M124.562 19.4967C126.458 22.7462 129.301 24.5063 132.686 25.0479C132.009 25.4541 131.467 25.8602 130.79 26.2664C128.759 25.7249 126.864 24.7771 125.239 23.2878C124.562 25.3187 122.125 26.9434 119.552 27.2142C115.22 27.7558 111.293 25.4541 109.804 21.7984C105.742 27.6204 94.6401 29.6513 92.3384 22.7462C87.8704 27.2142 80.6945 26.131 77.9866 19.6321C77.5804 18.549 79.3406 17.7366 79.8821 18.8198C82.0484 23.4232 88.1411 25.8602 92.0676 19.4967C92.6091 18.549 94.0985 18.9552 94.0985 20.0383C96.2648 24.5063 99.3788 25.9956 103.305 24.5063C106.149 23.694 108.044 21.9338 109.263 19.0906C109.263 18.9552 109.263 18.8198 109.263 18.8198C109.263 17.4658 111.158 17.6012 111.293 18.8198C111.429 22.0692 113.595 24.5063 116.98 25.1833C118.74 25.4541 125.781 25.4541 122.937 20.5799C122.396 19.3614 123.885 18.549 124.562 19.4967Z" fill="#63350F"/>
<path d="M137.424 19.6321C135.394 22.7462 132.415 24.3709 128.895 24.6417C129.436 25.0479 130.113 25.5894 130.655 25.9956C132.821 25.7248 134.717 24.7771 136.477 23.4231C137.018 25.5894 139.32 27.3496 141.757 27.7557C146.09 28.5681 150.151 26.6726 151.776 23.017C155.296 29.1097 166.399 31.9529 169.107 25.3186C173.168 30.0574 180.48 29.5159 183.594 23.2877C184.135 22.2046 182.375 21.2568 181.698 22.34C179.126 26.808 172.898 28.8389 169.513 22.0692C169.107 21.1214 167.617 21.3922 167.482 22.4754C164.909 26.808 161.795 28.0265 158.004 26.2664C155.296 25.3186 153.401 23.2877 152.453 20.4445C152.453 20.3091 152.453 20.1737 152.453 20.1737C152.589 18.9551 150.558 18.8198 150.422 20.0383C150.016 23.2877 147.579 25.5894 144.33 25.8602C142.569 25.9956 135.529 25.454 138.778 20.7153C139.591 19.7675 138.101 18.8198 137.424 19.6321Z" fill="#63350F"/>
<path d="M168.701 54.5637C166.67 57.6778 163.691 59.3025 160.171 59.5733C160.712 59.9795 161.389 60.521 161.931 60.9272C164.097 60.6564 165.993 59.7087 167.753 58.3547C168.295 60.521 170.596 62.2812 173.033 62.6873C177.366 63.4997 181.428 61.6042 183.052 57.9486C186.708 64.0413 197.81 66.8845 200.518 60.1149C204.58 64.8536 211.891 64.3121 215.005 58.084C215.547 57.0008 213.787 56.053 213.11 57.1362C210.537 61.6042 204.309 63.6351 200.924 56.8654C200.518 55.9176 199.029 56.1884 198.894 57.2716C196.321 61.6042 193.207 62.8227 189.416 61.0626C186.708 60.1149 184.813 58.0839 183.865 55.2407C183.865 55.1053 183.865 54.9699 183.865 54.9699C184 53.7513 181.969 53.616 181.834 54.8345C181.428 58.0839 178.991 60.3856 175.741 60.6564C173.981 60.7918 166.941 60.2502 170.19 55.5115C170.867 54.6991 169.378 53.616 168.701 54.5637Z" fill="#63350F"/>
<path d="M123.614 51.8558C121.584 54.9699 118.605 56.5946 115.085 56.8654C115.626 57.2716 116.303 57.8131 116.845 58.2193C119.011 57.9485 120.907 57.0008 122.667 55.6468C123.208 57.8131 125.51 59.5732 127.947 59.9794C132.28 60.7918 136.341 58.8963 137.966 55.2406C141.486 61.3334 152.589 64.1766 155.297 57.5423C159.358 62.2811 166.67 61.7395 169.784 55.5114C170.325 54.4283 168.565 53.4805 167.888 54.5637C165.316 59.0317 159.088 61.0626 155.703 54.2929C155.297 53.3451 153.807 53.6159 153.672 54.6991C151.099 59.0317 147.985 60.2502 144.194 58.4901C141.486 57.5423 139.591 55.5114 138.643 52.6682C138.643 52.5328 138.643 52.3974 138.643 52.3974C138.779 51.1788 136.748 51.0434 136.612 52.262C136.206 55.5114 133.769 57.8131 130.52 58.0839C128.759 58.2193 121.719 57.6777 124.968 52.939C125.781 51.9912 124.291 50.9081 123.614 51.8558Z" fill="#63350F"/>
<path d="M78.1224 49.8249C76.0915 52.939 73.1128 54.5637 69.5926 54.8345C70.1341 55.2407 70.8111 55.7822 71.3527 56.1884C73.519 55.9176 75.4145 54.9699 77.1746 53.6159C77.7162 55.7822 80.0179 57.5424 82.455 57.9485C86.7876 58.7609 90.8494 56.8654 92.4741 53.2098C95.9943 59.3025 107.097 62.1458 109.804 55.5115C113.866 60.2502 121.178 59.7087 124.292 53.4806C124.833 52.3974 123.073 51.4496 122.396 52.5328C119.824 57.0008 113.596 59.0317 110.211 52.262C109.804 51.3143 108.315 51.585 108.18 52.6682C105.607 57.0008 102.493 58.2193 98.7022 56.4592C95.9943 55.5115 94.0988 53.4806 93.1511 50.6373C93.1511 50.5019 93.1511 50.3665 93.1511 50.3665C93.2864 49.148 91.2555 49.0126 91.1201 50.2311C90.714 53.4806 88.2769 55.7822 85.0274 56.053C83.2673 56.1884 76.2269 55.6469 79.4763 50.9081C80.2887 49.8249 78.7993 48.8772 78.1224 49.8249Z" fill="#63350F"/>
<path d="M26.2666 51.8558C24.2357 55.2407 21.1216 57.1362 17.1952 57.8132C17.8722 58.2193 18.6845 58.6255 19.3615 58.8963C21.6632 58.3547 23.8295 57.2716 25.5896 55.6469C26.402 57.6778 29.2452 59.1671 32.2239 59.3025C37.2334 59.5733 41.566 57.2716 43.0554 53.4806C47.7941 59.1671 60.6565 60.6564 62.9582 53.616C68.2386 57.9486 76.3622 56.4592 79.2055 49.9603C79.6117 48.8772 77.5808 48.2002 77.0392 49.2834C74.7375 54.0221 67.8324 56.73 63.229 50.5019C62.5521 49.5541 60.9273 50.0957 60.9273 51.1789C58.6256 55.7823 55.2408 57.407 50.6374 56.053C47.388 55.3761 45.0863 53.616 43.597 50.9081C43.597 50.7727 43.597 50.6373 43.597 50.6373C43.597 49.4188 41.2952 49.4188 41.2952 50.7727C41.2952 54.0221 38.8582 56.5946 35.0672 57.2716C33.0362 57.6778 24.9126 57.9486 28.0267 52.939C28.7037 51.585 26.9435 50.7727 26.2666 51.8558Z" fill="#63350F"/>
<path d="M230.982 153.401C234.502 143.517 237.21 131.332 243.167 122.531C246.281 117.928 252.645 112.648 258.737 115.085C261.039 116.032 262.258 117.792 262.799 119.688C262.799 119.688 262.799 119.688 262.799 119.823C263.747 123.208 262.799 127.541 262.122 130.79C261.987 131.332 261.851 131.873 261.716 132.415C259.82 140.403 256.842 148.256 252.645 155.297C251.832 156.515 251.02 157.869 250.208 159.088C250.072 159.223 250.072 159.358 249.937 159.494C249.801 159.765 249.666 160.035 249.26 160.035C249.124 160.035 248.854 160.035 248.718 159.9C242.625 158.546 236.533 156.921 230.44 155.297C229.222 155.161 229.763 153.13 230.982 153.401ZM241.272 155.567C242.355 151.912 243.573 148.391 244.792 144.871C242.355 144.059 239.782 143.246 237.345 142.57C237.345 142.57 237.345 142.57 237.21 142.57C235.856 146.361 234.502 150.287 233.148 154.078C235.991 154.89 238.834 155.703 241.678 156.515C241.407 156.244 241.136 155.973 241.272 155.567ZM243.167 129.707C245.333 130.249 247.364 130.79 249.531 131.467C251.02 126.864 252.374 121.584 255.759 118.199C254.134 116.574 252.238 116.709 250.208 118.469C248.177 119.823 246.417 121.584 245.063 123.614C242.896 126.728 241.678 130.519 240.324 134.04C239.511 136.341 238.699 138.643 237.887 140.945C240.324 141.757 242.896 142.57 245.333 143.382C246.552 139.862 247.77 136.477 248.989 132.957C246.958 132.415 244.792 131.738 242.761 131.061C241.813 130.926 242.219 129.572 243.167 129.707ZM259.82 131.467C260.227 129.978 260.497 128.489 260.768 126.864C261.987 123.614 260.904 121.448 257.248 120.23C257.113 119.959 256.977 119.823 256.842 119.688C254.405 123.479 252.78 127.812 251.426 132.009C253.999 132.821 256.571 133.498 259.008 134.311C259.279 133.363 259.55 132.415 259.82 131.467ZM257.248 140.403C257.79 138.778 258.331 137.289 258.737 135.664C256.165 134.987 253.457 134.311 250.885 133.634C250.614 134.581 250.208 135.529 249.801 136.612C248.854 139.185 247.906 141.622 247.093 144.194C249.395 145.007 251.697 145.954 253.999 146.902C254.54 147.173 254.134 148.121 253.592 147.985C251.291 147.173 248.989 146.361 246.552 145.684C245.198 149.204 243.979 152.724 242.625 156.244C242.49 156.65 242.084 156.786 241.813 156.65C244.115 157.327 246.552 158.004 248.854 158.681C251.968 152.589 255.082 146.767 257.248 140.403Z" fill="#63350F"/>
<path d="M198.352 128.082C199.164 125.239 200.112 122.396 201.33 119.688C202.82 116.303 205.121 111.294 208.371 108.044C210.673 105.878 213.381 104.389 216.63 105.065C223.806 106.284 224.077 115.355 224.077 121.042C224.212 129.572 223.264 138.643 219.879 146.631C219.202 148.256 218.39 149.881 217.578 151.37C217.307 151.776 217.036 151.776 216.765 151.641C216.63 151.776 216.495 151.912 216.224 151.912C213.381 152.047 210.402 152.047 207.423 151.912C207.288 152.453 206.34 152.453 206.34 151.776C203.903 151.641 201.601 151.37 199.164 150.964C198.081 150.829 198.487 149.068 199.706 149.204C202.007 149.475 204.174 149.745 206.34 150.016C206.475 146.496 206.746 142.976 207.288 139.455C204.309 139.455 201.466 139.455 198.487 139.455C198.352 139.455 198.216 139.455 198.081 139.32C197.946 140.809 197.946 142.299 197.81 143.788V143.923C197.81 145.819 197.81 147.715 197.946 149.475C197.946 149.745 197.946 149.881 197.946 150.152V150.287C197.946 151.506 195.915 151.506 195.915 150.152C195.644 142.705 196.321 135.258 198.352 128.082ZM212.027 108.45C210.673 108.721 209.454 109.669 208.506 111.158C205.528 114.137 203.361 118.063 201.737 122.396C204.715 122.802 207.694 123.208 210.537 123.479C211.214 120.365 212.027 117.251 212.839 114.272C213.381 112.377 213.516 110.617 214.464 109.127C214.599 108.992 214.599 108.721 214.734 108.586C213.787 108.315 212.839 108.315 212.027 108.45ZM221.233 112.918C219.473 111.294 217.848 110.075 216.359 109.263C216.224 109.398 216.088 109.669 215.953 109.804C214.464 112.241 214.193 115.897 213.516 118.469C213.11 120.094 212.704 121.854 212.297 123.479C215.547 123.614 218.661 123.614 221.91 123.479C221.91 121.854 221.91 120.365 221.775 118.74C221.775 117.928 221.64 117.116 221.64 116.303C221.64 115.22 221.504 114.137 221.233 112.918ZM216.224 150.693H216.359C216.359 150.693 216.359 150.693 216.359 150.558C219.609 143.247 221.369 135.935 221.775 127.947C221.775 126.864 221.91 125.781 221.91 124.562C218.661 124.833 215.276 124.968 211.891 124.968C211.62 126.187 211.35 127.405 211.079 128.624C210.402 131.603 209.86 134.581 209.319 137.695C210.808 137.695 212.297 137.831 213.787 137.831C215.276 137.966 219.202 137.154 219.609 139.185C219.609 139.455 219.609 139.726 219.338 139.862C219.202 139.862 219.202 139.997 219.067 139.997C218.796 140.132 218.39 139.997 218.255 139.726C215.682 138.914 211.62 139.455 209.183 139.32H208.913C208.371 142.84 207.829 146.361 207.423 149.881C210.537 150.422 213.381 150.693 216.224 150.693ZM198.623 137.831C201.601 137.695 204.58 137.695 207.694 137.831C208.236 134.175 208.913 130.655 209.725 126.999C209.86 126.322 209.996 125.645 210.131 124.968C207.152 124.833 204.174 124.562 201.06 124.021C199.57 128.489 198.758 133.227 198.352 137.831C198.487 137.831 198.623 137.831 198.623 137.831Z" fill="#63350F"/>
<path d="M80.1532 117.522C79.8824 117.116 80.0178 116.574 80.424 116.303C80.5594 115.897 80.5594 115.355 80.6948 114.949C81.7779 109.398 85.0274 99.1082 92.474 99.2436C99.1083 99.5144 101.681 109.669 103.035 114.679C103.17 114.949 103.17 115.22 103.17 115.626C103.576 115.626 104.118 115.626 104.524 115.626C104.659 115.626 104.659 115.897 104.524 115.897C104.118 116.032 103.712 116.032 103.306 116.168C105.201 124.968 104.795 134.04 101.681 142.57C101.545 142.84 101.275 143.111 101.004 142.976C101.139 143.382 101.004 143.788 100.462 143.788C94.9111 143.382 89.4953 143.653 83.9442 144.601C83.2672 144.736 82.8611 144.059 82.8611 143.517C82.4549 143.517 82.1841 143.247 82.0487 142.84C79.2054 135.123 78.9347 125.781 80.1532 117.522ZM88.9538 102.628C85.4336 104.659 83.538 110.887 82.5903 116.032C83.1318 116.032 83.6734 116.032 84.215 116.032C84.3504 116.032 84.3504 115.897 84.4858 115.897C86.3813 115.626 88.4122 115.626 90.3077 115.626C90.0369 111.429 89.6308 107.096 88.9538 102.628ZM96.6712 104.524C94.2341 102.493 92.2032 101.952 90.4431 102.222C91.5263 106.555 92.2032 111.158 92.474 115.762C92.7448 115.762 93.0156 115.762 93.4218 115.762C95.9942 115.762 98.5667 115.762 101.139 115.762C100.327 111.158 98.9729 106.419 96.6712 104.524ZM102.087 122.667C101.952 121.042 101.681 118.876 101.275 116.439C98.4313 116.845 95.5881 117.251 92.6094 117.522C92.8802 121.313 92.8802 124.968 92.7448 128.759C95.8589 128.624 98.9729 128.218 102.087 128.489C102.222 126.458 102.222 124.562 102.087 122.667ZM100.191 142.57C100.191 142.434 100.056 142.299 100.191 142.163C101.275 137.966 101.952 133.634 102.222 129.436C99.3791 130.249 96.1296 130.655 92.7448 130.79C92.474 134.717 92.0678 138.508 91.5263 142.299C94.3695 142.028 97.2128 142.163 100.191 142.57ZM83.8088 142.434C83.8088 142.705 83.8088 142.84 83.8088 142.976C85.9751 142.57 88.1414 142.434 90.4431 142.299C90.7139 138.372 90.8493 134.581 90.9847 130.79C88.1414 130.79 85.2982 130.655 82.8611 130.384C81.9133 130.249 81.9133 128.895 82.8611 128.895C85.5689 128.759 88.2768 128.895 91.1201 128.895C91.1201 125.239 90.9847 121.584 90.7139 117.793C88.006 117.928 85.2982 118.063 82.4549 118.063C82.1841 119.553 82.0487 120.907 82.0487 121.854C81.3717 128.759 82.1841 135.529 83.8088 142.434Z" fill="#63350F"/>
<path d="M51.5852 102.087C59.0318 100.733 63.3644 108.586 65.8015 114.272C69.8633 123.479 71.6235 133.498 70.9465 143.517C70.9465 143.653 70.9465 143.788 70.8111 143.924C70.6757 144.194 70.4049 144.33 70.1341 144.33C70.2695 144.33 70.2695 144.33 70.2695 144.465C70.6757 144.736 70.5403 145.548 69.9987 145.548C67.8324 145.684 65.6661 145.819 63.4998 145.954C63.3644 145.954 63.3644 145.954 63.2291 145.954C59.8442 146.225 56.4594 146.631 53.0745 147.173C52.533 147.308 52.2622 146.902 52.1268 146.631C51.9914 146.361 51.9914 146.09 52.1268 145.954C50.9082 142.163 49.1481 138.508 47.2526 134.717C44.9509 129.707 42.6492 124.698 42.3784 119.417C42.1076 113.189 44.4093 103.441 51.5852 102.087ZM44.8155 119.959C47.388 119.147 49.9605 118.47 52.6683 117.928C51.3144 114.543 49.8251 111.158 48.3357 107.773C48.065 106.961 49.0127 106.42 49.4189 107.096C51.4498 110.346 53.2099 113.866 54.8346 117.386C57.9487 116.845 61.0628 116.439 64.1768 116.303C64.3122 116.303 64.3122 116.303 64.4476 116.303C63.906 114.814 63.229 113.46 62.4167 112.106C61.6043 110.346 60.5212 108.721 59.3026 107.232C51.856 103.982 47.2526 105.201 45.7633 111.023C44.5447 114.272 44.4093 117.116 44.8155 119.959ZM68.1032 129.166C67.697 126.999 67.2909 124.968 66.6139 122.938C66.0723 121.042 65.3953 119.147 64.7184 117.251C64.7184 117.386 64.583 117.522 64.3122 117.657C61.3335 118.199 58.4903 118.74 55.647 119.282C57.2717 122.938 58.6257 126.729 59.9796 130.655C62.6875 130.113 65.3953 129.572 68.1032 129.166ZM60.5212 132.28C61.7397 136.342 62.9583 140.403 63.906 144.33C65.9369 144.33 67.8324 144.194 69.8633 144.33C69.5926 144.194 69.3218 144.059 69.3218 143.653C69.4572 139.185 69.1864 134.852 68.374 130.384C65.8015 131.061 63.0937 131.603 60.5212 132.28ZM53.8869 145.413C56.7301 144.871 59.5734 144.601 62.4167 144.465C61.1981 140.539 59.8442 136.612 58.4903 132.821C55.7824 133.498 52.9391 134.04 50.2313 134.446C51.856 137.966 53.3453 141.486 53.8869 145.413ZM57.8133 130.926C56.324 127.135 54.8346 123.479 53.3453 119.824C51.3144 120.23 49.4189 120.771 47.388 121.313C47.2526 121.719 46.9818 122.125 46.4402 122.125C46.034 122.125 45.4925 122.125 44.9509 121.99C45.7633 125.645 47.5234 129.166 49.1481 132.686C52.2622 132.009 55.1054 131.467 57.8133 130.926Z" fill="#63350F"/>
<path d="M259.685 182.917C259.956 182.917 260.362 183.052 260.633 183.052L261.31 181.427L261.445 181.021L261.581 180.615C261.175 180.48 260.904 180.48 260.498 180.48L260.362 180.886L259.685 182.917Z" fill="#63350F"/>
<path d="M15.8411 61.8749C15.8411 62.0103 15.8411 62.0103 15.7057 62.1457L15.8411 61.8749Z" fill="#63350F"/>
<path d="M184.271 64.4474C184.271 64.5828 184.136 64.5828 184.136 64.7182C183.729 64.312 183.323 63.9059 182.782 63.6351C183.459 63.7705 184 63.7705 184.677 63.9059C184.677 64.0413 184.406 64.1766 184.271 64.4474Z" fill="#F7875F"/>
<path d="M151.235 9.88365L151.099 9.74826C150.828 9.61287 150.558 9.61287 150.287 9.61287L150.151 9.47747C149.339 8.80051 148.662 8.12354 147.85 7.44657C148.662 7.58196 149.339 7.58196 150.151 7.58196C150.828 7.58196 151.641 7.58196 152.318 7.58196C152.859 7.71736 153.266 7.58196 153.672 7.17578C157.327 7.98814 161.118 8.8005 164.639 9.74826C164.774 9.74826 165.045 9.88365 165.18 9.88365C165.18 10.4252 165.18 10.8314 165.18 11.373H165.045C164.909 11.373 164.909 11.5084 164.774 11.6438C164.774 11.6438 164.774 11.6438 164.909 11.5084H164.774C160.171 11.1022 155.703 10.4252 151.235 9.88365Z" fill="#63350F"/>
</g>
<path d="M49.9327 162.455C49.5235 161.4 49.0025 160.394 48.3832 159.443C48.0606 158.949 47.7208 158.453 47.3239 158.014C47.1574 157.829 46.9823 157.644 46.7691 157.514C46.6806 157.459 46.661 157.444 46.5633 157.414C46.524 157.403 46.3476 157.395 46.3685 157.388C46.0263 157.45 45.7332 157.824 45.5169 158.174C45.2042 158.678 44.9462 159.222 44.7397 159.776C44.282 161.003 44.0522 162.279 44.0528 163.585C44.0528 163.955 43.8162 164.302 43.4734 164.439C43.0949 164.59 42.7533 164.492 42.4443 164.246C41.557 163.541 40.5814 162.837 39.4385 162.633C38.7258 162.505 37.7532 162.704 37.2623 163.348V163.348C37.2623 163.356 37.1615 163.522 37.1443 163.556C37.1044 163.638 37.0774 163.724 37.0528 163.811C36.9704 164.098 36.9453 164.383 36.9305 164.68C36.8955 165.369 36.8955 166.062 36.9213 166.753C36.9729 168.109 37.1296 169.467 37.4282 170.793C37.4442 170.864 37.4736 170.987 37.4915 171.052C37.4632 171.049 37.4405 171.043 37.427 171.036C37.4515 171.049 37.4921 171.061 37.5013 171.088C37.4988 171.082 37.4952 171.069 37.4909 171.052C37.6481 171.072 38.0002 171.047 38.1864 171.047C38.7455 171.047 39.3052 171.046 39.865 171.046C39.9565 171.403 40.0542 171.758 40.1562 172.112C40.2809 172.544 40.9635 172.359 40.8376 171.925C40.7528 171.633 40.6717 171.34 40.5949 171.046C41.9792 171.046 43.3616 171.046 44.7452 171.046C45.775 171.046 46.8054 171.045 47.8351 171.045C47.8351 171.425 47.8351 171.805 47.8351 172.185C47.8351 172.637 48.5417 172.636 48.5417 172.185C48.5417 171.805 48.5417 171.425 48.5417 171.045C49.0805 171.045 49.6188 171.045 50.1576 171.045C50.2191 171.407 50.7905 171.407 50.8519 171.045C51.5321 171.045 52.211 171.044 52.8905 171.044C52.9434 171.4 53.5086 171.517 53.5738 171.114C53.5774 171.091 53.5817 171.068 53.5848 171.044C54.0254 171.044 54.4665 171.044 54.907 171.044C54.8702 171.335 54.8327 171.624 54.7934 171.914C54.7332 172.36 55.4403 172.354 55.4999 171.914C55.5393 171.624 55.5767 171.334 55.6136 171.044C56.652 171.044 57.6916 171.044 58.7305 171.044C58.7084 171.161 58.6826 171.278 58.6537 171.395C58.5444 171.833 59.2258 172.018 59.3351 171.58C59.38 171.402 59.4174 171.223 59.4476 171.043C59.8064 171.043 60.1646 171.043 60.5228 171.043C60.4718 171.273 60.4005 171.499 60.3016 171.719C60.116 172.127 60.7255 172.483 60.9117 172.072C61.0647 171.735 61.1636 171.391 61.2263 171.043C61.8419 171.043 62.4563 171.043 63.072 171.043C63.0468 171.387 63.013 171.728 62.9712 172.066C62.927 172.421 63.185 172.74 63.5021 172.897C63.448 172.906 63.3915 172.911 63.3307 172.911C56.875 172.913 50.4206 172.913 43.9649 172.914C42.3773 172.914 40.7896 172.914 39.202 172.914C38.4653 172.914 37.6334 173.017 36.9133 172.83C36.1312 172.627 35.7521 171.947 35.5954 171.216C35.2642 169.678 35.075 168.1 35.0295 166.528C34.9902 165.169 34.8685 163.467 35.7115 162.305C36.5539 161.143 38.0641 160.603 39.4773 160.764C40.515 160.883 41.4329 161.299 42.2864 161.84C42.2071 162.418 42.1684 163.003 42.1684 163.584C42.7035 163.365 43.2399 163.144 43.7763 162.924C43.2958 162.542 42.8031 162.167 42.2864 161.84C42.3767 161.171 42.5217 160.509 42.722 159.867C43.082 158.709 43.5889 157.507 44.3729 156.566C45.1975 155.578 46.5117 155.216 47.668 155.869C48.7162 156.46 49.4541 157.631 50.0845 158.614C50.2965 158.946 50.4968 159.284 50.6848 159.63C50.4476 160.547 50.2528 161.475 50.1005 162.41L49.9327 162.455Z" fill="#63350F"/>
<path d="M61.3404 168.333C61.3497 167.881 60.6431 167.882 60.6339 168.333C60.6148 169.222 60.7168 170.165 60.5227 171.044C60.1638 171.044 59.8056 171.044 59.4474 171.044C59.5384 170.51 59.5666 169.969 59.5285 169.424C59.4972 168.976 58.7906 168.973 58.822 169.424C58.8607 169.973 58.8324 170.51 58.731 171.044C57.6927 171.045 56.6531 171.045 55.6141 171.045C56.0356 167.717 56.309 164.372 56.4307 161.018C56.4472 160.567 55.7407 160.569 55.7241 161.018C55.6024 164.372 55.329 167.717 54.9075 171.045C54.467 171.045 54.0258 171.045 53.5853 171.045C53.6535 170.595 53.6762 170.15 53.6388 169.696C53.6019 169.25 52.8953 169.246 52.9322 169.696C52.966 170.108 52.9586 170.52 52.8929 170.929C52.8861 170.97 52.8861 171.01 52.891 171.046C52.2109 171.046 51.5319 171.046 50.8524 171.046C50.8573 171.025 50.8585 171.004 50.8585 170.98C50.8585 170.616 50.8585 170.253 50.8585 169.89C50.8585 169.439 50.152 169.439 50.152 169.89C50.152 170.253 50.152 170.616 50.152 170.98C50.152 171.003 50.1538 171.025 50.1581 171.046C49.6193 171.046 49.081 171.046 48.5422 171.046C48.5422 168.247 48.5422 165.45 48.5422 162.653C48.5422 162.201 47.8356 162.202 47.8356 162.653C47.8356 165.45 47.8356 168.248 47.8356 171.046C46.8059 171.046 45.7755 171.047 44.7457 171.047C43.3615 171.047 41.979 171.047 40.5954 171.047C40.1739 169.453 39.8525 167.833 39.643 166.196C39.5865 165.755 38.8799 165.751 38.9364 166.196C39.146 167.833 39.4538 169.45 39.8654 171.047C39.3057 171.047 38.746 171.047 38.1869 171.047C38.0007 171.047 37.648 171.073 37.4913 171.053C37.4735 170.988 37.4434 170.864 37.4281 170.794C37.1288 169.468 36.9728 168.11 36.9212 166.753C36.8954 166.063 36.8954 165.37 36.9304 164.68C36.9451 164.383 36.9703 164.099 37.0526 163.812C37.0778 163.724 37.1043 163.639 37.1442 163.557C37.1614 163.522 37.2622 163.356 37.2622 163.349V163.348C37.7531 162.704 38.7257 162.505 39.4384 162.633C40.5812 162.838 41.5575 163.541 42.4441 164.247C42.7532 164.493 43.0948 164.591 43.4733 164.44C43.8161 164.303 44.0527 163.956 44.0527 163.586C44.0521 162.279 44.2818 161.004 44.7396 159.777C44.946 159.222 45.2041 158.679 45.5168 158.174C45.7337 157.824 46.0262 157.45 46.3684 157.389C46.3469 157.397 46.5238 157.403 46.5632 157.415C46.6602 157.444 46.6799 157.459 46.769 157.515C46.9828 157.645 47.1573 157.829 47.3238 158.014C47.7201 158.454 48.0605 158.95 48.3831 159.444C49.0024 160.394 49.524 161.4 49.9326 162.455C49.991 162.606 50.0463 162.757 50.1003 162.91C50.2386 163.3 50.5759 163.596 51.0085 163.596C51.3894 163.596 51.8527 163.309 51.9178 162.91C51.9436 162.749 51.9712 162.588 52.0001 162.428C52.2791 160.87 52.6747 159.335 53.1921 157.838C53.3899 157.266 53.562 156.535 53.9177 156.052C53.9853 155.96 54.0136 155.951 54.1278 155.893C54.0947 155.915 54.1751 155.887 54.2065 155.877C54.2329 155.874 54.2667 155.87 54.2747 155.869C54.4774 155.862 54.6796 155.9 54.8633 155.973C55.8556 156.362 56.5818 157.436 56.9879 158.403C57.4451 159.493 57.6165 160.664 57.6257 161.841C57.6361 163.346 57.5016 164.814 58.1824 166.212C58.4742 166.812 59.2262 166.739 59.6625 166.401C60.1208 166.048 60.4373 165.552 60.7328 165.064C60.9362 164.727 61.153 164.33 61.4676 164.123C61.5235 164.086 61.6175 164.042 61.6433 164.03C61.5924 164.021 61.6268 164.019 61.746 164.024C61.7288 164.019 61.7152 164.016 61.7066 164.013C61.7146 164.015 61.7257 164.017 61.7398 164.021C61.7687 164.026 61.7982 164.033 61.8264 164.043C61.832 164.046 61.8443 164.054 61.8658 164.065C61.9063 164.091 61.9168 164.095 61.8977 164.077C61.9377 164.11 61.9764 164.146 62.0132 164.184C62.192 164.364 62.3714 164.741 62.4679 165.038C63.0872 166.938 63.223 169.037 63.0725 171.044C62.4568 171.044 61.8424 171.044 61.2268 171.044C61.3865 170.159 61.3214 169.245 61.3404 168.333ZM37.9313 169.046C37.7875 168.911 37.5749 168.916 37.4311 169.046C37.2929 169.172 37.2972 169.414 37.4311 169.542C37.4477 169.556 37.4625 169.572 37.4766 169.587C37.4735 169.583 37.4711 169.579 37.4692 169.576C37.4723 169.581 37.4754 169.585 37.4803 169.592C37.4864 169.601 37.5122 169.653 37.5208 169.667C37.5208 169.668 37.5214 169.668 37.5208 169.669C37.5245 169.681 37.5313 169.705 37.5356 169.723C37.5307 169.717 37.5411 169.796 37.5405 169.812C37.5343 170.008 37.7076 170.154 37.8938 170.162C38.0892 170.171 38.2409 169.995 38.2471 169.812C38.2569 169.526 38.1389 169.243 37.9313 169.046ZM42.0657 166.037C42.0657 165.942 42.0257 165.858 41.9618 165.79C41.8979 165.721 41.8033 165.692 41.7124 165.687C41.6245 165.684 41.5237 165.729 41.4629 165.79C41.3984 165.854 41.3591 165.947 41.3591 166.037C41.3591 166.102 41.3591 166.167 41.3591 166.232C41.3591 166.327 41.399 166.411 41.4629 166.479C41.5268 166.547 41.6214 166.578 41.7124 166.582C41.8002 166.586 41.901 166.54 41.9618 166.479C42.0263 166.415 42.0657 166.321 42.0657 166.232C42.0657 166.167 42.0657 166.102 42.0657 166.037ZM43.665 170.263C43.649 170.16 43.6336 170.056 43.6177 169.953C43.6035 169.865 43.5273 169.79 43.4555 169.743C43.3756 169.692 43.2736 169.688 43.1833 169.709C43.0991 169.727 43.0155 169.796 42.9719 169.869C42.9203 169.956 42.9215 170.043 42.9369 170.139C42.9529 170.242 42.9682 170.346 42.9842 170.449C42.9983 170.537 43.0745 170.613 43.1464 170.659C43.2263 170.71 43.3283 170.714 43.4186 170.694C43.5028 170.675 43.5863 170.606 43.63 170.533C43.6816 170.446 43.6797 170.36 43.665 170.263ZM45.5199 162.38C45.5199 161.928 44.8133 161.929 44.8133 162.38C44.8133 164.948 44.8133 167.516 44.8133 170.084C44.8133 170.536 45.5199 170.535 45.5199 170.084C45.5199 167.516 45.5199 164.948 45.5199 162.38ZM51.2511 165.299C51.2511 165.204 51.2112 165.12 51.1473 165.051C51.084 164.982 50.9888 164.953 50.8979 164.948C50.81 164.945 50.7092 164.99 50.6484 165.051C50.5839 165.114 50.5446 165.208 50.5446 165.299C50.5446 165.35 50.5446 165.402 50.5446 165.455C50.5446 165.55 50.5845 165.634 50.6484 165.702C50.7117 165.77 50.8069 165.801 50.8979 165.805C50.9857 165.808 51.0865 165.763 51.1473 165.702C51.2118 165.638 51.2511 165.544 51.2511 165.455C51.2511 165.402 51.2511 165.35 51.2511 165.299ZM54.8227 157.983C54.8117 157.786 54.6697 157.641 54.4694 157.632C54.2857 157.624 54.1057 157.799 54.1162 157.983C54.1254 158.151 54.1192 158.317 54.0897 158.473C54.0535 158.66 54.1401 158.851 54.3361 158.904C54.5094 158.951 54.7349 158.845 54.7711 158.659C54.8141 158.436 54.8356 158.21 54.8227 157.983ZM57.2958 167.828C57.2958 167.733 57.2558 167.649 57.1919 167.58C57.1286 167.511 57.0334 167.482 56.9425 167.477C56.8546 167.474 56.7538 167.519 56.693 167.58C56.6285 167.643 56.5892 167.738 56.5892 167.828C56.5892 167.84 56.5892 167.853 56.5892 167.867C56.5892 167.962 56.6291 168.046 56.693 168.114C56.7569 168.182 56.8515 168.213 56.9425 168.217C57.0303 168.221 57.1311 168.175 57.1919 168.114C57.2564 168.05 57.2958 167.956 57.2958 167.867C57.2958 167.853 57.2958 167.84 57.2958 167.828Z" fill="#60B95D"/>
<path d="M37.8939 170.162C37.7077 170.153 37.5344 170.008 37.5406 169.812C37.5412 169.796 37.5314 169.716 37.5357 169.722C37.5308 169.704 37.5246 169.681 37.5209 169.668C37.524 169.671 37.524 169.671 37.5215 169.665C37.5209 169.663 37.5209 169.662 37.5197 169.662C37.5197 169.664 37.5197 169.665 37.5203 169.667C37.5117 169.653 37.4859 169.602 37.4798 169.592C37.4749 169.585 37.4718 169.581 37.4687 169.576C37.4706 169.579 37.4724 169.583 37.4761 169.587C37.4619 169.571 37.4472 169.556 37.4306 169.542C37.2967 169.415 37.2924 169.172 37.4306 169.046C37.5744 168.916 37.787 168.911 37.9308 169.046C38.139 169.243 38.2564 169.526 38.2472 169.812C38.241 169.994 38.0899 170.17 37.8939 170.162ZM37.5197 169.658C37.5197 169.658 37.5197 169.659 37.5203 169.659C37.5203 169.659 37.5197 169.659 37.5197 169.658Z" fill="#63350F"/>
<path d="M37.427 171.036C37.4405 171.044 37.4632 171.049 37.4915 171.053C37.4952 171.069 37.4995 171.082 37.502 171.089C37.4921 171.061 37.4516 171.05 37.427 171.036Z" fill="#63350F"/>
<path d="M37.522 169.665C37.5247 169.672 37.5247 169.672 37.5214 169.669C37.522 169.668 37.5214 169.668 37.5214 169.667C37.5207 169.664 37.5207 169.663 37.5207 169.661C37.5214 169.662 37.5214 169.663 37.522 169.665Z" fill="#63350F"/>
<path d="M39.6432 166.196C39.8528 167.833 40.1741 169.453 40.5956 171.047C40.5219 171.047 40.4475 171.047 40.3732 171.047C40.2036 171.047 40.0346 171.047 39.865 171.047C39.4534 169.45 39.1462 167.833 38.9361 166.196C38.8801 165.751 39.5867 165.755 39.6432 166.196Z" fill="#63350F"/>
<path d="M40.5955 171.047C40.6723 171.341 40.7534 171.633 40.8382 171.926C40.9636 172.36 40.2815 172.545 40.1568 172.113C40.0548 171.759 39.9571 171.404 39.8656 171.047C40.0352 171.047 40.2041 171.047 40.3737 171.047C40.4474 171.047 40.5218 171.047 40.5955 171.047Z" fill="#63350F"/>
<path d="M41.7124 166.583C41.6215 166.579 41.5262 166.549 41.4629 166.48C41.3997 166.412 41.3591 166.327 41.3591 166.232C41.3591 166.167 41.3591 166.103 41.3591 166.038C41.3591 165.948 41.3984 165.854 41.4629 165.791C41.5244 165.73 41.6245 165.684 41.7124 165.688C41.8033 165.692 41.8986 165.721 41.9618 165.791C42.0257 165.859 42.0657 165.943 42.0657 166.038C42.0657 166.103 42.0657 166.167 42.0657 166.232C42.0657 166.322 42.0264 166.416 41.9618 166.48C41.901 166.541 41.8002 166.586 41.7124 166.583Z" fill="#63350F"/>
<path d="M42.1688 163.585C42.1688 163.004 42.2075 162.419 42.2868 161.841C42.8035 162.169 43.2963 162.543 43.7767 162.926C43.2403 163.145 42.704 163.366 42.1688 163.585Z" fill="#63350F"/>
<path d="M43.4187 170.694C43.3284 170.714 43.2264 170.711 43.1465 170.659C43.074 170.614 42.9978 170.538 42.9843 170.45C42.9683 170.346 42.953 170.243 42.937 170.14C42.9223 170.044 42.9204 169.957 42.972 169.87C43.015 169.797 43.0992 169.728 43.1834 169.709C43.2737 169.689 43.3757 169.693 43.4556 169.744C43.5281 169.791 43.6036 169.865 43.6178 169.953C43.6337 170.057 43.6491 170.161 43.6651 170.264C43.6798 170.36 43.6817 170.446 43.6294 170.533C43.5864 170.606 43.5029 170.675 43.4187 170.694Z" fill="#63350F"/>
<path d="M44.8136 170.085C44.8136 167.517 44.8136 164.948 44.8136 162.38C44.8136 161.93 45.5201 161.929 45.5201 162.38C45.5201 164.948 45.5201 167.517 45.5201 170.085C45.5201 170.535 44.8136 170.536 44.8136 170.085Z" fill="#63350F"/>
<path d="M48.5424 172.186C48.5424 172.637 47.8358 172.637 47.8358 172.186C47.8358 171.806 47.8358 171.426 47.8358 171.046C48.0711 171.046 48.307 171.046 48.5424 171.046C48.5424 171.426 48.5424 171.806 48.5424 172.186Z" fill="#63350F"/>
<path d="M48.5424 162.652C48.5424 165.45 48.5424 168.247 48.5424 171.046C48.307 171.046 48.0711 171.046 47.8358 171.046C47.8358 168.247 47.8358 165.45 47.8358 162.652C47.8364 162.201 48.5424 162.201 48.5424 162.652Z" fill="#63350F"/>
<path d="M51.0093 163.595C50.5768 163.595 50.2395 163.3 50.1012 162.909C50.0471 162.757 49.9912 162.605 49.9335 162.455L50.1012 162.413C50.707 162.413 51.3128 162.413 51.9186 162.413L52.001 162.427C51.9721 162.587 51.9445 162.748 51.9186 162.909C51.8535 163.307 51.3902 163.595 51.0093 163.595Z" fill="#63350F"/>
<path d="M50.101 162.413C50.2534 161.477 50.4482 160.549 50.6853 159.632C51.1719 160.523 51.5811 161.456 51.9185 162.413C51.312 162.413 50.7068 162.413 50.101 162.413Z" fill="#63350F"/>
<path d="M50.1519 169.89C50.1519 169.439 50.8585 169.439 50.8585 169.89C50.8585 170.253 50.8585 170.616 50.8585 170.98C50.8585 171.003 50.8567 171.025 50.8524 171.046C50.6207 171.046 50.3897 171.046 50.1581 171.046C50.1532 171.025 50.1519 171.004 50.1519 170.98C50.1519 170.616 50.1519 170.253 50.1519 169.89Z" fill="#63350F"/>
<path d="M50.1583 171.046C50.3899 171.046 50.6209 171.046 50.8525 171.046C50.7911 171.409 50.2197 171.409 50.1583 171.046Z" fill="#63350F"/>
<path d="M50.8979 165.804C50.807 165.801 50.7118 165.77 50.6485 165.701C50.5846 165.633 50.5446 165.549 50.5446 165.454C50.5446 165.402 50.5446 165.35 50.5446 165.298C50.5446 165.208 50.584 165.114 50.6485 165.051C50.7099 164.99 50.8101 164.944 50.8979 164.948C50.9889 164.951 51.0841 164.981 51.1474 165.051C51.2113 165.119 51.2512 165.203 51.2512 165.298C51.2512 165.349 51.2512 165.402 51.2512 165.454C51.2512 165.544 51.2119 165.638 51.1474 165.701C51.0859 165.762 50.9858 165.808 50.8979 165.804Z" fill="#63350F"/>
<path d="M63.9122 173C63.7764 173 63.6332 172.963 63.5005 172.897C64.5407 172.73 64.4824 171.043 63.3297 171.043C63.2431 171.043 63.1571 171.043 63.0704 171.043C63.221 169.036 63.0852 166.938 62.4658 165.037C62.3694 164.74 62.1906 164.363 62.0112 164.183C61.9743 164.145 61.9356 164.109 61.8957 164.076C61.8926 164.074 61.8883 164.07 61.884 164.066C61.8815 164.063 61.8785 164.061 61.8754 164.058L61.8748 164.057C61.833 164.041 61.8164 164.035 61.8244 164.041C61.7961 164.032 61.7673 164.025 61.7378 164.019C61.7236 164.016 61.7126 164.014 61.7046 164.012C61.7132 164.014 61.7267 164.017 61.7439 164.022C61.6247 164.017 61.5903 164.02 61.6413 164.028C61.6155 164.041 61.5215 164.085 61.4656 164.122C61.151 164.329 60.9341 164.726 60.7307 165.063C60.4358 165.551 60.1194 166.046 59.6604 166.4C59.2248 166.737 58.4728 166.81 58.1803 166.211C57.4995 164.813 57.6341 163.344 57.6236 161.84C57.615 160.663 57.443 159.492 56.9859 158.401C56.5798 157.434 55.8541 156.361 54.8612 155.971C54.6775 155.899 54.4748 155.861 54.2726 155.868C54.2646 155.868 54.2309 155.872 54.2044 155.876C54.2075 155.875 54.21 155.874 54.2118 155.873C54.2007 155.875 54.1928 155.876 54.1866 155.877C54.1915 155.877 54.1977 155.876 54.2044 155.875C54.1731 155.885 54.0932 155.912 54.1258 155.891C54.0109 155.949 53.9826 155.958 53.9157 156.05C53.5599 156.533 53.3879 157.265 53.19 157.836C52.6727 159.333 52.277 160.868 51.9981 162.426L51.9157 162.411C51.5784 161.455 51.1692 160.522 50.6826 159.631C50.8768 158.883 51.0986 158.14 51.3499 157.408C51.6098 156.651 51.8494 155.782 52.2918 155.107C52.7501 154.409 53.4862 154.006 54.3267 154C55.8904 153.991 57.1739 155.149 58.0034 156.354C58.8316 157.558 59.234 158.997 59.4147 160.428C59.5185 161.251 59.5074 162.068 59.4921 162.895C59.489 163.1 59.4841 163.31 59.4866 163.52C59.4448 163.578 59.4048 163.636 59.3655 163.695C59.0399 164.188 58.8076 164.709 58.3284 165.079C58.8211 165.143 59.3151 165.205 59.8085 165.268C59.5455 164.729 59.4915 164.12 59.4866 163.52C59.8607 162.995 60.3258 162.545 60.9415 162.306C62.2023 161.815 63.3998 162.614 63.9509 163.726C64.5493 164.932 64.7367 166.357 64.8848 167.678C65.0488 169.137 65.0341 170.609 64.8541 172.066C64.7932 172.566 64.4658 173 63.9122 173Z" fill="#63350F"/>
<path d="M52.8925 170.929C52.9582 170.52 52.9656 170.108 52.9318 169.696C52.895 169.246 53.6015 169.25 53.6384 169.696C53.6759 170.15 53.6531 170.595 53.5849 171.045C53.5536 171.045 53.5229 171.045 53.4916 171.045C53.2913 171.045 53.091 171.045 52.8913 171.045C52.8857 171.009 52.8857 170.969 52.8925 170.929Z" fill="#63350F"/>
<path d="M53.5847 171.045C53.5816 171.068 53.578 171.092 53.5737 171.115C53.5085 171.518 52.9433 171.4 52.8904 171.045C53.0907 171.045 53.291 171.045 53.4907 171.045C53.5227 171.045 53.5534 171.045 53.5847 171.045Z" fill="#63350F"/>
<path d="M54.3363 158.904C54.1403 158.851 54.0537 158.66 54.0899 158.473C54.12 158.317 54.1262 158.151 54.1164 157.983C54.1059 157.799 54.2859 157.624 54.4696 157.632C54.6699 157.641 54.8119 157.786 54.8229 157.983C54.8352 158.21 54.8143 158.436 54.7713 158.659C54.7351 158.845 54.5096 158.95 54.3363 158.904Z" fill="#63350F"/>
<path d="M55.4999 171.914C55.4403 172.355 54.7331 172.361 54.7933 171.914C54.8326 171.625 54.8701 171.335 54.9069 171.045C55.1423 171.045 55.3782 171.045 55.6135 171.045C55.5767 171.336 55.5392 171.625 55.4999 171.914Z" fill="#63350F"/>
<path d="M56.4301 161.018C56.3085 164.372 56.0351 167.717 55.6136 171.045C55.3783 171.045 55.1423 171.045 54.907 171.045C55.3285 167.717 55.6019 164.372 55.7236 161.018C55.7401 160.57 56.4467 160.567 56.4301 161.018Z" fill="#63350F"/>
<path d="M56.9426 168.217C56.8517 168.213 56.7564 168.183 56.6932 168.114C56.6299 168.046 56.5893 167.962 56.5893 167.867C56.5893 167.853 56.5893 167.84 56.5893 167.828C56.5893 167.738 56.6286 167.643 56.6932 167.58C56.7546 167.519 56.8548 167.474 56.9426 167.477C57.0335 167.481 57.1288 167.511 57.1921 167.58C57.256 167.649 57.2959 167.733 57.2959 167.828C57.2959 167.84 57.2959 167.853 57.2959 167.867C57.2959 167.956 57.2566 168.051 57.1921 168.114C57.1312 168.175 57.0305 168.221 56.9426 168.217Z" fill="#63350F"/>
<path d="M58.3299 165.081C58.8086 164.711 59.0414 164.189 59.3671 163.697C59.4064 163.638 59.4463 163.579 59.4881 163.522C59.493 164.122 59.5471 164.73 59.8101 165.27C59.3167 165.207 58.8227 165.143 58.3299 165.081Z" fill="#63350F"/>
<path d="M59.3346 171.582C59.2252 172.019 58.5438 171.834 58.6532 171.396C58.6821 171.279 58.7079 171.163 58.73 171.045C58.9684 171.045 59.208 171.045 59.447 171.045C59.4175 171.224 59.3794 171.403 59.3346 171.582Z" fill="#63350F"/>
<path d="M58.8214 169.423C58.79 168.973 59.4966 168.975 59.5279 169.423C59.5666 169.969 59.5384 170.51 59.4468 171.044C59.2084 171.044 58.9688 171.044 58.7298 171.044C58.8312 170.51 58.8594 169.973 58.8214 169.423Z" fill="#63350F"/>
<path d="M60.9111 172.073C60.725 172.484 60.1161 172.129 60.301 171.72C60.3999 171.501 60.4712 171.275 60.5222 171.044C60.7569 171.044 60.991 171.044 61.2257 171.044C61.163 171.392 61.0641 171.736 60.9111 172.073Z" fill="#63350F"/>
<path d="M60.634 168.333C60.6432 167.882 61.3498 167.881 61.3406 168.333C61.3216 169.244 61.3867 170.159 61.2257 171.043C60.991 171.044 60.7569 171.044 60.5222 171.044C60.717 170.165 60.615 169.223 60.634 168.333Z" fill="#63350F"/>
<path d="M61.8757 164.058C61.8591 164.052 61.8419 164.047 61.8254 164.042C61.818 164.036 61.8346 164.041 61.8757 164.058Z" fill="#63350F"/>
<path d="M61.8646 164.064C61.8437 164.053 61.8308 164.046 61.8252 164.042C61.8418 164.047 61.859 164.052 61.8756 164.058L61.8762 164.058C61.8793 164.061 61.8824 164.064 61.8848 164.066C61.8898 164.07 61.8934 164.074 61.8965 164.077C61.9162 164.094 61.9057 164.091 61.8646 164.064Z" fill="#63350F"/>
<path d="M62.9711 172.067C63.0129 171.729 63.0467 171.388 63.0719 171.044C63.1585 171.044 63.2445 171.044 63.3312 171.044C64.4838 171.044 64.5428 172.731 63.5026 172.899C63.1843 172.741 62.9269 172.422 62.9711 172.067Z" fill="#63350F"/>
<path d="M260.302 168.408C260.238 166.687 260.072 165.876 259.949 165.503C259.687 165.956 259.206 167.133 258.545 170.166C257.962 172.845 257.434 176.031 257.011 178.59C256.799 179.874 256.616 180.981 256.467 181.776C256.395 182.159 256.333 182.452 256.281 182.665H257.659C257.841 181.944 258.072 181.235 258.208 180.504C258.389 179.523 258.352 178.518 258.374 177.526C258.418 175.511 258.761 173.522 259.105 171.541C259.172 171.16 259.757 171.322 259.691 171.7C259.339 173.716 259.007 175.732 258.976 177.781C258.962 178.766 258.969 179.752 258.781 180.722C258.655 181.38 258.454 182.018 258.285 182.664H259.586C259.713 181.35 260.014 178.047 260.19 174.651C260.324 172.102 260.361 170.001 260.302 168.408Z" fill="#7DC142"/>
<path d="M247.631 170.3C246.632 165.846 245.808 164.706 245.406 164.424C245.305 164.353 245.26 164.361 245.244 164.363C245.177 164.375 245.111 164.456 245.068 164.522C244.738 165.014 244.095 166.997 245.23 174.755C245.733 178.191 246.393 181.434 246.652 182.666H248.102C247.939 181.809 247.739 180.959 247.491 180.122C247.179 179.072 246.646 178.05 246.464 176.969C246.14 175.057 247.111 172.496 245.524 170.956C245.244 170.684 245.674 170.26 245.953 170.532C247.601 172.131 246.813 174.514 247.011 176.51C247.125 177.662 247.708 178.741 248.041 179.841C248.322 180.769 248.542 181.714 248.717 182.666H249.765C249.643 182.132 249.492 181.171 249.215 179.338C248.83 176.791 248.304 173.302 247.631 170.3Z" fill="#7DC142"/>
<path d="M254.704 178.323C254.731 175.664 254.765 172.355 254.655 169.544C254.531 166.329 254.257 165.058 254.078 164.561C253.957 164.775 253.788 165.159 253.595 165.84C253.345 166.719 253.101 167.932 252.868 169.446C252.434 172.265 252.114 175.624 251.856 178.323C251.73 179.65 251.62 180.798 251.521 181.632C251.469 182.066 251.426 182.403 251.374 182.667H252.358C252.639 181.796 252.594 180.883 252.549 179.976C252.502 178.997 252.528 178.032 252.647 177.058C252.885 175.081 253.356 173.126 253.294 171.123C253.282 170.736 253.89 170.738 253.901 171.123C253.965 173.169 253.473 175.163 253.239 177.184C253.122 178.2 253.122 179.2 253.169 180.22C253.207 181.043 253.217 181.874 252.993 182.668H254.726C254.702 182.411 254.693 182.053 254.688 181.537C254.679 180.72 254.69 179.609 254.704 178.323ZM254.255 168.196C254.191 168.467 254.146 168.738 254.125 169.016C254.096 169.4 253.489 169.402 253.518 169.016C253.543 168.686 253.593 168.358 253.669 168.037C253.758 167.661 254.344 167.821 254.255 168.196Z" fill="#7DC142"/>
<path d="M262.325 182.666H260.943C260.9 183.123 260.872 183.388 260.871 183.399C260.835 183.743 260.541 183.997 260.2 183.997V184H262.324C262.697 184 262.999 183.702 262.999 183.333C263 182.965 262.698 182.666 262.325 182.666Z" fill="#63350F"/>
<path d="M245.229 174.755C244.095 166.997 244.738 165.014 245.067 164.522C245.111 164.456 245.177 164.376 245.243 164.363C245.259 164.36 245.304 164.352 245.405 164.424C245.807 164.706 246.632 165.846 247.63 170.3C248.303 173.302 248.83 176.79 249.215 179.338C249.492 181.171 249.642 182.132 249.765 182.666H251.372C251.424 182.403 251.467 182.065 251.519 181.631C251.619 180.797 251.729 179.65 251.855 178.322C252.112 175.623 252.433 172.265 252.866 169.445C253.099 167.931 253.343 166.718 253.593 165.839C253.787 165.158 253.956 164.774 254.076 164.56C254.255 165.057 254.528 166.328 254.654 169.543C254.763 172.354 254.729 175.663 254.702 178.322C254.688 179.608 254.677 180.72 254.685 181.535C254.689 182.052 254.699 182.409 254.722 182.666H256.279C256.331 182.452 256.392 182.16 256.465 181.777C256.614 180.981 256.797 179.874 257.009 178.591C257.433 176.032 257.96 172.846 258.544 170.166C259.204 167.133 259.686 165.956 259.947 165.504C260.07 165.878 260.236 166.689 260.3 168.409C260.359 170.002 260.322 172.103 260.189 174.654C260.013 178.049 259.712 181.352 259.585 182.667H260.941C261.083 181.183 261.398 177.664 261.566 174.152C261.695 171.44 261.712 169.257 261.615 167.664C261.556 166.675 261.455 165.922 261.307 165.362C261.225 165.052 260.978 164.11 260.199 163.956C260.004 163.918 259.704 163.918 259.383 164.138C258.858 164.497 258.191 165.459 257.231 169.86C256.807 171.796 256.417 173.987 256.071 176.022C256.085 173.802 256.081 171.394 255.991 169.273C255.805 164.808 255.342 163.608 254.707 163.179C254.419 162.985 254.067 162.949 253.742 163.077C253.054 163.352 252.314 164.263 251.563 169.035C251.107 171.935 250.776 175.408 250.51 178.198C250.496 178.339 250.482 178.481 250.47 178.623C250.09 176.114 249.585 172.859 248.946 170.013C247.82 164.974 246.832 163.789 246.187 163.337C245.716 163.006 245.277 163 244.992 163.053C244.701 163.108 244.282 163.279 243.943 163.786C243.405 164.588 243.177 166.103 243.245 168.418C243.296 170.157 243.515 172.353 243.894 174.947C244.368 178.186 244.981 181.257 245.274 182.666H246.652C246.392 181.434 245.732 178.192 245.229 174.755Z" fill="#63350F"/>
<path d="M259.529 183.263C259.492 183.629 259.761 183.957 260.132 183.994C260.155 183.996 260.178 183.997 260.201 183.997C260.542 183.997 260.837 183.742 260.872 183.399C260.873 183.388 260.9 183.123 260.944 182.666H259.588C259.552 183.041 259.53 183.254 259.529 183.263Z" fill="#63350F"/>
<path d="M258.977 177.782C259.007 175.732 259.34 173.716 259.692 171.701C259.758 171.323 259.173 171.161 259.106 171.542C258.761 173.522 258.419 175.512 258.375 177.526C258.353 178.519 258.39 179.524 258.209 180.505C258.073 181.237 257.842 181.945 257.66 182.666H258.287C258.456 182.02 258.657 181.381 258.783 180.724C258.97 179.754 258.963 178.767 258.977 177.782Z" fill="#63350F"/>
<path d="M257.553 183.121C257.609 183.096 257.674 183.087 257.75 183.105C257.793 183.114 257.837 183.124 257.882 183.135C257.757 183.205 257.633 183.275 257.507 183.345C257.522 183.27 257.537 183.194 257.553 183.121C257.326 183.224 257.282 183.612 257.588 183.683C257.632 183.694 257.676 183.704 257.72 183.715C257.869 183.75 258.062 183.67 258.093 183.505C258.146 183.223 258.212 182.944 258.285 182.667H257.659C257.621 182.817 257.586 182.969 257.553 183.121Z" fill="#63350F"/>
<path d="M257.882 183.135C257.837 183.124 257.793 183.114 257.75 183.105C257.675 183.087 257.609 183.096 257.553 183.121C257.537 183.195 257.522 183.27 257.508 183.345C257.633 183.275 257.757 183.205 257.882 183.135Z" fill="#63350F"/>
<path d="M254.978 183.375C255.109 183.507 255.285 183.579 255.47 183.579C256.047 183.579 256.192 183.015 256.262 182.744C256.268 182.719 256.274 182.693 256.281 182.666H254.724C254.761 183.072 254.834 183.231 254.978 183.375Z" fill="#63350F"/>
<path d="M253.669 168.037C253.593 168.359 253.543 168.687 253.518 169.016C253.489 169.402 254.096 169.4 254.125 169.016C254.146 168.738 254.191 168.466 254.255 168.196C254.344 167.821 253.759 167.661 253.669 168.037Z" fill="#63350F"/>
<path d="M253.169 180.218C253.121 179.199 253.121 178.199 253.239 177.182C253.472 175.161 253.964 173.167 253.901 171.121C253.889 170.736 253.282 170.734 253.293 171.121C253.355 173.124 252.885 175.08 252.646 177.057C252.528 178.031 252.501 178.995 252.549 179.974C252.592 180.882 252.639 181.795 252.357 182.665H252.991C253.216 181.873 253.206 181.041 253.169 180.218Z" fill="#63350F"/>
<path d="M252.287 182.866C252.148 183.228 252.735 183.384 252.873 183.025C252.918 182.907 252.957 182.787 252.991 182.666H252.357C252.336 182.733 252.313 182.799 252.287 182.866Z" fill="#63350F"/>
<path d="M250.122 183.422C250.322 183.59 250.596 183.632 250.836 183.535C251.137 183.413 251.272 183.177 251.372 182.666H249.766C249.881 183.17 249.972 183.298 250.122 183.422Z" fill="#63350F"/>
<path d="M248.26 183.574C248.321 183.954 248.907 183.793 248.845 183.415C248.805 183.165 248.761 182.916 248.715 182.666H248.1C248.159 182.969 248.211 183.271 248.26 183.574Z" fill="#63350F"/>
<path d="M247.009 176.51C246.812 174.514 247.599 172.13 245.951 170.532C245.673 170.26 245.243 170.685 245.522 170.956C247.109 172.497 246.139 175.058 246.462 176.968C246.645 178.05 247.177 179.072 247.489 180.122C247.738 180.959 247.937 181.809 248.1 182.666H248.715C248.539 181.714 248.32 180.769 248.038 179.841C247.705 178.741 247.123 177.663 247.009 176.51Z" fill="#63350F"/>
<path d="M246.103 183.997C246.152 183.997 246.2 183.993 246.248 183.982C246.612 183.904 246.844 183.548 246.764 183.188C246.762 183.179 246.721 182.994 246.652 182.666H245.273C245.379 183.17 245.442 183.462 245.444 183.473C245.513 183.785 245.793 183.997 246.103 183.997Z" fill="#63350F"/>
<path d="M260.131 183.994C259.76 183.957 259.491 183.629 259.528 183.263C259.529 183.254 259.551 183.041 259.586 182.666H258.285C258.212 182.943 258.146 183.222 258.093 183.504C258.062 183.669 257.868 183.749 257.72 183.714C257.676 183.703 257.632 183.693 257.588 183.682C257.282 183.611 257.326 183.223 257.553 183.12C257.586 182.968 257.621 182.817 257.66 182.665H256.281C256.275 182.692 256.267 182.718 256.262 182.743C256.192 183.015 256.047 183.578 255.47 183.578C255.285 183.578 255.11 183.505 254.978 183.374C254.834 183.231 254.761 183.071 254.724 182.665H252.991C252.957 182.786 252.918 182.906 252.873 183.024C252.735 183.383 252.148 183.227 252.287 182.865C252.313 182.799 252.335 182.733 252.357 182.665H251.373C251.273 183.177 251.137 183.412 250.837 183.534C250.596 183.631 250.323 183.589 250.123 183.421C249.973 183.297 249.881 183.17 249.767 182.666H248.716C248.762 182.916 248.806 183.165 248.846 183.415C248.907 183.793 248.322 183.954 248.26 183.574C248.212 183.271 248.159 182.968 248.101 182.666H246.651C246.721 182.995 246.761 183.18 246.763 183.188C246.842 183.548 246.611 183.904 246.247 183.982C246.199 183.993 246.151 183.997 246.102 183.997V184H260.201V183.997C260.178 183.997 260.155 183.996 260.131 183.994Z" fill="#63350F"/>
<path d="M245.444 183.473C245.442 183.462 245.378 183.17 245.273 182.666H243.675C243.302 182.666 243 182.965 243 183.333C243 183.702 243.302 184 243.675 184H246.103V183.997C245.793 183.997 245.513 183.785 245.444 183.473Z" fill="#63350F"/>
<defs>
<clipPath id="clip0">
<rect width="308.833" height="184" fill="white" transform="matrix(-1 0 0 1 308.833 0)"/>
</clipPath>
</defs>
</svg>
