<svg width="71" height="59" viewBox="0 0 71 59" fill="none" xmlns="http://www.w3.org/2000/svg">
<g clip-path="url(#clip0)">
<path fill-rule="evenodd" clip-rule="evenodd" d="M23.2044 14.0429C23.4297 15.3946 22.5035 17.0968 20.9766 17.5223C18.0479 16.6712 16.9715 11.79 19.725 10.0128C20.5511 10.3132 20.9265 9.68737 21.6775 9.86259C22.879 10.163 23.1293 11.7149 23.9053 12.4909C23.7051 12.9916 23.7551 14.3433 23.2044 14.0429Z" fill="#F3D254"/>
<path fill-rule="evenodd" clip-rule="evenodd" d="M62.8048 7.50941C63.706 7.48437 64.6071 7.45934 65.0327 7.93495C65.1078 8.93622 64.6322 9.98756 64.8825 10.7135C64.8074 11.0639 64.6322 11.2892 64.4569 11.5395C64.507 12.8162 64.2817 14.1178 64.3067 15.4195C64.3818 18.1479 63.3555 21.0266 63.2053 23.4797C63.1803 23.8802 63.4056 24.1055 63.3555 24.4559C62.7548 27.6851 59.9512 30.013 59.4756 33.3422C58.6746 34.1182 57.8986 34.9193 57.5231 36.1208C56.7722 36.5213 56.1213 37.047 55.7208 37.7979C58.4243 40.1259 61.0276 42.604 63.6309 45.0321C64.1065 44.5064 64.6572 45.0571 65.5834 45.0321C67.1353 44.982 68.7874 43.7555 69.4633 44.7568C70.4896 46.2336 67.4608 46.9345 65.4332 46.9846C67.0102 47.6354 67.686 49.1624 69.7387 49.3376C69.9139 49.663 70.1642 49.9383 70.2893 50.3138C68.5121 51.6155 67.2855 50.439 65.4332 49.7631C65.5583 50.9646 66.2092 51.6655 66.6848 52.5416C66.5095 52.5667 66.5596 52.792 66.5346 52.9672C62.5295 53.6681 63.8812 47.6354 61.5282 45.733C61.4281 45.3575 61.8036 45.4576 61.8036 45.1823C61.2779 45.4827 61.1277 44.5315 61.1027 45.1823C59.9762 44.0058 58.975 43.2799 57.3479 41.7029C56.5469 40.9269 54.5694 39.0245 53.468 39.1997C52.4417 39.3749 51.7908 40.1509 51.115 40.8768C47.8608 41.8531 46.2588 42.3787 42.9045 43.1047C42.5291 43.2048 42.6292 43.7555 42.3538 43.9307C42.3789 44.2061 42.8795 43.7054 43.0547 44.0809C43.6805 46.7843 45.3827 48.5366 46.1086 50.464C47.8859 49.688 50.5392 50.3389 52.0912 50.7394C52.3415 50.5641 51.7658 50.6142 52.0912 50.1887C52.8422 49.8883 53.0675 50.489 53.7683 50.6142C53.1426 52.817 50.5392 51.9409 48.3364 51.8658C50.3891 52.3915 51.8659 53.5179 53.8935 54.0936C53.8935 54.419 54.1438 54.4941 54.0437 54.9197C52.2664 55.8709 50.2138 54.2188 48.4866 53.8183C48.2613 55.5204 49.563 57.0724 50.0136 58.5493C49.538 59.0499 49.0123 59.1751 48.2113 58.8246C47.16 57.0974 47.0598 55.2701 46.409 53.5429C45.5329 51.24 43.4302 49.638 42.5291 47.285C42.5791 46.9095 42.9546 47.285 42.8044 47.5603C42.9045 47.4852 43.0297 47.4101 43.23 47.4101C43.6305 47.2349 42.8044 47.1348 42.9546 46.7092C42.7543 46.6341 42.6042 47.2599 42.5291 46.8594C41.8532 45.8582 41.2775 44.7818 40.8519 43.5302C39.9508 43.5552 39.1498 43.7304 38.6241 43.1047C38.3237 43.0796 38.549 43.6053 38.4739 43.8055C37.3975 43.6804 35.7705 44.1059 35.1447 43.5302C33.042 43.4301 27.7603 42.554 26.2584 41.1772C26.0581 41.002 25.958 41.2022 26.1082 40.9019C23.0543 40.201 20.9516 37.7979 19.2995 36.1708C18.7238 36.0207 17.3721 34.9192 17.4972 34.0932C16.8965 34.0181 16.4459 32.7915 15.8201 32.2909C15.9453 32.0907 16.2707 32.0907 16.521 32.0156C16.4209 31.5149 16.0704 32.0406 15.5448 31.8654C15.5448 31.3647 15.1443 31.1895 15.1192 31.1645C14.2932 30.4886 13.7425 28.9116 12.8914 27.8352C12.3657 27.1594 11.6148 26.6337 11.2143 26.033C10.7887 25.3571 10.7136 24.5811 10.3882 24.0805C10.213 23.8302 9.9126 23.68 9.83751 23.5298C9.51209 22.7788 9.88757 22.2531 9.41196 21.7275C8.66101 20.9014 6.98388 21.0016 5.93254 20.6261C5.80738 20.576 5.88248 20.2506 5.78235 20.2005C4.60586 19.5247 0.926177 20.3007 0 18.7737C0.375477 16.9214 2.07764 15.094 3.75477 14.5934C3.70471 14.4683 3.62961 14.3431 3.47942 14.3181C5.10649 12.8912 6.6084 11.3393 8.06025 9.73724C8.06025 9.41182 7.80993 9.33673 7.91006 8.91119C8.38566 9.2366 8.31056 7.48437 8.46075 6.95871C8.61095 6.45807 9.18668 5.88234 9.437 5.28157C9.56216 5.00622 9.437 4.58068 9.58719 4.30533C9.81247 3.8047 10.2881 3.15387 10.5634 2.77839C12.0403 0.725783 16.9716 -0.650968 20.0255 0.425401C20.2758 0.400369 20.1256 -0.0251722 20.451 -0.000140357C24.2058 -0.150331 25.8078 1.87725 28.6614 2.6282C29.4625 4.08005 31.3649 4.45552 31.8655 6.23278C32.6916 6.53316 32.7667 7.55947 33.3924 8.03507C33.818 9.93749 35.2198 12.0151 36.171 13.8675C40.9521 12.8662 42.479 8.01004 47.4353 7.60953C47.3602 7.70966 47.2851 7.83482 47.2851 8.03507C48.8871 7.28412 49.0624 11.0139 49.0874 12.6159C49.1375 14.5684 48.9622 15.4695 48.812 17.1967C51.5155 16.646 54.269 15.1191 56.5969 13.3168C57.6733 12.4907 58.6245 11.3142 59.5257 10.8136C60.1264 10.4632 60.7272 10.2629 61.328 9.83736C61.353 9.81233 61.3029 9.18654 61.8787 8.58577C62.0288 8.43558 62.8799 7.95998 62.8048 7.50941ZM54.6194 17.2468C53.1175 17.8475 52.8672 18.0979 51.5655 18.223C51.4905 19.0741 49.3127 18.6736 48.2363 19.1993C47.6105 19.4996 47.5104 20.4258 46.5592 20.0253C46.2087 20.0003 46.3589 19.4746 46.0085 19.4746C45.633 19.75 44.7819 19.5497 44.3314 19.75C44.2312 19.4496 44.7319 19.2994 44.1812 19.3244C42.9296 19.8751 39.325 19.3995 38.4739 18.6235C37.9232 18.1229 38.7493 18.5985 38.1986 18.4733C37.0721 18.223 35.1697 16.7962 34.1684 15.5446C32.8918 13.9676 32.0658 11.139 31.2397 9.16151C30.7891 9.16151 30.8893 8.58577 30.5388 8.46061C29.8129 6.08259 26.8591 3.67954 24.2809 2.47801C22.5286 1.67699 21.6776 2.17763 20.1006 2.05247C19.4247 2.00241 18.849 1.45171 18.1481 1.35158C16.2957 1.10126 14.7187 2.25272 13.1417 2.87852C12.0403 5.08132 9.78744 7.40928 10.213 10.2379C8.76114 14.2179 11.1392 16.7461 10.989 20.0253C11.5397 20.8263 11.7399 21.9528 11.9652 23.0792C12.591 23.6299 13.1167 24.481 13.0666 25.307C14.5685 26.3584 15.3195 28.1356 16.546 29.4873C16.546 29.6626 16.3708 29.6876 16.3958 29.9129C21.0267 36.0206 26.4837 41.5777 36.2711 42.1534C36.4964 42.4288 36.2711 42.3287 36.2711 42.7041C36.7467 42.554 37.1723 42.3036 37.6729 42.1534C40.6517 42.1534 43.1048 41.2273 45.7331 40.4763C46.384 40.3011 47.185 40.3762 47.8108 40.201C49.2376 39.7754 51.6406 37.898 52.8171 36.9969C53.8935 36.1708 55.5456 34.9443 56.2966 34.0682C56.8473 33.4173 57.8235 31.9405 57.6983 31.565C57.9487 31.5149 58.0488 31.7652 58.1239 31.565C57.7234 30.3134 59.5757 29.0618 58.9499 28.3609C59.751 28.2608 59.4756 27.1093 60.2015 26.9591C60.6771 25.282 61.2779 24.1806 61.3029 22.6537C61.353 18.7487 62.154 16.1954 62.2792 11.6647C61.4281 12.0902 60.0513 12.8662 59.6258 13.6172C58.4493 14.4933 55.5206 17.1216 54.6194 16.6711C54.6194 16.8713 54.6194 17.0465 54.6194 17.2468ZM40.8519 15.845C41.2274 15.069 42.0785 15.2192 42.6542 14.8688C44.1061 14.0427 45.1073 12.716 46.8345 11.94C46.8596 11.8399 46.8345 11.6647 46.9847 11.6647C46.8095 10.8136 47.0348 9.58705 46.2838 9.3117C43.0047 11.6146 40.927 14.1428 37.1222 15.4195C38.6992 16.8713 40.927 17.9977 43.3801 17.7725C44.1311 16.8713 45.608 14.7686 46.434 16.3957C46.1336 17.1467 45.4328 17.1467 45.0322 17.4971C45.633 17.6974 46.2338 17.5722 46.8345 17.3469C47.0098 16.2705 47.185 14.5183 47.2601 13.5921C45.0573 14.5183 42.3538 18.1479 40.0259 16.2705C39.9508 15.7699 40.4264 15.845 40.8519 15.845ZM6.38311 13.7674C6.08273 15.4946 3.00382 16.1454 2.77853 17.9477C5.33178 18.2481 6.78362 18.999 8.76114 19.6248C8.96139 17.397 7.75986 15.1441 7.7849 13.3669C7.30929 13.0164 6.98388 13.7924 6.38311 13.7674Z" fill="#F3D254"/>
<path fill-rule="evenodd" clip-rule="evenodd" d="M32.5164 33.4925C32.2661 33.8179 31.1647 33.2672 31.5401 32.9418C31.3148 32.9418 31.0645 32.9418 30.8392 32.9418C30.0883 31.5651 28.2359 30.6389 28.0607 28.7615C28.0607 28.6864 28.311 28.4361 28.3361 28.4861C28.1608 28.0356 27.2597 27.9104 27.7854 27.3847C27.2096 27.7352 26.5338 25.6575 27.51 25.1569C30.1884 25.232 32.5915 25.5074 35.0196 24.8816C37.7981 24.1556 40.3513 22.8289 43.6305 22.5286C44.807 25.1068 43.6806 28.8616 42.3789 31.6902C42.2037 31.8654 42.1536 31.7403 41.9534 31.6902C40.4014 34.7441 35.8706 35.3699 32.6415 34.0432C32.6415 33.6677 32.8668 33.7679 32.6415 33.4925C32.4913 33.3423 32.3161 33.4424 32.5164 33.4925ZM30.0132 29.187C33.8681 28.8366 37.1222 28.5863 40.0259 28.0856C40.1761 27.9354 41.1273 27.5349 41.5529 27.3847C41.6029 26.4586 41.9283 25.8077 41.8282 24.7564C41.4027 24.9066 41.5028 24.5311 41.2775 24.481C40.6016 24.9066 38.9746 25.4573 37.7981 25.5824C37.5728 26.2082 36.6466 26.4335 36.121 26.5587C33.8681 27.0593 31.2648 26.784 29.1621 27.2596C29.3123 28.1107 29.3624 29.8379 30.1384 29.6126C29.9882 29.5875 30.0132 29.3873 30.0132 29.187ZM37.3725 29.7377C35.6954 31.0394 31.5151 30.8141 30.0132 29.8879C30.7141 31.3398 31.8405 31.8404 32.9419 32.5413C35.345 31.2396 37.6229 30.764 40.1761 31.0144C40.5766 30.714 40.7518 30.1883 40.877 29.6126C39.4502 29.4624 38.3738 30.3135 37.3725 29.7377ZM35.2949 33.3673C36.5715 33.3423 37.7731 33.4925 38.3488 32.5413C36.9971 32.7165 36.2461 32.7165 35.2949 33.3673Z" fill="#F3D254"/>
</g>
<defs>
<clipPath id="clip0">
<rect width="70.3144" height="59" fill="white"/>
</clipPath>
</defs>
</svg>
