<svg width="66" height="77" viewBox="0 0 66 77" fill="none" xmlns="http://www.w3.org/2000/svg">
<g clip-path="url(#clip0)">
<path fill-rule="evenodd" clip-rule="evenodd" d="M23.1572 15.725C23.8092 17.3679 23.6266 19.4281 23.2615 20.8624C23.9656 21.7229 23.8353 22.8182 23.3658 23.9135C21.9576 23.2616 20.9145 24.1482 19.7671 23.1572C19.9757 22.4531 19.6367 22.2706 19.3238 21.8533C19.2194 20.5494 19.6106 19.402 19.5324 18.2546C19.4802 17.2897 18.9587 16.403 19.6367 15.6207C20.1583 15.5164 20.6798 15.4121 20.8363 14.9687C21.9837 14.5254 22.4792 15.7772 23.1572 15.725Z" fill="#60B5E4"/>
<path fill-rule="evenodd" clip-rule="evenodd" d="M9.388 23.4963C9.80525 23.392 9.57055 23.9135 9.93564 23.8353C9.75309 24.3569 9.75309 25.3217 10.1443 25.5825C9.6227 26.2605 10.2225 27.3819 10.4833 27.9817C8.42311 28.0078 7.30176 27.069 5.13728 27.095C4.98081 26.9125 4.85042 26.73 4.92866 26.3388C5.58061 26.1041 6.23256 25.8955 6.46726 25.2435C6.62373 25.2435 6.75412 25.2435 6.91059 25.2435C7.40607 24.3569 8.70997 24.2525 9.388 23.4963Z" fill="white"/>
<path fill-rule="evenodd" clip-rule="evenodd" d="M34.397 38.6738C34.9185 39.8212 33.6668 39.6386 33.406 40.3167C32.4151 40.2906 31.737 40.082 30.5635 39.769C30.3549 39.4039 30.0419 39.1171 30.0159 38.5694C30.2766 39.0649 30.381 38.2304 30.3549 37.8132C31.6588 37.6306 33.3278 37.6828 34.397 38.6738Z" fill="#60B5E4"/>
<path fill-rule="evenodd" clip-rule="evenodd" d="M39.9515 40.9685C40.1341 41.4379 40.1341 41.6466 40.3948 42.1681C40.2905 42.1681 40.1862 42.1681 40.0558 42.1681C39.6907 43.1852 38.0478 43.3938 36.77 43.1591C36.77 43.0548 36.77 42.9505 36.77 42.8201C36.5092 42.9505 36.5614 42.794 36.2224 42.9244C35.779 42.0117 34.8141 42.0117 35.5704 40.8381C37.2133 40.5513 38.6215 40.447 39.9515 40.9685Z" fill="#60B5E4"/>
<path fill-rule="evenodd" clip-rule="evenodd" d="M30.6679 42.9243C32.4151 41.9334 33.7451 42.82 35.049 43.811C35.4402 45.1149 34.058 45.6364 33.0931 45.5582C31.711 45.4278 30.3028 44.3325 30.6679 42.9243Z" fill="#60B5E4"/>
<path fill-rule="evenodd" clip-rule="evenodd" d="M33.6404 27.956C33.6665 28.0864 33.849 28.0603 33.849 27.956C34.1359 27.8778 33.7708 28.4776 34.0577 28.3994C33.4839 30.277 34.0055 33.6671 36.4568 34.1887C36.5351 34.293 36.7176 34.293 36.6655 34.5277C37.7347 34.5277 39.2733 34.293 40.2642 34.8667C40.3946 34.8406 40.3685 34.6581 40.3685 34.5277C40.9162 34.7102 42.6895 34.4495 43.211 33.641C44.5149 33.9801 45.2191 32.3371 46.2622 32.4414C45.9753 31.9981 46.9402 31.8938 47.1227 31.3462C47.3835 31.3462 47.4357 31.5287 47.7747 31.4505C48.1659 30.9289 48.3745 30.2509 49.0786 30.0423C49.1047 28.6862 50.6694 27.8256 50.6172 26.2088C51.0866 26.1566 50.7476 26.4957 50.9562 26.5478C51.3474 26.5739 51.2952 26.1566 51.5039 26.0002C52.0515 26.3392 52.6774 26.0002 52.9121 25.4525C53.2511 25.4525 53.3815 25.6612 53.6683 25.4525C53.8248 25.6612 54.0073 25.8437 54.1117 26.1045C54.4768 26.1827 54.2421 25.6612 54.6593 25.7655C55.1809 27.0172 55.3373 28.0343 55.1026 29.2599C55.9632 29.3903 56.902 28.0082 57.8408 27.5127C58.1016 27.6692 58.4667 27.6952 58.7014 27.8517C58.7796 27.4605 59.588 27.9299 60.0053 28.295C60.0835 29.5729 59.8749 30.8507 59.6663 32.5458C60.0575 32.5197 60.2661 32.285 60.6572 32.2067C60.24 31.9981 60.918 31.6852 61.3092 31.6591C62.3523 29.938 66.7595 31.6591 64.6993 33.4063C65.3252 33.9279 64.2039 34.4755 64.8037 35.0492C63.9431 35.3883 63.9952 37.0312 62.9521 37.5527C63.0043 37.7874 63.1868 37.8918 63.2911 38.1004C62.5088 40.656 60.0314 41.5427 59.0404 43.8897C57.8669 44.7503 56.6152 45.7673 55.885 46.7322C55.7285 46.7322 55.5981 46.7322 55.4416 46.7322C55.3113 46.9669 55.2069 47.2277 55.1026 47.4885C54.8679 47.5406 54.8158 47.4102 54.6593 47.3842C54.9722 47.6971 53.9813 48.2447 53.564 48.4794C52.4427 49.0792 51.2431 50.2006 50.6172 51.1133C50.2521 51.0612 49.5219 51.1655 49.8609 51.4523C49.7566 51.5306 49.2611 51.4002 49.4176 52C48.557 52.4433 47.8269 53.017 47.1227 53.6429C47.0184 53.6429 47.0445 53.5125 47.0184 53.4343C46.7577 54.1123 45.9232 54.7121 45.2712 54.6339C43.6283 56.0681 41.9071 56.3811 39.4819 56.8244C40.186 58.4934 39.5862 59.5887 40.0295 61.6228C39.4037 61.8314 40.186 62.8484 39.4819 63.031C39.534 63.3439 39.6644 63.5786 39.8209 63.7872C39.7948 64.5435 39.508 64.8043 39.8209 65.6388C39.1429 66.5776 40.186 68.4031 40.1599 69.7852C40.1338 70.3328 40.0295 70.9848 40.6032 71.4281C40.5772 71.6106 40.4207 71.6889 40.1599 71.6367C40.3164 72.2104 40.9944 72.2365 41.4638 72.4973C41.516 72.9406 41.177 72.393 41.1248 72.8363C41.8811 73.1753 42.1418 73.9838 42.9763 74.2445C42.7677 74.6096 42.4287 74.8704 42.3244 75.3398C40.6293 75.4702 39.6123 75.0269 38.8299 73.9316C38.3866 74.74 37.7868 75.3659 37.2913 76.1221C36.4047 76.3829 35.518 75.8874 34.8922 76.0178C35.1008 75.4963 34.7618 74.8443 34.8922 74.2706C35.1269 73.1753 36.6394 72.2887 36.7437 71.1152C36.7958 70.6197 36.5351 70.1242 36.5351 69.707C36.509 68.1683 36.7437 66.708 36.1961 64.9086C36.4829 64.726 36.6655 63.4482 36.4047 64.2566C36.4568 61.8835 36.1961 59.9798 36.4047 57.372C34.0577 57.6589 31.5542 57.8154 29.2071 57.1634C28.8681 57.1895 29.0246 57.7111 28.9985 58.0501C29.0246 58.2587 29.3636 58.1283 29.4418 58.2587C29.1289 59.354 29.5201 59.9538 29.3375 60.8926C29.3636 61.023 29.5462 60.9969 29.6765 60.9969C29.1811 61.9096 29.5722 62.8484 29.5722 63.7351C29.5722 64.3349 29.1289 65.4041 29.7809 66.03C29.4418 67.5164 29.2332 69.7852 29.9895 70.9326C29.7809 70.9065 29.7548 71.063 29.5462 71.0369C30.0156 71.7932 30.4067 72.8363 30.8501 73.6708C31.1891 74.2967 31.8149 75.8874 30.3024 75.5224C28.8681 76.4351 28.2683 73.9577 27.3556 74.3228C27.0687 74.8704 26.6776 75.3137 26.156 75.6267C25.6866 75.4963 25.1911 75.4963 24.7478 75.6267C24.6696 75.392 24.5131 75.2094 24.5392 74.8704C24.2784 74.8965 24.0958 75.079 23.8872 74.8704C24.0437 73.5143 24.8782 73.0971 25.2954 71.5846C25.9474 71.6628 25.8952 71.0109 26.3907 70.9326C26.1299 70.385 26.5211 69.394 26.495 68.5334C26.495 68.1683 26.2603 67.725 26.2864 67.3339C26.2864 67.1252 26.5211 66.8905 26.495 66.6819C26.4689 66.3168 26.1821 65.9256 26.156 65.5866C26.156 65.2476 26.3646 64.9347 26.3646 64.5957C26.3646 64.1263 26.0778 63.0831 26.3646 62.8484C26.0256 61.9096 26.2603 60.9969 26.4689 60.1102C25.9735 59.354 26.5993 57.7893 26.5733 56.5115C24.0698 55.4683 21.2794 54.5817 19.793 52.2608C17.6024 50.2267 15.803 47.8014 14.2123 45.1675C14.3687 44.2026 13.0648 43.8897 13.117 42.664C12.5433 42.0121 12.4129 40.8907 11.8131 40.2649C11.9696 39.4043 11.4219 38.7263 11.1611 37.97C10.9264 37.2659 11.0829 36.0924 10.9525 35.2318C10.8482 34.7102 10.6396 33.4324 10.7439 32.5979C10.7961 32.285 10.9525 31.946 10.7439 31.3983C8.78805 30.3813 5.84123 29.8076 3.65067 29.8597C2.92049 29.1295 0.964636 29.4425 0.0519052 28.6601C-0.469655 26.8347 1.17326 26.7825 1.69482 25.7133C1.79913 25.7916 1.79913 25.9741 2.03384 25.9219C2.08599 25.6351 2.50324 24.6441 3.12911 24.931C3.31166 24.7224 3.12911 24.8006 3.12911 24.4876C4.51125 23.94 5.55437 22.4536 6.83219 22.1928C7.61453 21.4887 8.65766 20.7846 9.88332 20.2369C9.93548 19.3242 9.83117 18.5158 10.3266 18.2811C10.0398 16.5338 11.7349 14.578 11.9956 13.1176C12.1521 13.1176 12.2825 13.1176 12.439 13.1176C12.439 12.8568 12.439 12.5961 12.439 12.3614C14.2644 9.80572 15.9073 7.58909 18.6716 6.36342C18.2283 5.05952 18.0718 3.36444 18.124 2.1127C18.3848 2.13878 18.5673 2.06054 18.6716 1.90407C18.5151 1.56506 18.2022 2.21701 18.0197 1.90407C17.811 0.965266 18.3587 0.782719 18.3587 0.0525344C18.6455 0.0525344 18.9846 0.000378359 19.1149 0.156847C19.0367 1.878 20.1581 3.10366 19.454 4.30325C19.4279 4.53796 19.8451 4.35541 20.0016 4.40757C19.5583 4.64227 20.0277 5.18991 19.793 5.50284C20.2363 6.12872 21.6445 5.18991 22.0878 5.60716C23.131 4.7205 22.6616 2.5821 22.8441 0.808797C23.1831 0.652329 23.6264 0.626251 23.4961 0.0525344C24.6174 0.10469 24.2262 1.56506 24.2523 2.45171C24.2784 3.33837 24.5913 4.61619 24.148 5.39853C24.2523 5.76362 25.0086 5.50284 24.9043 6.05048C25.2172 5.71147 26.2603 6.0244 26.4429 6.49381C26.808 6.31126 26.8601 6.51989 27.3295 6.49381C27.6164 4.92913 28.0858 3.54699 28.3205 1.90407C28.842 2.03446 28.8421 1.61722 29.0768 1.46075C29.3375 1.40859 29.3115 1.66937 29.6244 1.56506C30.0416 3.52091 29.1028 5.81578 28.9724 7.4587C30.6154 8.63221 31.0326 11.0835 32.3626 12.5961C32.5451 14.6041 33.9794 16.4035 33.5622 18.4897C34.0837 19.272 33.7708 20.4716 34.1098 21.4365C33.8751 21.4626 34.0055 21.8538 33.7708 21.8798C33.9533 22.923 34.2402 24.4616 34.1098 25.4786C34.0837 25.5829 33.7969 25.7133 33.7708 25.8176C33.6926 26.5217 34.4488 27.5388 33.6404 27.956ZM48.3745 34.8406C46.6794 34.8928 47.1227 37.3963 47.7225 38.6741C47.3575 39.7172 47.5922 41.0472 46.7316 41.4123C47.0184 41.3862 47.0184 41.647 47.0706 41.8556C46.6012 42.6901 46.888 43.5507 46.0796 44.0462C45.7145 47.1495 42.5852 48.8706 40.186 49.9398C39.8991 50.018 39.9774 49.7312 39.7427 49.7312C39.7948 50.0702 39.4558 50.0441 39.2993 50.1745C37.0045 50.3049 35.2051 49.9398 32.8581 49.8355C31.0326 49.0792 30.1199 48.6359 28.2683 47.8796C28.2944 47.0191 27.0948 47.3842 27.2774 46.341C26.9123 46.315 26.7297 45.9238 26.6254 45.6891C25.9213 44.2287 25.5562 42.7162 25.0868 40.8907C25.3215 40.5517 24.8 39.5608 25.2954 39.2478C24.9303 39.2739 25.2954 38.8045 24.9564 38.5959C25.5562 37.5788 25.3998 36.1967 25.817 35.1014C26.1299 34.293 26.834 33.6671 27.2252 33.0152C27.8772 31.9981 28.3726 30.616 29.5201 30.3813C29.494 29.9119 29.833 29.8076 30.172 29.7293C30.3546 25.6612 30.511 22.7143 30.2763 18.907C30.511 18.8287 30.6154 19.2199 30.6154 18.8026C29.7809 18.2028 30.2503 16.3252 29.4158 15.7515C29.4418 14.2651 28.7638 13.0655 27.8772 12.0484C27.5642 10.562 26.4689 9.88395 25.5823 8.9973C24.0958 8.84083 22.6094 8.7626 20.9926 8.44966C20.6275 8.60613 20.81 8.78867 20.6535 8.9973C20.2363 9.15377 20.0277 9.02338 19.454 8.9973C15.6466 11.2139 13.3256 14.2651 12.8041 19.8197C12.9345 20.2369 13.4821 20.2369 13.456 20.8106C13.2213 20.9671 12.9866 21.0453 13.3517 21.254C11.9696 23.0273 12.8562 25.3221 13.2474 27.2519C13.5082 27.4605 13.8993 27.5388 14.2384 27.6952C14.5513 29.1295 14.2905 30.3031 14.2384 31.5287C14.134 34.0844 14.5513 35.9881 14.6817 38.0743C15.0989 38.4133 15.2554 39.0392 15.2293 39.8215C15.9073 40.6039 16.455 41.2819 16.5332 42.325C16.9765 42.3772 17.0287 42.7683 17.2895 42.977C17.1852 44.4113 18.802 45.0111 18.6977 46.3671C19.0367 46.4454 19.0889 46.2628 19.3496 46.2628C19.3757 47.6449 21.462 48.4273 21.6445 49.6529C23.2614 50.8525 24.9564 53.5125 27.4338 53.356C27.4338 53.4864 27.3034 53.5125 27.3295 53.695C27.7729 53.669 28.0076 53.8776 28.5291 53.7994C28.7117 54.3209 29.494 54.2166 29.833 54.5556C31.9193 54.7903 34.9443 54.686 37.0306 54.347C38.6995 53.669 42.1679 53.8776 43.2632 52.2608C43.3154 52.3911 43.3936 52.4955 43.6022 52.4694C44.541 51.7392 45.7406 50.7743 46.6533 50.3831C46.862 49.4443 48.1137 49.6008 48.2963 48.6359C51.3474 46.9148 53.6423 44.4373 56.2761 42.2989C56.5369 41.4123 57.2149 40.5517 57.9191 40.4474C57.8669 39.9519 58.4406 39.1435 59.1186 39.0392C59.4577 37.6571 60.7355 36.6661 60.9702 35.5447C60.3704 35.8837 59.9531 36.4314 59.7706 37.1877C58.6753 37.6571 57.7104 38.961 56.9281 38.0743C56.8238 38.3351 56.5108 37.9178 56.1718 38.0743C54.9201 36.9269 56.0154 34.8928 56.0675 32.9369C55.5199 32.9369 55.2852 33.4585 55.3113 33.6932C54.6071 33.5628 53.9291 34.3191 53.1207 34.4495C51.895 34.1626 50.6433 33.6671 51.1648 31.946C50.226 32.963 49.0525 33.4846 48.3745 34.8406ZM6.88435 25.2439C6.72788 25.2439 6.59749 25.2439 6.44102 25.2439C6.20632 25.8959 5.55437 26.1045 4.90242 26.3392C4.82418 26.7304 4.98065 26.9129 5.11104 27.0955C7.27552 27.0433 8.42295 27.9821 10.457 27.9821C10.1963 27.3823 9.62254 26.261 10.118 25.5829C9.70078 25.3221 9.70078 24.3573 9.9094 23.8357C9.54431 23.9139 9.77901 23.3924 9.36176 23.4967C8.70981 24.2529 7.40591 24.3573 6.88435 25.2439ZM29.5983 36.2749C29.4418 36.2749 29.3636 36.3271 29.2593 36.3792C29.5201 37.3702 28.2683 38.3872 29.0507 39.0131C28.816 39.0392 28.7638 39.2217 28.6073 39.3521C28.6856 41.4384 29.1289 43.2638 29.9112 45.0371C30.1199 45.0632 30.146 44.9067 30.3546 44.9328C30.7197 47.0973 33.4057 47.9579 35.3876 47.5667C35.4659 47.8014 35.9092 47.6449 35.9353 47.9057C36.3004 47.6189 36.6655 47.8536 37.1349 47.8014C38.7256 47.6189 40.2121 46.002 40.8379 45.2979C40.8901 45.2458 41.0987 45.3501 41.177 45.2979C41.4117 45.0893 41.6203 44.4373 41.8289 44.2026C42.1679 43.8375 42.2983 44.3591 42.4809 44.0983C42.3244 43.994 42.1418 43.9419 42.1418 43.655C42.6113 43.5246 42.846 43.2638 42.6895 42.7683C42.846 42.7683 42.9763 42.7683 43.1328 42.7683C43.1328 42.5076 43.1328 42.2468 43.1328 42.0121C43.7065 41.9078 43.524 41.3862 43.8891 40.9168C42.3244 42.2207 40.1338 41.3601 40.186 39.6129C41.0205 39.0131 41.6464 39.0653 42.5852 38.8566C42.7677 39.2217 43.2371 39.5086 43.6804 39.3C43.4197 39.5868 43.7848 39.9258 44.1238 39.9519C44.1759 38.987 44.3324 38.0221 43.6804 37.4484C43.211 37.7874 42.3244 37.5788 41.7246 37.9961C39.195 37.6571 37.5521 37.97 35.0747 37.6571C34.162 37.1355 33.0406 36.3792 32.4408 35.9098C31.9714 35.0232 31.3977 34.2669 30.7979 33.5106C30.5371 34.5277 29.6244 34.9449 29.5983 36.2749Z" fill="#60B5E4"/>
</g>
<defs>
<clipPath id="clip0">
<rect width="65.2994" height="76.2" fill="white"/>
</clipPath>
</defs>
</svg>
