<svg viewBox="0 0 129 67" fill="none" xmlns="http://www.w3.org/2000/svg">
<path fill-rule="evenodd" clip-rule="evenodd" d="M116.208 29.6115C116.155 29.1577 115.709 29.1752 115.442 28.9657C114.426 28.128 113.909 26.9586 112.875 26.1906C112.001 26.9411 110.913 27.4822 109.594 27.3775C108.221 27.2728 106.884 26.6968 105.939 26.0161C104.192 27.0633 101.108 27.6044 98.6833 26.8364C97.4888 25.2831 96.0982 27.5346 94.7255 27.552C94.1193 27.4124 93.6201 27.7964 92.9605 27.8138C91.3559 27.8662 89.9297 27.1855 88.4678 26.7143C86.7741 28.6341 83.0658 28.2676 80.6947 27.2204C80.3559 27.9011 79.5715 28.1629 79.3576 28.9657C78.6266 29.1228 78.1987 29.7337 77.5034 29.8908C75.471 30.362 73.6525 29.2974 72.5828 28.2152C72.4759 29.1054 72.7076 30.3446 72.1015 30.9554C72.4224 31.3045 72.0836 31.4267 71.941 31.7059C72.3689 31.9503 71.8697 32.2644 71.8697 32.5262C71.8697 32.6484 72.048 32.8404 72.048 33.0149C72.0123 33.7654 71.8519 34.3938 71.8162 35.0919C71.7806 35.6504 71.9945 36.2089 71.9232 36.8198C71.7271 38.5826 71.7984 39.9614 71.7271 41.3751C71.6558 42.7365 72.3689 43.7139 72.1193 45.18C72.4046 46.5588 72.8324 48.0249 73.2603 49.3862C73.6704 50.6429 74.0448 51.8297 74.4013 53.0864C75.0253 53.8543 75.4532 54.4652 76.1128 55.0586C76.1485 55.2506 75.9524 55.2331 76.0415 55.4775C76.3089 55.5299 76.1485 55.1808 76.3802 55.3902C77.9491 57.6068 80.3559 58.9856 82.7806 60.3645C82.8875 60.155 82.5845 59.963 82.7806 59.9456C82.7806 59.9979 82.7984 60.0503 82.8697 60.0328C83.155 60.347 83.4046 60.6612 83.6363 61.0102C84.082 61.0451 84.3316 61.2546 84.5634 61.4989C85.3122 61.6386 85.7757 62.0749 86.3462 62.3891C87.0237 62.7032 87.5407 63.1919 88.129 63.3664C88.236 63.4014 88.3786 63.4188 88.5569 63.4363C89.0204 63.4886 89.5909 63.8028 90.1614 63.9948C91.8908 64.5707 93.9589 64.466 95.8308 64.8325C95.7238 64.5009 96.0269 64.5882 96.2587 64.5882C96.2765 64.7104 96.2409 64.8849 96.3478 64.9198C96.3657 64.8151 96.33 64.6929 96.437 64.6755C97.2571 64.5009 98.3446 65.042 99.1469 64.8151C99.3073 64.8325 99.3073 64.6929 99.3965 64.6405C102.998 64.1693 107.009 62.7381 109.487 60.4692C114.978 53.1736 116.601 41.5846 117.225 30.1177C116.886 29.9257 116.636 29.6813 116.208 29.6115Z" fill="white"/>
<path fill-rule="evenodd" clip-rule="evenodd" d="M68.3397 24.7944C67.9475 24.5326 68.2328 24.0963 68.2506 23.7123C68.2506 23.5727 68.0723 23.4156 68.0723 23.3807C68.1258 23.0142 68.4645 22.508 68.5715 22.0543C68.6607 21.6179 68.518 21.3212 68.732 21.0594C68.9102 20.8325 69.2668 20.7278 69.4808 20.5533C69.5877 20.5358 69.6234 20.5707 69.659 20.6405C69.6947 22.0543 68.8033 22.9618 69.1064 24.3756C68.9103 24.585 68.7141 24.777 68.3397 24.7944Z" fill="black"/>
<path fill-rule="evenodd" clip-rule="evenodd" d="M72.6007 21.1116C72.8503 21.0418 72.8503 21.2513 73.0999 21.1814C73.3495 22.2985 72.5294 22.9268 72.7077 23.9216C72.5829 24.0961 72.1907 24.0263 72.0302 24.1834C71.9411 24.1311 71.9411 23.9914 71.7806 24.0263C71.8341 22.8919 72.2263 22.1763 72.6007 21.1116Z" fill="black"/>
<path fill-rule="evenodd" clip-rule="evenodd" d="M75.8989 21.5655C76.0237 22.5255 76.0415 23.4505 76.1841 24.2883C75.8097 24.4802 75.7028 24.5501 75.1679 24.4628C75.1144 23.5727 74.8648 22.4556 75.0431 21.4957C75.2571 21.3212 75.7741 21.3735 75.8989 21.5655Z" fill="black"/>
<path fill-rule="evenodd" clip-rule="evenodd" d="M69.249 30.9032C69.3025 31.7584 69.3738 32.7533 69.0351 33.5562C68.6785 33.7831 68.3041 33.8529 68.0189 33.5736C68.6072 32.7358 67.8227 30.6937 69.249 30.9032Z" fill="black"/>
<path fill-rule="evenodd" clip-rule="evenodd" d="M82.5488 33.4688C82.1031 33.5386 81.9783 33.5037 81.4435 33.5561C80.8017 33.0674 80.2847 32.1249 79.3219 32.1773C78.9832 32.1947 78.8584 32.5089 78.3949 32.7707C77.8957 33.0499 77.2539 33.1372 77.2182 33.8528C76.933 33.7481 76.4872 33.8004 76.2911 33.6084C76.4159 32.9801 76.2733 32.9452 76.3625 32.4565C77.343 31.3046 79.3754 30.7112 80.9978 31.4093C81.7466 31.7235 82.0318 32.4216 82.6201 32.7881C82.5132 33.1372 82.6736 33.2419 82.5488 33.4688Z" fill="black"/>
<path fill-rule="evenodd" clip-rule="evenodd" d="M67.1631 32.4913C67.0027 33.1894 67.8584 34.8998 66.7709 35.3013C66.7531 35.1966 66.6105 35.2315 66.5213 35.214C66.4143 34.1843 66.2361 33.172 66.3252 32.5786C66.5748 32.2819 66.86 32.2295 67.1631 32.4913Z" fill="black"/>
<path fill-rule="evenodd" clip-rule="evenodd" d="M81.6574 36.5404C81.6931 37.9193 82.7271 42.5444 79.8746 42.3524C79.5893 42.0557 79.0545 42.0033 78.6801 41.7939C78.1631 40.2406 78.484 38.1636 79.215 36.4881C80.0172 36.1914 80.9978 35.9819 81.6574 36.5404Z" fill="black"/>
<path fill-rule="evenodd" clip-rule="evenodd" d="M122.359 36.1566C122.377 36.4708 122.448 36.3835 122.359 36.6453C123.126 37.2737 123.571 39.8568 121.896 39.787C121.682 39.4903 121.806 39.2634 121.967 38.9667C122.27 38.0067 121.468 37.2039 121.521 36.6628C121.557 36.3312 121.753 35.7726 122.359 36.1566Z" fill="black"/>
<path fill-rule="evenodd" clip-rule="evenodd" d="M107.259 36.9944C109.024 37.7449 108.257 40.0836 108.418 41.6894C108.186 41.9861 107.972 42.2828 107.758 42.6144C106.367 42.9285 105.422 42.1955 104.959 41.3228C104.781 39.56 104.781 38.3383 105.583 37.2562C106.046 36.9246 106.581 37.1515 107.259 36.9944Z" fill="black"/>
<path fill-rule="evenodd" clip-rule="evenodd" d="M69.6947 39.909C69.8374 42.143 70.1939 44.8657 70.2831 47.3441C68.8925 47.3441 67.591 46.5413 66.6283 45.8082C66.5213 45.0403 65.8617 43.9931 66.2539 42.6666C66.8422 41.7242 66.9492 40.677 67.5732 40.0836C68.0902 39.6821 69.0529 39.525 69.6947 39.909Z" fill="white"/>
<path fill-rule="evenodd" clip-rule="evenodd" d="M117.51 47.1348C117.635 45.3546 117.956 42.7016 119.56 41.8115C121.129 41.8988 122.056 42.7191 122.127 44.3423C122.199 46.1051 120.844 48.2169 119.649 48.3391C118.58 48.4438 118.401 47.3792 117.51 47.1348Z" fill="white"/>
<path fill-rule="evenodd" clip-rule="evenodd" d="M93.8341 45.1625C93.7271 44.3421 93.3349 43.7487 92.8 43.8534C92.0691 43.9931 91.7838 45.337 91.2133 45.4417C89.6266 44.22 92.3543 42.684 93.4597 42.4397C94.2619 42.5095 95.0464 43.068 95.3316 43.9058C95.082 44.5341 94.7968 45.4766 93.8341 45.1625Z" fill="black"/>
<path fill-rule="evenodd" clip-rule="evenodd" d="M124.089 45.7385C124.641 49.1769 124.802 52.9293 125.729 56.228C126.067 57.4672 126.656 58.6715 126.62 59.9456C124.641 60.4867 122.769 60.19 120.79 60.1725C119.489 60.1551 118.401 59.5442 117.242 59.4744C115.852 59.3871 114.354 59.9107 113.178 59.0206C113.481 57.5719 114.729 56.42 115.317 54.9365C116.084 53.069 116.44 50.9571 117.1 48.8801C117.439 48.8627 118.045 49.2641 118.544 49.3514C118.49 49.9623 118.17 50.9396 118.651 51.3411C119.845 51.4633 120.042 50.6604 120.059 49.6655C122.092 49.0198 123.572 47.8329 124.089 45.7385ZM119.204 54.2209C118.829 55.3728 118.883 56.8738 118.829 57.9385C120.79 58.5842 120.808 55.1285 120.22 53.9591C119.703 53.8195 119.614 54.0987 119.204 54.2209ZM116.743 54.0813C115.192 53.802 115.317 56.804 115.941 57.5719C117.51 57.5719 117.385 54.9714 116.743 54.0813ZM123.126 57.5719C124.588 57.38 124.32 54.2558 123.161 54.186C122.003 54.1162 122.698 56.42 122.359 57.3451C122.627 57.5021 122.912 57.5894 123.126 57.5719Z" fill="#FDDF6C"/>
<path fill-rule="evenodd" clip-rule="evenodd" d="M64.9702 46.6636C66.753 47.6759 68.3754 48.4962 70.7287 48.5835C71.6201 52.2138 73.082 54.7096 75.2214 57.2927C76.095 58.148 77.2538 58.7065 78.0383 59.6664C75.8276 59.8933 74.0269 59.998 72.048 59.7362C69.1242 59.8759 65.3981 59.9457 63.4191 58.9334C62.9378 57.7291 63.7222 56.3503 63.7935 55.0412C63.847 54.2035 63.847 53.2261 64.0075 52.3883C64.1323 51.7774 64.4888 50.4859 64.6493 49.7354C64.7741 49.1594 64.5423 48.5136 64.6315 48.0075C64.7206 47.5362 65.1306 47.065 64.9702 46.6636ZM67.2344 51.9345C68.108 51.5156 67.8762 50.1194 67.7157 49.3689C66.6282 49.6656 66.5569 51.3411 67.2344 51.9345ZM69.2846 54.0464C69.6947 54.0638 69.8195 53.7846 70.0334 53.6275C69.9621 52.3534 70.1047 51.3935 69.9086 50.7302C68.5893 50.992 69.552 52.8596 69.2846 54.0464ZM64.7563 56.6644C65.7546 56.4026 65.0593 54.3955 65.2198 53.5228C64.1858 53.7322 64.6849 55.7917 64.7563 56.6644ZM67.9297 54.3256C67.5909 53.7846 67.2165 54.4653 66.9135 54.6747C66.9313 55.9488 66.5569 57.1357 67.2879 57.7291C68.108 56.996 67.4483 55.2507 67.9297 54.3256ZM70.8178 55.9314C70.8892 56.8913 70.6752 57.5371 70.8535 58.2527C70.9248 58.2701 71.014 58.2527 71.0318 58.3399C72.1906 58.2178 71.7806 56.1757 71.3349 55.5299C71.1566 55.6521 71.014 55.8266 70.8178 55.9314Z" fill="#FDDF6C"/>
<path fill-rule="evenodd" clip-rule="evenodd" d="M67.6979 49.3513C67.8584 50.1018 68.0902 51.4981 67.2166 51.9169C66.5569 51.341 66.6282 49.6655 67.6979 49.3513Z" fill="black"/>
<path fill-rule="evenodd" clip-rule="evenodd" d="M69.9087 50.7476C70.087 51.3933 69.9622 52.3533 70.0335 53.6449C69.8017 53.8194 69.6947 54.0812 69.2847 54.0637C69.5521 52.8594 68.5894 50.9919 69.9087 50.7476Z" fill="black"/>
<path fill-rule="evenodd" clip-rule="evenodd" d="M65.2199 53.5227C65.0416 54.4128 65.7547 56.4199 64.7563 56.6642C64.685 55.7916 64.1858 53.7321 65.2199 53.5227Z" fill="black"/>
<path fill-rule="evenodd" clip-rule="evenodd" d="M67.3057 57.7116C66.5747 57.1182 66.9491 55.9313 66.9313 54.6572C67.2344 54.4478 67.5909 53.7671 67.9475 54.3082C67.4483 55.2507 68.108 56.996 67.3057 57.7116Z" fill="black"/>
<path fill-rule="evenodd" clip-rule="evenodd" d="M120.22 53.9591C120.808 55.1459 120.79 58.5842 118.829 57.9385C118.883 56.8738 118.829 55.3728 119.204 54.2209C119.614 54.0987 119.703 53.8194 120.22 53.9591Z" fill="black"/>
<path fill-rule="evenodd" clip-rule="evenodd" d="M115.941 57.572C115.317 56.804 115.192 53.802 116.743 54.0813C117.385 54.9714 117.51 57.572 115.941 57.572Z" fill="black"/>
<path fill-rule="evenodd" clip-rule="evenodd" d="M122.359 57.3277C122.698 56.4026 122.02 54.0987 123.161 54.1685C124.302 54.2384 124.57 57.3626 123.126 57.5545C122.912 57.5895 122.627 57.5022 122.359 57.3277Z" fill="black"/>
<path fill-rule="evenodd" clip-rule="evenodd" d="M71.3171 55.5125C71.7628 56.1582 72.1728 58.2003 71.014 58.3224C71.014 58.2352 70.907 58.2526 70.8357 58.2352C70.6574 57.537 70.8714 56.8738 70.8001 55.9139C71.014 55.8266 71.1566 55.6521 71.3171 55.5125Z" fill="black"/>
<path fill-rule="evenodd" clip-rule="evenodd" d="M67.3592 20.3439C67.377 20.2566 67.4484 20.2915 67.4484 20.3439C67.6088 19.5061 68.3219 18.6858 68.6072 17.9353C68.7142 17.6735 68.6072 17.3419 68.6785 17.1848C68.7855 16.9928 68.9816 16.9579 69.0885 16.7659C69.142 16.6787 69.0529 16.4169 69.0885 16.347C69.1777 16.1376 69.4629 16.1376 69.5877 15.9282C69.9265 15.3871 70.0869 14.5493 70.497 13.9385C71.3705 12.5946 72.8681 11.6521 74.1696 10.5001C74.3835 10.4827 74.437 10.3431 74.5975 10.5001C74.6866 10.186 75.0966 10.1685 75.1858 9.83691C75.3462 9.83691 75.3641 9.73219 75.5245 9.74964C76.5051 8.92933 77.8778 7.95194 79.3754 7.39343C80.1599 7.09672 81.1047 7.04436 81.5504 6.38113C83.5829 6.18914 85.0269 4.86268 86.7563 4.33908C87.719 4.04237 88.8065 4.02492 89.7871 3.81548C91.2846 3.46641 92.7822 3.03007 94.4224 2.61119C97.0788 2.71591 100.805 1.75597 103.8 2.26212C104.264 2.71591 105.173 2.71591 105.761 3.06498C108.578 3.64094 110.824 5.52591 113.16 6.86983C113.552 7.79486 114.622 8.02175 115.299 8.7548C115.584 9.06896 115.674 9.55765 115.905 9.90672C116.422 10.6921 117.046 11.3554 117.706 11.9488C118.027 12.6818 118.437 13.345 118.99 13.8337C119.346 14.9159 119.899 15.7711 120.131 17.1324C120.202 17.5688 120.434 17.9877 120.576 18.3716C121.361 20.6755 121.628 23.2237 122.43 25.545C122.11 25.7719 122.413 26.5573 122.537 26.8715C122.324 32.3344 124.534 37.3784 124.089 42.6494C123.126 41.1135 120.933 40.1884 118.829 40.7295C118.99 39.2983 119.221 37.8671 119.293 36.5057C119.756 37.1515 119.328 38.5653 119.667 39.1412C120.024 39.1761 120.131 38.9841 120.434 38.9667C120.487 37.6053 120.701 36.2789 120.309 35.3364C120.184 35.0222 119.703 35.1793 119.542 35.092C119.774 33.591 119.471 31.8806 119.828 30.5367C120.772 30.3621 121.218 29.0706 120.398 28.547C120.077 28.3724 120.184 28.6692 119.81 28.6343C119.346 28.2154 119.578 27.4823 119.114 27.1507C118.633 26.8191 117.278 27.0285 116.922 27.43C116.993 27.7267 117.242 27.8314 117.189 28.2503C116.137 27.6045 115.584 26.4526 114.96 25.3879C114.907 25.2832 114.782 25.2308 114.622 25.2308C114.693 25.0039 114.747 24.8469 114.533 24.7421C114.854 24.2534 114.443 23.7997 114.426 23.1713C114.408 22.4034 114.782 21.6005 114.657 20.85C114.586 20.4835 114.354 20.2042 114.23 19.8552C113.641 19.9075 113.57 19.6108 113.053 19.7854C112.643 20.3788 112.482 21.5831 112.322 22.6128C112.072 24.1836 111.466 25.2308 110.503 26.1908C108.97 26.5573 108.221 25.6323 107.526 24.8992C107.597 23.5204 109.077 21.7751 108.311 20.3439C107.669 19.4014 106.046 19.1745 105.101 19.8028C104.281 20.9024 104.103 23.0841 104.816 24.5152C103.782 26.2431 99.8422 26.8889 98.826 24.7421C98.9151 23.5378 99.6817 22.2463 98.8616 21.1816C98.309 20.466 97.1679 20.309 96.0626 20.7977C95.4921 21.3387 95.5991 22.5954 95.8487 23.5204C95.92 23.8346 96.2231 24.2011 96.2052 24.5152C96.1696 25.0214 95.1534 26.0511 94.3689 26.3479C92.7822 26.9762 90.0367 26.6097 89.8762 25.161C89.7336 25.0912 89.6979 25.3006 89.4483 25.0912C89.1274 24.0964 89.0561 23.2411 88.3252 22.7874C87.6655 22.8223 86.8276 22.7175 86.2927 22.8921C85.7936 23.5204 86.3106 24.2709 86.7385 24.9516C86.578 26.6795 85.0983 27.2554 83.4759 26.9762C82.4953 26.8016 81.8892 26.1733 81.2652 25.7544C81.2117 24.9167 80.7304 23.852 79.9637 23.4506C79.3576 23.6251 78.8762 23.4157 78.3592 23.6426C78.074 24.7072 78.5375 25.6846 79.1436 26.121C78.5197 27.6394 77.3252 29.1404 75.3819 28.8961C74.4905 28.2154 73.9022 27.2554 73.2425 26.3653C72.9929 26.4177 72.4937 26.3129 72.1372 26.3828C69.659 28.8611 70.1761 34.9524 69.8373 38.5653C68.5537 38.3733 67.6445 38.6351 66.8065 39.0889C65.3446 35.0048 66.1112 31.357 65.9151 27.6045C66.2004 26.7667 66.2895 25.5275 66.5569 24.7945C66.3787 24.5501 66.3252 24.1836 66.2895 23.7997C66.8422 22.7175 67.4484 21.7052 67.3592 20.3439ZM69.0885 24.3756C68.7855 22.9793 69.659 22.0718 69.6412 20.6406C69.6234 20.5708 69.5699 20.5533 69.4629 20.5533C69.249 20.7278 68.8924 20.8326 68.7141 21.0595C68.518 21.3213 68.6607 21.618 68.5537 22.0543C68.4467 22.5081 68.108 23.0142 68.0545 23.3808C68.0545 23.4157 68.2328 23.5728 68.2328 23.7124C68.2328 24.0789 67.9475 24.5327 68.3219 24.7945C68.7142 24.777 68.9103 24.5851 69.0885 24.3756ZM71.7984 24.0091C71.9589 23.9742 71.9589 24.1138 72.048 24.1662C72.2085 24.0265 72.5829 24.0789 72.7255 23.9044C72.5472 22.9095 73.3673 22.2812 73.1177 21.1642C72.8681 21.234 72.8681 21.0246 72.6185 21.0944C72.2263 22.1765 71.8341 22.8921 71.7984 24.0091ZM75.061 21.4958C74.8649 22.4732 75.1323 23.5728 75.1858 24.4629C75.7028 24.5501 75.8276 24.4803 76.202 24.2883C76.0594 23.4506 76.0415 22.5256 75.9167 21.5656C75.7741 21.3736 75.2571 21.3213 75.061 21.4958ZM68.0189 33.5561C68.3041 33.8354 68.6785 33.7656 69.0351 33.5387C69.3738 32.7358 69.3025 31.7584 69.249 30.8857C67.8227 30.6938 68.6072 32.7358 68.0189 33.5561ZM66.3252 32.5962C66.236 33.1896 66.4143 34.2193 66.5213 35.2316C66.6283 35.2491 66.753 35.2142 66.7709 35.3189C67.8584 34.9 67.0026 33.1896 67.1631 32.5089C66.86 32.2297 66.5748 32.282 66.3252 32.5962ZM121.521 36.6628C121.486 37.2039 122.288 38.0242 121.967 38.9667C121.789 39.2808 121.682 39.5077 121.896 39.787C123.589 39.8394 123.126 37.2562 122.359 36.6454C122.448 36.3836 122.359 36.4534 122.359 36.1567C121.753 35.7727 121.557 36.3312 121.521 36.6628Z" fill="#FDDF6C"/>
<path fill-rule="evenodd" clip-rule="evenodd" d="M128.635 59.073C127.85 56.2979 127.03 53.3133 126.923 50.5732C125.978 47.1174 126.21 42.6318 126.032 39.5949C125.907 37.6925 125.23 35.8948 125.212 34.0622C125.194 33.1721 124.802 32.5438 124.677 31.7584C124.516 30.7461 124.73 29.629 124.552 28.704C124.499 28.4597 124.32 28.2851 124.285 28.0408C124.142 26.6445 124.463 25.2482 123.732 24.0788C123.785 23.8869 123.857 23.6949 123.803 23.4156C123.375 22.0019 123.019 20.3264 122.395 18.965C122.252 17.2546 121.414 15.038 120.986 13.7639C119.738 12.2803 118.972 10.727 117.546 9.3307C117.421 8.51038 116.725 8.26604 116.422 7.60281C114.533 6.41597 113.16 4.39137 110.807 3.7805C110.432 3.15218 109.38 3.20454 109.095 2.4715C108.079 1.96535 106.92 1.87808 105.708 1.51156C104.959 1.28466 104.299 0.900688 103.586 0.795967C103.426 0.778514 103.265 0.900688 103.087 0.883234C102.499 0.830874 101.803 0.446899 101.215 0.411992C100.609 0.377085 99.4856 0.7087 99.1112 0.76106C98.0593 0.935595 96.8827 0.918141 95.9021 1.04032C95.3851 1.11013 94.9216 1.04032 94.3867 1.05777C93.0675 1.11013 91.766 1.61628 90.4289 1.93044C88.6461 2.33187 85.6331 2.94274 84.706 3.4838C82.8697 4.25175 80.8017 4.94988 78.8227 5.78765C78.8049 5.90982 78.8584 6.08436 78.7336 6.11926C78.7514 5.94473 78.4305 6.08436 78.3057 6.04945C76.8973 6.76504 75.2036 7.32355 73.9378 8.33585C73.4208 8.75473 73.1534 9.19107 72.6007 9.50523C71.6914 10.0288 71.2636 10.4128 70.5148 11.0935C70.0334 11.5298 69.4094 11.9138 69.0885 12.2629C68.4111 13.0483 68.1615 14.1478 67.3414 14.846C67.3235 15.0031 67.4662 15.0031 67.5196 15.0903C66.6639 16.1201 66.1647 17.5338 65.7012 18.9126C65.2555 20.2565 64.9702 21.6354 64.8276 23.1364C64.7919 23.4505 65.1663 23.3458 65.095 23.7123C63.9718 26.2431 64.3284 30.2574 64.0253 32.823C64.1679 33.0499 64.3641 32.7881 64.3641 33.0674C64.2749 33.0674 64.2036 33.0674 64.1145 33.0674C64.3284 35.1618 64.3106 36.7326 65.0237 38.6001C64.988 39.0539 65.1307 39.1761 65.0415 39.5077C65.2555 39.5949 65.5229 39.6473 65.6299 39.8393C64.9702 41.1308 64.4532 42.1257 64.2393 43.9059C63.4013 44.2027 63.4726 44.8135 63.4192 45.4942C63.3122 46.6287 62.9913 47.8853 62.8665 48.7231C62.296 52.3883 61.8325 56.3677 61.4759 59.6489C63.2409 61.0278 65.826 61.0627 68.001 61.1499C71.4062 61.2721 75.3462 61.5339 78.7336 60.9405C78.9297 60.8009 78.9475 60.5042 79.0723 60.2773C82.2814 61.9179 85.5083 64.4486 89.4127 65.3213C89.4662 65.3038 89.5375 65.3038 89.6088 65.3213C90.3932 65.5133 91.1598 65.7227 91.9265 65.9322C94.1015 66.0718 96.8292 66.0893 99.0221 66.2289C99.5034 66.1591 100.003 66.1242 100.466 66.002C100.698 65.9496 100.912 65.8449 101.126 65.7925C101.215 65.7751 101.322 65.7576 101.411 65.7227C101.465 65.7053 101.5 65.7053 101.554 65.6878C101.554 65.6878 101.625 65.6529 101.643 65.6355C101.732 65.5831 101.839 65.5657 101.928 65.6006C105.815 64.6581 109.202 63.2967 112.215 60.3994C114.55 61.6735 117.581 60.6612 120.006 61.7084C122.858 61.5514 126.139 62.0052 128.706 61.2023C129.277 60.6263 128.884 59.9456 128.635 59.073ZM65.8438 27.5521C66.1291 26.7143 66.2182 25.4751 66.4856 24.7421C66.3073 24.4977 66.2538 24.1312 66.2182 23.7472C66.8422 22.7175 67.4483 21.7052 67.3592 20.3438C67.377 20.2565 67.4483 20.2915 67.4483 20.3438C67.6088 19.506 68.3219 18.6857 68.6072 17.9352C68.7141 17.6734 68.6072 17.3418 68.6785 17.1847C68.7855 16.9928 68.9816 16.9578 69.0885 16.7659C69.142 16.6786 69.0529 16.4168 69.0885 16.347C69.1777 16.1375 69.4629 16.1375 69.5877 15.9281C69.9265 15.387 70.0869 14.5493 70.497 13.9384C71.3705 12.5945 72.8681 11.652 74.1696 10.5001C74.3835 10.4826 74.437 10.343 74.5974 10.5001C74.6866 10.1859 75.0966 10.1685 75.1858 9.83685C75.3462 9.83685 75.3641 9.73212 75.5245 9.74958C76.5051 8.92927 77.8778 7.95187 79.3754 7.39336C80.1598 7.09666 81.1047 7.0443 81.5504 6.38106C83.5829 6.18908 85.0269 4.86262 86.7563 4.33901C87.719 4.04231 88.8065 4.02485 89.7871 3.81541C91.2846 3.46634 92.7822 3.03001 94.4224 2.61112C97.0788 2.71584 100.805 1.75591 103.8 2.26206C104.264 2.71584 105.173 2.71584 105.761 3.06491C108.578 3.64088 110.824 5.52585 113.16 6.86976C113.552 7.79479 114.622 8.02169 115.299 8.75473C115.584 9.06889 115.674 9.55759 115.905 9.90666C116.422 10.6921 117.046 11.3553 117.706 11.9487C118.027 12.6818 118.437 13.345 118.99 13.8337C119.346 14.9158 119.899 15.771 120.131 17.1324C120.202 17.5687 120.434 17.9876 120.576 18.3716C121.361 20.6754 121.628 23.2236 122.43 25.5449C122.11 25.7718 122.413 26.5572 122.537 26.8714C122.324 32.3343 124.534 37.3784 124.089 42.6493C123.126 41.1134 120.933 40.1884 118.829 40.7294C118.99 39.2982 119.221 37.8671 119.293 36.5057C119.756 37.1515 119.328 38.5652 119.667 39.1412C120.024 39.1761 120.131 38.9841 120.434 38.9666C120.487 37.6053 120.701 36.2788 120.309 35.3363C120.184 35.0221 119.703 35.1792 119.542 35.092C119.774 33.591 119.471 31.8805 119.828 30.5366C120.772 30.3621 121.218 29.0705 120.398 28.5469C120.077 28.3724 120.184 28.6691 119.81 28.6342C119.346 28.2153 119.578 27.4823 119.114 27.1507C118.633 26.819 117.278 27.0285 116.922 27.4299C116.993 27.7266 117.242 27.8313 117.189 28.2502C116.137 27.6044 115.584 26.4525 114.96 25.3879C114.907 25.2831 114.782 25.2308 114.622 25.2308C114.693 25.0039 114.747 24.8468 114.533 24.7421C114.854 24.2534 114.443 23.7996 114.426 23.1713C114.408 22.4033 114.782 21.6005 114.657 20.85C114.586 20.4834 114.354 20.2042 114.23 19.8551C113.641 19.9075 113.57 19.6108 113.053 19.7853C112.643 20.3787 112.482 21.583 112.322 22.6128C112.072 24.1836 111.466 25.2308 110.503 26.1907C108.97 26.5572 108.221 25.6322 107.526 24.8992C107.597 23.5203 109.077 21.775 108.311 20.3438C107.669 19.4013 106.046 19.1744 105.101 19.8028C104.281 20.9023 104.103 23.084 104.816 24.5152C103.782 26.2431 99.8422 26.8888 98.826 24.7421C98.9151 23.5378 99.6817 22.2462 98.8616 21.1816C98.3089 20.466 97.1679 20.3089 96.0626 20.7976C95.4921 21.3387 95.5991 22.5953 95.8487 23.5203C95.92 23.8345 96.223 24.201 96.2052 24.5152C96.1696 25.0213 95.1534 26.0511 94.3689 26.3478C92.7822 26.9761 90.0367 26.6096 89.8762 25.161C89.7336 25.0911 89.6979 25.3006 89.4483 25.0911C89.1274 24.0963 89.0561 23.2411 88.3252 22.7873C87.6655 22.8222 86.8276 22.7175 86.2927 22.892C85.7936 23.5203 86.3106 24.2708 86.7384 24.9515C86.578 26.6794 85.0983 27.2554 83.4759 26.9761C82.4953 26.8016 81.8892 26.1733 81.2652 25.7544C81.2117 24.9166 80.7303 23.8519 79.9637 23.4505C79.3576 23.6251 78.8762 23.4156 78.3592 23.6425C78.0739 24.7072 78.5375 25.6846 79.1436 26.1209C78.5196 27.6393 77.3252 29.1403 75.3819 28.896C74.4905 28.2153 73.9021 27.2554 73.2425 26.3652C72.9929 26.4176 72.4937 26.3129 72.1372 26.3827C69.659 28.8611 70.1761 34.9523 69.8373 38.5652C68.5537 38.3732 67.6444 38.635 66.8065 39.0888C65.2733 34.9523 66.0399 31.3046 65.8438 27.5521ZM119.631 48.3391C118.58 48.4438 118.383 47.3792 117.51 47.1174C117.635 45.3371 117.956 42.6842 119.56 41.7941C121.129 41.8813 122.056 42.7017 122.127 44.3248C122.199 46.1225 120.844 48.2344 119.631 48.3391ZM70.3008 47.3443C68.9102 47.3443 67.6088 46.5414 66.6461 45.8084C66.5391 45.0404 65.8795 43.9932 66.2717 42.6668C66.86 41.7243 66.967 40.6771 67.591 40.0836C68.0902 39.6648 69.0529 39.5077 69.6947 39.8917C69.8373 42.1432 70.2117 44.8659 70.3008 47.3443ZM72.048 59.7362C69.1242 59.8758 65.3981 59.9457 63.4192 58.9334C62.9378 57.7291 63.7222 56.3502 63.7936 55.0412C63.847 54.2035 63.847 53.2261 64.0075 52.3883C64.1323 51.7774 64.4889 50.4859 64.6493 49.7354C64.7741 49.1594 64.5423 48.5137 64.6315 48.0075C64.7028 47.5537 65.1128 47.0825 64.9524 46.681C66.7352 47.6933 68.3576 48.5137 70.7109 48.6009C71.6023 52.2312 73.0642 54.7271 75.2036 57.3102C76.0772 58.1654 77.236 58.7239 78.0205 59.6838C75.8454 59.8933 74.0448 59.998 72.048 59.7362ZM109.487 60.4518C107.009 62.7207 102.998 64.1345 99.3965 64.6232C99.3073 64.6755 99.3073 64.8152 99.1469 64.7977C98.3624 65.042 97.2571 64.4835 96.437 64.6581C96.3478 64.6755 96.3657 64.7977 96.3478 64.9024C96.2409 64.885 96.2765 64.693 96.2587 64.5708C96.0269 64.5708 95.7239 64.501 95.8308 64.8152C93.9589 64.4486 91.8908 64.5534 90.1615 63.9774C89.591 63.7854 89.0205 63.4712 88.5569 63.4189C88.3786 63.4014 88.236 63.3665 88.129 63.3491C87.5229 63.1745 87.0237 62.6858 86.3462 62.3717C85.7757 62.0575 85.3122 61.6212 84.5634 61.4815C84.3316 61.2372 84.0642 61.0278 83.6363 60.9929C83.4046 60.6438 83.1372 60.3122 82.8697 60.0155C82.7984 60.0329 82.7984 59.9806 82.7806 59.9282C82.5845 59.9456 82.8876 60.1376 82.7806 60.3471C80.356 58.9857 77.9491 57.5894 76.3803 55.3728C76.1485 55.1634 76.3089 55.5125 76.0415 55.4601C75.9702 55.2332 76.1663 55.2507 76.1128 55.0412C75.4532 54.4478 75.0253 53.8369 74.4013 53.069C74.0448 51.8124 73.6525 50.6255 73.2603 49.3689C72.8324 48.0075 72.3867 46.5414 72.1193 45.1626C72.3689 43.6965 71.6736 42.7191 71.7271 41.3577C71.7984 39.944 71.7271 38.5652 71.9232 36.8024C71.9945 36.1741 71.7806 35.633 71.8162 35.0745C71.8519 34.3938 72.0124 33.748 72.048 32.9976C72.0658 32.823 71.8697 32.631 71.8697 32.5089C71.8697 32.2471 72.3867 31.9329 71.941 31.6885C72.0837 31.4093 72.4224 31.2871 72.1015 30.938C72.6898 30.3272 72.4759 29.1054 72.5829 28.1979C73.6525 29.28 75.4532 30.3446 77.5034 29.8734C78.1809 29.7163 78.6088 29.088 79.3576 28.9484C79.5715 28.1455 80.356 27.8837 80.6947 27.203C83.048 28.2502 86.7741 28.6167 88.4678 26.6969C89.9297 27.1856 91.3559 27.8488 92.9605 27.7964C93.6201 27.779 94.1193 27.3775 94.7255 27.5346C96.1161 27.5346 97.4889 25.2831 98.6833 26.819C101.108 27.587 104.192 27.0285 105.939 25.9987C106.884 26.6794 108.204 27.2554 109.594 27.3601C110.913 27.4648 112.001 26.9238 112.875 26.1733C113.909 26.9412 114.426 28.128 115.442 28.9484C115.709 29.1578 116.155 29.1403 116.208 29.5941C116.636 29.6639 116.886 29.9083 117.225 30.0828C116.601 41.5672 114.978 53.1563 109.487 60.4518ZM126.62 59.9282C124.641 60.4692 122.769 60.1725 120.79 60.1551C119.489 60.1376 118.401 59.5268 117.242 59.457C115.852 59.3697 114.354 59.8933 113.178 59.0032C113.481 57.5545 114.729 56.4026 115.317 54.9191C116.084 53.0515 116.44 50.9397 117.1 48.8627C117.439 48.8453 118.045 49.2467 118.544 49.334C118.49 49.9448 118.17 50.9222 118.651 51.3237C119.845 51.4458 120.042 50.643 120.059 49.6481C122.092 49.0023 123.554 47.8155 124.071 45.7211C124.623 49.1594 124.784 52.9119 125.711 56.2106C126.067 57.4498 126.656 58.6541 126.62 59.9282Z" fill="black"/>
<path fill-rule="evenodd" clip-rule="evenodd" d="M110.593 33.3117C110.325 34.2542 109.327 34.132 108.489 33.9923C108.132 33.2418 107.722 32.7008 106.777 32.6135C106.046 32.5437 105.012 33.3291 104.584 32.4739C105.333 30.9729 108.186 30.6412 109.559 31.8455C110.076 32.2993 110.147 32.9102 110.593 33.3117Z" fill="black"/>
<path d="M117.421 45.4942C117.492 45.0055 117.546 44.5168 117.563 44.0281C116.797 44.2201 115.923 44.3946 115.014 44.7262C114.836 44.796 114.711 44.988 114.55 45.0404C113.427 45.3894 111.947 45.4069 111.11 45.5814C110.842 45.6338 110.343 45.756 110.004 45.2673C109.665 45.3196 109.559 45.1451 109.22 45.1975C108.293 44.4121 106.635 44.8135 105.458 44.4993C103.087 44.8484 101.5 44.6564 99.5034 44.6564C98.1663 44.6564 96.3478 44.0979 95.1177 44.4295C95.0464 44.3771 94.9572 44.3422 94.8681 44.3248C93.8162 44.6913 92.6039 44.604 91.5342 44.255C88.3964 44.2201 85.5261 44.3597 82.7271 44.0455C82.317 44.2201 81.9961 44.4121 81.4791 44.2724C80.8551 44.6389 80.0885 44.8658 79.9102 45.6512C78.9118 45.913 77.86 44.7437 76.612 45.2673C76.5229 45.2498 76.5407 45.1276 76.5407 45.0404C76.4159 45.1276 76.2198 45.1276 76.1485 45.2673C75.8276 45.0055 75.1857 44.6913 74.6509 44.8833C73.3138 44.4121 71.941 44.3073 70.5682 44.063C70.5861 44.1153 70.6039 44.1503 70.6217 44.2026C70.7822 44.604 71.0318 44.988 71.2814 45.3545C74.116 45.8258 76.7546 46.6286 79.518 46.9603C79.5715 48.4089 79.7498 49.9971 79.7498 51.3411C79.7498 51.5505 79.5002 52.2661 79.518 52.3359C79.5358 52.5104 79.8211 52.6675 79.9102 52.9468C80.0885 53.4529 79.8746 54.2907 80.3024 54.4827C80.0172 55.3903 80.659 56.4025 80.6233 57.3276C78.8049 56.6993 77.0042 54.4827 75.7562 54.0289C75.7206 54.0114 75.7028 53.6798 75.5958 54.0289C74.6509 53.3307 74.0091 52.3708 72.6898 52.0392C72.672 51.8821 72.6185 51.725 72.565 51.5854C72.5828 51.6727 72.5828 51.7425 72.6007 51.8298C72.6898 52.2312 72.8859 52.5977 73.1355 52.9293C73.6882 53.6973 74.4548 54.2907 75.1323 54.9539C75.2392 55.0586 75.2571 55.1983 75.2036 55.303C75.5601 55.5648 75.881 55.8964 76.0593 56.2629C76.3267 56.0011 76.2554 56.5247 76.612 56.42C77.0577 57.0832 77.9491 57.3101 78.5018 57.8861C78.7514 57.9384 78.6444 57.9384 78.894 57.8861C79.5893 58.5668 80.659 58.8635 81.4791 59.422C81.6752 60.155 81.9961 60.7484 82.424 61.2546C82.4953 61.3942 81.9783 61.307 82.2635 61.4117C82.2635 61.5513 81.907 61.3593 82.1031 61.2546C81.7822 61.0975 81.4791 60.923 81.176 60.731C81.2295 60.8183 81.3008 60.8881 81.3543 60.9753C81.8357 61.6211 82.3883 62.2145 82.9588 62.7905C83.1371 62.965 83.3332 63.157 83.5293 63.3316C83.8681 63.4886 84.2781 63.5934 84.7595 63.6457C84.813 63.6981 84.8486 63.7504 84.8665 63.8028C85.8113 63.8726 86.7028 64.2915 87.5585 64.6231C92.2295 65.3387 95.6169 65.8448 100.11 64.8675C100.199 64.8325 100.27 64.7627 100.27 64.6406C100.983 64.8675 101.643 64.4311 102.481 64.2042C102.855 63.9424 103.319 63.8377 103.764 63.7679C104.103 63.7155 104.406 63.5934 104.727 63.4537C104.727 63.4363 104.727 63.4188 104.745 63.4014C106.492 62.616 108.043 61.9004 109.594 60.6437C109.665 60.7135 109.719 60.8183 109.772 60.923C109.772 60.9055 109.79 60.8881 109.79 60.8706C109.951 60.3296 109.951 59.7711 110.022 59.23C110.04 59.0555 110.076 58.8809 110.111 58.7064C110.093 58.7064 110.093 58.7239 110.076 58.7239C110.147 57.7465 110.628 57.1705 110.7 56.1931C110.949 56.3676 111.234 56.4375 111.537 56.42C111.734 56.228 111.93 56.0535 112.108 55.8789C112.768 55.2681 113.463 54.6747 114.051 53.9765C114.301 53.6798 114.533 53.3482 114.693 52.9991C113.516 53.802 112.108 54.6048 110.842 55.3379C110.949 53.0166 110.985 50.7302 110.842 48.8103C111.11 48.8627 111.181 48.7405 111.234 48.5834C110.842 48.1296 110.521 47.4838 110.842 46.8206C113.873 46.5937 115.174 46.1225 117.421 45.4942ZM107.401 60.8357C106.688 61.307 105.993 61.6037 105.208 61.9876C105.084 62.04 105.048 62.2145 104.888 62.3018C104.371 62.5636 103.176 62.5287 103.087 62.9127C100.02 64.0122 96.0447 64.6056 92.8178 64.2915C92.3365 64.2391 91.7838 63.9075 91.3381 64.2915C91.3916 63.9075 89.6979 63.9773 89.6979 63.9773C89.5553 63.9599 89.4661 63.7504 89.2344 63.6632C88.2895 63.3839 86.8276 63.8552 86.6493 62.6683C86.0788 62.4589 85.847 62.8952 85.2408 62.8952C85.1874 62.4414 84.5812 62.5985 84.1355 62.3542C84.3316 60.923 83.1015 60.1027 82.7984 58.6017C84.0998 58.462 85.3478 59.3871 86.4888 59.4394C86.6849 59.4569 86.9702 59.2998 87.1128 59.5093C87.6833 59.4569 87.719 59.5093 88.2182 59.5791C88.3608 59.5442 88.5569 59.5442 88.5391 59.3522C89.27 59.5791 89.9118 59.7885 90.7319 59.6663C92.7643 60.2423 93.8519 59.806 96.5261 59.7361C97.257 59.8932 98.4337 59.8758 99.0399 59.5791C100.199 59.8758 101.571 59.5965 102.962 59.6489C103.889 59.6838 104.691 59.5791 105.618 59.422C105.797 59.4394 105.868 59.3522 105.85 59.1951C105.975 59.5267 106.26 59.2824 106.706 59.3522C106.724 59.038 106.599 59.3696 106.385 59.2824C106.795 58.8809 107.508 59.7187 108.114 59.3522C108.328 59.998 107.33 60.0852 107.401 60.8357ZM108.578 58.6017C107.99 59.1427 106.617 58.3573 106.225 59.1427C104.745 58.4097 103.354 59.7012 101.518 58.9857C100.947 59.2475 99.7708 58.9507 99.5569 59.2125C99.022 59.0904 98.6476 59.1602 98.2198 59.3696C96.5796 58.9507 95.0285 59.2649 93.4418 59.3696C93.2635 59.3871 92.907 59.3871 92.7287 59.3696C90.9459 59.1078 89.1096 58.7588 87.1663 58.8286C87.1128 58.846 86.8989 58.9856 86.9524 59.038C86.9702 59.038 86.988 59.0555 87.0058 59.0555C86.988 59.0555 86.9702 59.038 86.9524 59.038C86.5601 58.8984 85.7044 58.6191 85.2765 58.6017C85.2408 58.6017 84.7951 58.7064 84.4921 58.6017C84.3851 58.5668 84.3494 58.3399 84.2603 58.2875C83.6185 57.9908 82.0318 58.4795 82.2992 57.1356C82.2814 56.996 82.1566 56.9611 81.9783 56.9785C82.2279 55.8615 81.3365 54.2034 81.4256 52.9817C82.6023 53.5751 83.6007 53.6973 84.7238 54.2034C84.9199 54.2034 84.9912 54.0638 85.116 53.9765C85.2052 53.994 85.1517 54.0463 85.116 54.0463C86.4888 54.343 88.022 54.5525 89.7336 54.5001C90.3575 54.4827 90.8746 54.2209 91.6055 54.1161C92.7109 53.9591 94.1193 54.2383 95.1355 54.2732C96.4548 54.3256 97.6671 54.6747 98.505 54.2732C98.505 54.343 98.4872 54.378 98.4694 54.3954C99.0755 54.3256 100.056 54.6398 100.555 54.3605C102.891 54.3954 105.012 54.9714 107.847 54.5176C108.097 54.4827 108.293 54.6048 108.471 54.5176C108.917 54.2907 108.863 53.802 109.416 53.9067C109.487 55.7568 108.721 57.1181 108.578 58.6017ZM109.362 53.61C109.309 53.5925 109.059 53.418 109.041 53.61C108.952 53.5925 108.97 53.4704 108.97 53.3831C106.795 54.6398 103.907 53.8718 101.839 53.8369C101.768 53.9765 102.071 54.0987 101.839 54.1511C101.571 54.2034 101.714 53.994 101.768 53.9242C101.072 54.0114 100.163 53.7845 98.8616 53.8543C98.0415 53.8893 96.9361 53.7671 96.2765 53.9242C95.6169 53.5402 94.3154 53.6798 93.4596 53.6973C93.2457 53.6449 93.2992 53.8543 93.2279 53.9242C93.0496 54.0114 93.0674 53.7322 92.9961 53.6973C92.8535 53.6275 92.0869 53.6624 91.8195 53.6275C91.2846 53.5402 90.7854 53.8893 90.2506 53.9416C89.9475 53.9591 89.1274 53.7671 88.6817 53.7845C88.5569 53.7845 88.4677 53.9416 88.4499 53.9416C88.4677 53.9416 88.0934 53.6973 87.9864 53.7147C87.4159 53.802 85.6866 53.61 84.5455 53.2609C84.4564 53.2784 84.4742 53.4006 84.4742 53.4878C83.5293 52.7024 82.3883 52.7897 81.2652 52.3359C81.283 51.1491 81.176 50.2415 81.1938 49.0372C83.4402 49.0023 84.296 49.5434 86.5245 49.8052C86.6314 49.7702 86.7206 49.683 86.7562 49.5783C86.8989 49.6306 86.7741 49.7179 86.7562 49.8052C87.4694 49.8226 88.5747 49.5434 89.27 50.0321C90.0188 49.6132 91.2846 50.2589 91.8551 49.491C90.9459 49.491 88.7173 49.5259 87.6298 49.5608C87.2733 49.3514 86.1144 49.2816 85.8292 49.491C85.1517 49.3165 84.4921 48.6009 83.9572 48.9499C83.1015 48.6183 81.8891 48.8278 81.1404 48.2518C81.0512 47.9376 81.2295 47.5886 80.9799 47.3268C81.7643 47.2221 81.1404 45.9305 81.9961 45.7909C82.0139 45.6512 81.6217 45.5465 81.8357 45.4767C81.907 45.4767 81.8891 45.564 81.907 45.6338C82.4418 45.5116 83.9572 45.372 84.6525 45.3196C86.6671 45.7909 89.2165 45.3545 91.3203 45.5465C91.4094 45.5116 91.4807 45.4418 91.4807 45.3196C91.6947 45.8432 92.3008 45.4767 93.1209 45.4767C93.6736 45.4767 94.1015 45.6687 94.2976 45.6338C94.3511 45.6163 94.4045 45.4069 94.3689 45.4069C94.4937 45.4244 94.3689 45.5989 94.4402 45.6338C94.6363 45.7211 95.5634 45.6687 96.1695 45.7036C97.2749 45.7734 99.0399 45.7909 100.787 45.8607C101.375 45.8781 101.928 46.1574 102.427 46.1748C103.461 46.1923 104.584 45.8781 105.565 45.8607C105.601 46.4716 105.44 47.3093 105.886 48.0075C106.171 48.0424 106.082 47.7282 106.349 47.7806C106.278 47.0475 106.349 46.1923 105.797 45.9479C107.098 45.9829 107.865 45.8956 109.095 46.2621C109.202 47.065 109.345 47.3442 109.327 47.9551C108.667 48.2169 107.294 47.7806 107.063 48.2693C105.262 48.5834 103.729 48.1471 102.124 48.9674C101.375 48.7754 101.108 48.758 100.252 48.8103C100.181 48.8627 100.127 48.9499 100.092 49.0372C99.6639 48.915 98.5942 48.9848 98.2911 49.107C98.4515 49.3688 98.9151 49.4386 99.0042 49.107C99.3964 49.5957 100.466 49.1245 101.037 49.1768C101.001 49.107 100.947 49.0547 100.965 48.9499C101.037 49.0023 101.09 49.0896 101.126 49.1768C103.818 49.3688 107.063 48.5136 109.434 48.6358C109.452 50.6429 109.576 52.4057 109.362 53.61Z" fill="black"/>
<path d="M107.401 60.7659C106.688 61.2372 105.993 61.5339 105.208 61.9179C105.084 61.9702 105.048 62.1448 104.888 62.232C104.371 62.4938 103.176 62.4589 103.087 62.8429C100.02 63.9425 96.0448 64.5359 92.8179 64.2217C92.3365 64.1693 91.7838 63.8377 91.3381 64.2217C91.3916 63.8377 89.6979 63.9076 89.6979 63.9076C89.5553 63.8901 89.4661 63.6807 89.2344 63.5934C88.2895 63.3141 86.8276 63.7854 86.6493 62.5985C86.0788 62.3891 85.847 62.8254 85.2409 62.8254C85.1874 62.3717 84.5812 62.5287 84.1355 62.2844C84.3316 60.8532 83.1015 60.0329 82.7984 58.5319C84.0999 58.3923 85.3478 59.3173 86.4888 59.3697C86.685 59.3871 86.9702 59.2301 87.1128 59.4395C87.6833 59.3871 87.719 59.4395 88.2182 59.5093C88.3608 59.4744 88.5569 59.4744 88.5391 59.2824C89.27 59.5093 89.9119 59.7187 90.7319 59.5966C92.7644 60.1725 93.8519 59.7362 96.5261 59.6664C97.2571 59.8235 98.4337 59.806 99.0399 59.5093C100.199 59.806 101.571 59.5268 102.962 59.5791C103.889 59.614 104.691 59.5093 105.618 59.3522C105.797 59.3697 105.868 59.2824 105.85 59.1253C105.975 59.4569 106.26 59.2126 106.706 59.2824C106.724 58.9683 106.599 59.2999 106.385 59.2126C106.795 58.8112 107.508 59.6489 108.114 59.2824C108.328 59.9282 107.33 60.0155 107.401 60.7659Z" fill="#60B4E4"/>
<path d="M108.578 58.5318C107.99 59.0729 106.617 58.2875 106.225 59.0729C104.745 58.3398 103.354 59.6314 101.518 58.9158C100.948 59.1776 99.7709 58.8809 99.5569 59.1427C99.0221 59.0205 98.6477 59.0903 98.2198 59.2998C96.5796 58.8809 95.0286 59.1951 93.4419 59.2998C93.2636 59.3172 92.907 59.3172 92.7287 59.2998C90.9459 59.038 89.1096 58.6889 87.1663 58.7587C87.1129 58.7762 86.8989 58.9158 86.9524 58.9682C86.9702 58.9682 86.9881 58.9856 87.0059 58.9856C86.9881 58.9856 86.9702 58.9682 86.9524 58.9682C86.5602 58.8285 85.7044 58.5493 85.2766 58.5318C85.2409 58.5318 84.7952 58.6366 84.4921 58.5318C84.3851 58.4969 84.3495 58.27 84.2603 58.2177C83.6185 57.921 82.0318 58.4097 82.2992 57.0658C82.2814 56.9261 82.1566 56.8912 81.9783 56.9087C82.2279 55.7917 81.3365 54.1336 81.4257 52.9119C82.6023 53.5053 83.6007 53.6275 84.7239 54.1336C84.92 54.1336 84.9913 53.994 85.1161 53.9067C85.2052 53.9242 85.1518 53.9765 85.1161 53.9765C86.4889 54.2732 88.0221 54.4827 89.7336 54.4303C90.3576 54.4128 90.8746 54.1511 91.6056 54.0463C92.7109 53.8893 94.1193 54.1685 95.1355 54.2034C96.4548 54.2558 97.6672 54.6048 98.5051 54.2034C98.5051 54.2732 98.4872 54.3081 98.4694 54.3256C99.0756 54.2558 100.056 54.5699 100.555 54.2907C102.891 54.3256 105.012 54.9015 107.847 54.4478C108.097 54.4128 108.293 54.535 108.471 54.4478C108.917 54.2209 108.863 53.7322 109.416 53.8369C109.487 55.6695 108.721 57.0483 108.578 58.5318Z" fill="#60B4E4"/>
<path d="M109.362 53.5401C109.309 53.5227 109.059 53.3481 109.042 53.5401C108.952 53.5227 108.97 53.4005 108.97 53.3132C106.795 54.5699 103.907 53.8019 101.839 53.767C101.768 53.9066 102.071 54.0288 101.839 54.0812C101.572 54.1335 101.714 53.9241 101.768 53.8543C101.072 53.9415 100.163 53.7146 98.8617 53.7845C98.0416 53.8194 96.9362 53.6972 96.2766 53.8543C95.6169 53.4703 94.3155 53.6099 93.4597 53.6274C93.2458 53.575 93.2993 53.7845 93.2279 53.8543C93.0497 53.9415 93.0675 53.6623 92.9962 53.6274C92.8536 53.5576 92.0869 53.5925 91.8195 53.5576C91.2847 53.4703 90.7855 53.8194 90.2506 53.8717C89.9476 53.8892 89.1275 53.6972 88.6818 53.7146C88.557 53.7146 88.4678 53.8717 88.45 53.8717C88.4678 53.8717 88.0934 53.6274 87.9865 53.6448C87.416 53.7321 85.6866 53.5401 84.5456 53.191C84.4565 53.2085 84.4743 53.3307 84.4743 53.4179C83.5294 52.6325 82.3884 52.7198 81.2652 52.266C81.2831 51.0792 81.1761 50.1716 81.1939 48.9673C83.4403 48.9324 84.296 49.4735 86.5245 49.7353C86.6315 49.7004 86.7207 49.6131 86.7563 49.5084C86.8989 49.5607 86.7741 49.648 86.7563 49.7353C87.4694 49.7527 88.5748 49.4735 89.2701 49.9622C90.0189 49.5433 91.2847 50.1891 91.8552 49.4211C90.9459 49.4211 88.7174 49.456 87.6299 49.4909C87.2733 49.2815 86.1145 49.2117 85.8292 49.4211C85.1518 49.2466 84.4921 48.531 83.9573 48.8801C83.1015 48.5484 81.8892 48.7579 81.1404 48.1819C81.0513 47.8678 81.2296 47.5187 80.98 47.2569C81.7644 47.1522 81.1404 45.8606 81.9962 45.721C82.014 45.5814 81.6218 45.4767 81.8357 45.4068C81.907 45.4068 81.8892 45.4941 81.907 45.5639C82.4419 45.4417 83.9573 45.3021 84.6526 45.2498C86.6672 45.721 89.2166 45.2847 91.3203 45.4767C91.4095 45.4417 91.4808 45.3719 91.4808 45.2498C91.6947 45.7734 92.3009 45.4068 93.121 45.4068C93.6737 45.4068 94.1015 45.5988 94.2976 45.5639C94.3511 45.5465 94.4046 45.337 94.369 45.337C94.4938 45.3545 94.3689 45.529 94.4403 45.5639C94.6364 45.6512 95.5634 45.5988 96.1696 45.6337C97.2749 45.7035 99.0399 45.721 100.787 45.7908C101.375 45.8083 101.928 46.0875 102.427 46.105C103.461 46.1224 104.585 45.8083 105.565 45.7908C105.601 46.4017 105.44 47.2394 105.886 47.9376C106.171 47.9725 106.082 47.6583 106.35 47.7107C106.278 46.9776 106.349 46.1224 105.797 45.8781C107.098 45.913 107.865 45.8257 109.095 46.1922C109.202 46.9951 109.345 47.2743 109.327 47.8852C108.667 48.147 107.294 47.7107 107.063 48.1994C105.262 48.5135 103.729 48.0772 102.124 48.8975C101.375 48.7055 101.108 48.6881 100.252 48.7404C100.181 48.7928 100.127 48.8801 100.092 48.9673C99.6639 48.8452 98.5942 48.915 98.2912 49.0371C98.4516 49.2989 98.9151 49.3688 99.0043 49.0371C99.3965 49.5258 100.466 49.0546 101.037 49.107C101.001 49.0371 100.948 48.9848 100.965 48.8801C101.037 48.9324 101.09 49.0197 101.126 49.107C103.818 49.2989 107.063 48.4437 109.434 48.5659C109.452 50.573 109.576 52.3358 109.362 53.5401Z" fill="#60B4E4"/>
<path fill-rule="evenodd" clip-rule="evenodd" d="M54.5051 26.4349C53.9881 25.4226 54.4694 24.1834 54.1485 23.0664C53.8633 23.1187 53.8276 23.398 53.578 23.4853C50.7077 23.8692 47.9265 22.5951 46.2328 20.8149C45.7515 20.9196 45.8406 21.7923 45.2701 21.5305C45.0383 22.4904 43.7369 22.4555 43.1664 22.8744C41.9719 22.9268 40.813 22.63 39.7968 22.5428C39.3511 22.2112 38.6023 21.7923 38.5489 21.3385C36.4095 23.398 30.8649 23.4329 28.7434 20.9022C26.9962 24.7943 21.2555 22.5079 19.0448 20.4658C16.8876 22.281 13.1615 22.1064 10.202 21.4432C9.15017 24.9863 8.31224 28.5991 8.3479 32.4563C8.3479 33.9224 8.77578 35.406 8.84709 36.8895C8.95406 39.2981 8.93623 41.759 9.8633 43.8185C9.59587 43.8011 9.6137 44.0279 9.57804 44.2199C9.6137 44.761 10.0237 45.1799 9.84547 45.6511C10.5051 46.7681 10.9152 48.5135 11.6105 49.5432C11.3609 50.3286 12.0205 50.9221 12.2879 51.5504C13.9994 55.4599 17.0481 58.6714 21.0059 60.3469C20.8989 60.6611 21.1664 60.5738 21.2199 60.7309C22.7709 60.9752 23.7693 61.9526 25.3382 62.2842C26.4257 62.5111 28.5651 62.3366 29.1891 62.3017C29.5991 62.2842 30.1161 62.3366 30.5797 62.3366C31.5424 62.354 32.0059 62.1795 32.6477 62.0573C33.3074 61.9177 33.6996 61.9701 34.2166 61.6908C35.4111 61.0625 37.2296 61.0101 38.4954 60.2422C39.7612 59.4917 41.2766 58.8634 42.5602 58.3223C45.7871 55.9137 48.3722 52.9117 49.8163 48.7055C50.155 48.7578 49.9232 48.304 50.2976 48.3913C50.1015 48.0073 50.1728 47.379 50.6364 47.3092C51.3317 43.9058 53.5067 40.5547 53.0432 37.4306C54.1664 36.6102 53.7028 34.2715 54.3446 33.6955C54.3625 31.6535 54.416 28.4769 54.2198 26.5396C54.3268 26.5222 54.4873 26.5396 54.5051 26.4349Z" fill="white"/>
<path fill-rule="evenodd" clip-rule="evenodd" d="M40.4565 5.00214C40.5634 5.43847 40.2425 5.49083 40.189 5.78754C38.8163 5.43847 37.3365 4.75779 36.8373 3.81532C38.2814 2.78557 39.048 4.7927 40.4565 5.00214Z" fill="black"/>
<path fill-rule="evenodd" clip-rule="evenodd" d="M32.6121 10.3779C32.5408 10.7095 32.1485 10.7619 31.9524 10.9888C31.0075 10.4477 29.9913 9.45289 30.0448 8.17881C30.8114 7.8821 31.2393 8.21371 31.7385 8.58023C31.6672 9.20855 32.2912 9.83686 32.6121 10.3779Z" fill="black"/>
<path fill-rule="evenodd" clip-rule="evenodd" d="M23.7336 10.9712C23.9832 11.2155 24.3932 11.2853 24.5537 11.6169C23.8049 13.3099 21.3268 10.0112 21.4516 8.75457C23.0918 8.09134 23.5196 10.0985 23.7336 10.9712Z" fill="black"/>
<path fill-rule="evenodd" clip-rule="evenodd" d="M33.2004 8.2136C34.8762 7.62019 35.2684 9.5575 36.1599 10.4127C35.8568 11.0236 34.4305 10.8665 34.7693 10.0811C33.8778 9.88911 33.4856 9.15608 33.0221 8.51031C33.4143 8.63248 33.5391 8.26596 33.2004 8.2136Z" fill="black"/>
<path fill-rule="evenodd" clip-rule="evenodd" d="M52.8649 10.3429C52.1874 11.652 50.5829 10.0113 49.8519 9.50513C49.7628 9.1735 49.9411 9.08623 50.0302 8.91169C51.4921 8.85933 51.9735 9.83676 52.8649 10.3429Z" fill="black"/>
<path fill-rule="evenodd" clip-rule="evenodd" d="M50.9394 11.4949C50.8325 12.4199 52.0804 13.0133 52.6331 13.8336C52.6866 14.1303 52.3835 14.0954 52.3657 14.3223C50.5294 14.1827 49.9054 12.769 49.1744 11.4599C49.5132 10.8316 50.4402 11.2156 50.9394 11.4949Z" fill="black"/>
<path fill-rule="evenodd" clip-rule="evenodd" d="M47.4094 14.0781C46.1615 14.3922 43.9329 13.3276 44.4499 12.0884C46.001 11.9487 46.2863 13.153 47.3738 13.5021C47.3916 13.6941 47.3916 13.8861 47.4094 14.0781Z" fill="black"/>
<path fill-rule="evenodd" clip-rule="evenodd" d="M9.66714 16.5215C10.3803 16.3644 10.5586 16.7833 10.8795 17.0451C10.8616 17.3942 10.4872 17.4291 10.309 17.656C8.74008 17.1848 7.38513 16.6612 7.38513 14.2002C7.47427 14.1304 7.52776 14.0257 7.56341 13.9035C9.578 13.3973 8.91836 15.7187 9.66714 16.5215Z" fill="black"/>
<path fill-rule="evenodd" clip-rule="evenodd" d="M36.9443 16.277C35.7677 16.8181 35.1437 15.5091 34.3949 14.7411C35.2863 13.2576 36.7304 15.0553 36.9443 16.277Z" fill="black"/>
<path fill-rule="evenodd" clip-rule="evenodd" d="M24.518 17.115C23.0205 18.0924 21.8616 16.4168 21.2733 15.422C21.5407 14.6889 22.3787 15.2125 23.0561 15.3347C23.1453 16.3121 23.8049 16.6263 24.518 17.115Z" fill="black"/>
<path fill-rule="evenodd" clip-rule="evenodd" d="M56.6801 15.8931C55.3608 16.1898 53.2571 13.7289 55.6996 13.9034C56.377 14.3048 56.7158 14.9506 56.6801 15.8931Z" fill="black"/>
<path fill-rule="evenodd" clip-rule="evenodd" d="M34.0918 16.696C34.0383 16.7833 33.9848 16.8706 34.1096 16.888C32.8795 17.7083 31.0253 16.8007 30.5975 15.7884C31.7028 14.619 32.5586 16.7833 34.0918 16.696Z" fill="black"/>
<path fill-rule="evenodd" clip-rule="evenodd" d="M46.3041 15.8581C46.3041 15.9977 45.8941 16.3817 46.322 16.3468C45.3592 16.8529 44.5748 16.0326 43.8082 15.5963C43.8082 15.4043 43.7904 15.2124 43.7725 15.0204C44.8422 14.2874 45.4305 15.3694 46.3041 15.8581Z" fill="black"/>
<path fill-rule="evenodd" clip-rule="evenodd" d="M11.3787 17.2197C12.2344 17.5513 12.8762 18.1098 13.8924 18.2669C13.7498 18.4763 13.625 18.7032 13.5359 18.965C12.7514 18.7555 11.343 18.2843 11.3787 17.2197Z" fill="black"/>
<path fill-rule="evenodd" clip-rule="evenodd" d="M25.6769 20.9372C25.2312 21.7226 23.1096 21.0768 22.967 19.9946C23.9119 19.6456 25.0172 20.3612 25.6769 20.9372Z" fill="black"/>
<path fill-rule="evenodd" clip-rule="evenodd" d="M4.60398 22.2637C5.65584 22.5429 6.65422 22.892 7.68826 22.7C7.63477 23.4156 7.36735 24.3581 7.01079 25.0562C6.08372 24.8293 5.26362 24.6024 4.3009 24.201C4.51484 23.7472 4.65747 23.0491 4.60398 22.2637Z" fill="#7C3A25"/>
<path fill-rule="evenodd" clip-rule="evenodd" d="M19.2053 24.1311C19.3479 24.0962 19.2231 23.8344 19.3835 23.8344C21.7012 24.0613 23.0027 25.3703 23.3236 27.7266C22.7531 28.2153 22.0756 27.936 21.4516 27.7091C20.7385 26.1732 20.0253 24.8293 17.9929 25.4401C17.0302 25.7369 16.3884 27.011 15.1583 26.243C14.9978 24.9689 16.3527 24.3057 17.6364 24.0962C18.296 23.9915 19.027 23.3632 19.2053 24.1311Z" fill="black"/>
<path fill-rule="evenodd" clip-rule="evenodd" d="M4.33653 25.2656C4.96052 25.7194 6.01238 25.702 6.83248 25.9288C6.86814 26.6968 6.79683 26.8015 6.60072 27.3949C5.74496 27.36 5.22794 26.976 4.21173 27.1156C4.06911 26.5746 4.14042 25.7543 4.33653 25.2656Z" fill="#7C3A25"/>
<path fill-rule="evenodd" clip-rule="evenodd" d="M20.0788 30.1874C21.3446 32.1073 20.5245 35.0918 20.1858 36.8546C19.7936 36.8371 19.5796 36.9942 19.4014 37.1862C18.6704 36.7499 17.6364 37.0117 17.0837 36.3136C16.4597 35.5281 17.0659 34.0272 17.2085 32.7356C17.2085 32.4215 16.9232 32.4215 16.9767 32.0724C17.2976 32.1771 17.0302 31.7582 17.3689 31.8629C17.6185 30.4143 18.7417 29.978 20.0788 30.1874Z" fill="black"/>
<path fill-rule="evenodd" clip-rule="evenodd" d="M6.51158 36.0168C6.60072 37.5353 6.6542 38.5651 6.779 39.4901C6.29764 39.5949 6.26198 39.2283 5.78062 39.333C5.01401 38.3207 5.49537 36.8721 5.92325 36.139C5.94107 35.9296 6.35112 36.0692 6.51158 36.0168Z" fill="white"/>
<path fill-rule="evenodd" clip-rule="evenodd" d="M29.4743 40.642C29.5277 39.2807 30.7044 38.1637 30.3835 37.0816C31.2214 36.0867 29.6704 35.2315 28.7433 35.8947C28.7611 36.9768 28.6185 37.4655 28.3689 38.5302C28.1906 38.5127 28.155 38.6524 27.9767 38.6524C28.0302 39.0363 27.9767 39.333 27.6201 39.3505C27.5132 39.8566 27.5488 40.3279 27.6558 40.7642C28.2619 40.7642 28.8681 40.6944 29.4743 40.642Z" fill="black"/>
<path fill-rule="evenodd" clip-rule="evenodd" d="M55.2539 38.3906C55.4678 38.6524 55.5926 39.5251 55.0043 39.56C55.2182 39.2982 55.1469 38.7571 55.2539 38.3906Z" fill="white"/>
<path fill-rule="evenodd" clip-rule="evenodd" d="M61.0837 36.4009C60.4597 35.1443 59.5326 33.6782 57.8924 33.5386C58.0707 32.8753 58.2668 32.2121 58.8017 31.8456C58.8195 30.9729 58.8195 29.821 59.3722 29.2101C59.39 25.1086 59.7822 19.9249 59.2474 15.8583C59.4078 15.0554 59.4257 12.8737 58.873 12.1058C59.1226 11.5996 58.5699 10.5699 58.1777 10.0986C58.6412 9.55757 58.9978 8.92924 59.6931 8.58017C59.5683 8.14384 59.283 7.88204 58.9621 7.63769C59.1582 7.04427 58.873 6.6952 59.283 6.06688C58.8908 5.47346 58.6591 4.72297 58.1064 4.28663C55.7709 3.93756 53.8811 5.68291 51.3138 4.88005C49.6023 5.1593 48.4078 3.72812 47.0173 3.90266C47.0173 3.76303 46.9638 3.69321 46.9103 3.6234C45.591 3.64085 45.0918 2.80309 43.719 2.89036C41.4727 2.01769 38.9411 1.44172 36.5164 0.883214C35.1258 0.569052 33.3074 0.132716 31.6672 0.621412C28.4937 0.20253 24.2506 1.28464 20.685 2.55874C19.0626 3.0998 17.7255 3.8852 16.3171 4.39135C14.3203 5.35129 12.3236 6.11924 10.3268 7.20135C8.66879 7.75986 8.06264 9.2434 6.79683 10.1684C6.70769 10.4826 6.79683 10.3953 6.83249 10.7444C6.29764 11.0237 5.99457 11.4076 6.2085 12.1232C5.15664 12.0883 5.0675 13.2577 5.10316 13.9209C4.71094 13.8162 4.87139 14.2176 4.62179 14.2351C4.51482 15.5965 3.46296 16.9055 3.71256 18.1447C3.46296 18.1621 3.33816 18.3017 3.33816 18.5461C3.15988 20.1169 2.91029 20.8848 2.60721 22.0542C3.01726 22.3684 2.60721 22.8745 2.35761 23.1363C2.60721 23.8694 2.55372 24.3232 2.25064 25.1784C2.39327 26.3129 2.39327 27.4299 2.09019 28.1804C2.23282 28.32 2.60721 28.2327 2.60721 28.5469C2.51807 28.5469 2.4111 28.5469 2.30413 28.5643C2.01888 30.5366 2.23282 32.1074 2.62504 33.4862C0.485653 34.9523 -0.637524 37.6401 0.378683 40.3629C0.556965 40.3978 0.628278 40.2058 0.681763 40.3454C1.23444 42.5794 4.31871 44.2899 7.36734 43.9234C7.50996 45.3371 8.18743 45.6512 7.86653 46.0352C9.06102 50.1019 10.4694 53.8195 13.0189 56.8389C14.1421 57.0309 13.9638 58.4272 15.39 58.8635C16.5132 60.1027 17.779 61.1673 19.6688 61.5688C19.954 62.1273 20.7741 62.0924 21.2555 62.4414C21.4516 62.4589 21.6477 62.4763 21.826 62.5636C22.0756 62.6683 22.343 62.7556 22.5926 62.8429C22.8422 62.9301 23.0561 63.0698 23.2879 63.1919C23.5019 63.2967 23.7514 63.349 23.9832 63.4014C24.9281 63.5934 25.9087 63.6981 26.8892 63.7854C26.9784 63.7854 27.0675 63.8028 27.1566 63.8028C28.2798 63.8377 29.4208 63.8377 30.6153 63.8901H31.3284C31.8098 63.8901 32.2733 63.9075 32.7547 63.9075C33.0578 63.9075 33.343 63.8377 33.6283 63.7679C33.6996 63.733 33.7709 63.6981 33.8422 63.6632C34.0027 63.5934 34.1453 63.541 34.2879 63.4537C34.3236 63.3839 34.3592 63.3141 34.3949 63.2443C35.5359 62.9301 36.3203 62.3367 37.5148 62.3367C37.5683 62.232 37.604 62.0924 37.6931 62.04C38.638 61.499 39.8681 61.0801 40.8843 60.6437C42.1323 60.1201 43.095 59.6663 44.1826 59.1427C44.1826 58.9682 44.236 58.8111 44.3608 58.7413C45.2166 58.5144 45.9297 57.3799 46.9459 56.9785C47.249 55.879 48.1404 55.6521 48.4257 54.6921C48.604 54.5176 48.907 54.4478 49.1031 54.2732C49.0318 53.8544 49.121 53.5576 49.5667 53.5751C49.5667 53.418 49.5489 53.2609 49.5489 53.0864C51.5991 51.3062 52.0983 48.0947 53.1501 45.6687C53.2215 45.3894 53.0075 45.4244 53.0253 45.1975C53.5245 45.1975 53.4711 44.5691 53.578 44.4993C56.0027 44.8658 57.1793 45.1451 59.3009 44.1503C59.2652 43.9234 59.3009 43.7837 59.3722 43.6616C60.9054 42.7365 61.7077 40.2058 61.6899 38.2335C61.6542 37.3434 61.3689 36.9594 61.0837 36.4009ZM6.61855 27.395C5.7628 27.3601 5.24578 26.9761 4.22957 27.1157C4.06912 26.5747 4.14043 25.7543 4.33654 25.2656C4.96053 25.7194 6.01239 25.702 6.83249 25.9289C6.88597 26.6968 6.81466 26.819 6.61855 27.395ZM6.77901 39.4902C6.29764 39.5949 6.26199 39.2284 5.78063 39.3331C5.01401 38.3208 5.49538 36.8722 5.92325 36.1391C5.92325 35.9297 6.3333 36.0868 6.51158 36.017C6.61855 37.5354 6.65421 38.5652 6.77901 39.4902ZM4.17609 27.9884C5.22795 28.2851 7.06426 28.0756 6.44027 29.821C5.638 29.629 5.04967 29.2101 4.22957 29.053C4.21175 28.6342 4.03346 28.3898 4.17609 27.9884ZM6.36896 32.631C5.69149 32.6484 5.03184 32.4565 4.497 32.6135C4.22957 31.8281 4.17609 30.9904 4.19392 30.3097C4.9427 30.0479 5.58452 30.6937 6.47593 30.5889C6.44027 31.3918 6.52941 31.9329 6.36896 32.631ZM6.63638 42.7889C4.497 43.1205 4.01564 41.6719 2.80332 41.0261C1.66231 40.0836 1.30575 37.5529 2.19716 36.6104C2.07236 35.9471 2.37544 35.6504 2.83897 35.5108C3.28468 34.132 4.74659 33.2244 6.31547 33.6084C6.51158 34.1669 6.51158 34.4112 6.47593 34.9523C5.35275 35.1966 3.87301 35.5632 4.19392 36.8024C3.53427 36.8896 4.1226 37.4132 3.73038 37.6052C3.74821 37.675 3.78387 37.675 3.81953 37.6401C3.81953 37.6227 3.83735 37.6052 3.83735 37.5878C3.83735 37.6052 3.83735 37.6227 3.81953 37.6401C3.21337 39.0888 5.15664 41.1483 6.92163 40.2581C6.77901 41.0261 7.40299 41.9511 6.63638 42.7889ZM6.99294 25.0562C6.06588 24.8293 5.24578 24.6024 4.28306 24.201C4.497 23.7472 4.63962 23.0316 4.58614 22.2462C5.638 22.5255 6.63638 22.8745 7.67042 22.6825C7.63476 23.4156 7.36734 24.3581 6.99294 25.0562ZM4.9427 21.2863C5.35275 20.4136 5.21012 19.3664 5.40624 18.5635C5.45972 18.3541 5.69149 18.2843 5.78063 18.0574C5.97674 17.621 5.86977 17.0276 6.01239 16.5913C6.06588 16.4517 6.3333 16.3469 6.38679 16.1899C6.63638 15.5965 6.5829 14.7761 6.79683 14.2351C6.88597 14.0256 7.22471 13.7464 7.34951 13.5369C7.86653 12.7166 8.36572 11.6694 8.90056 10.7619C10.8795 8.17875 14.6947 7.23626 17.5472 5.43856C18.6704 5.45601 19.5618 4.84514 20.275 4.44371C22.1647 3.39651 24.4289 3.29179 26.497 2.33185C27.531 2.52384 28.672 2.10495 29.3495 1.91297C29.3852 2.07005 29.2604 2.0875 29.2604 2.20967C30.4549 1.26719 31.7385 2.31439 33.1826 1.65116C35.625 2.24458 38.1923 2.76818 40.6704 3.25688C42.0432 3.51868 43.2733 4.30408 44.5926 4.6357C46.1793 5.03713 47.5877 5.49092 49.1031 5.97961C49.4775 6.10179 49.9054 6.11924 50.2085 6.22396C50.9216 6.46831 51.9735 6.67775 53.2928 6.6603C53.685 7.04427 54.3625 7.13154 54.9151 7.35843C54.933 7.82968 54.3803 7.81222 54.3625 8.24856C54.8617 8.75471 55.4322 9.19104 56.1988 9.41794C56.0561 9.97645 55.5391 10.1859 55.2717 10.6222C55.6461 11.0062 56.3236 11.3378 56.9832 11.1284C57.625 13.1355 57.3398 15.2648 57.839 16.696C57.5537 20.1343 57.8568 23.6425 57.5359 27.3601C57.6429 27.3601 57.7142 27.3252 57.7498 27.2728C57.7676 27.2379 57.7855 27.1855 57.8211 27.1506C57.8033 27.203 57.7855 27.2379 57.7498 27.2728C57.2863 28.1629 57.3576 30.362 56.5375 31.3743C56.3057 29.9257 56.5732 28.9483 56.4484 27.4124C56.4305 27.1157 56.1988 26.7143 56.1988 26.4525C56.2166 25.9114 56.6445 25.4576 56.6266 24.9864C56.6088 24.2184 56.1988 23.4679 56.2166 22.5778C56.2344 21.8273 56.7514 20.3961 55.8779 19.698C55.343 19.6456 55.1826 19.8202 54.8795 19.5409C54.6121 19.7329 54.3803 19.9598 54.1129 20.1518C54.2377 20.6056 54.1485 20.7278 54.2733 21.4084C52.4192 23.6774 49.014 21.932 47.3916 20.1692C47.1242 19.5235 46.9638 18.7555 46.5359 18.5635C46.8568 18.2843 46.7677 17.6909 46.3754 17.3069C46.4467 17.1324 46.5537 17.2894 46.6785 17.2894C46.8033 17.0451 46.2685 17.0102 46.5537 16.9055C46.0367 16.7484 45.2879 16.4866 44.9848 17.08C45.4305 18.8428 45.0918 20.2042 44.0756 21.0943C43.2555 21.8099 42.4354 21.8622 41.1339 21.7052C40.5456 21.6353 39.4403 20.6579 39.155 19.5758C39.6007 18.197 38.9589 16.1899 36.8552 16.9753C36.8017 17.9876 37.3544 18.6857 37.2831 19.6631C37.0335 22.9094 30.0983 22.316 29.7596 19.506C29.6704 19.4886 29.6704 19.5409 29.6704 19.6107C29.3673 18.773 28.5294 17.272 27.2993 17.6909C27.0675 17.6734 27.2101 17.9701 27.014 17.9876C27.4597 19.4711 27.1031 20.7801 26.497 21.7924C23.9119 22.4382 21.2198 21.007 19.954 19.2791C20.1502 18.4414 19.9897 17.9352 19.7579 17.1673C19.0626 16.888 18.1177 16.5215 17.3868 17.08C17.0124 18.2843 18.1534 18.4588 17.9751 19.2791C17.8147 20.082 16.4062 20.6405 15.4792 20.8499C14.4451 21.0768 11.7531 20.9547 10.9151 20.466C10.3981 20.1692 9.685 19.4886 8.90056 19.7853C8.31223 20.0994 8.06264 21.0943 8.20526 21.7575C7.34951 22.0542 5.92325 21.4783 4.9427 21.2863ZM55.0043 39.56C55.2004 39.2807 55.1291 38.7397 55.2539 38.3906C55.4678 38.6524 55.5926 39.5251 55.0043 39.56ZM53.0432 37.4307C53.5067 40.5548 51.3317 43.9059 50.6364 47.3093C50.155 47.3617 50.1015 48.0075 50.2976 48.3914C49.9232 48.3042 50.155 48.758 49.8163 48.7056C48.3544 52.8944 45.7693 55.8964 42.5602 58.3224C41.2766 58.8635 39.7612 59.4918 38.4954 60.2423C37.2296 61.0103 35.4111 61.0626 34.2166 61.6909C33.6996 61.9527 33.3252 61.9178 32.6477 62.0575C32.0237 62.1796 31.5602 62.3542 30.5796 62.3367C30.1161 62.3367 29.5991 62.2844 29.189 62.3018C28.5651 62.3367 26.4257 62.5113 25.3382 62.2844C23.7693 61.9527 22.7709 60.9754 21.2198 60.731C21.1664 60.5739 20.8989 60.6612 21.0059 60.347C17.0659 58.6715 13.9994 55.4601 12.2879 51.5505C12.0205 50.9222 11.343 50.3288 11.6104 49.5434C10.9151 48.5136 10.5051 46.7683 9.84546 45.6512C10.0237 45.18 9.61369 44.7437 9.57803 44.2201C9.61369 44.0281 9.59586 43.8012 9.86328 43.8186C8.93622 41.7766 8.95405 39.2982 8.84708 36.8896C8.77576 35.4061 8.34789 33.9225 8.34789 32.4565C8.33006 28.5993 9.15016 24.9864 10.202 21.4433C13.1615 22.1066 16.8876 22.2811 19.0448 20.466C21.2555 22.508 26.9962 24.7944 28.7433 20.9023C30.8471 23.433 36.4095 23.3981 38.5489 21.3386C38.5845 21.7924 39.3333 22.2113 39.7968 22.5429C40.8309 22.6302 41.9897 22.9269 43.1664 22.8745C43.7369 22.4556 45.0383 22.4731 45.2701 21.5306C45.8406 21.775 45.7336 20.9197 46.2328 20.815C47.9265 22.5953 50.6899 23.8694 53.578 23.4854C53.8276 23.3981 53.8633 23.1189 54.1485 23.0665C54.4516 24.1835 53.9881 25.4227 54.5051 26.435C54.4873 26.5572 54.3268 26.5223 54.2198 26.5397C54.416 28.4771 54.3625 31.6536 54.3446 33.6957C53.7028 34.2716 54.1664 36.6104 53.0432 37.4307ZM55.8065 43.8885C55.1826 43.6441 54.5586 43.3998 54.0772 42.9983C54.5229 42.37 54.7012 41.5148 54.8617 40.6421C57.4646 41.3926 57.6429 37.4656 55.5926 37.2212C55.6283 36.8896 55.5213 36.6802 55.4678 36.4533C55.8422 36.1915 55.9848 35.7377 56.1096 35.2665C57.8033 34.1843 59.0869 35.6504 59.5505 37.0467C59.6396 37.0467 59.6218 36.9245 59.6396 36.8547C60.3171 39.1935 59.4078 43.8012 55.8065 43.8885Z" fill="black"/>
<path fill-rule="evenodd" clip-rule="evenodd" d="M27.3171 17.6735C27.0853 17.6561 27.2279 17.9528 27.0318 17.9702C27.4775 19.4538 27.121 20.7628 26.5148 21.7751C23.9297 22.4208 21.2377 20.9897 19.9719 19.2618C20.168 18.424 20.0075 17.9179 19.7758 17.1499C19.0805 16.8706 18.1356 16.5041 17.4046 17.0626C17.0302 18.2669 18.1712 18.4415 17.9929 19.2618C17.8325 20.0646 16.424 20.6231 15.497 20.8326C14.4629 21.0595 11.7709 20.9373 10.933 20.4486C10.4159 20.1519 9.70282 19.4712 8.91838 19.7679C8.33005 20.0821 8.08045 21.0769 8.22308 21.7402C7.34949 22.0718 5.92324 21.4958 4.94269 21.3038C5.35274 20.4311 5.21011 19.3839 5.40622 18.5811C5.45971 18.3716 5.69147 18.3018 5.78061 18.0749C5.97672 17.6386 5.86975 17.0452 6.01238 16.6088C6.06586 16.4692 6.33329 16.3645 6.38677 16.2074C6.63637 15.614 6.58288 14.7937 6.79682 14.2526C6.88596 14.0432 7.2247 13.7639 7.34949 13.5545C7.86651 12.7342 8.3657 11.687 8.90055 10.7794C10.8795 8.19629 14.6947 7.2538 17.5472 5.4561C18.6704 5.47355 19.5618 4.86268 20.2749 4.46125C22.1647 3.41405 24.4289 3.30932 26.497 2.34939C27.531 2.54137 28.672 2.12249 29.3495 1.9305C29.3851 2.08758 29.2604 2.10504 29.2604 2.22721C30.4548 1.28473 31.7385 2.33193 33.1826 1.6687C35.625 2.26212 38.1923 2.78572 40.6704 3.27442C42.0432 3.53622 43.2733 4.32162 44.5926 4.65324C46.1793 5.05467 47.5877 5.50846 49.1031 5.99715C49.4775 6.11933 49.9054 6.13678 50.2085 6.2415C50.9216 6.48585 51.9735 6.69529 53.2928 6.67784C53.685 7.06181 54.3625 7.14908 54.9151 7.37598C54.933 7.84722 54.3803 7.82977 54.3625 8.2661C54.8616 8.77225 55.4321 9.20859 56.1988 9.43548C56.0561 9.99399 55.5391 10.2034 55.2717 10.6398C55.6461 11.0237 56.3236 11.3554 56.9832 11.1459C57.625 13.1531 57.3398 15.2824 57.839 16.7136C57.5537 20.1519 57.8568 23.66 57.5359 27.3776C57.6963 27.3776 57.7855 27.2903 57.8211 27.1682C57.2863 27.9536 57.3932 30.3447 56.5375 31.3919C56.3057 29.9433 56.5732 28.9659 56.4484 27.43C56.4305 27.1333 56.1988 26.7318 56.1988 26.47C56.2166 25.929 56.6445 25.4752 56.6266 25.004C56.6088 24.236 56.1988 23.4855 56.2166 22.5954C56.2344 21.8449 56.7514 20.4137 55.8778 19.7156C55.343 19.6632 55.1826 19.8377 54.8795 19.5585C54.6121 19.7505 54.3803 19.9774 54.1129 20.1693C54.2377 20.6231 54.1485 20.7453 54.2733 21.426C52.4192 23.6949 49.014 21.9496 47.3916 20.1868C47.1242 19.541 46.9638 18.7731 46.5359 18.5811C46.8568 18.3018 46.7676 17.7084 46.3754 17.3244C46.4467 17.1499 46.5537 17.307 46.6785 17.307C46.8033 17.0626 46.2685 17.0277 46.5537 16.923C46.0367 16.7659 45.2879 16.5041 44.9848 17.0975C45.4305 18.8603 45.0918 20.2217 44.0756 21.1118C43.2555 21.8274 42.4354 21.8798 41.1339 21.7227C40.5456 21.6529 39.4403 20.6755 39.155 19.5934C39.6007 18.2146 38.9589 16.2074 36.8552 16.9928C36.8017 18.0051 37.3544 18.7033 37.283 19.6807C37.0334 22.927 30.0983 22.3336 29.7595 19.5236C29.6704 19.5061 29.6704 19.5585 29.6704 19.6283C29.3851 18.7556 28.5294 17.2721 27.3171 17.6735ZM31.8633 4.89759C31.061 4.09473 30.0983 3.48386 28.8146 3.18715C28.8146 4.33908 30.7223 5.59573 31.8633 4.89759ZM36.8552 3.79802C37.3544 4.75796 38.8341 5.43864 40.2069 5.77026C40.2603 5.47355 40.5634 5.42119 40.4743 4.98485C39.048 4.79287 38.2814 2.78572 36.8552 3.79802ZM26.0869 6.11933C25.5877 5.9797 25.1242 5.24666 24.6963 5.89243C24.6785 5.82262 24.6785 5.70045 24.5894 5.70045C24.4111 7.21889 25.5521 9.2784 27.121 9.26095C27.1388 9.03405 27.4597 9.06896 27.3884 8.77225C26.6396 7.93449 26.1939 7.21889 26.0869 6.11933ZM16.5132 6.53821C16.6202 8.14393 17.3155 9.81946 19.2052 9.03405C18.4743 8.47554 18.0464 8.02175 18.2069 6.74765C17.7612 6.53821 17.0837 6.18914 16.5132 6.53821ZM37.907 7.42834C38.0497 7.79486 38.0853 7.72505 38.1388 8.09157C39.0837 8.73734 41.8827 11.3554 41.7401 9.19113C40.5278 8.91188 39.9751 7.91703 39.0837 7.27126C38.5488 7.14908 38.4597 7.70759 38.1923 7.30616C38.2458 7.30616 38.2992 7.21889 38.1923 7.20144C38.1744 7.35852 37.9783 7.34107 37.907 7.42834ZM43.2555 7.7774C43.933 7.81231 44.1826 8.7897 44.8779 8.47554C45.074 9.15623 45.8762 9.03405 46.2863 8.99915C46.1615 7.81231 43.9151 6.17169 43.2555 7.7774ZM31.7385 8.58026C31.2393 8.21374 30.8114 7.86467 30.0448 8.17883C29.9913 9.45294 31.0075 10.4478 31.9524 10.9888C32.1485 10.7619 32.5407 10.727 32.6121 10.378C32.2911 9.83691 31.6672 9.20859 31.7385 8.58026ZM21.4694 8.73734C21.3446 9.99399 23.8049 13.2927 24.5715 11.5997C24.4111 11.2681 24.001 11.1983 23.7514 10.9539C23.5197 10.0987 23.0918 8.09157 21.4694 8.73734ZM33.0221 8.5279C33.5035 9.17368 33.8779 9.90672 34.7693 10.0987C34.4484 10.8841 35.8746 11.0412 36.1599 10.4303C35.2685 9.59256 34.8762 7.63778 33.2004 8.23119C33.5391 8.2661 33.4143 8.63262 33.0221 8.5279ZM50.0302 8.92933C49.9589 9.10387 49.7628 9.19113 49.8519 9.52275C50.5829 10.0289 52.1874 11.6695 52.8649 10.3605C51.9735 9.83691 51.4921 8.85952 50.0302 8.92933ZM15.9427 11.2157C16.5132 12.5073 16.9232 14.3574 18.8309 13.8861C18.6704 13.3625 18.296 13.0309 17.886 12.7691C18.2069 12.5946 17.5294 11.8266 17.5294 11.3379C17.0659 11.1459 16.3884 10.8492 15.9427 11.2157ZM29.8309 12.4375C29.2069 11.9313 28.5294 11.4601 28.1728 10.6747C27.5132 10.7096 26.7466 10.6398 26.604 11.1285C27.3171 11.9139 28.8146 13.5545 29.8309 12.4375ZM11.3252 11.6172C11.7709 12.9785 12.591 13.9036 14.1064 14.113C14.1064 13.9385 14.1599 13.7814 14.2847 13.7116C13.2328 13.0833 12.9475 10.9888 11.3252 11.6172ZM19.8292 11.7219C19.4905 13.0134 21.1842 13.7465 22.4143 14.0257C22.5926 13.8861 22.6817 13.6592 22.7887 13.4323C21.6299 13.0309 21.5229 11.5124 19.8292 11.7219ZM40.189 13.9036C40.8665 13.9734 40.8665 13.921 41.4727 13.8512C41.027 12.6469 39.5472 12.5422 38.9945 11.4426C38.3527 11.4077 38.0853 11.2506 37.6039 11.5124C37.6039 12.1059 38.2992 12.42 38.6558 12.9087C38.6202 12.6993 38.7271 12.5946 38.9411 12.612C38.9589 12.804 39.2085 12.7167 39.155 12.996C38.1744 13.1356 40.1534 13.2927 40.189 13.9036ZM30.027 12.1408C30.3657 13.188 32.7012 15.6489 33.0756 14.0432C32.309 13.3101 31.4354 10.8492 30.027 12.1408ZM49.1566 11.4775C49.8876 12.7865 50.5294 14.2003 52.3479 14.3399C52.3657 14.113 52.6866 14.1479 52.6153 13.8512C52.0804 13.0134 50.8325 12.4375 50.9216 11.5124C50.4403 11.2157 49.5132 10.8318 49.1566 11.4775ZM47.3738 13.4847C46.2863 13.1356 46.001 11.9313 44.45 12.071C43.933 13.3101 46.1615 14.3923 47.4095 14.0606C47.3916 13.8861 47.3916 13.6941 47.3738 13.4847ZM7.56343 13.9036C7.52778 14.0257 7.47429 14.1305 7.38515 14.2003C7.38515 16.6438 8.74009 17.1848 10.309 17.6561C10.4694 17.4292 10.8438 17.3942 10.8795 17.0452C10.5586 16.7834 10.3803 16.347 9.66716 16.5216C8.91838 15.7187 9.57802 13.3974 7.56343 13.9036ZM26.3187 13.1705C25.7125 13.0833 25.5521 13.1182 25.0351 13.3276C25.4808 14.7588 27.3706 15.9805 28.779 15.3871C28.3333 14.0955 26.6753 14.3399 26.3187 13.1705ZM34.3949 14.7413C35.1437 15.5093 35.7676 16.8008 36.9443 16.2772C36.7304 15.0555 35.2863 13.2578 34.3949 14.7413ZM23.0561 15.3522C22.3787 15.2126 21.5407 14.689 21.2733 15.4395C21.8438 16.4343 23.0205 18.1098 24.518 17.1324C23.8049 16.6263 23.1453 16.3121 23.0561 15.3522ZM55.6996 13.9036C53.2571 13.729 55.3608 16.19 56.6801 15.8933C56.7158 14.9508 56.377 14.305 55.6996 13.9036ZM30.5796 15.7885C31.0075 16.8008 32.8616 17.7084 34.0918 16.8881C33.967 16.8706 34.0205 16.7834 34.074 16.6961C32.5586 16.7834 31.7028 14.6192 30.5796 15.7885ZM43.7903 15.0031C43.8082 15.1951 43.8082 15.3871 43.826 15.5791C44.5748 16.0329 45.377 16.8357 46.3398 16.3296C45.9119 16.3645 46.3219 15.9805 46.3219 15.8409C45.4305 15.3697 44.8422 14.2875 43.7903 15.0031ZM13.8211 16.6263C14.2134 17.3593 15.7822 18.2495 16.531 17.3768C15.8001 17.0975 14.6056 15.8758 13.8211 16.6263ZM43.1307 17.7433C42.8098 16.731 41.8471 15.23 40.4565 15.3522C40.1177 16.5565 42.4532 18.4764 43.1307 17.7433ZM49.2458 15.2475C49.1744 15.5791 49.4062 15.614 49.3706 15.9107C50.5116 16.2249 50.6898 17.307 52.0091 17.2372C52.2409 16.923 52.2409 16.8008 52.2766 16.4518C51.3495 16.0503 50.4937 14.6541 49.2458 15.2475ZM13.5359 18.9651C13.6428 18.7207 13.7498 18.4764 13.8924 18.2669C12.8762 18.1098 12.2344 17.5513 11.3787 17.2197C11.343 18.2844 12.7514 18.7556 13.5359 18.9651ZM32.8616 18.0051C32.2911 17.7084 31.4532 17.0452 30.9719 17.9004C31.1145 18.3542 31.2928 18.4589 31.3106 18.8603C31.7206 18.9127 31.6672 19.0872 31.7206 19.3316C32.1129 19.4538 32.309 19.192 32.1307 19.6981C32.8438 19.8726 34.0561 20.5184 34.6088 19.6807C34.1988 19 32.7903 18.8778 32.8616 18.0051ZM39.6898 18.0924C39.9929 19.2967 40.6347 20.117 41.4905 20.7279C41.7936 20.658 42.061 20.5533 42.061 20.2217C41.6866 19.4363 41.5618 18.5811 40.9557 17.848C40.4565 17.848 39.9216 17.848 39.6898 18.0924ZM48.6039 18.4764C49.6736 19.1745 50.2798 20.9373 51.8487 20.2741C51.7952 20.2741 51.7239 20.2043 51.8487 20.1693C51.4565 19.2967 50.1372 18.7033 49.8698 18.04C49.531 17.9004 49.2101 17.7259 48.6753 17.7957C48.6396 18.0226 48.5326 18.1622 48.6039 18.4764ZM22.967 19.9948C23.1096 21.0769 25.2312 21.7227 25.6769 20.9373C25.0172 20.3613 23.9119 19.6457 22.967 19.9948Z" fill="#7C3A25"/>
<path fill-rule="evenodd" clip-rule="evenodd" d="M38.1923 7.21875C38.2993 7.2362 38.2458 7.30602 38.1923 7.32347C38.4597 7.70744 38.5489 7.16639 39.0837 7.28856C39.9751 7.91688 40.5278 8.91172 41.7401 9.20843C41.8827 11.3726 39.0659 8.75464 38.1388 8.10887C38.0853 7.7249 38.0497 7.81216 37.907 7.44564C37.9784 7.34092 38.1745 7.35838 38.1923 7.21875Z" fill="black"/>
<path fill-rule="evenodd" clip-rule="evenodd" d="M26.6218 11.1284C26.7466 10.6222 27.531 10.7095 28.1906 10.6746C28.565 11.46 29.2247 11.9312 29.8487 12.4374C28.8146 13.5544 27.3171 11.9138 26.6218 11.1284Z" fill="black"/>
<path fill-rule="evenodd" clip-rule="evenodd" d="M14.2847 13.7115C14.1599 13.7813 14.1064 13.9209 14.1064 14.1129C12.591 13.9209 11.7531 12.9784 11.3252 11.617C12.9476 10.9886 13.2328 13.0831 14.2847 13.7115Z" fill="black"/>
<path fill-rule="evenodd" clip-rule="evenodd" d="M39.155 12.9958C39.2085 12.734 38.9589 12.8038 38.9411 12.6118C38.7271 12.6118 38.638 12.6991 38.6558 12.9086C38.2992 12.4024 37.6039 12.1057 37.6039 11.5123C38.0853 11.2679 38.3349 11.425 38.9945 11.4425C39.5472 12.542 41.027 12.6468 41.4727 13.8511C40.8665 13.9383 40.8665 13.9732 40.189 13.9034C40.1534 13.2925 38.1744 13.1355 39.155 12.9958Z" fill="black"/>
<path fill-rule="evenodd" clip-rule="evenodd" d="M6.9216 40.2581C6.7968 41.0435 7.40296 41.951 6.63635 42.7888C4.49697 43.1204 4.01561 41.6718 2.80329 41.026C1.66229 40.0835 1.30572 37.5528 2.19713 36.6103C2.07234 35.9471 2.37541 35.6503 2.83895 35.5107C3.28465 34.1319 4.74656 33.2243 6.31544 33.6083C6.51155 34.1668 6.51155 34.4112 6.4759 34.9522C5.35272 35.1966 3.87298 35.5631 4.19389 36.8023C3.53425 36.8895 4.12258 37.4131 3.73036 37.6051C3.74818 37.7099 3.83733 37.6575 3.83733 37.6051C3.15985 39.0363 5.13878 41.1482 6.9216 40.2581Z" fill="white"/>
<path fill-rule="evenodd" clip-rule="evenodd" d="M28.8146 3.18701C30.0983 3.46626 31.061 4.09458 31.8633 4.89742C30.7223 5.59555 28.8146 4.33892 28.8146 3.18701Z" fill="black"/>
<path fill-rule="evenodd" clip-rule="evenodd" d="M18.2069 6.7651C18.0464 8.03915 18.4565 8.47547 19.2052 9.05141C17.3333 9.81933 16.6202 8.14387 16.5132 6.53821C17.0837 6.18916 17.7612 6.53821 18.2069 6.7651Z" fill="black"/>
<path fill-rule="evenodd" clip-rule="evenodd" d="M27.3884 8.77212C27.4419 9.06883 27.1388 9.03392 27.121 9.26082C25.5343 9.27827 24.3933 7.21877 24.5894 5.70032C24.6785 5.70032 24.6785 5.8225 24.6963 5.89231C25.1242 5.24653 25.5878 5.97958 26.0869 6.1192C26.1939 7.21877 26.6396 7.93436 27.3884 8.77212Z" fill="black"/>
<path fill-rule="evenodd" clip-rule="evenodd" d="M46.2863 8.99906C45.8762 9.03397 45.074 9.15615 44.8779 8.47542C44.2004 8.78961 43.933 7.81216 43.2555 7.77725C43.9151 6.17144 46.1615 7.81216 46.2863 8.99906Z" fill="black"/>
<path fill-rule="evenodd" clip-rule="evenodd" d="M22.7709 13.4323C22.6818 13.6592 22.5926 13.8861 22.3965 14.0258C21.1664 13.7465 19.4905 13.0134 19.8114 11.7219C21.5229 11.5124 21.6299 13.0309 22.7709 13.4323Z" fill="black"/>
<path fill-rule="evenodd" clip-rule="evenodd" d="M17.5294 11.3377C17.5294 11.8264 18.2247 12.5944 17.886 12.7689C18.296 13.0482 18.6526 13.3623 18.8309 13.8859C16.9232 14.3571 16.5132 12.5071 15.9427 11.2156C16.3884 10.849 17.0659 11.1458 17.5294 11.3377Z" fill="black"/>
<path fill-rule="evenodd" clip-rule="evenodd" d="M33.0756 14.0257C32.7012 15.6314 30.3479 13.1705 30.027 12.1233C31.4354 10.8492 32.309 13.3101 33.0756 14.0257Z" fill="black"/>
<path fill-rule="evenodd" clip-rule="evenodd" d="M28.7968 15.387C27.3884 15.9804 25.4808 14.7586 25.0529 13.3274C25.5699 13.118 25.7304 13.0831 26.3366 13.1703C26.6753 14.3398 28.3333 14.0954 28.7968 15.387Z" fill="black"/>
<path fill-rule="evenodd" clip-rule="evenodd" d="M40.4565 15.3522C41.8649 15.2475 42.8098 16.731 43.1307 17.7433C42.4532 18.4763 40.1177 16.5565 40.4565 15.3522Z" fill="black"/>
<path fill-rule="evenodd" clip-rule="evenodd" d="M52.2587 16.4692C52.2231 16.8182 52.2409 16.9404 51.9913 17.2546C50.672 17.3244 50.5116 16.2423 49.3527 15.9281C49.3884 15.6139 49.1566 15.5965 49.2279 15.2648C50.4938 14.654 51.3495 16.0503 52.2587 16.4692Z" fill="black"/>
<path fill-rule="evenodd" clip-rule="evenodd" d="M16.5311 17.3768C15.7823 18.2494 14.2312 17.3593 13.8212 16.6263C14.6056 15.8758 15.8001 17.0975 16.5311 17.3768Z" fill="black"/>
<path fill-rule="evenodd" clip-rule="evenodd" d="M34.6266 19.663C34.0918 20.4834 32.8795 19.855 32.1485 19.6805C32.3268 19.1743 32.1129 19.4361 31.7385 19.314C31.6672 19.0696 31.7385 18.8951 31.3284 18.8427C31.3106 18.4413 31.1323 18.3366 30.9897 17.8828C31.471 17.045 32.309 17.6908 32.8795 17.9875C32.7903 18.8776 34.1988 18.9998 34.6266 19.663Z" fill="black"/>
<path fill-rule="evenodd" clip-rule="evenodd" d="M40.9556 17.8479C41.544 18.5635 41.6866 19.4361 42.061 20.2215C42.061 20.5531 41.7935 20.6578 41.4905 20.7277C40.6347 20.1168 39.9929 19.2965 39.6898 18.0922C39.9216 17.8479 40.4564 17.8479 40.9556 17.8479Z" fill="black"/>
<path fill-rule="evenodd" clip-rule="evenodd" d="M48.6574 17.7956C49.2101 17.7258 49.5132 17.8829 49.8519 18.04C50.1194 18.7032 51.4386 19.2966 51.8309 20.1693C51.7239 20.1867 51.7774 20.274 51.8309 20.274C50.262 20.9372 49.6558 19.1744 48.5861 18.4763C48.5326 18.1621 48.6396 18.0225 48.6574 17.7956Z" fill="black"/>
<path fill-rule="evenodd" clip-rule="evenodd" d="M46.108 28.7389C45.5553 28.9832 45.2522 29.053 44.5391 29.0007C44.1291 28.1978 43.7369 27.36 43.1485 26.7491C42.2036 26.7841 41.6331 26.1383 40.8665 26.5572C40.4208 27.2553 39.7077 27.744 39.2798 28.4596C38.6023 28.5294 38.0318 28.4247 37.5683 27.9535C38.3349 26.4699 39.4046 24.8118 41.5796 24.9689C41.7936 24.9863 42.1145 25.283 42.4889 25.3179C44.3252 25.5274 46.108 26.4001 46.108 28.7389Z" fill="black"/>
<path fill-rule="evenodd" clip-rule="evenodd" d="M41.651 30.7808C43.6299 31.0251 43.7726 32.9101 43.3982 34.4809C43.5051 35.0569 43.5764 36.2612 43.0951 36.6277C43.0594 36.8022 43.1842 36.8022 43.309 36.8197C43.1842 37.0466 42.9881 37.2036 42.8455 37.4131C41.8114 37.3956 41.2231 36.9069 40.5278 36.5404C40.3317 35.9121 39.8503 35.3361 39.8325 34.446C39.8325 33.5035 40.3674 32.5436 40.2961 31.6185C40.8487 31.2171 41.1875 31.0949 41.651 30.7808Z" fill="black"/>
<path fill-rule="evenodd" clip-rule="evenodd" d="M59.5326 37.0468C59.6218 37.0468 59.604 36.9246 59.6218 36.8548C60.3171 39.211 59.39 43.8186 55.7887 43.8884C55.1647 43.6441 54.5407 43.3997 54.0594 42.9983C54.5051 42.37 54.6834 41.5148 54.8438 40.6421C57.4467 41.3926 57.625 37.4656 55.5748 37.2213C55.6104 36.8897 55.5035 36.6802 55.45 36.4533C55.8244 36.1915 55.967 35.7378 56.0918 35.2665C57.7855 34.1844 59.0691 35.633 59.5326 37.0468Z" fill="white"/>
<path d="M53.2749 41.288C53.3462 40.7818 53.3997 40.2931 53.4175 39.787C52.6331 39.9964 51.7239 40.1535 50.779 40.5026C50.5829 40.5724 50.4581 40.7644 50.2976 40.8167C49.1388 41.1833 47.6234 41.2007 46.732 41.3752C46.4467 41.4276 45.9297 41.5498 45.591 41.0611C45.2344 41.1134 45.1274 40.9215 44.7887 40.9738C43.8438 40.171 42.1145 40.5724 40.9021 40.2582C38.4597 40.6073 36.8017 40.4153 34.7514 40.4153C33.3608 40.4153 31.4889 39.8393 30.2231 40.171C30.1517 40.1011 30.0626 40.0837 29.9735 40.0662C28.8859 40.4502 27.638 40.3455 26.5326 39.9964C23.2879 39.9615 20.3284 40.1011 17.4402 39.7695C17.0124 39.9615 16.6914 40.1535 16.1388 40.0139C15.497 40.3804 14.7125 40.6248 14.5164 41.4451C13.4824 41.7069 12.3949 40.5026 11.1112 41.0436C11.0221 41.0262 11.0399 40.904 11.0221 40.7993C10.8973 40.8866 10.6833 40.904 10.612 41.0436C10.2733 40.7818 9.61365 40.4502 9.07881 40.6422C8.6331 40.4851 8.20523 40.3804 7.75952 40.2757C7.83083 40.712 7.9378 41.1658 8.02694 41.6021C10.0594 42.0385 12.0561 42.5272 14.0885 42.7715C14.142 44.2725 14.3203 45.9131 14.3381 47.292C14.3381 47.5014 14.0885 48.2344 14.0885 48.3217C14.1064 48.4962 14.3916 48.6533 14.4986 48.95C14.6769 49.4736 14.4629 50.3463 14.9086 50.5383C14.6055 51.4808 15.283 52.528 15.2295 53.4705C13.625 52.912 12.0383 51.1666 10.8081 50.3812C11.343 51.5331 11.9135 52.6676 12.6623 53.6974C12.8049 53.8021 12.9297 53.9068 13.0545 54.029C13.3041 54.0813 13.215 54.0813 13.4645 54.029C14.1777 54.7271 15.283 55.0413 16.1388 55.6172C16.3349 56.3852 16.6736 56.9961 17.1193 57.5197C17.1906 57.6593 16.6558 57.572 16.9589 57.6767C16.9589 57.8338 16.5845 57.6244 16.7984 57.5197C16.4775 57.3451 16.1566 57.1706 15.8357 56.9786C15.8892 57.0659 15.9605 57.1357 16.014 57.223C16.5132 57.8862 17.0837 58.4971 17.672 59.0905C17.8681 59.2825 18.0642 59.457 18.2603 59.649C18.6169 59.8061 19.0448 59.9108 19.544 59.9806C19.5974 60.0504 19.6331 60.1028 19.6509 60.1551C20.6137 60.225 21.5407 60.6613 22.4321 60.9929C27.2636 61.7434 30.7579 62.267 35.3932 61.2547C35.5002 61.2198 35.5537 61.15 35.5537 61.0104C36.3025 61.2547 36.9621 60.8009 37.8357 60.574C38.2101 60.2948 38.7093 60.2075 39.1728 60.1202C39.5294 60.0679 39.8503 59.9282 40.1712 59.8061C40.1712 59.7886 40.1712 59.7712 40.189 59.7537C41.9897 58.9334 43.5942 58.2178 45.1987 56.9088C45.2701 56.9786 45.3235 57.0833 45.3949 57.2055C45.3949 57.1881 45.4127 57.1706 45.4127 57.1531C45.5731 56.5946 45.591 56.0187 45.6444 55.4602C45.6623 55.2856 45.6979 55.0936 45.7336 54.9191C45.7158 54.9191 45.6979 54.9366 45.6979 54.9366C45.7692 53.9243 46.2684 53.3308 46.3397 52.3185C46.5893 52.4931 46.8924 52.5629 47.1955 52.5629C47.3916 52.3709 47.5877 52.1964 47.7838 52.0044C48.4791 51.3761 49.1923 50.7652 49.7984 50.0496C50.0658 49.7354 50.2976 49.4038 50.4581 49.0373C49.2457 49.8576 47.7838 50.6954 46.4824 51.4459C46.5893 49.0548 46.6428 46.6811 46.4824 44.7089C46.7676 44.7787 46.8389 44.639 46.8924 44.4645C46.4824 43.9933 46.1615 43.33 46.4824 42.6493C49.6023 42.4399 50.9573 41.9512 53.2749 41.288ZM42.9167 57.1357C42.1679 57.6244 41.4548 57.9386 40.6525 58.3225C40.5278 58.3923 40.4921 58.5494 40.3316 58.6367C39.7968 58.9159 38.5666 58.8636 38.4775 59.265C35.3041 60.3995 31.2036 61.0104 27.8697 60.6962C27.3705 60.6438 26.8 60.2948 26.3365 60.6962C26.39 60.2948 24.6428 60.382 24.6428 60.382C24.5002 60.3646 24.4111 60.1377 24.1615 60.0679C23.1809 59.7712 21.6833 60.2773 21.4872 59.0381C20.8989 58.8287 20.6493 59.265 20.0253 59.2825C19.9718 58.8112 19.33 58.9683 18.8843 58.724C19.0804 57.2404 17.8146 56.4026 17.5115 54.8493C18.8487 54.7097 20.1323 55.6696 21.309 55.722C21.5051 55.7394 21.8081 55.5649 21.9508 55.8092C22.5391 55.7569 22.5748 55.8092 23.0918 55.8965C23.2522 55.8616 23.4483 55.8616 23.4127 55.6522C24.1615 55.879 24.8389 56.1059 25.6769 55.9663C27.7806 56.5597 28.9038 56.1059 31.6671 56.0536C32.4338 56.2281 33.6282 56.2107 34.2522 55.8965C35.4467 56.1932 36.873 55.9314 38.2992 55.9838C39.2619 56.0187 40.0999 55.8965 41.0448 55.7394C41.2231 55.7569 41.2944 55.6696 41.2944 55.4951C41.4192 55.8441 41.7222 55.5823 42.1858 55.6522C42.2036 55.3205 42.0788 55.6696 41.8649 55.5649C42.2927 55.146 43.0237 56.0187 43.6477 55.6522C43.8795 56.2805 42.8454 56.3677 42.9167 57.1357ZM44.129 54.8318C43.5229 55.3904 42.0966 54.57 41.7044 55.3903C40.1712 54.6399 38.7449 55.9663 36.8551 55.2333C36.2668 55.4951 35.0545 55.1984 34.8406 55.4776C34.2879 55.3554 33.8957 55.4253 33.4678 55.6347C31.7741 55.1984 30.1696 55.53 28.5294 55.6347C28.3511 55.6521 27.9767 55.6521 27.7984 55.6347C25.9621 55.3729 24.0545 55.0064 22.0577 55.0762C22.0043 55.0936 21.7725 55.2333 21.8438 55.3031C21.8616 55.3031 21.8795 55.3205 21.8973 55.3205C21.8795 55.3205 21.8616 55.3031 21.8438 55.3031C21.4516 55.1635 20.5602 54.8667 20.1145 54.8493C20.0788 54.8493 19.6331 54.954 19.3122 54.8493C19.1874 54.8144 19.1696 54.57 19.0626 54.5351C18.403 54.2384 16.7628 54.7446 17.048 53.3483C17.0302 53.2087 16.9054 53.1738 16.7271 53.1912C16.9945 52.0393 16.0675 50.3289 16.1566 49.0722C17.3867 49.6831 18.403 49.8227 19.5618 50.3463C19.7757 50.3289 19.847 50.2067 19.9718 50.102C20.061 50.1194 20.0253 50.1892 19.9718 50.1892C21.3981 50.4859 22.967 50.7128 24.7498 50.6605C25.3916 50.643 25.9265 50.3638 26.6931 50.259C27.8341 50.102 29.296 50.3812 30.33 50.4161C31.685 50.4685 32.9508 50.8176 33.8065 50.4161C33.8065 50.4859 33.7887 50.5208 33.7709 50.5383C34.3948 50.4685 35.4111 50.8001 35.9281 50.5034C38.3349 50.5383 40.5278 51.1317 43.4516 50.6605C43.7012 50.6256 43.9151 50.7477 44.0934 50.6605C44.5391 50.4336 44.4856 49.91 45.0561 50.0322C45.0739 51.8822 44.2895 53.2959 44.129 54.8318ZM44.9491 49.6831C44.8957 49.6656 44.6461 49.4911 44.6282 49.6831C44.5391 49.6656 44.5569 49.5434 44.5391 49.4387C42.2927 50.7303 39.3154 49.9274 37.1761 49.91C37.1047 50.0496 37.4256 50.1718 37.1761 50.2241C36.9086 50.2765 37.0513 50.0671 37.0869 49.9798C36.3738 50.0671 35.4289 49.8402 34.0918 49.8925C33.2538 49.9274 32.095 49.8053 31.4175 49.9798C30.7401 49.5784 29.3851 49.7354 28.5115 49.7354C28.2976 49.6831 28.3511 49.8925 28.2619 49.9798C28.0837 50.0845 28.1015 49.7878 28.0124 49.7354C27.8697 49.6656 27.0853 49.7005 26.8 49.6482C26.2474 49.5609 25.7303 49.9274 25.1777 49.9623C24.8568 49.9798 24.0188 49.7878 23.5553 49.8053C23.4305 49.8053 23.3235 49.9623 23.3057 49.9623C23.3235 49.9623 22.9313 49.7005 22.8243 49.718C22.236 49.8053 20.4532 49.6133 19.2587 49.2467C19.1696 49.2642 19.1874 49.3864 19.1696 49.4911C18.189 48.6882 17.0124 48.7755 15.8535 48.3043C15.8714 47.0825 15.7644 46.1575 15.7644 44.9008C18.082 44.8659 18.9735 45.4244 21.2733 45.6862C21.3981 45.6339 21.4694 45.5641 21.5229 45.4419C21.6655 45.4943 21.5407 45.5815 21.5229 45.6862C22.2538 45.7037 23.4127 45.407 24.108 45.9306C24.8924 45.4943 26.1939 46.1575 26.7822 45.3721C25.8551 45.3721 23.5553 45.407 22.4143 45.4593C22.0399 45.2325 20.8454 45.1626 20.5602 45.3721C19.8649 45.1801 19.1696 44.4645 18.6169 44.8136C17.7433 44.4645 16.4775 44.6739 15.7109 44.098C15.6218 43.7664 15.8179 43.4173 15.5504 43.1555C16.3527 43.0508 15.7287 41.7243 16.6023 41.5672C16.6201 41.4276 16.2279 41.3229 16.4419 41.2531C16.5132 41.2531 16.5132 41.3578 16.531 41.4102C17.0837 41.288 18.6526 41.1484 19.3657 41.096C21.4516 41.5847 24.0902 41.1309 26.2474 41.3403C26.3543 41.3054 26.4078 41.2356 26.4078 41.096C26.6396 41.637 27.2636 41.2705 28.1015 41.2531C28.672 41.2531 29.1177 41.4451 29.3138 41.4102C29.3673 41.3927 29.4208 41.1658 29.403 41.1658C29.5456 41.1833 29.403 41.3752 29.4921 41.4102C29.706 41.4974 30.6509 41.4451 31.2749 41.4974C32.4159 41.5672 34.2522 41.5847 36.0529 41.6545C36.659 41.672 37.2295 41.9687 37.7466 41.9687C38.8162 41.9861 39.9751 41.672 40.9913 41.6545C41.0269 42.2828 40.8665 43.1555 41.3122 43.8711C41.5974 43.906 41.5083 43.5918 41.7936 43.6267C41.7222 42.8762 41.8114 41.9861 41.2231 41.7243C42.578 41.7592 43.3624 41.672 44.6282 42.0385C44.7352 42.8588 44.8957 43.1555 44.8778 43.7838C44.1825 44.0631 42.7741 43.5918 42.5245 44.098C40.6704 44.4121 39.0837 43.9758 37.4256 44.8136C36.6412 44.6041 36.3916 44.6041 35.4824 44.6565C35.4111 44.7089 35.3576 44.7961 35.3219 44.9008C34.8762 44.7612 33.7709 44.8485 33.4678 44.9881C33.6461 45.2499 34.1274 45.3372 34.1987 44.9881C34.6088 45.4943 35.6963 45.0056 36.3025 45.0754C36.2668 45.0056 36.2133 44.9532 36.2133 44.831C36.2846 44.8834 36.3381 44.9707 36.3738 45.0754C39.155 45.2848 42.5067 44.3947 44.9491 44.5169C45.0205 46.6113 45.1809 48.4264 44.9491 49.6831Z" fill="black"/>
<path d="M42.9168 57.0659C42.168 57.5546 41.4549 57.8687 40.6526 58.2527C40.5278 58.3225 40.4921 58.4796 40.3317 58.5669C39.7968 58.8461 38.5667 58.7938 38.4776 59.1952C35.3041 60.3297 31.2037 60.9406 27.8698 60.6264C27.3706 60.574 26.8001 60.225 26.3366 60.6264C26.39 60.225 24.6429 60.3122 24.6429 60.3122C24.5003 60.2948 24.4111 60.0679 24.1615 59.9981C23.181 59.7014 21.6834 60.2075 21.4873 58.9683C20.899 58.7589 20.6494 59.1952 20.0254 59.2127C19.9719 58.7414 19.3301 58.8985 18.8844 58.6542C19.0805 57.1706 17.8147 56.3328 17.5116 54.7795C18.8487 54.6399 20.1323 55.5998 21.309 55.6522C21.5051 55.6696 21.8082 55.4951 21.9508 55.7394C22.5391 55.6871 22.5748 55.7394 23.0918 55.8267C23.2523 55.7918 23.4484 55.7918 23.4127 55.5823C24.1615 55.8092 24.839 56.0361 25.6769 55.8965C27.7806 56.4899 28.9038 56.0361 31.6672 55.9838C32.4338 56.1583 33.6283 56.1409 34.2523 55.8267C35.4468 56.1234 36.873 55.8616 38.2993 55.914C39.262 55.9489 40.0999 55.8267 41.0448 55.6696C41.2231 55.6871 41.2944 55.5998 41.2944 55.4253C41.4192 55.7743 41.7223 55.5125 42.1858 55.5823C42.2036 55.2507 42.0789 55.5998 41.8649 55.4951C42.2928 55.0762 43.0237 55.9489 43.6477 55.5823C43.8795 56.2107 42.8455 56.2979 42.9168 57.0659Z" fill="#60B4E4"/>
<path d="M44.1291 54.7793C43.523 55.3378 42.0967 54.5175 41.7045 55.3378C40.1713 54.5874 38.745 55.9138 36.8552 55.1808C36.2669 55.4426 35.0546 55.1459 34.8406 55.4251C34.288 55.3029 33.8958 55.3727 33.4679 55.5822C31.7742 55.1459 30.1697 55.4775 28.5295 55.5822C28.3512 55.5996 27.9768 55.5996 27.7985 55.5822C25.9622 55.3204 24.0546 54.9539 22.0578 55.0237C22.0043 55.0411 21.7726 55.1808 21.8439 55.2506C21.8617 55.2506 21.8795 55.268 21.8974 55.268C21.8795 55.268 21.8617 55.2506 21.8439 55.2506C21.4517 55.1109 20.5603 54.8142 20.1146 54.7968C20.0789 54.7968 19.6332 54.9015 19.3123 54.7968C19.1875 54.7619 19.1697 54.5175 19.0627 54.4826C18.4031 54.1859 16.7629 54.6921 17.0481 53.2958C17.0303 53.1562 16.9055 53.1213 16.7272 53.1387C16.9946 51.9868 16.0676 50.2764 16.1567 49.0198C17.3868 49.6306 18.4031 49.7703 19.5619 50.2939C19.7758 50.2764 19.8471 50.1542 19.9719 50.0495C20.0611 50.067 20.0254 50.1368 19.9719 50.1368C21.3982 50.4335 22.9671 50.6604 24.7499 50.608C25.3917 50.5906 25.9266 50.3113 26.6932 50.2066C27.8342 50.0495 29.2961 50.3288 30.3301 50.3637C31.6851 50.416 32.9509 50.7651 33.8066 50.3637C33.8066 50.4335 33.7888 50.4684 33.771 50.4858C34.3949 50.416 35.4111 50.7476 35.9282 50.4509C38.335 50.4858 40.5278 51.0793 43.4517 50.608C43.7013 50.5731 43.9152 50.6953 44.0935 50.608C44.5392 50.3811 44.4857 49.8575 45.0562 49.9797C45.074 51.8297 44.2896 53.2435 44.1291 54.7793Z" fill="#60B4E4"/>
<path d="M44.9492 49.6306C44.8957 49.6132 44.6461 49.4387 44.6283 49.6306C44.5391 49.6132 44.5569 49.491 44.5391 49.3863C42.2928 50.6779 39.3155 49.875 37.1761 49.8575C37.1048 49.9972 37.4257 50.1193 37.1761 50.1717C36.9087 50.2241 37.0513 50.0146 37.0869 49.9274C36.3738 50.0146 35.4289 49.7877 34.0918 49.8401C33.2539 49.875 32.095 49.7528 31.4176 49.9274C30.7401 49.5259 29.3852 49.683 28.5116 49.683C28.2976 49.6306 28.3511 49.8401 28.262 49.9274C28.0837 50.0321 28.1015 49.7354 28.0124 49.683C27.8698 49.6132 27.0853 49.6481 26.8001 49.5957C26.2474 49.5085 25.7304 49.875 25.1777 49.9099C24.8568 49.9274 24.0189 49.7354 23.5553 49.7528C23.4305 49.7528 23.3236 49.9099 23.3057 49.9099C23.3236 49.9099 22.9313 49.6481 22.8244 49.6656C22.236 49.7528 20.4532 49.5608 19.2587 49.1943C19.1696 49.2118 19.1874 49.3339 19.1696 49.4387C18.189 48.6358 17.0124 48.7231 15.8536 48.2518C15.8714 47.0301 15.7644 46.105 15.7644 44.8483C18.0821 44.8134 18.9735 45.372 21.2733 45.6338C21.3981 45.5814 21.4694 45.5116 21.5229 45.3894C21.6655 45.4418 21.5407 45.529 21.5229 45.6338C22.2539 45.6512 23.4127 45.3545 24.108 45.8781C24.8925 45.4418 26.1939 46.105 26.7822 45.3196C25.8552 45.3196 23.5553 45.3545 22.4143 45.4069C22.0399 45.18 20.8454 45.1102 20.5602 45.3196C19.8649 45.1276 19.1696 44.412 18.6169 44.7611C17.7433 44.412 16.4775 44.6215 15.7109 44.0455C15.6218 43.7139 15.8179 43.3648 15.5505 43.103C16.3527 42.9983 15.7288 41.6718 16.6023 41.5147C16.6202 41.3751 16.2279 41.2704 16.4419 41.2005C16.5132 41.2005 16.5132 41.3053 16.531 41.3576C17.0837 41.2354 18.6526 41.0958 19.3657 41.0435C21.4516 41.5322 24.0902 41.0784 26.2474 41.2878C26.3544 41.2529 26.4078 41.1831 26.4078 41.0435C26.6396 41.5845 27.2636 41.218 28.1015 41.2005C28.672 41.2005 29.1177 41.3925 29.3138 41.3576C29.3673 41.3402 29.4208 41.1133 29.403 41.1133C29.5456 41.1307 29.403 41.3227 29.4921 41.3576C29.7061 41.4449 30.651 41.3925 31.2749 41.4449C32.4159 41.5147 34.2523 41.5322 36.0529 41.602C36.6591 41.6194 37.2296 41.9161 37.7466 41.9161C38.8163 41.9336 39.9751 41.6194 40.9913 41.602C41.027 42.2303 40.8665 43.103 41.3122 43.8186C41.5975 43.8535 41.5083 43.5393 41.7936 43.5742C41.7223 42.8237 41.8114 41.9336 41.2231 41.6718C42.578 41.7067 43.3625 41.6194 44.6283 41.986C44.7352 42.8063 44.8957 43.103 44.8779 43.7313C44.1826 44.0106 42.7741 43.5393 42.5245 44.0455C40.6704 44.3596 39.0837 43.9233 37.4257 44.7611C36.6412 44.5516 36.3916 44.5516 35.4824 44.604C35.4111 44.6564 35.3576 44.7436 35.3219 44.8483C34.8762 44.7087 33.7709 44.796 33.4678 44.9356C33.6461 45.1974 34.1275 45.2847 34.1988 44.9356C34.6088 45.4418 35.6963 44.9531 36.3025 45.0229C36.2668 44.9531 36.2134 44.9007 36.2134 44.7785C36.2847 44.8309 36.3382 44.9182 36.3738 45.0229C39.155 45.2323 42.5067 44.3422 44.9492 44.4644C45.0205 46.5588 45.1809 48.374 44.9492 49.6306Z" fill="#60B4E4"/>
</svg>
